<svg width="55" height="55" viewBox="0 0 55 55" fill="none" xmlns="http://www.w3.org/2000/svg">
<path d="M36.875 29.5C37.9796 29.5 38.875 28.6046 38.875 27.5C38.875 26.3954 37.9796 25.5 36.875 25.5V29.5ZM18.125 27.5L16.7108 26.0858C15.9297 26.8668 15.9297 28.1332 16.7108 28.9142L18.125 27.5ZM24.5233 36.7267C25.3043 37.5078 26.5707 37.5078 27.3517 36.7267C28.1328 35.9457 28.1328 34.6793 27.3517 33.8983L24.5233 36.7267ZM27.3517 21.1017C28.1328 20.3207 28.1328 19.0543 27.3517 18.2733C26.5707 17.4922 25.3043 17.4922 24.5233 18.2733L27.3517 21.1017ZM27.5 0.5C22.1599 0.5 16.9397 2.08352 12.4996 5.05032L14.7219 8.37619C18.5042 5.84892 22.951 4.5 27.5 4.5V0.5ZM12.4996 5.05032C8.05946 8.01713 4.59883 12.2341 2.55527 17.1677L6.25079 18.6984C7.99161 14.4957 10.9396 10.9035 14.7219 8.37619L12.4996 5.05032ZM2.55527 17.1677C0.511706 22.1013 -0.0229955 27.53 1.01881 32.7675L4.94195 31.9871C4.05449 27.5256 4.50997 22.9011 6.25079 18.6984L2.55527 17.1677ZM1.01881 32.7675C2.06061 38.005 4.63212 42.8158 8.40813 46.5918L11.2366 43.7634C8.01993 40.5468 5.8294 36.4487 4.94195 31.9871L1.01881 32.7675ZM8.40813 46.5918C12.1841 50.3678 16.9951 52.9394 22.2326 53.9812L23.0129 50.0581C18.5514 49.1706 14.4532 46.98 11.2366 43.7634L8.40813 46.5918ZM22.2326 53.9812C27.4701 55.023 32.8989 54.4882 37.8325 52.4447L36.3017 48.7491C32.099 50.49 27.4745 50.9455 23.0129 50.0581L22.2326 53.9812ZM37.8325 52.4447C42.7661 50.4011 46.9829 46.9404 49.9497 42.5003L46.6238 40.278C44.0965 44.0603 40.5044 47.0083 36.3017 48.7491L37.8325 52.4447ZM49.9497 42.5003C52.9165 38.0602 54.5 32.8401 54.5 27.5H50.5C50.5 32.0489 49.1511 36.4957 46.6238 40.278L49.9497 42.5003ZM54.5 27.5C54.5 20.3391 51.6553 13.4716 46.5919 8.40817L43.7634 11.2366C48.0768 15.5499 50.5 21.4 50.5 27.5H54.5ZM46.5919 8.40817C41.5284 3.3447 34.6609 0.5 27.5 0.5V4.5C33.6 4.5 39.4501 6.92325 43.7634 11.2366L46.5919 8.40817ZM36.875 25.5H18.125V29.5H36.875V25.5ZM27.3517 33.8983L19.5392 26.0858L16.7108 28.9142L24.5233 36.7267L27.3517 33.8983ZM19.5392 28.9142L27.3517 21.1017L24.5233 18.2733L16.7108 26.0858L19.5392 28.9142Z" fill="#646C59"/>
</svg>
