<svg width="55" height="55" viewBox="0 0 55 55" fill="none" xmlns="http://www.w3.org/2000/svg">
<path d="M2.5 27.5H0.5H2.5ZM9.82233 45.1776L11.2365 43.7634L9.82233 45.1776ZM18.125 25.5C17.0204 25.5 16.125 26.3954 16.125 27.5C16.125 28.6046 17.0204 29.5 18.125 29.5V25.5ZM36.875 27.5L38.2892 28.9142C39.0703 28.1332 39.0703 26.8668 38.2892 26.0858L36.875 27.5ZM30.4767 18.2733C29.6957 17.4922 28.4293 17.4922 27.6483 18.2733C26.8672 19.0543 26.8672 20.3207 27.6483 21.1017L30.4767 18.2733ZM27.6483 33.8983C26.8672 34.6793 26.8672 35.9457 27.6483 36.7267C28.4293 37.5078 29.6957 37.5078 30.4767 36.7267L27.6483 33.8983ZM27.5 54.5C32.8401 54.5 38.0602 52.9165 42.5004 49.9497L40.2781 46.6238C36.4958 49.1511 32.049 50.5 27.5 50.5V54.5ZM42.5004 49.9497C46.9405 46.9829 50.4012 42.7659 52.4447 37.8323L48.7492 36.3016C47.0084 40.5043 44.0604 44.0965 40.2781 46.6238L42.5004 49.9497ZM52.4447 37.8323C54.4883 32.8987 55.023 27.47 53.9812 22.2325L50.058 23.0129C50.9455 27.4744 50.49 32.0989 48.7492 36.3016L52.4447 37.8323ZM53.9812 22.2325C52.9394 16.995 50.3679 12.1842 46.5919 8.40818L43.7634 11.2366C46.9801 14.4532 49.1706 18.5513 50.058 23.0129L53.9812 22.2325ZM46.5919 8.40818C42.8159 4.63218 38.0049 2.06059 32.7674 1.01879L31.9871 4.94193C36.4486 5.82938 40.5468 8.01999 43.7634 11.2366L46.5919 8.40818ZM32.7674 1.01879C27.5299 -0.0230191 22.1011 0.511771 17.1675 2.55533L18.6983 6.25084C22.901 4.51002 27.5255 4.05447 31.9871 4.94193L32.7674 1.01879ZM17.1675 2.55533C12.2339 4.59889 8.01711 8.05959 5.05032 12.4997L8.3762 14.722C10.9035 10.9397 14.4956 7.99166 18.6983 6.25084L17.1675 2.55533ZM5.05032 12.4997C2.08353 16.9398 0.5 22.1599 0.5 27.5H4.5C4.5 22.951 5.84892 18.5043 8.3762 14.722L5.05032 12.4997ZM0.5 27.5C0.5 34.6608 3.34464 41.5283 8.40811 46.5918L11.2365 43.7634C6.9232 39.4501 4.5 33.6 4.5 27.5H0.5ZM8.40811 46.5918C10.9153 49.099 13.8918 51.0878 17.1675 52.4447L18.6983 48.7492C15.9078 47.5933 13.3723 45.8991 11.2365 43.7634L8.40811 46.5918ZM17.1675 52.4447C20.4433 53.8015 23.9543 54.5 27.5 54.5V50.5C24.4796 50.5 21.4888 49.905 18.6983 48.7492L17.1675 52.4447ZM18.125 29.5H36.875V25.5H18.125V29.5ZM27.6483 21.1017L35.4608 28.9142L38.2892 26.0858L30.4767 18.2733L27.6483 21.1017ZM35.4608 26.0858L27.6483 33.8983L30.4767 36.7267L38.2892 28.9142L35.4608 26.0858Z" fill="#646C59"/>
</svg>
