<svg width="415" height="92" fill="none" xmlns="http://www.w3.org/2000/svg"><path d="M0 20C0 8.954 8.954 0 20 0h302.806a20 20 0 019.328 2.308l49.312 26c14.229 7.503 14.229 27.881 0 35.383l-49.312 26A20.001 20.001 0 01322.806 92H20C8.954 92 0 83.046 0 72V20z" fill="#333"/><path d="M70.695 33.344c0-1.167.175-2.146.524-2.938a5.43 5.43 0 011.062-1.57 4.5 4.5 0 011.485-1.031c.713-.302 1.536-.453 2.468-.453 1.688 0 3.037.523 4.047 1.57 1.016 1.047 1.524 2.502 1.524 4.367 0 1.849-.503 3.297-1.508 4.344-1.005 1.041-2.35 1.562-4.031 1.562-1.704 0-3.058-.518-4.063-1.554-1.005-1.042-1.508-2.474-1.508-4.297zm2.383-.078c0 1.297.3 2.28.899 2.953.599.666 1.359 1 2.28 1 .923 0 1.678-.331 2.266-.992.594-.667.891-1.664.891-2.993 0-1.312-.289-2.291-.867-2.937-.573-.646-1.336-.969-2.29-.969-.952 0-1.72.328-2.304.985-.583.65-.875 1.635-.875 2.953zM91.148 39h-2.195v-4.234c0-.896-.047-1.474-.14-1.735a1.21 1.21 0 00-.461-.617 1.288 1.288 0 00-.758-.219c-.38 0-.722.105-1.024.313-.302.208-.51.484-.625.828-.11.344-.164.98-.164 1.906V39h-2.195v-8.297h2.039v1.219c.724-.938 1.635-1.406 2.734-1.406.485 0 .928.088 1.329.265.4.172.703.393.906.664.208.271.351.578.43.922.083.344.124.836.124 1.477V39zm7.04-2.64l2.187.367c-.281.802-.727 1.414-1.336 1.836-.604.416-1.362.624-2.273.624-1.443 0-2.51-.47-3.204-1.414-.546-.755-.82-1.708-.82-2.859 0-1.375.36-2.45 1.078-3.227.72-.78 1.628-1.171 2.727-1.171 1.234 0 2.208.409 2.922 1.226.713.813 1.054 2.06 1.023 3.742h-5.5c.016.651.193 1.16.531 1.524.339.36.76.539 1.266.539.344 0 .633-.094.867-.281.235-.188.412-.49.531-.907zm.124-2.22c-.015-.635-.18-1.117-.492-1.445a1.505 1.505 0 00-1.14-.5c-.48 0-.875.175-1.188.524-.312.349-.466.823-.46 1.422h3.28zm7.922.594c0-.729.18-1.434.539-2.117a3.713 3.713 0 011.524-1.562c.661-.36 1.398-.54 2.211-.54 1.255 0 2.284.41 3.086 1.227.802.813 1.203 1.841 1.203 3.086 0 1.255-.406 2.297-1.219 3.125-.807.823-1.825 1.234-3.055 1.234-.76 0-1.487-.171-2.179-.515a3.55 3.55 0 01-1.571-1.508c-.359-.667-.539-1.477-.539-2.43zm2.25.118c0 .823.196 1.453.586 1.89.391.438.873.656 1.446.656s1.052-.218 1.437-.656c.391-.437.586-1.073.586-1.906 0-.813-.195-1.438-.586-1.875a1.837 1.837 0 00-1.437-.656c-.573 0-1.055.218-1.446.656-.39.437-.586 1.068-.586 1.89zm7.078-4.149h1.219v-.625c0-.698.073-1.219.219-1.562.151-.344.424-.623.82-.836.401-.22.907-.328 1.516-.328.625 0 1.237.093 1.836.28l-.297 1.532a4.334 4.334 0 00-1.008-.125c-.318 0-.547.076-.687.227-.136.146-.203.43-.203.851v.586h1.64v1.727h-1.64V39h-2.196v-6.57h-1.219v-1.727zm14.547 0v1.75h-1.5v3.344c0 .677.013 1.073.039 1.187.032.11.097.2.196.274.104.073.229.11.375.11.203 0 .497-.071.883-.212l.187 1.703c-.51.22-1.088.328-1.734.328-.396 0-.753-.065-1.071-.195-.317-.135-.552-.307-.703-.515-.146-.214-.247-.5-.304-.86-.047-.255-.071-.77-.071-1.547v-3.617h-1.008v-1.75h1.008v-1.648l2.203-1.282v2.93h1.5zm3.711-3.156v4.21c.709-.827 1.555-1.241 2.539-1.241.506 0 .961.093 1.368.28.406.188.711.428.914.72.208.291.349.614.421.968.079.355.118.904.118 1.649V39h-2.196v-4.383c0-.87-.041-1.422-.125-1.656a1.059 1.059 0 00-.445-.555c-.208-.14-.471-.21-.789-.21-.365 0-.69.088-.977.265-.286.177-.497.445-.632.805-.131.354-.196.88-.196 1.578V39h-2.195V27.547h2.195zm12.399 8.812l2.187.368c-.281.802-.726 1.414-1.336 1.836-.604.416-1.362.624-2.273.624-1.443 0-2.511-.47-3.203-1.414-.547-.755-.821-1.708-.821-2.859 0-1.375.36-2.45 1.079-3.227.718-.78 1.627-1.171 2.726-1.171 1.234 0 2.208.409 2.922 1.226.714.813 1.055 2.06 1.023 3.742h-5.5c.016.651.193 1.16.532 1.524.338.36.76.539 1.265.539.344 0 .633-.094.868-.281.234-.188.411-.49.531-.907zm.125-2.218c-.016-.636-.18-1.118-.492-1.446a1.506 1.506 0 00-1.141-.5c-.479 0-.875.175-1.188.524-.312.349-.466.823-.461 1.422h3.282zm8.265-3.438h2.024v1.133c.724-.88 1.586-1.32 2.586-1.32.531 0 .992.109 1.383.328.39.218.71.55.96.992.365-.443.758-.773 1.18-.992a2.896 2.896 0 011.352-.328c.609 0 1.125.125 1.547.375.421.244.737.606.945 1.086.151.354.226.927.226 1.718V39h-2.195v-4.742c0-.823-.075-1.354-.226-1.594-.203-.312-.516-.469-.938-.469-.307 0-.596.094-.867.282-.271.187-.466.463-.586.828-.12.36-.18.93-.18 1.71V39h-2.195v-4.547c0-.807-.039-1.328-.117-1.562a.99.99 0 00-.367-.524c-.162-.114-.383-.172-.664-.172-.339 0-.644.091-.915.274-.27.182-.466.445-.585.789-.115.344-.172.914-.172 1.71V39h-2.196v-8.297zm13.891 4.031c0-.729.18-1.434.539-2.117a3.705 3.705 0 011.523-1.562c.662-.36 1.399-.54 2.211-.54 1.256 0 2.284.41 3.086 1.227.802.813 1.203 1.841 1.203 3.086 0 1.255-.406 2.297-1.218 3.125-.808.823-1.826 1.234-3.055 1.234-.76 0-1.487-.171-2.18-.515a3.547 3.547 0 01-1.57-1.508c-.359-.667-.539-1.477-.539-2.43zm2.25.118c0 .823.195 1.453.586 1.89a1.86 1.86 0 001.445.656 1.84 1.84 0 001.438-.656c.39-.437.586-1.073.586-1.906 0-.813-.196-1.438-.586-1.875a1.84 1.84 0 00-1.438-.656 1.86 1.86 0 00-1.445.656c-.391.437-.586 1.068-.586 1.89zm7.266 1.78l2.203-.335c.093.427.284.753.57.976.287.22.688.329 1.203.329.568 0 .995-.105 1.281-.313a.697.697 0 00.289-.586.577.577 0 00-.156-.414c-.109-.104-.354-.2-.734-.289-1.771-.39-2.893-.747-3.367-1.07-.657-.448-.985-1.07-.985-1.867 0-.72.284-1.323.852-1.813.568-.49 1.448-.734 2.64-.734 1.136 0 1.98.185 2.532.554.552.37.932.917 1.14 1.64l-2.07.384a1.271 1.271 0 00-.508-.742c-.245-.172-.596-.258-1.054-.258-.579 0-.993.08-1.243.242a.522.522 0 00-.25.445c0 .157.073.29.219.399.198.145.88.351 2.047.617 1.172.266 1.99.591 2.453.976.458.391.688.935.688 1.633 0 .76-.318 1.414-.954 1.961-.635.547-1.575.82-2.82.82-1.13 0-2.026-.229-2.687-.687a3.169 3.169 0 01-1.289-1.867zm13.484-5.929v1.75H190v3.344c0 .677.013 1.073.039 1.187.031.11.096.2.195.274a.64.64 0 00.375.11c.203 0 .498-.071.883-.212l.188 1.703c-.511.22-1.089.328-1.735.328-.396 0-.752-.065-1.07-.195-.318-.135-.552-.307-.703-.515-.146-.214-.248-.5-.305-.86-.047-.255-.07-.77-.07-1.547v-3.617h-1.008v-1.75h1.008v-1.648L190 27.773v2.93h1.5zm10.781 5.656l2.188.368c-.281.802-.727 1.414-1.336 1.836-.604.416-1.362.624-2.274.624-1.442 0-2.51-.47-3.203-1.414-.547-.755-.82-1.708-.82-2.859 0-1.375.359-2.45 1.078-3.227.719-.78 1.628-1.171 2.727-1.171 1.234 0 2.208.409 2.921 1.226.714.813 1.055 2.06 1.024 3.742h-5.5c.016.651.193 1.16.531 1.524.339.36.761.539 1.266.539.344 0 .633-.094.867-.281.234-.188.411-.49.531-.907zm.125-2.218c-.015-.636-.179-1.118-.492-1.446a1.505 1.505 0 00-1.141-.5c-.479 0-.875.175-1.187.524-.313.349-.466.823-.461 1.422h3.281zm3.203 2.492l2.203-.336c.094.427.284.753.571.976.286.22.687.329 1.203.329.568 0 .995-.105 1.281-.313a.697.697 0 00.289-.586.577.577 0 00-.156-.414c-.109-.104-.354-.2-.734-.289-1.771-.39-2.894-.747-3.368-1.07-.656-.448-.984-1.07-.984-1.867 0-.72.284-1.323.852-1.813.567-.49 1.448-.734 2.64-.734 1.136 0 1.979.185 2.532.554.552.37.932.917 1.14 1.64l-2.07.384a1.275 1.275 0 00-.508-.742c-.245-.172-.596-.258-1.055-.258-.578 0-.992.08-1.242.242a.52.52 0 00-.25.445c0 .157.073.29.219.399.198.145.88.351 2.047.617 1.172.266 1.989.591 2.453.976.458.391.687.935.687 1.633 0 .76-.317 1.414-.953 1.961-.635.547-1.575.82-2.82.82-1.13 0-2.026-.229-2.688-.687a3.173 3.173 0 01-1.289-1.867zm8.907 0l2.203-.336c.093.427.284.753.57.976.287.22.688.329 1.203.329.568 0 .995-.105 1.281-.313a.697.697 0 00.289-.586.577.577 0 00-.156-.414c-.109-.104-.354-.2-.734-.289-1.771-.39-2.893-.747-3.367-1.07-.657-.448-.985-1.07-.985-1.867 0-.72.284-1.323.852-1.813.568-.49 1.448-.734 2.64-.734 1.136 0 1.98.185 2.532.554.552.37.932.917 1.14 1.64l-2.07.384a1.271 1.271 0 00-.508-.742c-.245-.172-.596-.258-1.054-.258-.579 0-.993.08-1.243.242a.522.522 0 00-.25.445c0 .157.073.29.219.399.198.145.88.351 2.047.617 1.172.266 1.99.591 2.453.976.458.391.688.935.688 1.633 0 .76-.318 1.414-.954 1.961-.635.547-1.575.82-2.82.82-1.13 0-2.026-.229-2.687-.687a3.169 3.169 0 01-1.289-1.867zM229 36.359l2.188.368c-.282.802-.727 1.414-1.336 1.836-.605.416-1.362.624-2.274.624-1.443 0-2.51-.47-3.203-1.414-.547-.755-.82-1.708-.82-2.859 0-1.375.359-2.45 1.078-3.227.719-.78 1.627-1.171 2.726-1.171 1.235 0 2.209.409 2.922 1.226.714.813 1.055 2.06 1.024 3.742h-5.5c.015.651.192 1.16.531 1.524.338.36.76.539 1.266.539.343 0 .632-.094.867-.281.234-.188.411-.49.531-.907zm.125-2.218c-.016-.636-.18-1.118-.492-1.446a1.506 1.506 0 00-1.141-.5c-.479 0-.875.175-1.187.524-.313.349-.466.823-.461 1.422h3.281zM240.648 39h-2.195v-4.234c0-.896-.047-1.474-.141-1.735a1.208 1.208 0 00-.46-.617 1.29 1.29 0 00-.758-.219c-.38 0-.722.105-1.024.313-.302.208-.51.484-.625.828-.109.344-.164.98-.164 1.906V39h-2.195v-8.297h2.039v1.219c.724-.938 1.635-1.406 2.734-1.406.485 0 .927.088 1.329.265.401.172.703.393.906.664.208.271.351.578.429.922.084.344.125.836.125 1.477V39zm6.04-8.297v1.75h-1.5v3.344c0 .677.013 1.073.039 1.187.031.11.096.2.195.274.104.073.229.11.375.11.203 0 .497-.071.883-.212l.187 1.703c-.51.22-1.088.328-1.734.328-.396 0-.753-.065-1.071-.195-.317-.135-.552-.307-.703-.515-.145-.214-.247-.5-.304-.86-.047-.255-.071-.77-.071-1.547v-3.617h-1.007v-1.75h1.007v-1.648l2.204-1.282v2.93h1.5zm1.523-1.125v-2.031h2.195v2.031h-2.195zm0 9.422v-8.297h2.195V39h-2.195zm6.094-5.766l-1.993-.359c.224-.802.61-1.396 1.157-1.781.547-.386 1.359-.578 2.437-.578.979 0 1.709.117 2.188.351.479.23.815.524 1.008.883.197.354.296 1.008.296 1.96l-.023 2.563c0 .73.034 1.269.102 1.618.072.343.205.713.398 1.109h-2.172a8.482 8.482 0 01-.211-.648 3.477 3.477 0 00-.078-.258 3.96 3.96 0 01-1.203.82 3.446 3.446 0 01-1.367.273c-.854 0-1.529-.231-2.024-.695-.489-.463-.734-1.05-.734-1.758 0-.468.112-.885.336-1.25.224-.37.536-.65.937-.843.407-.198.99-.37 1.75-.516 1.026-.193 1.737-.372 2.133-.54v-.218c0-.422-.104-.721-.312-.898-.209-.183-.602-.274-1.18-.274-.391 0-.695.078-.914.235-.219.15-.396.419-.531.804zm2.937 1.782c-.281.093-.726.205-1.336.336-.609.13-1.008.257-1.195.382-.287.203-.43.461-.43.774 0 .307.115.573.344.797.229.224.521.336.875.336.396 0 .773-.13 1.133-.391.265-.198.44-.44.523-.727.058-.187.086-.544.086-1.07v-.437zM261.57 39V27.547h2.196V39h-2.196zm16.516 0h-2.039v-1.219c-.339.474-.74.828-1.203 1.063a3.085 3.085 0 01-1.391.343c-.953 0-1.771-.382-2.453-1.148-.677-.77-1.016-1.844-1.016-3.219 0-1.406.331-2.474.993-3.203.661-.734 1.497-1.101 2.507-1.101.927 0 1.73.385 2.407 1.156v-4.125h2.195V39zm-5.859-4.328c0 .885.122 1.526.367 1.922.354.573.849.86 1.484.86.505 0 .935-.214 1.289-.642.354-.432.531-1.075.531-1.93 0-.952-.171-1.637-.515-2.054a1.629 1.629 0 00-1.321-.633c-.52 0-.958.209-1.312.625-.349.412-.523 1.029-.523 1.852zm12.835 1.687l2.188.368c-.281.802-.727 1.414-1.336 1.836-.604.416-1.362.624-2.273.624-1.443 0-2.511-.47-3.203-1.414-.547-.755-.821-1.708-.821-2.859 0-1.375.36-2.45 1.078-3.227.719-.78 1.628-1.171 2.727-1.171 1.234 0 2.208.409 2.922 1.226.713.813 1.054 2.06 1.023 3.742h-5.5c.016.651.193 1.16.531 1.524.339.36.761.539 1.266.539.344 0 .633-.094.867-.281.235-.188.412-.49.531-.907zm.126-2.218c-.016-.636-.18-1.118-.493-1.446a1.503 1.503 0 00-1.14-.5c-.479 0-.875.175-1.188.524-.312.349-.466.823-.461 1.422h3.282zM291.445 39l-3.343-8.297h2.304l1.563 4.235.453 1.414c.12-.36.195-.597.226-.711.073-.235.151-.47.235-.703l1.578-4.235h2.258L293.422 39h-1.977zm6.625-9.422v-2.031h2.196v2.031h-2.196zm0 9.422v-8.297h2.196V39h-2.196zm11.688-5.844l-2.164.39c-.073-.431-.24-.757-.5-.976-.255-.218-.589-.328-1-.328-.547 0-.985.19-1.313.57-.323.376-.484 1.006-.484 1.891 0 .984.164 1.68.492 2.086.333.406.779.61 1.336.61.417 0 .758-.118 1.023-.352.266-.24.454-.649.563-1.227l2.156.367c-.224.99-.653 1.738-1.289 2.243-.635.505-1.487.758-2.555.758-1.213 0-2.182-.383-2.906-1.149-.719-.766-1.078-1.825-1.078-3.18 0-1.37.362-2.434 1.086-3.195.724-.766 1.703-1.148 2.937-1.148 1.011 0 1.813.218 2.407.656.599.432 1.028 1.094 1.289 1.984zm6.476 3.203l2.188.368c-.281.802-.727 1.414-1.336 1.836-.604.416-1.362.624-2.274.624-1.442 0-2.51-.47-3.203-1.414-.547-.755-.82-1.708-.82-2.859 0-1.375.359-2.45 1.078-3.227.719-.78 1.628-1.171 2.727-1.171 1.234 0 2.208.409 2.922 1.226.713.813 1.054 2.06 1.023 3.742h-5.5c.016.651.193 1.16.531 1.524.339.36.761.539 1.266.539.344 0 .633-.094.867-.281.235-.188.412-.49.531-.907zm.125-2.218c-.015-.636-.179-1.118-.492-1.446a1.504 1.504 0 00-1.14-.5c-.48 0-.875.175-1.188.524-.312.349-.466.823-.461 1.422h3.281zm3.203 2.492l2.204-.336c.093.427.283.753.57.976.286.22.687.329 1.203.329.568 0 .995-.105 1.281-.313a.697.697 0 00.289-.586.577.577 0 00-.156-.414c-.109-.104-.354-.2-.734-.289-1.771-.39-2.893-.747-3.367-1.07-.657-.448-.985-1.07-.985-1.867 0-.72.284-1.323.852-1.813.567-.49 1.448-.734 2.64-.734 1.136 0 1.98.185 2.532.554.552.37.932.917 1.14 1.64l-2.07.384a1.275 1.275 0 00-.508-.742c-.245-.172-.596-.258-1.055-.258-.578 0-.992.08-1.242.242a.522.522 0 00-.25.445c0 .157.073.29.219.399.198.145.88.351 2.047.617 1.172.266 1.989.591 2.453.976.458.391.687.935.687 1.633 0 .76-.317 1.414-.953 1.961-.635.547-1.575.82-2.82.82-1.13 0-2.026-.229-2.687-.687a3.175 3.175 0 01-1.29-1.867zM70.641 60.734c0-.729.18-1.434.539-2.117a3.707 3.707 0 011.523-1.562c.662-.36 1.399-.54 2.211-.54 1.255 0 2.284.41 3.086 1.227.802.813 1.203 1.841 1.203 3.086 0 1.255-.406 2.297-1.219 3.125-.807.823-1.825 1.234-3.054 1.234-.76 0-1.487-.171-2.18-.515a3.547 3.547 0 01-1.57-1.508c-.36-.667-.54-1.477-.54-2.43zm2.25.118c0 .823.195 1.453.586 1.89.39.438.872.656 1.445.656.573 0 1.052-.218 1.437-.656.391-.437.586-1.073.586-1.906 0-.813-.195-1.438-.586-1.875a1.838 1.838 0 00-1.437-.656c-.573 0-1.055.218-1.445.656-.391.437-.586 1.068-.586 1.89zM88.477 65H86.28v-4.234c0-.896-.047-1.474-.14-1.735a1.21 1.21 0 00-.461-.617 1.287 1.287 0 00-.758-.219c-.38 0-.721.105-1.024.313-.302.208-.51.484-.625.828-.109.344-.164.98-.164 1.906V65h-2.195v-8.297h2.04v1.219c.723-.938 1.635-1.406 2.734-1.406.484 0 .927.088 1.328.265.4.172.703.394.906.664.208.271.351.578.43.922.083.344.125.836.125 1.477V65zm10.492-8.297v1.75h-1.5v3.344c0 .677.013 1.073.039 1.187.031.11.096.2.195.274.104.073.23.11.375.11.203 0 .498-.071.883-.212l.187 1.703c-.51.22-1.088.329-1.734.329a2.8 2.8 0 01-1.07-.196c-.318-.135-.552-.307-.703-.515-.146-.214-.248-.5-.305-.86-.047-.255-.07-.77-.07-1.547v-3.617h-1.008v-1.75h1.008v-1.648l2.203-1.282v2.93h1.5zm3.711-3.156v4.21c.708-.827 1.554-1.241 2.539-1.241.505 0 .961.093 1.367.28.406.188.711.428.914.72.208.291.349.614.422.968.078.355.117.904.117 1.649V65h-2.195v-4.383c0-.87-.042-1.422-.125-1.656a1.065 1.065 0 00-.446-.555c-.208-.14-.471-.21-.789-.21-.364 0-.69.088-.976.265-.287.177-.498.445-.633.805-.13.354-.195.88-.195 1.578V65h-2.196V53.547h2.196zm12.398 8.812l2.188.368c-.282.802-.727 1.414-1.336 1.836-.604.416-1.362.624-2.274.624-1.442 0-2.51-.47-3.203-1.414-.547-.755-.82-1.708-.82-2.859 0-1.375.359-2.45 1.078-3.227.719-.78 1.628-1.171 2.727-1.171 1.234 0 2.208.409 2.921 1.226.714.813 1.055 2.06 1.024 3.742h-5.5c.015.651.193 1.16.531 1.524.339.36.76.539 1.266.539.343 0 .632-.094.867-.281.234-.188.411-.49.531-.907zm.125-2.218c-.015-.636-.18-1.118-.492-1.446a1.506 1.506 0 00-1.141-.5c-.479 0-.875.175-1.187.524-.313.349-.466.823-.461 1.422h3.281zM123.539 65V53.547h2.195v4.125c.677-.771 1.48-1.156 2.407-1.156 1.01 0 1.846.367 2.507 1.101.662.73.993 1.779.993 3.149 0 1.416-.339 2.507-1.016 3.273-.672.766-1.49 1.148-2.453 1.148-.474 0-.943-.117-1.406-.351a3.393 3.393 0 01-1.188-1.055V65h-2.039zm2.18-4.328c0 .86.135 1.495.406 1.906.38.583.885.875 1.516.875.484 0 .895-.206 1.234-.617.344-.417.516-1.07.516-1.961 0-.948-.172-1.63-.516-2.047a1.628 1.628 0 00-1.32-.633c-.526 0-.964.206-1.313.617-.349.407-.523 1.027-.523 1.86zm9.336-1.438l-1.993-.359c.224-.802.61-1.396 1.157-1.781.547-.386 1.359-.578 2.437-.578.979 0 1.709.117 2.188.351.479.23.815.524 1.008.883.197.354.296 1.008.296 1.96l-.023 2.563c0 .73.034 1.269.102 1.618.072.343.205.713.398 1.109h-2.172a8.482 8.482 0 01-.211-.648 3.477 3.477 0 00-.078-.258 3.96 3.96 0 01-1.203.82 3.446 3.446 0 01-1.367.273c-.854 0-1.529-.231-2.024-.695-.489-.463-.734-1.05-.734-1.758 0-.468.112-.885.336-1.25.224-.37.536-.65.937-.843.407-.198.99-.37 1.75-.516 1.026-.193 1.737-.372 2.133-.54v-.218c0-.422-.104-.721-.312-.898-.209-.183-.602-.274-1.18-.274-.391 0-.695.078-.914.235-.219.15-.396.419-.531.804zm2.937 1.782c-.281.093-.726.205-1.336.336-.609.13-1.008.257-1.195.382-.287.203-.43.461-.43.774 0 .307.115.573.344.797.229.224.521.336.875.336.396 0 .773-.13 1.133-.391.265-.198.44-.44.523-.727.058-.187.086-.544.086-1.07v-.437zm8.133-4.313v1.75h-1.5v3.344c0 .677.013 1.073.039 1.187.031.11.096.2.195.274a.64.64 0 00.375.11c.204 0 .498-.071.883-.212l.188 1.703c-.511.22-1.089.329-1.735.329-.396 0-.752-.066-1.07-.196-.318-.135-.552-.307-.703-.515-.146-.214-.248-.5-.305-.86-.047-.255-.07-.77-.07-1.547v-3.617h-1.008v-1.75h1.008v-1.648l2.203-1.282v2.93h1.5zm5.328 0v1.75h-1.5v3.344c0 .677.013 1.073.039 1.187.031.11.097.2.196.274.104.073.229.11.374.11.204 0 .498-.071.883-.212l.188 1.703c-.511.22-1.089.329-1.735.329-.395 0-.752-.066-1.07-.196-.318-.135-.552-.307-.703-.515-.146-.214-.247-.5-.305-.86-.047-.255-.07-.77-.07-1.547v-3.617h-1.008v-1.75h1.008v-1.648l2.203-1.282v2.93h1.5zM152.977 65V53.547h2.195V65h-2.195zm9.257-2.64l2.188.367c-.281.802-.727 1.414-1.336 1.836-.604.416-1.362.624-2.274.624-1.442 0-2.51-.47-3.203-1.414-.547-.755-.82-1.708-.82-2.859 0-1.375.359-2.45 1.078-3.227.719-.78 1.628-1.171 2.727-1.171 1.234 0 2.208.409 2.922 1.226.713.813 1.054 2.06 1.023 3.742h-5.5c.016.651.193 1.16.531 1.524.339.36.761.539 1.266.539.344 0 .633-.094.867-.281.235-.188.412-.49.531-.907zm.125-2.22c-.015-.635-.179-1.117-.492-1.445a1.504 1.504 0 00-1.14-.5c-.48 0-.875.175-1.188.524-.312.349-.466.823-.461 1.422h3.281zm3.016-3.437h1.219v-.625c0-.698.073-1.219.218-1.562.152-.344.425-.623.821-.836.401-.22.906-.328 1.515-.328.625 0 1.237.093 1.836.28l-.296 1.532a4.334 4.334 0 00-1.008-.125c-.318 0-.547.076-.688.227-.135.145-.203.43-.203.851v.586h1.641v1.727h-1.641V65h-2.195v-6.57h-1.219v-1.727zm6.289-1.125v-2.031h2.195v2.031h-2.195zm0 9.422v-8.297h2.195V65h-2.195zm9.258-2.64l2.187.367c-.281.802-.726 1.414-1.336 1.836-.604.416-1.362.624-2.273.624-1.443 0-2.51-.47-3.203-1.414-.547-.755-.82-1.708-.82-2.859 0-1.375.359-2.45 1.078-3.227.718-.78 1.627-1.171 2.726-1.171 1.235 0 2.209.409 2.922 1.226.714.813 1.055 2.06 1.024 3.742h-5.5c.015.651.192 1.16.531 1.524.338.36.76.539 1.265.539.344 0 .633-.094.868-.281.234-.188.411-.49.531-.907zm.125-2.22c-.016-.635-.18-1.117-.492-1.445a1.506 1.506 0 00-1.141-.5c-.479 0-.875.175-1.187.524-.313.349-.467.823-.461 1.422h3.281zm3.976 4.86V53.547h2.196V65h-2.196zm12.063 0h-2.039v-1.219c-.339.474-.74.828-1.203 1.063a3.086 3.086 0 01-1.391.344c-.953 0-1.771-.383-2.453-1.149-.677-.77-1.016-1.844-1.016-3.219 0-1.406.331-2.474.993-3.203.661-.734 1.497-1.101 2.507-1.101.927 0 1.73.385 2.407 1.156v-4.125h2.195V65zm-5.859-4.328c0 .885.122 1.526.367 1.922.354.573.849.86 1.484.86.505 0 .935-.214 1.289-.642.354-.432.531-1.075.531-1.93 0-.952-.171-1.637-.515-2.054a1.629 1.629 0 00-1.321-.633c-.52 0-.958.209-1.312.625-.349.412-.523 1.029-.523 1.852z" fill="#fff"/><path d="M34.2 64v-7.49H18.964v-6.246l16.148-23.639h5.992v23.613h4.622v6.272h-4.621V64h-6.907zm0-13.762v-12.72l-8.557 12.72h8.556z" fill="#6C725F"/></svg>