<svg width="304" height="70" fill="none" xmlns="http://www.w3.org/2000/svg"><path d="M284 1H63.397a19 19 0 00-8.967 2.25l-28.02 15c-13.377 7.16-13.377 26.34 0 33.501l28.02 15a19 19 0 008.967 2.25H284c10.493 0 19-8.507 19-19V20c0-10.494-8.507-19-19-19z" fill="#fff" stroke="#646C59" stroke-width="2" stroke-linejoin="round"/><path d="M81.957 29V18.98h2.024V29h-2.024zm10.548 0h-1.921v-3.705c0-.784-.041-1.29-.123-1.517a1.06 1.06 0 00-.403-.54 1.127 1.127 0 00-.664-.192 1.54 1.54 0 00-.895.274 1.396 1.396 0 00-.547.724c-.096.301-.143.857-.143 1.668V29h-1.921v-7.26h1.784v1.067c.633-.82 1.43-1.23 2.392-1.23.424 0 .812.077 1.163.232.35.15.615.344.792.58.183.238.308.507.376.808.073.3.11.731.11 1.291V29zm8.285-5.113l-1.894.342c-.063-.378-.21-.663-.437-.855-.223-.191-.515-.287-.875-.287-.478 0-.861.166-1.148.5-.283.327-.424.879-.424 1.654 0 .86.143 1.47.43 1.825.292.355.682.533 1.17.533.364 0 .662-.103.895-.308.232-.21.396-.567.492-1.073l1.887.321c-.196.866-.572 1.52-1.128 1.962-.556.442-1.301.663-2.236.663-1.061 0-1.909-.335-2.543-1.005-.628-.67-.943-1.597-.943-2.782 0-1.198.317-2.13.95-2.796.634-.67 1.49-1.005 2.57-1.005.885 0 1.587.192 2.106.575.524.378.9.957 1.128 1.736zM104.092 29h-1.921v-7.26h1.784v1.033c.305-.488.579-.81.82-.964.246-.155.524-.233.834-.233.438 0 .859.121 1.265.363l-.595 1.674c-.323-.21-.624-.314-.902-.314-.269 0-.497.075-.684.226-.186.146-.335.412-.444.8-.105.387-.157 1.198-.157 2.433V29zm7.82-2.31l1.914.321c-.246.702-.636 1.237-1.169 1.606-.528.365-1.192.547-1.989.547-1.262 0-2.197-.412-2.803-1.237-.478-.66-.718-1.495-.718-2.502 0-1.203.315-2.144.944-2.823.629-.684 1.424-1.026 2.386-1.026 1.08 0 1.932.358 2.556 1.074.625.71.923 1.802.896 3.274h-4.813c.014.57.169 1.014.465 1.333a1.46 1.46 0 001.107.472c.301 0 .554-.082.759-.246.205-.164.36-.429.465-.793zm.109-1.942c-.013-.556-.157-.977-.43-1.264a1.318 1.318 0 00-.998-.438c-.419 0-.766.153-1.039.458-.274.305-.408.72-.404 1.244h2.871zm4.916-.793l-1.744-.314c.196-.702.534-1.221 1.012-1.559.479-.337 1.19-.506 2.133-.506.857 0 1.495.103 1.914.308.419.2.713.458.882.773.173.31.26.881.26 1.715l-.021 2.242c0 .639.03 1.11.089 1.415.064.301.18.625.349.971h-1.901a7.201 7.201 0 01-.184-.567 3.169 3.169 0 00-.069-.226 3.459 3.459 0 01-1.053.718 3.01 3.01 0 01-1.196.24c-.747 0-1.337-.203-1.77-.61-.429-.405-.643-.917-.643-1.537 0-.41.098-.775.294-1.094.196-.323.469-.57.82-.738.356-.173.866-.324 1.532-.451.897-.169 1.519-.326 1.866-.472v-.192c0-.369-.091-.63-.274-.786-.182-.16-.526-.239-1.032-.239-.342 0-.608.069-.8.205-.191.132-.346.367-.464.704zm2.57 1.559c-.246.082-.636.18-1.169.294-.533.114-.882.225-1.046.335-.251.178-.376.403-.376.677 0 .268.1.5.301.697.2.196.456.294.765.294.347 0 .677-.114.992-.342.232-.173.385-.385.458-.636.05-.164.075-.476.075-.936v-.383zm3.11 1.415l1.928-.294c.082.374.248.659.499.854.251.192.602.288 1.053.288.496 0 .87-.091 1.121-.274a.612.612 0 00.253-.512.505.505 0 00-.137-.363c-.096-.091-.31-.175-.643-.253-1.549-.342-2.531-.654-2.946-.936-.574-.392-.861-.937-.861-1.634 0-.629.248-1.158.745-1.586.497-.428 1.267-.643 2.31-.643.994 0 1.732.162 2.215.486.483.323.816.802.998 1.435l-1.811.335a1.116 1.116 0 00-.445-.65c-.214-.15-.521-.225-.922-.225-.506 0-.869.07-1.087.212a.455.455 0 00-.219.39c0 .137.064.253.191.348.174.128.771.308 1.791.54 1.026.233 1.741.518 2.147.855.401.342.601.818.601 1.429 0 .665-.278 1.237-.834 1.715-.556.479-1.378.718-2.467.718-.989 0-1.773-.2-2.352-.601a2.778 2.778 0 01-1.128-1.634zm12.674-.24l1.914.322c-.246.702-.636 1.237-1.169 1.606-.529.365-1.192.547-1.989.547-1.262 0-2.197-.412-2.803-1.237-.478-.66-.718-1.495-.718-2.502 0-1.203.315-2.144.944-2.823.629-.684 1.424-1.026 2.385-1.026 1.081 0 1.933.358 2.557 1.074.624.71.923 1.802.896 3.274h-4.813c.014.57.169 1.014.465 1.333a1.46 1.46 0 001.107.472c.301 0 .554-.082.759-.246.205-.164.36-.429.465-.793zm.109-1.94c-.013-.557-.157-.978-.43-1.265a1.318 1.318 0 00-.998-.438c-.42 0-.766.153-1.039.458-.274.305-.408.72-.404 1.244h2.871zm2.803 2.18l1.928-.294c.082.374.248.659.499.854.251.192.601.288 1.053.288.496 0 .87-.091 1.121-.274a.612.612 0 00.253-.512.505.505 0 00-.137-.363c-.096-.091-.31-.175-.643-.253-1.549-.342-2.531-.654-2.946-.936-.574-.392-.861-.937-.861-1.634 0-.629.248-1.158.745-1.586.497-.428 1.267-.643 2.31-.643.994 0 1.732.162 2.215.486.483.323.816.802.998 1.435l-1.811.335a1.116 1.116 0 00-.445-.65c-.214-.15-.521-.225-.922-.225-.506 0-.869.07-1.087.212a.455.455 0 00-.219.39c0 .137.064.253.191.348.173.128.77.308 1.791.54 1.026.233 1.741.518 2.147.855.401.342.601.818.601 1.429 0 .665-.278 1.237-.834 1.715-.556.479-1.378.718-2.467.718-.989 0-1.773-.2-2.352-.601a2.778 2.778 0 01-1.128-1.634zm11.69 0l1.927-.294c.082.374.249.659.499.854.251.192.602.288 1.053.288.497 0 .871-.091 1.121-.274a.61.61 0 00.253-.512.5.5 0 00-.137-.363c-.095-.091-.31-.175-.642-.253-1.55-.342-2.532-.654-2.946-.936-.575-.392-.862-.937-.862-1.634 0-.629.249-1.158.745-1.586.497-.428 1.267-.643 2.311-.643.993 0 1.732.162 2.215.486.483.323.815.802.998 1.435l-1.812.335a1.11 1.11 0 00-.444-.65c-.214-.15-.522-.225-.923-.225-.506 0-.868.07-1.087.212a.455.455 0 00-.219.39c0 .137.064.253.192.348.173.128.77.308 1.791.54 1.025.233 1.741.518 2.146.855.401.342.602.818.602 1.429 0 .665-.278 1.237-.834 1.715-.556.479-1.379.718-2.468.718-.989 0-1.773-.2-2.351-.601a2.77 2.77 0 01-1.128-1.634zM163.141 29v-1.087a2.796 2.796 0 01-1.046.916 2.904 2.904 0 01-1.361.335c-.487 0-.925-.107-1.312-.321a1.898 1.898 0 01-.841-.902c-.173-.388-.26-.923-.26-1.607v-4.593h1.921v3.335c0 1.021.034 1.648.103 1.88.073.228.203.41.389.547.187.132.424.198.711.198.328 0 .622-.088.882-.266.26-.182.438-.406.533-.67.096-.269.144-.923.144-1.962V21.74h1.921V29h-1.784zm5.619 0h-1.921v-7.26h1.784v1.033c.305-.488.579-.81.82-.964.246-.155.524-.233.834-.233.438 0 .859.121 1.265.363l-.595 1.674c-.323-.21-.624-.314-.902-.314-.269 0-.497.075-.684.226-.187.146-.335.412-.444.8-.105.387-.157 1.198-.157 2.433V29zm5.612 0l-2.926-7.26h2.017l1.367 3.706.397 1.237c.104-.315.17-.522.198-.622.064-.205.132-.41.205-.615l1.381-3.706h1.975L176.102 29h-1.73zm5.797-8.244V18.98h1.921v1.777h-1.921zm0 8.244v-7.26h1.921V29h-1.921zm5.893 0l-2.926-7.26h2.016l1.368 3.706.396 1.237c.105-.315.171-.522.198-.622.064-.205.132-.41.205-.615l1.381-3.706h1.976L187.791 29h-1.729zm7.232-5.045l-1.743-.314c.196-.702.533-1.221 1.011-1.559.479-.337 1.19-.506 2.133-.506.857 0 1.495.103 1.914.308.42.2.714.458.882.773.173.31.26.881.26 1.715l-.021 2.242c0 .639.03 1.11.089 1.415.064.301.18.625.349.971h-1.9a6.73 6.73 0 01-.185-.567 4.12 4.12 0 00-.068-.226 3.459 3.459 0 01-1.053.718 3.01 3.01 0 01-1.196.24c-.748 0-1.338-.203-1.771-.61-.428-.405-.642-.917-.642-1.537 0-.41.098-.775.293-1.094.196-.323.47-.57.821-.738.355-.173.866-.324 1.531-.451.898-.169 1.52-.326 1.866-.472v-.192c0-.369-.091-.63-.273-.786-.182-.16-.527-.239-1.032-.239-.342 0-.609.069-.8.205-.192.132-.347.367-.465.704zm2.57 1.559c-.246.082-.635.18-1.169.294-.533.114-.882.225-1.046.335-.25.178-.376.403-.376.677 0 .268.101.5.301.697.201.196.456.294.766.294.346 0 .677-.114.991-.342.232-.173.385-.385.458-.636.05-.164.075-.476.075-.936v-.383zM199.651 29V18.98h1.921V29h-1.921zm9.632 0h-1.921v-7.26h1.784v1.033c.306-.488.579-.81.821-.964.246-.155.524-.233.834-.233.437 0 .859.121 1.264.363l-.594 1.674c-.324-.21-.625-.314-.903-.314a1.05 1.05 0 00-.683.226c-.187.146-.335.412-.445.8-.104.387-.157 1.198-.157 2.433V29zm5.052-5.045l-1.743-.314c.196-.702.533-1.221 1.012-1.559.478-.337 1.189-.506 2.132-.506.857 0 1.495.103 1.914.308.42.2.714.458.882.773.173.31.26.881.26 1.715l-.021 2.242c0 .639.03 1.11.089 1.415.064.301.18.625.349.971h-1.9a6.73 6.73 0 01-.185-.567 4.12 4.12 0 00-.068-.226 3.459 3.459 0 01-1.053.718 3.01 3.01 0 01-1.196.24c-.748 0-1.338-.203-1.771-.61-.428-.405-.642-.917-.642-1.537 0-.41.098-.775.294-1.094a1.89 1.89 0 01.82-.738c.355-.173.866-.324 1.531-.451.898-.169 1.52-.326 1.866-.472v-.192c0-.369-.091-.63-.273-.786-.182-.16-.527-.239-1.032-.239-.342 0-.609.069-.8.205-.192.132-.347.367-.465.704zm2.57 1.559c-.246.082-.635.18-1.169.294-.533.114-.882.225-1.046.335-.25.178-.376.403-.376.677 0 .268.101.5.301.697.201.196.456.294.766.294.346 0 .677-.114.991-.342.232-.173.385-.385.458-.636.05-.164.075-.476.075-.936v-.383zm7.116-3.773v1.53h-1.312v2.927c0 .592.011.938.034 1.039a.445.445 0 00.171.239.558.558 0 00.328.096c.178 0 .435-.062.773-.185l.164 1.49a3.822 3.822 0 01-1.518.287c-.346 0-.658-.057-.936-.17-.278-.12-.483-.27-.616-.452-.127-.187-.216-.437-.266-.752-.041-.223-.062-.674-.062-1.353v-3.165h-.882V21.74h.882v-1.443l1.928-1.121v2.564h1.312zm5.538 4.949l1.914.321c-.246.702-.636 1.237-1.169 1.606-.529.365-1.192.547-1.99.547-1.262 0-2.196-.412-2.802-1.237-.479-.66-.718-1.495-.718-2.502 0-1.203.314-2.144.943-2.823.629-.684 1.424-1.026 2.386-1.026 1.08 0 1.932.358 2.557 1.074.624.71.923 1.802.895 3.274h-4.812c.013.57.168 1.014.465 1.333a1.46 1.46 0 001.107.472c.301 0 .554-.082.759-.246.205-.164.36-.429.465-.793zm.109-1.942c-.014-.556-.157-.977-.431-1.264a1.316 1.316 0 00-.998-.438c-.419 0-.765.153-1.039.458-.273.305-.408.72-.403 1.244h2.871zm6.932.52c0-.638.157-1.256.471-1.853a3.247 3.247 0 011.333-1.367 3.987 3.987 0 011.935-.472c1.098 0 1.998.358 2.7 1.074.702.71 1.053 1.61 1.053 2.7 0 1.098-.356 2.01-1.067 2.734-.706.72-1.597 1.08-2.672 1.08-.666 0-1.302-.15-1.908-.45a3.108 3.108 0 01-1.374-1.32c-.314-.583-.471-1.292-.471-2.126zm1.968.102c0 .72.171 1.272.513 1.655.342.383.763.574 1.265.574.501 0 .92-.192 1.258-.574.341-.383.512-.94.512-1.668 0-.711-.171-1.258-.512-1.64a1.61 1.61 0 00-1.258-.575c-.502 0-.923.191-1.265.574-.342.383-.513.934-.513 1.654zm6.194-3.63h1.066v-.546c0-.611.064-1.067.192-1.368.132-.3.371-.544.717-.731.351-.191.793-.287 1.326-.287.547 0 1.083.082 1.607.246l-.26 1.34a3.791 3.791 0 00-.882-.11c-.278 0-.478.067-.601.199-.119.127-.178.376-.178.745v.512h1.436v1.511h-1.436v5.75h-1.921v-5.75h-1.066v-1.51zM83.358 51l-2.297-7.26h1.867l1.36 4.758 1.251-4.758h1.853l1.21 4.758 1.387-4.758h1.894L89.552 51h-1.846l-1.25-4.669-1.231 4.67h-1.867zm9.099-3.732c0-.638.157-1.256.472-1.853a3.243 3.243 0 011.333-1.367 3.985 3.985 0 011.934-.472c1.099 0 1.999.358 2.7 1.074.702.71 1.053 1.61 1.053 2.7 0 1.098-.355 2.01-1.066 2.734-.707.72-1.597 1.08-2.673 1.08-.665 0-1.301-.15-1.907-.45a3.105 3.105 0 01-1.374-1.32c-.315-.584-.472-1.292-.472-2.126zm1.969.102c0 .72.17 1.272.513 1.655.341.383.763.574 1.264.574s.92-.191 1.258-.574c.342-.383.513-.94.513-1.668 0-.711-.171-1.258-.513-1.64a1.609 1.609 0 00-1.258-.575c-.501 0-.923.191-1.264.574-.342.383-.513.934-.513 1.654zM106.238 51v-1.087a2.788 2.788 0 01-1.046.916 2.897 2.897 0 01-1.36.335c-.488 0-.925-.107-1.312-.321a1.894 1.894 0 01-.841-.902c-.173-.388-.26-.923-.26-1.607V43.74h1.921v3.336c0 1.021.034 1.648.102 1.88.073.228.203.41.39.547.187.132.424.198.711.198.328 0 .622-.089.882-.266.26-.183.437-.406.533-.67.096-.269.144-.923.144-1.962V43.74h1.92V51h-1.784zm10.384 0h-1.921v-3.705c0-.784-.041-1.29-.123-1.517a1.058 1.058 0 00-.403-.54 1.128 1.128 0 00-.663-.192c-.333 0-.631.091-.896.274a1.401 1.401 0 00-.547.724c-.095.301-.143.857-.143 1.668V51h-1.921v-7.26h1.784v1.067c.634-.82 1.431-1.23 2.393-1.23.423 0 .811.077 1.162.232.351.15.615.344.793.58.182.238.307.507.376.807.073.301.109.732.109 1.293V51zm8.613 0h-1.784v-1.066a2.9 2.9 0 01-1.053.93c-.401.2-.806.3-1.216.3-.834 0-1.55-.335-2.147-1.005-.592-.674-.889-1.613-.889-2.816 0-1.23.29-2.165.869-2.803.578-.642 1.31-.964 2.194-.964.811 0 1.513.338 2.105 1.012v-3.61h1.921V51zm-5.127-3.787c0 .775.107 1.335.322 1.682.31.501.743.752 1.299.752.442 0 .818-.187 1.127-.56.31-.38.465-.942.465-1.69 0-.833-.15-1.433-.451-1.797a1.425 1.425 0 00-1.155-.554c-.456 0-.839.182-1.149.547-.305.36-.458.9-.458 1.62zm11.232 1.477l1.914.321c-.246.702-.636 1.237-1.169 1.606-.529.365-1.192.547-1.989.547-1.263 0-2.197-.412-2.803-1.237-.479-.66-.718-1.495-.718-2.502 0-1.203.315-2.144.944-2.823.628-.684 1.424-1.026 2.385-1.026 1.08 0 1.933.358 2.557 1.074.624.71.923 1.802.895 3.274h-4.812c.014.57.169 1.014.465 1.333.296.315.665.472 1.107.472.301 0 .554-.082.759-.246.205-.164.36-.429.465-.793zm.109-1.942c-.013-.556-.157-.977-.43-1.264a1.32 1.32 0 00-.998-.438c-.42 0-.766.153-1.04.458-.273.306-.407.72-.403 1.244h2.871zM141.587 51h-1.784v-1.066a2.9 2.9 0 01-1.053.93c-.401.2-.807.3-1.217.3-.834 0-1.549-.335-2.146-1.005-.593-.674-.889-1.613-.889-2.816 0-1.23.289-2.165.868-2.803.579-.642 1.31-.964 2.195-.964.811 0 1.513.338 2.105 1.012v-3.61h1.921V51zm-5.127-3.787c0 .775.107 1.335.321 1.682.31.501.743.752 1.299.752.442 0 .818-.187 1.128-.56.31-.38.465-.942.465-1.69 0-.833-.151-1.433-.451-1.797a1.425 1.425 0 00-1.156-.554c-.455 0-.838.182-1.148.547-.305.36-.458.9-.458 1.62zm10.247 1.716l1.928-.294c.082.374.248.659.499.855.25.19.601.287 1.053.287.496 0 .87-.092 1.121-.274a.612.612 0 00.253-.513.505.505 0 00-.137-.362c-.096-.091-.31-.175-.643-.253-1.549-.342-2.531-.654-2.946-.936-.574-.392-.861-.937-.861-1.634 0-.629.248-1.158.745-1.586.496-.428 1.267-.643 2.31-.643.994 0 1.732.162 2.215.486.483.323.816.802.998 1.435l-1.811.335a1.116 1.116 0 00-.445-.65c-.214-.15-.521-.225-.923-.225-.505 0-.868.07-1.086.212a.455.455 0 00-.219.39c0 .137.064.253.191.349.173.127.77.307 1.791.54 1.026.232 1.741.517 2.147.854.401.342.601.818.601 1.429 0 .665-.278 1.237-.834 1.715-.556.479-1.378.718-2.467.718-.989 0-1.773-.2-2.352-.601a2.778 2.778 0 01-1.128-1.634zm8.025-1.661c0-.638.158-1.256.472-1.853a3.247 3.247 0 011.333-1.367 3.987 3.987 0 011.935-.472c1.098 0 1.998.358 2.7 1.074.702.71 1.053 1.61 1.053 2.7 0 1.098-.356 2.01-1.067 2.734-.706.72-1.597 1.08-2.673 1.08-.665 0-1.301-.15-1.907-.45a3.108 3.108 0 01-1.374-1.32c-.314-.584-.472-1.292-.472-2.126zm1.969.102c0 .72.171 1.272.513 1.655.342.383.763.574 1.265.574.501 0 .92-.191 1.257-.574.342-.383.513-.94.513-1.668 0-.711-.171-1.258-.513-1.64a1.607 1.607 0 00-1.257-.575c-.502 0-.923.191-1.265.574-.342.383-.513.934-.513 1.654zm7.034 3.63V40.98h1.921V51h-1.921zm10.555 0h-1.784v-1.066a2.9 2.9 0 01-1.053.93c-.401.2-.807.3-1.217.3-.834 0-1.549-.335-2.146-1.005-.593-.674-.889-1.613-.889-2.816 0-1.23.29-2.165.868-2.803.579-.642 1.311-.964 2.195-.964.811 0 1.513.338 2.105 1.012v-3.61h1.921V51zm-5.127-3.787c0 .775.107 1.335.321 1.682.31.501.743.752 1.299.752.442 0 .818-.187 1.128-.56.31-.38.465-.942.465-1.69 0-.833-.15-1.433-.451-1.797a1.425 1.425 0 00-1.155-.554c-.456 0-.839.182-1.149.547-.305.36-.458.9-.458 1.62zm7.027-4.457V40.98h1.921v1.777h-1.921zm0 8.244v-7.26h1.921V51h-1.921zm8.101-2.31l1.914.321c-.246.702-.636 1.237-1.169 1.606-.529.365-1.192.547-1.989.547-1.262 0-2.197-.412-2.803-1.237-.478-.66-.718-1.495-.718-2.502 0-1.203.315-2.144.944-2.823.629-.684 1.424-1.026 2.385-1.026 1.081 0 1.933.358 2.557 1.074.624.71.923 1.802.896 3.274h-4.813c.014.57.169 1.014.465 1.333.296.315.665.472 1.107.472.301 0 .554-.082.759-.246.205-.164.36-.429.465-.793zm.109-1.942c-.013-.556-.157-.977-.43-1.264a1.318 1.318 0 00-.998-.438c-.42 0-.766.153-1.039.458-.274.306-.408.72-.404 1.244h2.871zM189.719 51h-1.921v-7.26h1.784v1.033c.305-.488.579-.81.82-.964.246-.155.524-.233.834-.233.438 0 .859.121 1.265.363l-.595 1.675c-.323-.21-.624-.315-.902-.315-.269 0-.497.075-.684.226-.187.145-.335.412-.444.8-.105.387-.157 1.198-.157 2.433V51zm2.939-2.071l1.928-.294c.082.374.248.659.499.855.251.19.602.287 1.053.287.496 0 .87-.092 1.121-.274a.612.612 0 00.253-.513.505.505 0 00-.137-.362c-.096-.091-.31-.175-.643-.253-1.549-.342-2.531-.654-2.946-.936-.574-.392-.861-.937-.861-1.634 0-.629.248-1.158.745-1.586.497-.428 1.267-.643 2.31-.643.994 0 1.732.162 2.215.486.483.323.816.802.998 1.435l-1.811.335a1.12 1.12 0 00-.444-.65c-.215-.15-.522-.225-.923-.225-.506 0-.869.07-1.087.212a.455.455 0 00-.219.39c0 .137.064.253.191.349.174.127.771.307 1.791.54 1.026.232 1.741.517 2.147.854.401.342.601.818.601 1.429 0 .665-.278 1.237-.834 1.715-.556.479-1.378.718-2.467.718-.989 0-1.773-.2-2.352-.601a2.778 2.778 0 01-1.128-1.634zM204.942 51V40.98h1.921v3.61c.593-.675 1.295-1.013 2.106-1.013.884 0 1.615.322 2.194.964.579.638.868 1.557.868 2.755 0 1.24-.296 2.194-.888 2.864-.588.67-1.304 1.005-2.147 1.005-.415 0-.825-.102-1.23-.307a2.97 2.97 0 01-1.039-.923V51h-1.785zm1.908-3.787c0 .752.118 1.308.355 1.668.333.51.775.766 1.326.766.424 0 .784-.18 1.08-.54.301-.365.451-.937.451-1.716 0-.83-.15-1.427-.451-1.791-.3-.37-.686-.554-1.155-.554-.46 0-.843.18-1.148.54-.306.356-.458.898-.458 1.627zm5.824-3.473h2.044l1.736 5.155 1.695-5.155h1.99l-2.564 6.987-.458 1.265c-.168.423-.33.747-.485.97a1.988 1.988 0 01-.527.54c-.195.142-.439.25-.731.328a3.759 3.759 0 01-.978.117 5.11 5.11 0 01-1.086-.117l-.171-1.504c.3.06.572.09.813.09.447 0 .777-.133.991-.397.215-.26.379-.593.493-.998l-2.762-7.28zm12.216 4.683l1.914-.198c.054.433.216.777.485 1.032a1.327 1.327 0 001.948-.109c.278-.328.417-.82.417-1.477 0-.615-.139-1.075-.417-1.38-.273-.31-.631-.466-1.073-.466-.551 0-1.046.244-1.483.732l-1.559-.226.984-5.216h5.08v1.798h-3.624l-.3 1.703a2.903 2.903 0 011.312-.322c.852 0 1.575.31 2.167.93.593.62.889 1.424.889 2.413 0 .825-.239 1.56-.718 2.208-.652.884-1.556 1.326-2.714 1.326-.925 0-1.679-.248-2.262-.745-.584-.497-.932-1.164-1.046-2.003zm15.401-4.683v1.532h-1.312v2.925c0 .593.011.94.034 1.04a.44.44 0 00.171.239c.091.064.2.096.328.096.177 0 .435-.062.772-.185l.164 1.49a3.814 3.814 0 01-1.517.287 2.45 2.45 0 01-.937-.17c-.278-.12-.483-.27-.615-.452-.128-.187-.217-.437-.267-.752-.041-.223-.061-.674-.061-1.353v-3.165h-.882V43.74h.882v-1.442l1.928-1.121v2.563h1.312zm1.333-.984V40.98h1.921v1.777h-1.921zm0 8.244v-7.26h1.921V51h-1.921zm3.753-7.26h1.77v.992c.634-.77 1.388-1.156 2.263-1.156.465 0 .868.096 1.21.288.342.19.622.48.841.868.319-.388.663-.677 1.032-.868a2.534 2.534 0 011.183-.288c.533 0 .984.11 1.353.328.369.215.645.531.827.95.133.31.199.812.199 1.505V51h-1.921v-4.15c0-.72-.066-1.184-.198-1.394-.178-.273-.452-.41-.821-.41a1.31 1.31 0 00-.759.246c-.237.164-.407.406-.512.725-.105.314-.157.813-.157 1.497V51h-1.921v-3.978c0-.707-.035-1.162-.103-1.367a.862.862 0 00-.321-.459c-.141-.1-.335-.15-.581-.15-.296 0-.563.08-.8.24a1.33 1.33 0 00-.513.69c-.1.3-.15.8-.15 1.497V51h-1.921v-7.26zm16.803 4.95l1.914.321c-.246.702-.636 1.237-1.169 1.606-.529.365-1.192.547-1.989.547-1.263 0-2.197-.412-2.803-1.237-.479-.66-.718-1.495-.718-2.502 0-1.203.314-2.144.943-2.823.629-.684 1.425-1.026 2.386-1.026 1.08 0 1.932.358 2.557 1.074.624.71.923 1.802.895 3.274h-4.812c.013.57.168 1.014.465 1.333.296.315.665.472 1.107.472.301 0 .554-.082.759-.246.205-.164.36-.429.465-.793zm.109-1.942c-.014-.556-.157-.977-.431-1.264a1.316 1.316 0 00-.998-.438c-.419 0-.765.153-1.039.458-.273.306-.408.72-.403 1.244h2.871zm2.803 2.181l1.928-.294c.082.374.248.659.499.855.25.19.601.287 1.052.287.497 0 .871-.092 1.121-.274a.61.61 0 00.253-.513.504.504 0 00-.136-.362c-.096-.091-.31-.175-.643-.253-1.549-.342-2.532-.654-2.946-.936-.574-.392-.862-.937-.862-1.634 0-.629.249-1.158.746-1.586.496-.428 1.266-.643 2.31-.643.994 0 1.732.162 2.215.486.483.323.816.802.998 1.435l-1.812.335a1.11 1.11 0 00-.444-.65c-.214-.15-.522-.225-.923-.225-.506 0-.868.07-1.087.212a.454.454 0 00-.218.39c0 .137.063.253.191.349.173.127.77.307 1.791.54 1.025.232 1.741.517 2.146.854.402.342.602.818.602 1.429 0 .665-.278 1.237-.834 1.715-.556.479-1.379.718-2.468.718-.989 0-1.772-.2-2.351-.601a2.778 2.778 0 01-1.128-1.634z" fill="#000"/><path d="M59.742 49h-5.488V28.317c-2.005 1.875-4.369 3.261-7.09 4.16v-4.98c1.432-.47 2.988-1.355 4.668-2.657 1.68-1.315 2.832-2.845 3.457-4.59h4.453V49z" fill="#6C725F"/></svg>