<svg width="415" height="92" fill="none" xmlns="http://www.w3.org/2000/svg"><path d="M0 20C0 8.954 8.954 0 20 0h302.806a20 20 0 019.328 2.308l49.312 26c14.229 7.503 14.229 27.88 0 35.383l-49.312 26A20.001 20.001 0 01322.806 92H20C8.954 92 0 83.046 0 72V20z" fill="#333"/><path d="M70.667 40.547h2.313v6.203c0 .984.028 1.622.085 1.914.1.469.334.846.704 1.133.375.281.885.422 1.53.422.657 0 1.152-.133 1.485-.399a1.6 1.6 0 00.602-.992c.068-.39.101-1.04.101-1.945v-6.336H79.8v6.015c0 1.375-.063 2.347-.188 2.914-.125.568-.356 1.047-.695 1.438-.333.39-.781.703-1.344.937-.562.23-1.297.344-2.203.344-1.094 0-1.924-.125-2.492-.375-.563-.255-1.008-.583-1.336-.984a3.185 3.185 0 01-.648-1.274c-.151-.656-.227-1.625-.227-2.906v-6.11zm10.79 9.086l2.202-.336c.094.427.284.752.57.976.287.22.688.328 1.204.328.567 0 .994-.104 1.28-.312a.697.697 0 00.29-.586.577.577 0 00-.156-.414c-.11-.104-.354-.2-.735-.29-1.77-.39-2.893-.747-3.367-1.07-.656-.447-.984-1.07-.984-1.867 0-.718.284-1.322.851-1.812.568-.49 1.448-.734 2.64-.734 1.136 0 1.98.184 2.532.554.552.37.932.917 1.14 1.64l-2.07.384a1.274 1.274 0 00-.507-.743c-.245-.171-.597-.257-1.055-.257-.578 0-.992.08-1.242.242a.52.52 0 00-.25.445c0 .156.073.29.219.399.197.145.88.351 2.046.617 1.172.265 1.99.59 2.454.976.458.39.687.935.687 1.633 0 .76-.318 1.414-.953 1.961-.635.547-1.576.82-2.82.82-1.13 0-2.026-.229-2.688-.687a3.173 3.173 0 01-1.289-1.867zm14.483-.274l2.188.367c-.281.803-.727 1.415-1.336 1.836-.604.417-1.362.625-2.273.625-1.443 0-2.51-.471-3.204-1.414-.546-.755-.82-1.708-.82-2.86 0-1.374.36-2.45 1.078-3.226.719-.78 1.628-1.171 2.727-1.171 1.234 0 2.208.408 2.922 1.226.713.813 1.054 2.06 1.023 3.742h-5.5c.016.651.193 1.16.531 1.524.339.36.76.539 1.266.539.344 0 .633-.094.867-.281.235-.188.412-.49.531-.907zm.125-2.218c-.015-.636-.18-1.118-.492-1.446a1.505 1.505 0 00-1.14-.5c-.48 0-.875.175-1.188.524-.312.349-.466.822-.46 1.422h3.28zM107.651 52h-2.039v-1.22a3.31 3.31 0 01-1.203 1.063 3.08 3.08 0 01-1.39.343c-.954 0-1.771-.382-2.454-1.148-.677-.77-1.015-1.844-1.015-3.219 0-1.406.33-2.474.992-3.203.661-.734 1.497-1.101 2.508-1.101.927 0 1.729.385 2.406 1.156v-4.125h2.195V52zm-5.859-4.328c0 .885.122 1.526.367 1.922.354.572.849.859 1.485.859.505 0 .934-.214 1.289-.64.354-.433.531-1.076.531-1.93 0-.953-.172-1.638-.516-2.055a1.628 1.628 0 00-1.32-.633c-.521 0-.958.209-1.313.625-.349.412-.523 1.029-.523 1.852zM114.183 52V40.547h2.195v4.125c.677-.771 1.479-1.156 2.406-1.156 1.011 0 1.847.367 2.508 1.101.661.73.992 1.779.992 3.149 0 1.416-.338 2.507-1.015 3.273-.672.766-1.49 1.148-2.454 1.148-.474 0-.942-.117-1.406-.351a3.4 3.4 0 01-1.187-1.055V52h-2.039zm2.179-4.328c0 .86.136 1.495.407 1.906.38.583.885.875 1.515.875.485 0 .896-.206 1.235-.617.343-.417.515-1.07.515-1.961 0-.948-.172-1.63-.515-2.047a1.629 1.629 0 00-1.321-.633c-.526 0-.963.206-1.312.617-.349.407-.524 1.026-.524 1.86zm6.657-3.969h2.335l1.985 5.89 1.937-5.89h2.274l-2.93 7.984-.523 1.446c-.193.484-.378.854-.555 1.11a2.26 2.26 0 01-.602.616 2.524 2.524 0 01-.836.375c-.328.089-.7.133-1.117.133-.422 0-.836-.044-1.242-.133l-.195-1.718c.344.067.653.101.929.101.511 0 .889-.151 1.133-.453.245-.297.433-.677.563-1.14l-3.156-8.321zm18.203 0v1.75h-1.5v3.344c0 .677.013 1.073.039 1.187.031.11.096.2.195.274.104.073.229.11.375.11.203 0 .497-.071.883-.212l.187 1.703c-.51.219-1.088.328-1.734.328-.396 0-.753-.065-1.07-.195-.318-.135-.552-.307-.703-.516-.146-.213-.248-.5-.305-.859-.047-.255-.07-.77-.07-1.547v-3.617h-1.008v-1.75h1.008v-1.648l2.203-1.282v2.93h1.5zm3.711-3.156v4.21c.708-.827 1.554-1.241 2.539-1.241.505 0 .961.093 1.367.28.406.188.711.428.914.72.208.291.349.614.422.968.078.354.117.904.117 1.649V52h-2.195v-4.383c0-.87-.042-1.422-.125-1.656a1.064 1.064 0 00-.446-.555c-.208-.14-.471-.21-.789-.21-.364 0-.69.088-.976.265-.287.177-.498.445-.633.805-.13.354-.195.88-.195 1.578V52h-2.196V40.547h2.196zm12.398 8.812l2.188.367c-.282.803-.727 1.415-1.336 1.836-.605.417-1.362.625-2.274.625-1.443 0-2.51-.471-3.203-1.414-.547-.755-.82-1.708-.82-2.86 0-1.374.359-2.45 1.078-3.226.719-.78 1.627-1.171 2.726-1.171 1.235 0 2.209.408 2.922 1.226.714.813 1.055 2.06 1.024 3.742h-5.5c.015.651.192 1.16.531 1.524.339.36.76.539 1.266.539.343 0 .632-.094.867-.281.234-.188.411-.49.531-.907zm.125-2.218c-.016-.636-.18-1.118-.492-1.446a1.506 1.506 0 00-1.141-.5c-.479 0-.875.175-1.187.524-.313.349-.466.822-.461 1.422h3.281zm8.43-6.594h2.312v6.203c0 .984.029 1.622.086 1.914.099.469.334.846.703 1.133.375.281.886.422 1.532.422.656 0 1.151-.133 1.484-.399.333-.27.534-.601.601-.992.068-.39.102-1.04.102-1.945v-6.336h2.313v6.015c0 1.375-.063 2.347-.188 2.914-.125.568-.357 1.047-.695 1.438-.334.39-.782.703-1.344.937-.563.23-1.297.344-2.203.344-1.094 0-1.925-.125-2.492-.375-.563-.255-1.008-.583-1.336-.984a3.187 3.187 0 01-.649-1.274c-.151-.656-.226-1.625-.226-2.906v-6.11zM177.448 52v-2.195h2.196V52h-2.196zm3.883-3.727l2.25-.218c.135.755.409 1.31.82 1.664.417.354.977.53 1.68.53.745 0 1.305-.155 1.68-.468.38-.318.57-.687.57-1.11 0-.27-.081-.5-.242-.687-.156-.193-.432-.36-.828-.5-.271-.093-.888-.26-1.852-.5-1.239-.307-2.109-.685-2.609-1.133-.703-.63-1.055-1.398-1.055-2.304 0-.584.164-1.128.492-1.633.334-.51.81-.898 1.43-1.164.625-.266 1.378-.399 2.258-.399 1.437 0 2.518.316 3.242.946.729.63 1.112 1.471 1.148 2.523l-2.312.102c-.099-.589-.313-1.01-.641-1.266-.323-.26-.81-.39-1.461-.39-.672 0-1.198.138-1.578.414a.833.833 0 00-.367.71c0 .271.115.503.344.696.291.245 1 .5 2.125.765 1.125.266 1.956.542 2.492.829.542.28.964.669 1.266 1.164.307.49.461 1.096.461 1.82 0 .656-.183 1.27-.547 1.844-.365.573-.881 1-1.547 1.28-.667.277-1.498.415-2.492.415-1.448 0-2.56-.333-3.336-1-.776-.672-1.24-1.648-1.391-2.93zM192.573 52v-2.195h2.196V52h-2.196zm18.656 0h-2.515l-1-2.602h-4.578L202.19 52h-2.453l4.461-11.453h2.446L211.229 52zm-4.257-4.531l-1.578-4.25-1.547 4.25h3.125zm7.578 4.53h-2.196v-8.296h2.04v1.18c.349-.558.661-.925.937-1.102a1.75 1.75 0 01.953-.265c.5 0 .982.138 1.445.414l-.679 1.914c-.37-.24-.714-.36-1.031-.36-.308 0-.568.086-.782.258-.213.167-.383.471-.508.914-.119.443-.179 1.37-.179 2.781V52zm3.969-8.296h2.023v1.133c.724-.88 1.586-1.32 2.586-1.32.531 0 .992.109 1.383.328.39.218.711.55.961.992.364-.443.757-.774 1.179-.992a2.897 2.897 0 011.352-.328c.609 0 1.125.125 1.547.375.422.244.737.606.945 1.085.151.355.227.928.227 1.72V52h-2.196v-4.742c0-.823-.075-1.355-.226-1.594-.203-.313-.516-.469-.938-.469a1.5 1.5 0 00-.867.281c-.271.188-.466.464-.586.829-.12.359-.18.93-.18 1.71V52h-2.195v-4.547c0-.807-.039-1.328-.117-1.563a.99.99 0 00-.367-.523c-.162-.114-.383-.172-.664-.172-.339 0-.643.091-.914.274a1.52 1.52 0 00-.586.789c-.115.343-.172.914-.172 1.71V52h-2.195v-8.297zm13.359 0h2.336l1.984 5.89 1.938-5.89h2.273l-2.93 7.984-.523 1.446c-.193.484-.378.854-.555 1.11-.172.254-.372.46-.601.616a2.533 2.533 0 01-.836.375 4.3 4.3 0 01-1.117.133 5.83 5.83 0 01-1.243-.133l-.195-1.718c.344.067.654.101.93.101.51 0 .888-.151 1.133-.453.244-.297.432-.677.562-1.14l-3.156-8.321zm13.625 5.93l2.203-.336c.094.427.284.752.57.976.287.22.688.328 1.203.328.568 0 .995-.104 1.282-.312a.7.7 0 00.289-.586.577.577 0 00-.156-.414c-.11-.104-.355-.2-.735-.29-1.771-.39-2.893-.747-3.367-1.07-.656-.447-.984-1.07-.984-1.867 0-.718.283-1.322.851-1.812.568-.49 1.448-.734 2.641-.734 1.135 0 1.979.184 2.531.554.552.37.932.917 1.141 1.64l-2.071.384a1.27 1.27 0 00-.507-.743c-.245-.171-.597-.257-1.055-.257-.578 0-.992.08-1.242.242a.52.52 0 00-.25.445c0 .156.073.29.218.399.198.145.881.351 2.047.617 1.172.265 1.99.59 2.453.976.459.39.688.935.688 1.633 0 .76-.318 1.414-.953 1.961-.636.547-1.576.82-2.821.82-1.13 0-2.026-.229-2.687-.687a3.174 3.174 0 01-1.289-1.867zm9.68-7.055v-2.031h2.195v2.031h-2.195zm0 9.422v-8.297h2.195V52h-2.195zm12 0h-2.196v-4.234c0-.896-.047-1.474-.14-1.735a1.215 1.215 0 00-.461-.617 1.29 1.29 0 00-.758-.219c-.38 0-.721.104-1.024.313-.302.208-.51.484-.625.828-.109.344-.164.979-.164 1.906V52h-2.195v-8.297h2.039v1.219c.724-.938 1.636-1.406 2.735-1.406.484 0 .927.088 1.328.265.401.172.703.393.906.664.208.271.351.578.43.922.083.344.125.836.125 1.477V52zm9.468-5.844l-2.164.39c-.073-.431-.239-.757-.5-.976-.255-.219-.588-.328-1-.328-.547 0-.984.19-1.312.57-.323.375-.485 1.006-.485 1.891 0 .984.164 1.68.493 2.086.333.406.778.61 1.336.61.416 0 .757-.118 1.023-.352.266-.24.453-.649.562-1.227l2.157.367c-.224.99-.654 1.737-1.289 2.243-.636.505-1.487.757-2.555.757-1.214 0-2.182-.382-2.906-1.148-.719-.766-1.078-1.826-1.078-3.18 0-1.37.362-2.435 1.086-3.195.724-.766 1.703-1.148 2.937-1.148 1.01 0 1.813.218 2.406.656.599.432 1.029 1.094 1.289 1.984zm6.477 3.203l2.187.367c-.281.803-.726 1.415-1.336 1.836-.604.417-1.361.625-2.273.625-1.443 0-2.51-.471-3.203-1.414-.547-.755-.82-1.708-.82-2.86 0-1.374.359-2.45 1.078-3.226.718-.78 1.627-1.171 2.726-1.171 1.235 0 2.209.408 2.922 1.226.714.813 1.055 2.06 1.024 3.742h-5.5c.015.651.192 1.16.531 1.524.338.36.76.539 1.265.539.344 0 .633-.094.868-.281.234-.188.411-.49.531-.907zm.125-2.218c-.016-.636-.18-1.118-.492-1.446a1.506 1.506 0 00-1.141-.5c-.479 0-.875.175-1.187.524-.313.349-.467.822-.461 1.422h3.281zm15.375 2.82V52h-7.695c.083-.771.333-1.5.75-2.188.416-.692 1.239-1.609 2.468-2.75.99-.921 1.597-1.546 1.821-1.875.302-.453.453-.9.453-1.343 0-.49-.133-.865-.399-1.125-.26-.266-.622-.399-1.086-.399-.458 0-.822.138-1.093.414-.271.276-.427.735-.469 1.375l-2.188-.218c.131-1.209.539-2.076 1.227-2.602.687-.526 1.547-.79 2.578-.79 1.13 0 2.018.306 2.664.915.646.61.969 1.367.969 2.273a3.95 3.95 0 01-.281 1.477c-.183.463-.474.95-.875 1.46-.266.34-.745.826-1.438 1.462-.693.635-1.133 1.057-1.32 1.265a3.895 3.895 0 00-.445.61h4.359zm5.203-9.461c1.109 0 1.977.396 2.602 1.187.744.938 1.117 2.493 1.117 4.664 0 2.167-.375 3.724-1.125 4.672-.62.782-1.485 1.172-2.594 1.172-1.115 0-2.013-.427-2.695-1.281-.683-.86-1.024-2.388-1.024-4.586 0-2.156.375-3.708 1.125-4.656.62-.781 1.485-1.172 2.594-1.172zm0 1.82c-.266 0-.503.086-.711.258-.208.167-.37.469-.484.906-.151.568-.227 1.524-.227 2.867 0 1.344.068 2.269.203 2.774.136.5.305.833.508 1 .208.166.445.25.711.25.266 0 .503-.084.711-.25.208-.172.37-.477.484-.914.151-.563.227-1.516.227-2.86 0-1.343-.068-2.265-.203-2.765-.136-.505-.307-.841-.516-1.008a1.055 1.055 0 00-.703-.258zm8.906-1.82c1.11 0 1.977.396 2.602 1.187.745.938 1.117 2.493 1.117 4.664 0 2.167-.375 3.724-1.125 4.672-.62.782-1.484 1.172-2.594 1.172-1.114 0-2.013-.427-2.695-1.281-.682-.86-1.023-2.388-1.023-4.586 0-2.156.375-3.708 1.125-4.656.619-.781 1.484-1.172 2.593-1.172zm0 1.82c-.265 0-.502.086-.711.258-.208.167-.369.469-.484.906-.151.568-.227 1.524-.227 2.867 0 1.344.068 2.269.204 2.774.135.5.304.833.507 1 .209.166.446.25.711.25.266 0 .503-.084.711-.25.209-.172.37-.477.485-.914.151-.563.226-1.516.226-2.86 0-1.343-.068-2.265-.203-2.765-.135-.505-.307-.841-.516-1.008a1.055 1.055 0 00-.703-.258zm7.078 3.5c-.567-.24-.981-.568-1.242-.984a2.624 2.624 0 01-.383-1.383c0-.854.297-1.56.891-2.117.599-.557 1.448-.836 2.547-.836 1.088 0 1.932.279 2.531.836.604.557.906 1.263.906 2.117 0 .531-.138 1.005-.414 1.422-.276.411-.664.726-1.164.945.636.255 1.117.628 1.446 1.117.333.49.5 1.055.5 1.696 0 1.057-.339 1.916-1.016 2.578-.672.661-1.568.992-2.688.992-1.041 0-1.908-.273-2.601-.82-.818-.646-1.227-1.532-1.227-2.657 0-.62.154-1.187.461-1.703.308-.52.792-.922 1.453-1.203zm.454-2.21c0 .437.122.778.367 1.023.25.244.58.367.992.367.417 0 .75-.123 1-.367.25-.25.375-.594.375-1.032 0-.411-.125-.74-.375-.984-.245-.25-.57-.375-.977-.375-.422 0-.757.125-1.007.375-.25.25-.375.58-.375.992zm-.204 4.906c0 .604.154 1.075.461 1.414.313.338.701.507 1.164.507a1.46 1.46 0 001.125-.484c.297-.328.446-.8.446-1.414 0-.537-.151-.966-.453-1.29a1.494 1.494 0 00-1.149-.491c-.536 0-.937.185-1.203.554-.26.37-.391.771-.391 1.204z" fill="#fff"/><path d="M44.305 57.373V64h-25.01c.27-2.505 1.083-4.875 2.437-7.11 1.355-2.25 4.03-5.23 8.024-8.937 3.216-2.996 5.188-5.027 5.916-6.094.982-1.472 1.473-2.928 1.473-4.367 0-1.591-.432-2.81-1.295-3.656-.847-.864-2.023-1.295-3.53-1.295-1.49 0-2.674.449-3.554 1.346-.88.897-1.388 2.386-1.524 4.468l-7.11-.71c.424-3.928 1.753-6.746 3.987-8.456 2.235-1.71 5.027-2.564 8.379-2.564 3.673 0 6.56.99 8.658 2.97 2.1 1.981 3.149 4.444 3.149 7.39 0 1.675-.305 3.275-.914 4.798-.593 1.507-1.54 3.09-2.844 4.748-.863 1.1-2.42 2.683-4.672 4.748-2.251 2.065-3.682 3.436-4.291 4.113a12.713 12.713 0 00-1.447 1.98h14.168z" fill="#6C725F"/></svg>