<svg width="415" height="92" fill="none" xmlns="http://www.w3.org/2000/svg"><path d="M2 20c0-9.941 8.059-18 18-18h302.806c2.926 0 5.807.713 8.395 2.078l49.312 26c12.807 6.752 12.807 25.092 0 31.844l-49.312 26A17.999 17.999 0 01322.806 90H20c-9.941 0-18-8.059-18-18V20z" fill="#fff" stroke="#646C59" stroke-width="4" stroke-linejoin="round"/><path d="M99.01 47.79l2.243.71c-.344 1.25-.917 2.18-1.719 2.79-.797.603-1.81.905-3.039.905-1.52 0-2.77-.518-3.75-1.554-.979-1.042-1.469-2.464-1.469-4.266 0-1.906.493-3.385 1.477-4.438.984-1.057 2.279-1.585 3.883-1.585 1.4 0 2.539.414 3.414 1.242.521.49.911 1.192 1.172 2.11l-2.29.546c-.135-.594-.419-1.063-.85-1.406-.428-.344-.949-.516-1.563-.516-.85 0-1.54.305-2.07.914-.527.61-.79 1.597-.79 2.961 0 1.448.26 2.48.781 3.094.521.614 1.198.922 2.032.922.614 0 1.143-.196 1.586-.586.442-.39.76-1.005.953-1.844zm3.712-.056c0-.729.179-1.434.539-2.117a3.705 3.705 0 011.523-1.562c.662-.36 1.399-.54 2.211-.54 1.255 0 2.284.41 3.086 1.227.802.813 1.203 1.841 1.203 3.086 0 1.255-.406 2.297-1.219 3.125-.807.823-1.825 1.234-3.054 1.234a4.843 4.843 0 01-2.18-.515 3.547 3.547 0 01-1.57-1.508c-.36-.667-.539-1.477-.539-2.43zm2.25.118c0 .823.195 1.453.586 1.89.39.438.872.656 1.445.656.573 0 1.052-.218 1.437-.656.391-.437.586-1.073.586-1.906 0-.813-.195-1.438-.586-1.875a1.837 1.837 0 00-1.437-.656 1.86 1.86 0 00-1.445.656c-.391.437-.586 1.068-.586 1.89zm7.875-4.149h2.023v1.133c.724-.88 1.586-1.32 2.586-1.32.531 0 .992.109 1.383.328.39.218.711.55.961.992.364-.443.758-.773 1.179-.992a2.896 2.896 0 011.352-.328c.609 0 1.125.125 1.547.375.422.244.737.606.945 1.086.151.354.227.927.227 1.718V52h-2.196v-4.742c0-.823-.075-1.354-.226-1.594-.203-.312-.516-.469-.938-.469-.307 0-.596.094-.867.282-.271.187-.466.463-.586.828-.119.36-.179.93-.179 1.71V52h-2.196v-4.547c0-.807-.039-1.328-.117-1.562a.985.985 0 00-.367-.524c-.162-.114-.383-.172-.664-.172-.339 0-.643.091-.914.274a1.52 1.52 0 00-.586.789c-.115.344-.172.914-.172 1.71V52h-2.195v-8.297zm14.336 0h2.046v1.219a3.062 3.062 0 011.079-1.016c.453-.26.955-.39 1.507-.39.964 0 1.782.377 2.454 1.132.671.756 1.007 1.808 1.007 3.157 0 1.385-.338 2.463-1.015 3.234-.677.766-1.498 1.148-2.461 1.148a2.81 2.81 0 01-1.25-.273c-.37-.182-.761-.495-1.172-.937v4.18h-2.195V43.702zm2.171 4.008c0 .932.185 1.622.555 2.07.37.443.82.664 1.352.664.51 0 .935-.203 1.273-.61.339-.41.508-1.082.508-2.015 0-.87-.174-1.515-.523-1.937-.349-.422-.782-.633-1.297-.633a1.68 1.68 0 00-1.336.625c-.354.411-.532 1.023-.532 1.836zm9.313-1.477l-1.992-.359c.224-.802.609-1.396 1.156-1.781.547-.386 1.359-.578 2.438-.578.979 0 1.708.117 2.187.351.479.23.815.524 1.008.883.198.354.297 1.008.297 1.96l-.024 2.563c0 .73.034 1.269.102 1.618.073.343.206.713.398 1.109h-2.172a8.482 8.482 0 01-.211-.648 3.477 3.477 0 00-.078-.258 3.96 3.96 0 01-1.203.82 3.446 3.446 0 01-1.367.273c-.854 0-1.529-.231-2.023-.695-.49-.463-.735-1.05-.735-1.758 0-.468.112-.885.336-1.25.224-.37.537-.65.938-.843.406-.198.989-.37 1.75-.516 1.026-.193 1.737-.372 2.132-.54v-.218c0-.422-.104-.721-.312-.898-.208-.183-.602-.274-1.18-.274-.39 0-.695.078-.914.235-.219.15-.396.419-.531.804zm2.937 1.782c-.281.093-.726.205-1.335.336-.61.13-1.008.257-1.196.382-.286.203-.429.461-.429.774 0 .307.114.573.343.797.229.224.521.336.875.336.396 0 .774-.13 1.133-.391.266-.198.44-.44.524-.727.057-.187.085-.544.085-1.07v-.437zm11.563-1.86l-2.164.39c-.073-.431-.24-.757-.5-.976-.255-.218-.589-.328-1-.328-.547 0-.984.19-1.313.57-.322.376-.484 1.006-.484 1.891 0 .984.164 1.68.492 2.086.334.406.779.61 1.336.61.417 0 .758-.118 1.024-.352.265-.24.453-.649.562-1.227l2.156.367c-.224.99-.653 1.738-1.289 2.243-.635.505-1.487.758-2.554.758-1.214 0-2.183-.383-2.907-1.149-.718-.766-1.078-1.825-1.078-3.18 0-1.37.362-2.434 1.086-3.195.724-.766 1.703-1.148 2.938-1.148 1.01 0 1.812.218 2.406.656.599.432 1.029 1.094 1.289 1.984zm5.477-2.453v1.75h-1.5v3.344c0 .677.013 1.073.039 1.187.031.11.096.2.195.274.104.073.229.11.375.11.203 0 .497-.071.883-.212l.187 1.703c-.51.22-1.088.328-1.734.328-.396 0-.753-.065-1.07-.195-.318-.135-.553-.307-.704-.515-.145-.214-.247-.5-.304-.86-.047-.255-.071-.77-.071-1.547v-3.617h-1.007v-1.75h1.007v-1.648l2.204-1.282v2.93h1.5zm5.203 5.93l2.203-.336c.094.427.284.753.57.976.287.22.688.329 1.203.329.568 0 .995-.105 1.281-.313a.698.698 0 00.29-.586.578.578 0 00-.157-.414c-.109-.104-.354-.2-.734-.289-1.771-.39-2.893-.747-3.367-1.07-.657-.448-.985-1.07-.985-1.867 0-.72.284-1.323.852-1.813.568-.49 1.448-.734 2.641-.734 1.135 0 1.979.184 2.531.554.552.37.932.917 1.14 1.64l-2.07.384a1.271 1.271 0 00-.508-.742c-.244-.172-.596-.258-1.054-.258-.579 0-.993.08-1.243.242a.522.522 0 00-.25.445c0 .157.073.29.219.399.198.145.88.351 2.047.617 1.172.266 1.99.591 2.453.976.459.391.688.935.688 1.633 0 .76-.318 1.414-.953 1.961-.636.547-1.576.82-2.821.82-1.13 0-2.026-.229-2.687-.687a3.169 3.169 0 01-1.289-1.867zm9.679-7.055v-2.031h2.196v2.031h-2.196zm0 9.422v-8.297h2.196V52h-2.196zm3.571 0v-1.71l3.109-3.571c.51-.584.888-.998 1.133-1.242a21.69 21.69 0 01-1.008.03l-2.93.016v-1.82h6.86v1.555l-3.172 3.656-1.117 1.211a28.84 28.84 0 011.132-.055h3.399V52h-7.406zm13.687-2.64l2.188.367c-.282.802-.727 1.414-1.336 1.836-.604.416-1.362.624-2.274.624-1.442 0-2.51-.47-3.203-1.414-.547-.755-.82-1.708-.82-2.859 0-1.375.359-2.45 1.078-3.227.719-.78 1.628-1.171 2.727-1.171 1.234 0 2.208.409 2.921 1.226.714.813 1.055 2.06 1.024 3.742h-5.5c.015.651.193 1.16.531 1.524.339.36.761.539 1.266.539.343 0 .633-.094.867-.281.234-.188.411-.49.531-.907zm.125-2.22c-.015-.635-.18-1.117-.492-1.445a1.506 1.506 0 00-1.141-.5c-.479 0-.875.175-1.187.524-.313.349-.466.823-.461 1.422h3.281zm10.07-.906l-1.992-.359c.224-.802.61-1.396 1.157-1.781.546-.386 1.359-.578 2.437-.578.979 0 1.708.117 2.188.351.479.23.815.524 1.007.883.198.354.297 1.008.297 1.96l-.023 2.563c0 .73.034 1.269.101 1.618.073.343.206.713.399 1.109h-2.172a8.054 8.054 0 01-.211-.648 4.073 4.073 0 00-.078-.258 3.96 3.96 0 01-1.203.82 3.446 3.446 0 01-1.367.273c-.855 0-1.529-.231-2.024-.695-.489-.463-.734-1.05-.734-1.758 0-.468.112-.885.336-1.25.224-.37.536-.65.937-.843.406-.198.99-.37 1.75-.516 1.026-.193 1.737-.372 2.133-.54v-.218c0-.422-.104-.721-.313-.898-.208-.183-.601-.274-1.179-.274-.391 0-.696.078-.914.235-.219.15-.396.419-.532.804zm2.938 1.782c-.281.093-.727.205-1.336.336-.609.13-1.008.257-1.195.382-.287.203-.43.461-.43.774 0 .307.115.573.344.797.229.224.521.336.875.336.396 0 .773-.13 1.133-.391.265-.198.44-.44.523-.727.057-.187.086-.544.086-1.07v-.437zM215.792 52h-2.195v-4.234c0-.896-.047-1.474-.141-1.735a1.21 1.21 0 00-.461-.617 1.287 1.287 0 00-.758-.219c-.38 0-.721.105-1.023.313a1.592 1.592 0 00-.625.828c-.11.344-.164.98-.164 1.906V52h-2.196v-8.297h2.04v1.219c.724-.938 1.635-1.406 2.734-1.406.484 0 .927.088 1.328.265.401.172.703.394.906.664.209.271.352.578.43.922.083.344.125.836.125 1.477V52zm9.844 0h-2.039v-1.219c-.339.474-.74.828-1.203 1.063a3.085 3.085 0 01-1.391.343c-.953 0-1.771-.382-2.453-1.148-.677-.77-1.016-1.844-1.016-3.219 0-1.406.331-2.474.992-3.203.662-.734 1.498-1.101 2.508-1.101.927 0 1.729.385 2.406 1.156v-4.125h2.196V52zm-5.86-4.328c0 .885.123 1.526.368 1.922.354.573.849.86 1.484.86.505 0 .935-.214 1.289-.642.354-.432.531-1.075.531-1.93 0-.952-.172-1.637-.515-2.054a1.629 1.629 0 00-1.321-.633c-.521 0-.958.209-1.312.625-.349.412-.524 1.029-.524 1.852zM232.261 52V40.547h2.195V52h-2.195zm3.945-4.266c0-.729.18-1.434.539-2.117a3.701 3.701 0 011.524-1.562c.661-.36 1.398-.54 2.21-.54 1.256 0 2.284.41 3.086 1.227.803.813 1.204 1.841 1.204 3.086 0 1.255-.407 2.297-1.219 3.125-.807.823-1.826 1.234-3.055 1.234-.76 0-1.487-.171-2.18-.515a3.547 3.547 0 01-1.57-1.508c-.359-.667-.539-1.477-.539-2.43zm2.25.118c0 .823.195 1.453.586 1.89a1.86 1.86 0 001.445.656 1.84 1.84 0 001.438-.656c.39-.437.586-1.073.586-1.906 0-.813-.196-1.438-.586-1.875a1.84 1.84 0 00-1.438-.656 1.86 1.86 0 00-1.445.656c-.391.437-.586 1.068-.586 1.89zM248.042 52l-2.625-8.297h2.133l1.554 5.438 1.43-5.438h2.117l1.383 5.438 1.586-5.438h2.164L255.12 52h-2.109l-1.43-5.336L250.175 52h-2.133zm16.906 0l-2.625-8.297h2.133l1.555 5.438 1.429-5.438h2.118l1.382 5.438 1.586-5.438h2.164L272.026 52h-2.109l-1.43-5.336L267.081 52h-2.133zm15.711-2.64l2.188.367c-.282.802-.727 1.414-1.336 1.836-.604.416-1.362.624-2.274.624-1.442 0-2.51-.47-3.203-1.414-.547-.755-.82-1.708-.82-2.859 0-1.375.359-2.45 1.078-3.227.719-.78 1.628-1.171 2.727-1.171 1.234 0 2.208.409 2.921 1.226.714.813 1.055 2.06 1.024 3.742h-5.5c.015.651.193 1.16.531 1.524.339.36.761.539 1.266.539.343 0 .633-.094.867-.281.234-.188.411-.49.531-.907zm.125-2.22c-.015-.635-.18-1.117-.492-1.445a1.506 1.506 0 00-1.141-.5c-.479 0-.875.175-1.187.524-.313.349-.466.823-.461 1.422h3.281zm3.977-4.562v-2.031h2.195v2.031h-2.195zm0 9.422v-8.297h2.195V52h-2.195zm4.25.547l2.508.305c.041.291.138.492.289.601.208.156.536.234.984.234.573 0 1.003-.085 1.289-.257.193-.115.339-.3.438-.555.067-.182.101-.518.101-1.008v-1.21c-.656.895-1.484 1.343-2.484 1.343-1.115 0-1.998-.471-2.649-1.414-.51-.745-.765-1.672-.765-2.781 0-1.39.333-2.453 1-3.188.672-.734 1.505-1.101 2.5-1.101 1.026 0 1.872.45 2.539 1.351v-1.164h2.054v7.445c0 .98-.08 1.711-.242 2.196-.161.484-.388.864-.679 1.14-.292.276-.683.493-1.172.649-.485.156-1.099.234-1.844.234-1.406 0-2.404-.242-2.992-.726-.589-.48-.883-1.089-.883-1.828 0-.073.003-.162.008-.266zm1.961-4.867c0 .88.169 1.526.507 1.937.344.406.766.61 1.266.61.537 0 .99-.209 1.359-.625.37-.422.555-1.045.555-1.868 0-.859-.177-1.497-.531-1.914a1.688 1.688 0 00-1.344-.625 1.63 1.63 0 00-1.305.617c-.338.407-.507 1.03-.507 1.868zm10.211-7.133v4.21c.708-.827 1.554-1.241 2.539-1.241.505 0 .961.093 1.367.28.406.188.711.428.914.72.208.291.349.614.422.968.078.355.117.904.117 1.649V52h-2.195v-4.383c0-.87-.042-1.422-.125-1.656a1.065 1.065 0 00-.446-.555c-.208-.14-.471-.21-.789-.21-.364 0-.69.088-.976.265-.287.177-.498.445-.633.805-.13.354-.195.88-.195 1.578V52h-2.196V40.547h2.196zm11.398 3.156v1.75h-1.5v3.344c0 .677.013 1.073.039 1.187.031.11.096.2.195.274a.64.64 0 00.375.11c.204 0 .498-.071.883-.212l.188 1.703c-.511.22-1.089.328-1.735.328-.395 0-.752-.065-1.07-.195-.318-.135-.552-.307-.703-.515-.146-.214-.247-.5-.305-.86-.047-.255-.07-.77-.07-1.547v-3.617h-1.008v-1.75h1.008v-1.648l2.203-1.282v2.93h1.5z" fill="#000"/><path d="M40.955 54.123l6.906-.838c.22 1.76.813 3.106 1.778 4.037.964.931 2.133 1.397 3.504 1.397 1.472 0 2.708-.559 3.707-1.676 1.015-1.117 1.523-2.624 1.523-4.52 0-1.794-.482-3.216-1.447-4.265-.965-1.05-2.142-1.574-3.53-1.574-.914 0-2.005.177-3.275.533l.787-5.815c1.93.051 3.402-.364 4.418-1.244 1.016-.897 1.524-2.082 1.524-3.555 0-1.252-.373-2.25-1.118-2.996-.744-.744-1.735-1.117-2.97-1.117-1.219 0-2.26.423-3.123 1.27-.864.846-1.388 2.082-1.575 3.707l-6.576-1.117c.457-2.252 1.143-4.046 2.057-5.383.93-1.354 2.217-2.412 3.86-3.174 1.658-.779 3.512-1.168 5.56-1.168 3.504 0 6.314 1.117 8.43 3.352 1.743 1.828 2.615 3.893 2.615 6.195 0 3.267-1.786 5.874-5.358 7.82 2.133.457 3.834 1.481 5.104 3.073 1.286 1.59 1.93 3.512 1.93 5.763 0 3.267-1.194 6.052-3.58 8.354-2.387 2.302-5.358 3.453-8.913 3.453-3.368 0-6.161-.965-8.378-2.895-2.218-1.946-3.505-4.485-3.86-7.617z" fill="#6C725F"/></svg>