<svg width="304" height="70" fill="none" xmlns="http://www.w3.org/2000/svg"><path d="M0 20C0 8.955 8.954 0 20 0h219.799c3.302 0 6.553.818 9.463 2.38l27.93 15c14.049 7.546 14.049 27.695 0 35.24l-27.93 15a20.004 20.004 0 01-9.463 2.38H20C8.954 70 0 61.046 0 50V20z" fill="#333"/><path d="M65.608 23.051c0-1.02.153-1.878.458-2.57a4.75 4.75 0 01.93-1.374c.397-.406.83-.707 1.299-.903.624-.264 1.344-.396 2.16-.396 1.477 0 2.657.458 3.541 1.374.889.916 1.333 2.19 1.333 3.821 0 1.618-.44 2.885-1.32 3.801-.879.911-2.055 1.367-3.527 1.367-1.49 0-2.675-.453-3.554-1.36-.88-.912-1.32-2.165-1.32-3.76zm2.085-.068c0 1.134.262 1.996.787 2.584.524.583 1.189.875 1.996.875.806 0 1.467-.29 1.982-.869.52-.583.78-1.456.78-2.618 0-1.148-.254-2.005-.76-2.57-.5-.565-1.168-.848-2.002-.848-.834 0-1.507.288-2.017.862-.51.57-.766 1.43-.766 2.584zM83.505 28h-1.921v-3.705c0-.784-.041-1.29-.123-1.517a1.06 1.06 0 00-.403-.54 1.127 1.127 0 00-.664-.192 1.54 1.54 0 00-.895.274 1.396 1.396 0 00-.547.724c-.096.301-.143.857-.143 1.668V28h-1.921v-7.26h1.784v1.067c.633-.82 1.43-1.23 2.392-1.23.424 0 .812.077 1.163.232.35.15.615.344.792.58.183.238.308.507.376.808.073.3.11.731.11 1.291V28zm6.16-2.31l1.913.321c-.246.702-.636 1.237-1.169 1.606-.529.365-1.192.547-1.99.547-1.261 0-2.196-.412-2.802-1.237-.478-.66-.718-1.495-.718-2.502 0-1.203.315-2.144.944-2.823.629-.684 1.424-1.026 2.385-1.026 1.08 0 1.933.358 2.557 1.074.624.71.923 1.802.896 3.274h-4.813c.014.57.169 1.014.465 1.333a1.46 1.46 0 001.107.472c.301 0 .554-.082.76-.246.204-.164.36-.429.464-.793zm.108-1.942c-.013-.556-.157-.977-.43-1.264a1.317 1.317 0 00-.998-.438c-.42 0-.766.153-1.04.458-.273.305-.407.72-.403 1.244h2.871zm6.932.52c0-.638.157-1.256.472-1.853a3.242 3.242 0 011.333-1.367 3.984 3.984 0 011.934-.472c1.099 0 1.999.358 2.701 1.074.701.71 1.052 1.61 1.052 2.7 0 1.098-.355 2.01-1.066 2.734-.707.72-1.597 1.08-2.673 1.08-.665 0-1.301-.15-1.907-.45a3.105 3.105 0 01-1.374-1.32c-.315-.583-.472-1.292-.472-2.126zm1.969.102c0 .72.17 1.272.512 1.655a1.63 1.63 0 001.265.574 1.61 1.61 0 001.258-.574c.342-.383.513-.94.513-1.668 0-.711-.171-1.258-.513-1.64a1.61 1.61 0 00-1.258-.575 1.63 1.63 0 00-1.264.574c-.342.383-.513.934-.513 1.654zm6.193-3.63h1.067v-.546c0-.611.063-1.067.191-1.368.132-.3.371-.544.718-.731.351-.191.793-.287 1.326-.287.547 0 1.082.082 1.606.246l-.259 1.34a3.8 3.8 0 00-.882-.11c-.278 0-.479.067-.602.199-.118.127-.178.376-.178.745v.512h1.436v1.511h-1.436v5.75h-1.92v-5.75h-1.067v-1.51zm12.729 0v1.532h-1.313v2.926c0 .592.012.938.034 1.039a.45.45 0 00.171.239.558.558 0 00.328.096c.178 0 .436-.062.773-.185l.164 1.49a3.822 3.822 0 01-1.518.287c-.346 0-.658-.057-.936-.17-.278-.12-.483-.27-.615-.452-.128-.187-.217-.437-.267-.752-.041-.223-.062-.674-.062-1.353v-3.165h-.881V20.74h.881v-1.443l1.928-1.121v2.564h1.313zm3.247-2.761v3.684c.62-.724 1.36-1.087 2.221-1.087.443 0 .841.082 1.197.247.355.164.622.373.8.628.182.256.305.538.369.848.068.31.102.79.102 1.442v4.26h-1.921v-3.836c0-.76-.036-1.244-.109-1.449a.93.93 0 00-.39-.485c-.182-.123-.412-.185-.69-.185-.319 0-.604.078-.855.233-.25.154-.435.39-.553.704-.114.31-.171.77-.171 1.38V28h-1.921V17.98h1.921zm10.848 7.71l1.914.322c-.246.702-.635 1.237-1.168 1.606-.529.365-1.192.547-1.99.547-1.262 0-2.196-.412-2.802-1.237-.479-.66-.718-1.495-.718-2.502 0-1.203.314-2.144.943-2.823.629-.684 1.424-1.026 2.386-1.026 1.08 0 1.932.358 2.556 1.074.625.71.923 1.802.896 3.274h-4.812c.013.57.168 1.014.464 1.333.297.314.666.472 1.108.472.301 0 .553-.082.759-.246.205-.164.36-.429.464-.793zm.11-1.94c-.014-.557-.157-.978-.431-1.265a1.316 1.316 0 00-.998-.438c-.419 0-.766.153-1.039.458-.273.305-.408.72-.403 1.244h2.871zm7.232-3.008h1.771v.99c.633-.77 1.387-1.155 2.262-1.155.465 0 .869.096 1.21.287.342.192.622.481.841.869.319-.388.663-.677 1.032-.869.37-.19.764-.287 1.183-.287.533 0 .984.11 1.354.328.369.215.644.532.827.95.132.31.198.812.198 1.505V28h-1.921v-4.15c0-.72-.066-1.184-.198-1.394-.178-.273-.451-.41-.821-.41a1.31 1.31 0 00-.758.246c-.237.164-.408.406-.513.725-.105.314-.157.813-.157 1.497V28h-1.921v-3.978c0-.707-.034-1.162-.103-1.367a.862.862 0 00-.321-.459c-.141-.1-.335-.15-.581-.15-.296 0-.563.08-.8.24a1.33 1.33 0 00-.513.69c-.1.3-.15.8-.15 1.497V28h-1.921v-7.26zm12.155 3.527c0-.638.157-1.256.471-1.853a3.247 3.247 0 011.333-1.367 3.987 3.987 0 011.935-.472c1.098 0 1.998.358 2.7 1.074.702.71 1.053 1.61 1.053 2.7 0 1.098-.356 2.01-1.067 2.734-.706.72-1.597 1.08-2.673 1.08-.665 0-1.301-.15-1.907-.45a3.108 3.108 0 01-1.374-1.32c-.314-.583-.471-1.292-.471-2.126zm1.968.102c0 .72.171 1.272.513 1.655.342.383.763.574 1.265.574.501 0 .92-.192 1.257-.574.342-.383.513-.94.513-1.668 0-.711-.171-1.258-.513-1.64a1.607 1.607 0 00-1.257-.575c-.502 0-.923.191-1.265.574-.342.383-.513.934-.513 1.654zm6.358 1.559l1.927-.294c.082.374.249.659.499.854.251.192.602.288 1.053.288.497 0 .871-.091 1.121-.274a.61.61 0 00.253-.512.5.5 0 00-.137-.363c-.095-.091-.309-.175-.642-.253-1.55-.342-2.532-.654-2.946-.936-.575-.392-.862-.937-.862-1.634 0-.629.249-1.158.745-1.586.497-.428 1.267-.643 2.311-.643.993 0 1.732.162 2.215.486.483.323.816.802.998 1.435l-1.812.335a1.11 1.11 0 00-.444-.65c-.214-.15-.522-.225-.923-.225-.506 0-.868.07-1.087.212a.455.455 0 00-.219.39c0 .137.064.253.192.348.173.128.77.308 1.791.54 1.025.233 1.741.518 2.146.855.401.342.602.818.602 1.429 0 .665-.278 1.237-.834 1.715-.556.479-1.379.718-2.468.718-.989 0-1.773-.2-2.351-.601a2.77 2.77 0 01-1.128-1.634zm11.798-5.188v1.53H170v2.927c0 .592.011.938.034 1.039a.445.445 0 00.171.239.558.558 0 00.328.096c.178 0 .435-.062.773-.185l.164 1.49a3.822 3.822 0 01-1.518.287c-.346 0-.658-.057-.936-.17-.278-.12-.483-.27-.616-.452-.127-.187-.216-.437-.266-.752-.041-.223-.062-.674-.062-1.353v-3.165h-.882V20.74h.882v-1.443l1.928-1.12v2.564h1.312zm9.434 4.949l1.914.321c-.246.702-.636 1.237-1.169 1.606-.528.365-1.192.547-1.989.547-1.262 0-2.197-.412-2.803-1.237-.478-.66-.718-1.495-.718-2.502 0-1.203.315-2.144.944-2.823.629-.684 1.424-1.026 2.386-1.026 1.08 0 1.932.358 2.556 1.074.625.71.923 1.802.896 3.274h-4.813c.014.57.169 1.014.465 1.333a1.46 1.46 0 001.107.472c.301 0 .554-.082.759-.246.205-.164.36-.429.465-.793zm.109-1.942c-.013-.556-.157-.977-.43-1.264a1.318 1.318 0 00-.998-.438c-.42 0-.766.153-1.039.458-.274.305-.408.72-.404 1.244h2.871zm2.803 2.181l1.928-.294c.082.374.248.659.499.854.251.192.602.288 1.053.288.496 0 .87-.091 1.121-.274a.612.612 0 00.253-.512.505.505 0 00-.137-.363c-.096-.091-.31-.175-.643-.253-1.549-.342-2.531-.654-2.946-.936-.574-.392-.861-.937-.861-1.634 0-.629.248-1.158.745-1.586.497-.428 1.267-.643 2.31-.643.994 0 1.732.162 2.215.486.483.323.816.802.998 1.435l-1.811.335a1.12 1.12 0 00-.444-.65c-.215-.15-.522-.225-.923-.225-.506 0-.869.07-1.087.212a.455.455 0 00-.219.39c0 .137.064.253.191.348.174.128.771.308 1.791.54 1.026.233 1.741.518 2.147.855.401.342.601.818.601 1.429 0 .665-.278 1.237-.834 1.715-.556.479-1.378.718-2.467.718-.989 0-1.773-.2-2.352-.601a2.778 2.778 0 01-1.128-1.634zm7.793 0l1.928-.294c.082.374.248.659.499.854.251.192.601.288 1.053.288.496 0 .87-.091 1.121-.274a.612.612 0 00.253-.512.505.505 0 00-.137-.363c-.096-.091-.31-.175-.643-.253-1.549-.342-2.531-.654-2.946-.936-.574-.392-.861-.937-.861-1.634 0-.629.248-1.158.745-1.586.497-.428 1.267-.643 2.31-.643.994 0 1.732.162 2.215.486.483.323.816.802.998 1.435l-1.811.335a1.116 1.116 0 00-.445-.65c-.214-.15-.521-.225-.922-.225-.506 0-.869.07-1.087.212a.455.455 0 00-.219.39c0 .137.064.253.191.348.174.128.771.308 1.791.54 1.026.233 1.741.518 2.147.855.401.342.601.818.601 1.429 0 .665-.278 1.237-.834 1.715-.556.479-1.378.718-2.467.718-.989 0-1.773-.2-2.352-.601a2.778 2.778 0 01-1.128-1.634zm12.674-.24l1.914.322c-.246.702-.636 1.237-1.169 1.606-.529.365-1.192.547-1.989.547-1.263 0-2.197-.412-2.803-1.237-.478-.66-.718-1.495-.718-2.502 0-1.203.315-2.144.944-2.823.629-.684 1.424-1.026 2.385-1.026 1.081 0 1.933.358 2.557 1.074.624.71.923 1.802.896 3.274h-4.813c.014.57.169 1.014.465 1.333a1.46 1.46 0 001.107.472c.301 0 .554-.082.759-.246.205-.164.36-.429.465-.793zm.109-1.94c-.013-.557-.157-.978-.43-1.265a1.318 1.318 0 00-.998-.438c-.42 0-.766.153-1.039.458-.274.305-.408.72-.404 1.244h2.871zM214.317 28h-1.921v-3.705c0-.784-.041-1.29-.123-1.517a1.058 1.058 0 00-.403-.54 1.126 1.126 0 00-.663-.192c-.333 0-.631.091-.895.274a1.39 1.39 0 00-.547.724c-.096.301-.144.857-.144 1.668V28H207.7v-7.26h1.784v1.067c.634-.82 1.431-1.23 2.393-1.23.424 0 .811.077 1.162.232.351.15.615.344.793.58.182.238.308.507.376.808.073.3.109.731.109 1.291V28zm5.285-7.26v1.532h-1.313v2.926c0 .592.011.938.034 1.039a.45.45 0 00.171.239.558.558 0 00.328.096c.178 0 .435-.062.773-.185l.164 1.49a3.822 3.822 0 01-1.518.287c-.346 0-.658-.057-.936-.17-.278-.12-.483-.27-.616-.452-.127-.187-.216-.437-.266-.752-.041-.223-.062-.674-.062-1.353v-3.165h-.882V20.74h.882v-1.443l1.928-1.121v2.564h1.313zm1.333-.984V17.98h1.92v1.777h-1.92zm0 8.244v-7.26h1.92V28h-1.92zm5.332-5.045l-1.744-.314c.196-.702.534-1.221 1.012-1.559.479-.337 1.19-.506 2.133-.506.857 0 1.495.103 1.914.308.419.2.713.458.882.773.173.31.26.881.26 1.715l-.021 2.242c0 .639.03 1.11.089 1.415.064.301.18.625.349.971h-1.901a7.201 7.201 0 01-.184-.567 3.169 3.169 0 00-.069-.226 3.467 3.467 0 01-1.052.718c-.374.16-.773.24-1.197.24-.747 0-1.337-.203-1.77-.61-.429-.405-.643-.917-.643-1.537 0-.41.098-.775.294-1.094a1.9 1.9 0 01.82-.738c.356-.173.866-.324 1.532-.451.897-.169 1.52-.326 1.866-.472v-.192c0-.369-.091-.63-.274-.786-.182-.16-.526-.239-1.032-.239-.342 0-.608.069-.8.205-.191.132-.346.367-.464.704zm2.57 1.559c-.246.082-.636.18-1.169.294-.533.114-.882.225-1.046.335-.251.178-.376.403-.376.677 0 .268.1.5.301.697.2.196.456.294.765.294.347 0 .677-.114.992-.342.232-.173.385-.385.458-.636.05-.164.075-.476.075-.936v-.383zM232.624 28V17.98h1.921V28h-1.921zM72.664 50h-1.785v-1.066a2.904 2.904 0 01-1.053.93c-.4.2-.806.3-1.217.3-.834 0-1.55-.335-2.146-1.005-.593-.674-.889-1.613-.889-2.816 0-1.23.29-2.165.868-2.803.58-.642 1.31-.964 2.195-.964.81 0 1.513.338 2.105 1.012v-3.61h1.921V50zm-5.128-3.787c0 .775.107 1.335.321 1.682.31.501.743.752 1.3.752.441 0 .817-.187 1.127-.56.31-.38.465-.942.465-1.69 0-.833-.15-1.433-.451-1.797-.3-.37-.686-.554-1.155-.554-.456 0-.839.182-1.149.547-.305.36-.458.9-.458 1.62zm11.232 1.477l1.914.321c-.246.702-.636 1.237-1.17 1.606-.528.365-1.191.547-1.989.547-1.262 0-2.196-.412-2.802-1.237-.479-.66-.718-1.495-.718-2.502 0-1.203.314-2.144.943-2.823.63-.684 1.424-1.026 2.386-1.026 1.08 0 1.932.358 2.557 1.074.624.71.922 1.802.895 3.274h-4.812c.013.57.168 1.014.465 1.333a1.46 1.46 0 001.107.472c.3 0 .554-.082.759-.246.205-.164.36-.429.465-.793zm.109-1.942c-.014-.556-.157-.977-.43-1.264a1.317 1.317 0 00-.999-.438c-.419 0-.765.153-1.039.458-.273.306-.408.72-.403 1.244h2.871zM84.353 50l-2.926-7.26h2.016l1.368 3.706.396 1.237c.105-.315.17-.522.198-.622.064-.205.132-.41.205-.615l1.381-3.706h1.976L86.082 50h-1.73zm5.796-8.244V39.98h1.921v1.777h-1.92zm0 8.244v-7.26h1.921V50h-1.92zm10.227-5.113l-1.894.342c-.063-.379-.21-.663-.437-.855-.223-.191-.515-.287-.875-.287-.479 0-.861.166-1.148.5-.283.327-.424.879-.424 1.653 0 .862.143 1.47.43 1.826.292.355.682.533 1.17.533.364 0 .662-.103.895-.308.232-.21.396-.567.492-1.073l1.887.321c-.196.866-.572 1.52-1.128 1.962-.556.442-1.301.663-2.236.663-1.062 0-1.91-.335-2.543-1.005-.629-.67-.943-1.597-.943-2.782 0-1.198.317-2.13.95-2.796.634-.67 1.49-1.005 2.57-1.005.885 0 1.587.192 2.106.575.524.378.9.957 1.128 1.736zm5.667 2.803l1.914.321c-.246.702-.636 1.237-1.169 1.606-.529.365-1.192.547-1.989.547-1.263 0-2.197-.412-2.803-1.237-.478-.66-.718-1.495-.718-2.502 0-1.203.315-2.144.944-2.823.629-.684 1.424-1.026 2.385-1.026 1.081 0 1.933.358 2.557 1.074.624.71.923 1.802.896 3.274h-4.813c.014.57.169 1.014.465 1.333.296.315.665.472 1.107.472.301 0 .554-.082.759-.246.205-.164.36-.429.465-.793zm.109-1.942c-.013-.556-.157-.977-.43-1.264a1.318 1.318 0 00-.998-.438c-.42 0-.766.153-1.039.458-.274.306-.408.72-.404 1.244h2.871zm2.803 2.181l1.928-.294c.082.374.248.659.499.855.25.19.601.287 1.053.287.496 0 .87-.092 1.121-.274a.612.612 0 00.253-.513.505.505 0 00-.137-.362c-.096-.091-.31-.175-.643-.253-1.549-.342-2.531-.654-2.946-.936-.574-.392-.861-.937-.861-1.634 0-.629.248-1.158.745-1.586.497-.428 1.267-.643 2.31-.643.994 0 1.732.162 2.215.486.483.323.816.802.998 1.435l-1.811.335a1.116 1.116 0 00-.445-.65c-.214-.15-.521-.225-.922-.225-.506 0-.869.07-1.087.212a.455.455 0 00-.219.39c0 .137.064.253.191.349.173.127.77.307 1.791.54 1.026.232 1.741.517 2.147.854.401.342.601.818.601 1.429 0 .665-.278 1.237-.834 1.715-.556.479-1.378.718-2.467.718-.989 0-1.773-.2-2.352-.601a2.778 2.778 0 01-1.128-1.634zm11.922-1.661c0-.638.157-1.256.472-1.853a3.236 3.236 0 011.333-1.367 3.98 3.98 0 011.934-.472c1.099 0 1.999.358 2.7 1.074.702.71 1.053 1.61 1.053 2.7 0 1.098-.355 2.01-1.066 2.734-.707.72-1.598 1.08-2.673 1.08-.665 0-1.301-.15-1.907-.45a3.105 3.105 0 01-1.374-1.32c-.315-.584-.472-1.292-.472-2.126zm1.969.102c0 .72.171 1.272.512 1.655a1.63 1.63 0 001.265.574 1.61 1.61 0 001.258-.574c.342-.383.513-.94.513-1.668 0-.711-.171-1.258-.513-1.64a1.61 1.61 0 00-1.258-.575 1.63 1.63 0 00-1.265.574c-.341.383-.512.934-.512 1.654zM136.483 50h-1.921v-3.705c0-.784-.041-1.29-.123-1.517a1.058 1.058 0 00-.403-.54 1.126 1.126 0 00-.663-.192c-.333 0-.631.091-.895.274a1.39 1.39 0 00-.547.724c-.096.301-.144.857-.144 1.668V50h-1.921v-7.26h1.784v1.067c.634-.82 1.431-1.23 2.393-1.23.424 0 .811.077 1.162.232.351.15.615.344.793.58.182.238.308.507.376.807.073.301.109.732.109 1.293V50zm9.181-7.26v1.532h-1.312v2.925c0 .593.011.94.034 1.04a.44.44 0 00.171.239c.091.064.2.096.328.096.177 0 .435-.062.772-.185l.164 1.49a3.814 3.814 0 01-1.517.287 2.45 2.45 0 01-.937-.17c-.278-.12-.483-.27-.615-.452-.128-.187-.217-.437-.267-.752-.041-.223-.061-.674-.061-1.353v-3.165h-.882V42.74h.882v-1.442l1.928-1.121v2.563h1.312zm3.247-2.761v3.684c.62-.724 1.36-1.087 2.222-1.087.442 0 .841.082 1.196.246.356.165.622.374.8.63.182.255.305.537.369.847.068.31.103.79.103 1.443V50h-1.921v-3.835c0-.76-.037-1.244-.11-1.449a.928.928 0 00-.389-.485c-.183-.123-.413-.185-.691-.185-.319 0-.604.078-.854.233-.251.154-.435.39-.554.704-.114.31-.171.77-.171 1.38V50h-1.921V39.98h1.921zm10.849 7.71l1.914.322c-.246.702-.636 1.237-1.169 1.606-.529.365-1.192.547-1.989.547-1.263 0-2.197-.412-2.803-1.237-.479-.66-.718-1.495-.718-2.502 0-1.203.315-2.144.943-2.823.629-.684 1.425-1.026 2.386-1.026 1.08 0 1.933.358 2.557 1.074.624.71.923 1.802.895 3.274h-4.812c.014.57.168 1.014.465 1.333.296.315.665.472 1.107.472.301 0 .554-.082.759-.246.205-.164.36-.429.465-.793zm.109-1.94c-.014-.557-.157-.978-.431-1.265a1.316 1.316 0 00-.998-.438c-.419 0-.765.153-1.039.458-.273.306-.408.72-.403 1.244h2.871zM167.163 50V39.98h1.921v3.61c.592-.675 1.294-1.013 2.105-1.013.885 0 1.616.322 2.195.964.579.638.868 1.557.868 2.755 0 1.24-.296 2.194-.889 2.864-.588.67-1.303 1.005-2.146 1.005-.415 0-.825-.102-1.231-.307a2.98 2.98 0 01-1.039-.923V50h-1.784zm1.907-3.787c0 .752.119 1.308.356 1.668.332.51.775.766 1.326.766.424 0 .784-.18 1.08-.54.301-.365.451-.937.451-1.716 0-.83-.15-1.427-.451-1.791a1.425 1.425 0 00-1.155-.554c-.461 0-.843.18-1.149.54-.305.356-.458.898-.458 1.627zm8.169-1.258l-1.743-.314c.196-.702.533-1.221 1.012-1.559.478-.337 1.189-.506 2.133-.506.856 0 1.494.103 1.914.308.419.2.713.458.882.773.173.31.259.881.259 1.715l-.02 2.242c0 .639.029 1.11.089 1.416.063.3.18.624.348.97h-1.9a7.121 7.121 0 01-.185-.567 3.358 3.358 0 00-.068-.226 3.459 3.459 0 01-1.053.718 3.01 3.01 0 01-1.196.24c-.747 0-1.338-.203-1.771-.61-.428-.405-.642-.917-.642-1.537 0-.41.098-.775.294-1.094.196-.324.469-.57.82-.738.356-.173.866-.324 1.531-.451.898-.169 1.52-.326 1.867-.472v-.191c0-.37-.092-.632-.274-.787-.182-.16-.526-.239-1.032-.239-.342 0-.608.069-.8.205-.191.132-.346.367-.465.704zm2.571 1.559c-.247.082-.636.18-1.169.294-.534.114-.882.225-1.046.335-.251.178-.376.403-.376.677 0 .269.1.5.301.697.2.196.455.294.765.294.347 0 .677-.114.991-.342a1.2 1.2 0 00.458-.636c.051-.164.076-.476.076-.936v-.383zm7.116-3.774v1.532h-1.313v2.925c0 .593.012.94.034 1.04a.45.45 0 00.171.239.56.56 0 00.328.096c.178 0 .436-.062.773-.185l.164 1.49a3.819 3.819 0 01-1.518.287c-.346 0-.658-.057-.936-.17-.278-.12-.483-.27-.615-.452-.128-.187-.217-.437-.267-.752-.041-.223-.061-.674-.061-1.353v-3.165h-.882V42.74h.882v-1.442l1.927-1.121v2.563h1.313zm4.662 0v1.532h-1.313v2.925c0 .593.012.94.035 1.04a.444.444 0 00.17.239.561.561 0 00.329.096c.177 0 .435-.062.772-.185l.164 1.49a3.814 3.814 0 01-1.517.287 2.45 2.45 0 01-.937-.17c-.278-.12-.483-.27-.615-.452-.128-.187-.217-.437-.267-.752-.041-.223-.061-.674-.061-1.353v-3.165h-.882V42.74h.882v-1.442l1.927-1.121v2.563h1.313zm1.333 7.26V39.98h1.921V50h-1.921zm8.1-2.31l1.915.321c-.247.702-.636 1.237-1.169 1.606-.529.365-1.192.547-1.99.547-1.262 0-2.196-.412-2.802-1.237-.479-.66-.718-1.495-.718-2.502 0-1.203.314-2.144.943-2.823.629-.684 1.424-1.026 2.386-1.026 1.08 0 1.932.358 2.557 1.074.624.71.922 1.802.895 3.274h-4.812c.013.57.168 1.014.464 1.333a1.46 1.46 0 001.108.472c.301 0 .554-.082.759-.246.205-.164.36-.429.464-.793zm.11-1.942c-.014-.556-.157-.977-.431-1.264a1.316 1.316 0 00-.998-.438c-.419 0-.765.153-1.039.458-.273.306-.408.72-.403 1.244h2.871zm2.639-3.008h1.066v-.546c0-.611.064-1.067.191-1.368.133-.3.372-.544.718-.731.351-.191.793-.287 1.326-.287.547 0 1.083.082 1.607.246l-.26 1.34a3.791 3.791 0 00-.882-.11c-.278 0-.478.066-.601.199-.119.127-.178.376-.178.745v.512h1.435v1.511h-1.435v5.75h-1.921v-5.75h-1.066v-1.51zm5.502-.984V39.98h1.921v1.777h-1.921zm0 8.244v-7.26h1.921V50h-1.921zm8.101-2.31l1.914.321c-.246.702-.636 1.237-1.169 1.606-.528.365-1.192.547-1.989.547-1.262 0-2.197-.412-2.803-1.237-.478-.66-.718-1.495-.718-2.502 0-1.203.315-2.144.944-2.823.629-.684 1.424-1.026 2.386-1.026 1.08 0 1.932.358 2.556 1.074.624.71.923 1.802.896 3.274h-4.813c.014.57.169 1.014.465 1.333.296.315.665.472 1.107.472.301 0 .554-.082.759-.246.205-.164.36-.429.465-.793zm.109-1.942c-.013-.556-.157-.977-.43-1.264a1.318 1.318 0 00-.998-.438c-.42 0-.766.153-1.039.458-.274.306-.408.72-.404 1.244h2.871zm3.48 4.252V39.98h1.921V50h-1.921zm10.555 0h-1.785v-1.066a2.906 2.906 0 01-1.052.93c-.401.2-.807.3-1.217.3-.834 0-1.55-.335-2.147-1.005-.592-.674-.888-1.613-.888-2.816 0-1.23.289-2.165.868-2.803.579-.642 1.31-.964 2.194-.964.811 0 1.513.338 2.106 1.012v-3.61h1.921V50zm-5.127-3.787c0 .775.107 1.335.321 1.682.31.501.743.752 1.299.752.442 0 .818-.187 1.128-.56.31-.38.465-.942.465-1.69 0-.833-.151-1.433-.452-1.797-.3-.37-.686-.554-1.155-.554-.456 0-.838.182-1.148.547-.306.36-.458.9-.458 1.62z" fill="#fff"/><path d="M40.46 49v-5.76H28.743v-4.805L41.164 20.25h4.61v18.164h3.554v4.825h-3.555V49h-5.312zm0-10.586V28.63l-6.581 9.785h6.582z" fill="#6C725F"/></svg>