<svg width="304" height="70" fill="none" xmlns="http://www.w3.org/2000/svg"><path d="M303 20c0-10.493-8.507-19-19-19H63.397a19 19 0 00-8.967 2.25l-28.02 15c-13.377 7.16-13.377 26.34 0 33.501l28.02 15a19 19 0 008.967 2.25H284c10.493 0 19-8.507 19-19V20z" fill="#fff" stroke="#646C59" stroke-width="2" stroke-linejoin="round"/><path d="M88.43 36.316l1.963.622c-.301 1.093-.802 1.907-1.504 2.44-.698.529-1.584.793-2.66.793-1.33 0-2.424-.453-3.28-1.36-.858-.912-1.286-2.156-1.286-3.733 0-1.668.43-2.962 1.292-3.882.861-.926 1.994-1.388 3.398-1.388 1.226 0 2.221.362 2.987 1.087.456.428.797 1.043 1.025 1.845l-2.003.479c-.118-.52-.367-.93-.745-1.23-.374-.301-.83-.452-1.367-.452-.743 0-1.347.267-1.811.8-.46.533-.691 1.397-.691 2.591 0 1.267.228 2.17.684 2.707.455.538 1.048.807 1.777.807.538 0 1-.171 1.388-.513.387-.342.665-.88.834-1.613zm3.248-.048c0-.638.157-1.256.471-1.853a3.243 3.243 0 011.333-1.367 3.985 3.985 0 011.935-.472c1.098 0 1.998.358 2.7 1.074.702.71 1.053 1.61 1.053 2.7 0 1.098-.356 2.01-1.067 2.734-.706.72-1.597 1.08-2.672 1.08a4.25 4.25 0 01-1.908-.45 3.11 3.11 0 01-1.374-1.32c-.314-.584-.471-1.292-.471-2.126zm1.969.102c0 .72.17 1.272.512 1.655.342.383.763.574 1.265.574.501 0 .92-.191 1.258-.574.341-.383.512-.94.512-1.668 0-.711-.17-1.258-.512-1.64a1.609 1.609 0 00-1.258-.575c-.502 0-.923.191-1.265.574-.342.383-.513.934-.513 1.654zm6.89-3.63h1.771v.992c.633-.77 1.387-1.156 2.262-1.156.465 0 .868.096 1.21.288.342.19.622.48.841.868.319-.388.663-.677 1.032-.868a2.534 2.534 0 011.183-.288c.533 0 .984.11 1.353.328.37.215.645.531.828.95.132.31.198.812.198 1.505V40h-1.921v-4.15c0-.72-.066-1.184-.198-1.394-.178-.273-.451-.41-.821-.41a1.31 1.31 0 00-.758.246c-.237.164-.408.406-.513.725-.105.314-.157.813-.157 1.497V40h-1.921v-3.978c0-.707-.034-1.162-.103-1.367a.862.862 0 00-.321-.459c-.141-.1-.335-.15-.581-.15-.296 0-.563.08-.8.24a1.33 1.33 0 00-.513.69c-.1.3-.15.8-.15 1.497V40h-1.921v-7.26zm12.544 0h1.791v1.067a2.68 2.68 0 012.263-1.23c.843 0 1.558.33 2.146.99.588.661.882 1.582.882 2.762 0 1.213-.296 2.156-.889 2.83-.592.67-1.31 1.005-2.153 1.005-.401 0-.766-.08-1.094-.239-.323-.16-.665-.433-1.025-.82v3.657h-1.921V32.74zm1.9 3.507c0 .816.162 1.42.486 1.812.323.387.718.58 1.182.58.447 0 .818-.177 1.115-.532.296-.36.444-.948.444-1.764 0-.761-.153-1.326-.458-1.695-.305-.37-.684-.554-1.135-.554a1.47 1.47 0 00-1.169.547c-.31.36-.465.895-.465 1.606zm8.149-1.292l-1.743-.314c.196-.702.533-1.221 1.011-1.559.479-.337 1.19-.506 2.133-.506.857 0 1.495.103 1.914.308.42.2.714.458.882.773.173.31.26.881.26 1.715l-.021 2.242c0 .639.03 1.11.089 1.416.064.3.18.624.349.97h-1.9a6.73 6.73 0 01-.185-.567 4.12 4.12 0 00-.068-.226 3.47 3.47 0 01-1.053.718 3.01 3.01 0 01-1.196.24c-.748 0-1.338-.203-1.771-.61-.428-.405-.643-.917-.643-1.537 0-.41.098-.775.294-1.094.196-.324.47-.57.821-.738.355-.173.866-.324 1.531-.451.898-.169 1.52-.326 1.866-.472v-.191c0-.37-.091-.632-.273-.787-.183-.16-.527-.239-1.032-.239-.342 0-.609.069-.8.205-.192.132-.347.367-.465.704zm2.57 1.559c-.246.082-.636.18-1.169.294-.533.114-.882.225-1.046.335-.25.178-.376.403-.376.677 0 .269.101.5.301.697.201.196.456.294.766.294.346 0 .677-.114.991-.342.232-.173.385-.385.458-.636.05-.164.075-.476.075-.936v-.383zm10.117-1.627l-1.893.342c-.064-.379-.21-.663-.438-.855-.223-.191-.515-.287-.875-.287-.478 0-.861.166-1.148.5-.283.327-.424.879-.424 1.653 0 .862.144 1.47.431 1.826.291.355.681.533 1.169.533.364 0 .663-.103.895-.308.233-.21.397-.567.492-1.073l1.887.321c-.196.866-.572 1.52-1.128 1.962-.556.442-1.301.663-2.235.663-1.062 0-1.91-.335-2.543-1.005-.629-.67-.944-1.597-.944-2.782 0-1.198.317-2.13.951-2.796.633-.67 1.49-1.005 2.57-1.005.884 0 1.586.192 2.105.575.525.378.901.957 1.128 1.736zm4.792-2.147v1.532h-1.312v2.925c0 .593.011.94.034 1.04a.44.44 0 00.171.239c.091.064.2.096.328.096.178 0 .435-.062.773-.185l.164 1.49a3.822 3.822 0 01-1.518.287c-.346 0-.659-.057-.937-.17-.277-.12-.483-.27-.615-.452-.127-.187-.216-.437-.266-.752-.041-.223-.062-.674-.062-1.353v-3.165h-.882V32.74h.882v-1.442l1.928-1.121v2.563h1.312zm4.553 5.189l1.928-.294c.082.374.248.659.499.855.251.19.601.287 1.053.287.496 0 .87-.092 1.121-.274a.612.612 0 00.253-.513.505.505 0 00-.137-.362c-.096-.091-.31-.175-.643-.253-1.549-.342-2.531-.654-2.946-.936-.574-.392-.861-.937-.861-1.634 0-.629.248-1.158.745-1.586.497-.428 1.267-.643 2.31-.643.994 0 1.732.162 2.215.486.483.323.816.802.998 1.435l-1.811.335a1.116 1.116 0 00-.445-.65c-.214-.15-.521-.225-.922-.225-.506 0-.869.07-1.087.212a.455.455 0 00-.219.39c0 .137.064.253.191.349.173.127.77.307 1.791.54 1.026.232 1.741.517 2.147.854.401.342.601.818.601 1.429 0 .665-.278 1.237-.834 1.715-.556.479-1.378.718-2.467.718-.989 0-1.773-.2-2.352-.601a2.778 2.778 0 01-1.128-1.634zm8.47-6.173V29.98h1.921v1.777h-1.921zm0 8.244v-7.26h1.921V40h-1.921zm3.124 0v-1.497l2.721-3.124c.446-.51.777-.873.991-1.087-.224.014-.517.023-.882.028l-2.564.013V32.74h6.002v1.36l-2.775 3.2-.978 1.06c.534-.032.864-.048.992-.048h2.973V40h-6.48zm11.976-2.31l1.914.321c-.246.702-.635 1.237-1.168 1.606-.529.365-1.192.547-1.99.547-1.262 0-2.196-.412-2.802-1.237-.479-.66-.718-1.495-.718-2.502 0-1.203.314-2.144.943-2.823.629-.684 1.424-1.026 2.386-1.026 1.08 0 1.932.358 2.557 1.074.624.71.922 1.802.895 3.274h-4.812c.013.57.168 1.014.464 1.333a1.46 1.46 0 001.108.472c.301 0 .553-.082.759-.246.205-.164.36-.429.464-.793zm.11-1.942c-.014-.556-.157-.977-.431-1.264a1.316 1.316 0 00-.998-.438c-.419 0-.766.153-1.039.458-.273.306-.408.72-.403 1.244h2.871zm8.811-.793l-1.743-.314c.196-.702.533-1.221 1.012-1.559.478-.337 1.189-.506 2.133-.506.856 0 1.494.103 1.914.308.419.2.713.458.882.773.173.31.259.881.259 1.715l-.02 2.242c0 .639.029 1.11.089 1.416.064.3.18.624.348.97h-1.9a7.121 7.121 0 01-.185-.567 3.358 3.358 0 00-.068-.226 3.459 3.459 0 01-1.053.718 3.01 3.01 0 01-1.196.24c-.747 0-1.338-.203-1.771-.61-.428-.405-.642-.917-.642-1.537 0-.41.098-.775.294-1.094.196-.324.469-.57.82-.738.356-.173.866-.324 1.531-.451.898-.169 1.52-.326 1.867-.472v-.191c0-.37-.092-.632-.274-.787-.182-.16-.526-.239-1.032-.239-.342 0-.608.069-.8.205-.191.132-.346.367-.465.704zm2.571 1.559c-.246.082-.636.18-1.169.294-.534.114-.882.225-1.046.335-.251.178-.376.403-.376.677 0 .269.1.5.301.697.2.196.455.294.765.294.347 0 .677-.114.991-.342.233-.173.386-.385.458-.636.051-.164.076-.476.076-.936v-.383zM190.614 40h-1.921v-3.705c0-.784-.041-1.29-.123-1.517a1.058 1.058 0 00-.403-.54 1.126 1.126 0 00-.663-.192c-.333 0-.631.091-.896.274a1.394 1.394 0 00-.546.724c-.096.301-.144.857-.144 1.668V40h-1.921v-7.26h1.784v1.067c.634-.82 1.431-1.23 2.393-1.23.424 0 .811.077 1.162.232.351.15.615.344.793.58.182.238.308.507.376.807.073.301.109.732.109 1.293V40zm8.614 0h-1.785v-1.066a2.906 2.906 0 01-1.052.93c-.401.2-.807.3-1.217.3-.834 0-1.55-.335-2.147-1.005-.592-.674-.888-1.613-.888-2.816 0-1.23.289-2.165.868-2.803.579-.642 1.31-.964 2.194-.964.811 0 1.513.338 2.106 1.012v-3.61h1.921V40zm-5.127-3.787c0 .775.107 1.335.321 1.682.31.501.743.752 1.299.752.442 0 .818-.187 1.128-.56.31-.38.464-.942.464-1.69 0-.833-.15-1.433-.451-1.797-.3-.37-.686-.554-1.155-.554-.456 0-.839.182-1.148.547-.306.36-.458.9-.458 1.62zM205.024 40V29.98h1.921V40h-1.921zm3.453-3.732c0-.638.157-1.256.471-1.853a3.247 3.247 0 011.333-1.367 3.987 3.987 0 011.935-.472c1.098 0 1.998.358 2.7 1.074.702.71 1.053 1.61 1.053 2.7 0 1.098-.356 2.01-1.067 2.734-.706.72-1.597 1.08-2.673 1.08-.665 0-1.301-.15-1.907-.45a3.108 3.108 0 01-1.374-1.32c-.314-.584-.471-1.292-.471-2.126zm1.968.102c0 .72.171 1.272.513 1.655.342.383.763.574 1.265.574.501 0 .92-.191 1.257-.574.342-.383.513-.94.513-1.668 0-.711-.171-1.258-.513-1.64a1.607 1.607 0 00-1.257-.575c-.502 0-.923.191-1.265.574-.342.383-.513.934-.513 1.654zm8.388 3.63l-2.297-7.26h1.866l1.361 4.758 1.251-4.758h1.852l1.21 4.758 1.388-4.758h1.893L225.026 40h-1.845l-1.251-4.669-1.231 4.67h-1.866zm14.793 0l-2.297-7.26h1.866l1.361 4.758 1.251-4.758h1.852l1.21 4.758 1.388-4.758h1.893L239.819 40h-1.845l-1.251-4.669-1.231 4.67h-1.866zm13.747-2.31l1.914.321c-.246.702-.636 1.237-1.169 1.606-.528.365-1.192.547-1.989.547-1.262 0-2.197-.412-2.803-1.237-.478-.66-.718-1.495-.718-2.502 0-1.203.315-2.144.944-2.823.629-.684 1.424-1.026 2.386-1.026 1.08 0 1.932.358 2.556 1.074.624.71.923 1.802.896 3.274h-4.813c.014.57.169 1.014.465 1.333.296.315.665.472 1.107.472.301 0 .554-.082.759-.246.205-.164.36-.429.465-.793zm.109-1.942c-.013-.556-.157-.977-.43-1.264a1.318 1.318 0 00-.998-.438c-.42 0-.766.153-1.039.458-.274.306-.408.72-.404 1.244h2.871zm3.48-3.992V29.98h1.921v1.777h-1.921zm0 8.244v-7.26h1.921V40h-1.921zm3.719.479l2.194.266c.036.256.121.431.253.527.182.136.469.205.861.205.502 0 .878-.075 1.128-.226.169-.1.296-.262.383-.485.059-.16.089-.454.089-.882v-1.06c-.574.784-1.299 1.176-2.174 1.176-.975 0-1.748-.412-2.317-1.237-.447-.652-.67-1.463-.67-2.434 0-1.217.291-2.146.875-2.789a2.845 2.845 0 012.187-.964c.898 0 1.639.395 2.222 1.183V32.74h1.798v6.515c0 .857-.071 1.497-.212 1.921-.141.424-.34.756-.595.998-.255.242-.597.43-1.025.568-.424.136-.962.205-1.614.205-1.23 0-2.103-.212-2.618-.636-.515-.42-.772-.953-.772-1.6 0-.064.002-.141.007-.232zm1.715-4.259c0 .77.149 1.335.445 1.695.301.356.67.534 1.107.534.47 0 .866-.183 1.19-.547.323-.37.485-.914.485-1.634 0-.752-.155-1.31-.465-1.675a1.478 1.478 0 00-1.176-.547c-.46 0-.84.18-1.141.54-.296.356-.445.9-.445 1.634zm8.935-6.241v3.684c.62-.724 1.36-1.087 2.222-1.087.442 0 .841.082 1.196.246.355.165.622.374.8.63.182.255.305.537.369.847.068.31.103.79.103 1.443V40H268.1v-3.835c0-.76-.037-1.244-.11-1.449a.933.933 0 00-.389-.485c-.183-.123-.413-.185-.691-.185-.319 0-.604.078-.854.233-.251.154-.436.39-.554.704-.114.31-.171.77-.171 1.38V40h-1.921V29.98h1.921zm9.974 2.761v1.532h-1.313v2.925c0 .593.012.94.034 1.04a.45.45 0 00.171.239.558.558 0 00.328.096c.178 0 .436-.062.773-.185l.164 1.49a3.822 3.822 0 01-1.518.287c-.346 0-.658-.057-.936-.17-.278-.12-.483-.27-.615-.452-.128-.187-.217-.437-.267-.752-.041-.223-.062-.674-.062-1.353v-3.165h-.881V32.74h.881v-1.442l1.928-1.121v2.563h1.313z" fill="#000"/><path d="M45.504 41.403l5.312-.645c.17 1.354.625 2.39 1.368 3.105.742.717 1.64 1.075 2.695 1.075 1.133 0 2.083-.43 2.852-1.29.78-.859 1.171-2.018 1.171-3.476 0-1.38-.37-2.474-1.113-3.281-.742-.807-1.647-1.211-2.715-1.211-.703 0-1.543.137-2.52.41l.606-4.473c1.485.04 2.617-.28 3.399-.957.78-.69 1.172-1.601 1.172-2.734 0-.963-.287-1.732-.86-2.305-.573-.573-1.335-.859-2.285-.859-.938 0-1.738.325-2.402.976-.664.652-1.068 1.602-1.211 2.852l-5.059-.86c.352-1.731.879-3.111 1.582-4.14.716-1.042 1.706-1.855 2.969-2.441 1.276-.6 2.702-.899 4.277-.899 2.696 0 4.857.86 6.485 2.578 1.34 1.407 2.011 2.995 2.011 4.766 0 2.513-1.373 4.518-4.12 6.016 1.64.351 2.948 1.139 3.925 2.363.99 1.224 1.484 2.702 1.484 4.434 0 2.513-.918 4.654-2.754 6.425-1.836 1.771-4.12 2.657-6.855 2.657-2.591 0-4.74-.743-6.445-2.227-1.706-1.497-2.696-3.45-2.97-5.86z" fill="#6C725F"/></svg>