<svg width="304" height="70" fill="none" xmlns="http://www.w3.org/2000/svg"><path d="M0 20C0 8.955 8.954 0 20 0h219.799c3.302 0 6.553.818 9.463 2.38l27.93 15c14.049 7.546 14.049 27.695 0 35.24l-27.93 15a20.004 20.004 0 01-9.463 2.38H20C8.954 70 0 61.046 0 50V20z" fill="#333"/><path d="M66.005 17.979h2.023v5.428c0 .86.025 1.42.075 1.674.087.41.292.74.616.992.328.246.775.369 1.34.369.574 0 1.007-.117 1.298-.349.292-.237.468-.526.527-.868.059-.342.089-.91.089-1.702v-5.544h2.023v5.263c0 1.204-.055 2.053-.164 2.55a2.8 2.8 0 01-.608 1.258c-.292.342-.684.615-1.176.82-.492.2-1.135.301-1.928.301-.957 0-1.684-.11-2.18-.328-.493-.223-.882-.51-1.17-.861a2.789 2.789 0 01-.567-1.115c-.132-.574-.198-1.421-.198-2.543V17.98zm9.44 7.95l1.928-.294c.082.374.248.659.5.854.25.192.6.288 1.052.288.496 0 .87-.091 1.12-.274a.61.61 0 00.254-.512.504.504 0 00-.137-.363c-.096-.091-.31-.175-.643-.253-1.549-.342-2.531-.654-2.946-.936-.574-.392-.861-.937-.861-1.634 0-.629.248-1.158.745-1.586.497-.428 1.267-.643 2.31-.643.994 0 1.732.162 2.215.486.484.323.816.802.999 1.435l-1.812.335a1.114 1.114 0 00-.444-.65c-.215-.15-.522-.225-.923-.225-.506 0-.868.07-1.087.212a.455.455 0 00-.219.39c0 .137.064.253.192.348.173.128.77.308 1.79.54 1.026.233 1.741.518 2.147.855.401.342.602.818.602 1.429 0 .665-.278 1.237-.834 1.715-.556.479-1.379.718-2.468.718-.99 0-1.773-.2-2.352-.601a2.776 2.776 0 01-1.128-1.634zm12.674-.24l1.914.322c-.246.702-.636 1.237-1.169 1.606-.528.365-1.192.547-1.989.547-1.262 0-2.197-.412-2.803-1.237-.478-.66-.718-1.495-.718-2.502 0-1.203.315-2.144.944-2.823.629-.684 1.424-1.026 2.386-1.026 1.08 0 1.932.358 2.556 1.074.625.71.923 1.802.896 3.274h-4.813c.014.57.169 1.014.465 1.333a1.46 1.46 0 001.108.472c.3 0 .553-.082.758-.246.205-.164.36-.429.465-.793zm.11-1.94c-.014-.557-.158-.978-.431-1.265a1.317 1.317 0 00-.998-.438c-.42 0-.766.153-1.04.458-.273.305-.407.72-.403 1.244h2.871zM98.365 28h-1.784v-1.066a2.904 2.904 0 01-1.053.93c-.4.2-.806.3-1.216.3-.835 0-1.55-.335-2.147-1.005-.592-.674-.889-1.613-.889-2.816 0-1.23.29-2.165.868-2.803.58-.642 1.31-.964 2.195-.964.811 0 1.513.338 2.105 1.012v-3.61h1.921V28zm-5.127-3.787c0 .775.107 1.335.322 1.682.31.501.742.752 1.298.752.442 0 .818-.187 1.128-.56.31-.38.465-.942.465-1.69 0-.833-.15-1.433-.451-1.797-.3-.37-.686-.554-1.155-.554-.456 0-.839.182-1.149.547-.305.36-.458.9-.458 1.62zM104.081 28V17.98h1.921v3.61c.592-.675 1.294-1.013 2.105-1.013.885 0 1.616.322 2.195.964.579.638.868 1.557.868 2.755 0 1.24-.296 2.194-.889 2.864-.588.67-1.303 1.005-2.146 1.005-.415 0-.825-.102-1.231-.307a2.98 2.98 0 01-1.039-.923V28h-1.784zm1.907-3.787c0 .752.119 1.308.356 1.668.332.51.774.766 1.326.766.424 0 .784-.18 1.08-.54.301-.365.451-.937.451-1.716 0-.83-.15-1.427-.451-1.791a1.425 1.425 0 00-1.155-.554c-.461 0-.843.18-1.149.54-.305.356-.458.898-.458 1.627zm5.824-3.473h2.044l1.737 5.155 1.695-5.154h1.989l-2.563 6.986-.458 1.264c-.169.424-.331.748-.485.971a1.988 1.988 0 01-.527.54 2.21 2.21 0 01-.731.328 3.759 3.759 0 01-.978.117c-.369 0-.731-.04-1.087-.117l-.171-1.504c.301.06.572.09.814.09.446 0 .777-.133.991-.397.214-.26.378-.593.492-.998l-2.762-7.28zm15.928 0v1.532h-1.312v2.926c0 .592.011.938.034 1.039a.44.44 0 00.171.239c.091.064.2.096.328.096.178 0 .435-.062.772-.185l.164 1.49a3.814 3.814 0 01-1.517.287c-.346 0-.659-.057-.937-.17-.278-.12-.483-.27-.615-.452-.127-.187-.216-.437-.266-.752-.041-.223-.062-.674-.062-1.353v-3.165h-.882V20.74h.882v-1.443l1.928-1.121v2.564h1.312zm3.247-2.761v3.684c.62-.724 1.361-1.087 2.222-1.087.442 0 .841.082 1.196.247.356.164.622.373.8.628.182.256.305.538.369.848.069.31.103.79.103 1.442v4.26h-1.921v-3.836c0-.76-.037-1.244-.11-1.449a.923.923 0 00-.389-.485c-.182-.123-.413-.185-.691-.185a1.59 1.59 0 00-.854.233c-.251.154-.435.39-.554.704-.114.31-.171.77-.171 1.38V28h-1.921V17.98h1.921zm10.849 7.71l1.914.322c-.246.702-.636 1.237-1.169 1.606-.529.365-1.192.547-1.989.547-1.263 0-2.197-.412-2.803-1.237-.478-.66-.718-1.495-.718-2.502 0-1.203.315-2.144.944-2.823.629-.684 1.424-1.026 2.385-1.026 1.08 0 1.933.358 2.557 1.074.624.71.923 1.802.896 3.274h-4.813c.014.57.169 1.014.465 1.333a1.46 1.46 0 001.107.472c.301 0 .554-.082.759-.246.205-.164.36-.429.465-.793zm.109-1.94c-.013-.557-.157-.978-.43-1.265a1.318 1.318 0 00-.998-.438c-.42 0-.766.153-1.039.458-.274.305-.408.72-.404 1.244h2.871zm7.376-5.77h2.024v5.428c0 .86.025 1.42.075 1.674.087.41.292.74.615.992.328.246.775.369 1.34.369.574 0 1.007-.117 1.299-.349.291-.237.467-.526.526-.868.059-.342.089-.91.089-1.702v-5.544h2.023v5.263c0 1.204-.054 2.053-.164 2.55a2.8 2.8 0 01-.608 1.258c-.292.342-.684.615-1.176.82-.492.2-1.135.301-1.927.301-.958 0-1.684-.11-2.181-.328-.492-.223-.882-.51-1.169-.861a2.787 2.787 0 01-.567-1.115c-.133-.574-.199-1.421-.199-2.543V17.98zM159.438 28v-1.92h1.921V28h-1.921zm3.398-3.26l1.969-.192c.118.66.357 1.146.717 1.456.365.31.855.465 1.47.465.652 0 1.142-.137 1.47-.41.333-.278.499-.602.499-.97a.891.891 0 00-.212-.602c-.137-.169-.378-.315-.725-.438-.237-.082-.777-.228-1.62-.437-1.084-.27-1.845-.6-2.283-.992-.615-.551-.923-1.223-.923-2.016 0-.51.144-.987.431-1.429.292-.447.709-.786 1.251-1.018.547-.233 1.205-.35 1.975-.35 1.258 0 2.204.277 2.837.828.638.551.973 1.287 1.005 2.208l-2.023.089c-.087-.515-.274-.884-.561-1.107-.282-.228-.708-.342-1.278-.342-.588 0-1.048.12-1.381.362a.73.73 0 00-.321.622c0 .237.1.44.301.608.255.215.875.438 1.859.67.984.233 1.711.474 2.181.725a2.75 2.75 0 011.107 1.018c.269.429.403.96.403 1.593a2.95 2.95 0 01-.478 1.614c-.319.5-.77.875-1.354 1.12-.583.242-1.31.363-2.18.363-1.267 0-2.24-.292-2.919-.875-.679-.588-1.085-1.442-1.217-2.564zm9.837 3.26v-1.92h1.921V28h-1.921zM75.056 50h-2.201l-.876-2.276h-4.005L67.146 50H65l3.903-10.021h2.14L75.056 50zm-3.726-3.965l-1.38-3.718-1.354 3.718h2.734zM77.96 50h-1.92v-7.26h1.784v1.033c.306-.488.579-.81.82-.964.247-.155.525-.233.834-.233.438 0 .86.121 1.265.363l-.595 1.675c-.323-.21-.624-.315-.902-.315-.269 0-.497.075-.683.226-.187.145-.335.412-.445.8-.105.387-.157 1.198-.157 2.433V50zm3.474-7.26h1.77v.992c.634-.77 1.388-1.156 2.263-1.156.465 0 .868.096 1.21.288.342.19.622.48.84.868.32-.388.664-.677 1.033-.868a2.524 2.524 0 011.182-.288c.534 0 .985.11 1.354.328.37.215.645.531.827.95.132.31.198.812.198 1.505V50h-1.92v-4.15c0-.72-.067-1.184-.199-1.394-.178-.273-.451-.41-.82-.41a1.31 1.31 0 00-.759.246c-.237.164-.408.406-.513.725-.104.314-.157.813-.157 1.497V50h-1.92v-3.978c0-.707-.035-1.162-.103-1.367a.864.864 0 00-.322-.459c-.14-.1-.334-.15-.58-.15a1.4 1.4 0 00-.8.24 1.33 1.33 0 00-.513.69c-.1.3-.15.8-.15 1.497V50h-1.921v-7.26zm11.689 0h2.044l1.736 5.155L98.6 42.74h1.989l-2.564 6.987-.458 1.265c-.168.423-.33.747-.485.97-.15.223-.326.403-.526.54-.196.142-.44.25-.732.328a3.757 3.757 0 01-.977.117c-.37 0-.732-.04-1.087-.117l-.171-1.504c.3.06.572.09.813.09.447 0 .777-.133.992-.397.214-.26.378-.593.492-.998l-2.762-7.28zm11.922 5.189l1.928-.294c.082.374.248.659.499.855.25.19.601.287 1.052.287.497 0 .871-.092 1.122-.274a.611.611 0 00.252-.513.504.504 0 00-.136-.362c-.096-.091-.31-.175-.643-.253-1.549-.342-2.531-.654-2.946-.936-.574-.392-.861-.937-.861-1.634 0-.629.248-1.158.745-1.586.496-.428 1.267-.643 2.31-.643.994 0 1.732.162 2.215.486.483.323.816.802.998 1.435l-1.811.335a1.116 1.116 0 00-.445-.65c-.214-.15-.522-.225-.923-.225-.505 0-.868.07-1.087.212a.456.456 0 00-.218.39c0 .137.064.253.191.349.173.127.77.307 1.791.54 1.026.232 1.741.517 2.147.854.401.342.601.818.601 1.429 0 .665-.278 1.237-.834 1.715-.556.479-1.378.718-2.468.718-.989 0-1.772-.2-2.351-.601a2.778 2.778 0 01-1.128-1.634zm8.47-6.173V39.98h1.921v1.777h-1.921zm0 8.244v-7.26h1.921V50h-1.921zm10.5 0h-1.921v-3.705c0-.784-.041-1.29-.123-1.517a1.06 1.06 0 00-.404-.54 1.126 1.126 0 00-.663-.192 1.54 1.54 0 00-.895.274 1.39 1.39 0 00-.547.724c-.096.301-.144.857-.144 1.668V50h-1.921v-7.26h1.785v1.067c.633-.82 1.431-1.23 2.392-1.23.424 0 .811.077 1.162.232.351.15.616.344.793.58.183.238.308.507.376.807.073.301.11.732.11 1.293V50zm8.285-5.113l-1.894.342c-.064-.379-.209-.663-.437-.855-.224-.191-.515-.287-.875-.287-.479 0-.862.166-1.149.5-.282.327-.424.879-.424 1.653 0 .862.144 1.47.431 1.826.292.355.681.533 1.169.533.365 0 .663-.103.896-.308.232-.21.396-.567.492-1.073l1.887.321c-.196.866-.572 1.52-1.128 1.962-.556.442-1.302.663-2.236.663-1.062 0-1.909-.335-2.543-1.005-.629-.67-.943-1.597-.943-2.782 0-1.198.317-2.13.95-2.796.634-.67 1.49-1.005 2.57-1.005.885 0 1.586.192 2.106.575.524.378.9.957 1.128 1.736zm5.667 2.803l1.914.321c-.246.702-.636 1.237-1.169 1.606-.529.365-1.192.547-1.989.547-1.263 0-2.197-.412-2.803-1.237-.479-.66-.718-1.495-.718-2.502 0-1.203.315-2.144.944-2.823.628-.684 1.424-1.026 2.385-1.026 1.08 0 1.933.358 2.557 1.074.624.71.923 1.802.895 3.274h-4.812c.014.57.169 1.014.465 1.333.296.315.665.472 1.107.472.301 0 .554-.082.759-.246.205-.164.36-.429.465-.793zm.109-1.942c-.014-.556-.157-.977-.43-1.264a1.32 1.32 0 00-.999-.438c-.419 0-.765.153-1.039.458-.273.306-.407.72-.403 1.244h2.871zm13.453 2.468V50h-6.733a4.62 4.62 0 01.656-1.914c.365-.606 1.085-1.408 2.16-2.406.866-.807 1.397-1.354 1.593-1.64.264-.397.397-.79.397-1.176 0-.429-.117-.757-.349-.985-.228-.232-.545-.348-.95-.348-.401 0-.72.12-.957.362-.237.241-.374.642-.41 1.203l-1.915-.191c.114-1.058.472-1.816 1.074-2.277.601-.46 1.353-.69 2.256-.69.989 0 1.766.266 2.331.8.565.533.847 1.196.847 1.989 0 .451-.082.882-.246 1.292-.159.405-.415.831-.765 1.278-.233.296-.652.722-1.258 1.278s-.991.926-1.156 1.108c-.159.182-.289.36-.389.533h3.814zm4.553-8.278c.971 0 1.73.346 2.276 1.039.652.82.978 2.18.978 4.08 0 1.897-.328 3.26-.984 4.089-.543.683-1.299 1.025-2.27 1.025-.975 0-1.761-.374-2.358-1.121-.597-.752-.896-2.09-.896-4.013 0-1.886.328-3.244.984-4.074.543-.684 1.299-1.025 2.27-1.025zm0 1.593a.95.95 0 00-.622.225c-.182.146-.324.41-.424.793-.132.497-.198 1.333-.198 2.509s.059 1.985.178 2.427c.118.437.266.729.444.875.182.145.39.218.622.218.232 0 .44-.073.622-.218.182-.15.324-.417.424-.8.132-.492.198-1.326.198-2.502 0-1.176-.059-1.983-.178-2.42-.118-.442-.268-.736-.451-.882a.923.923 0 00-.615-.225zm7.793-1.593c.971 0 1.729.346 2.276 1.039.652.82.978 2.18.978 4.08 0 1.897-.328 3.26-.984 4.089-.543.683-1.299 1.025-2.27 1.025-.975 0-1.761-.374-2.358-1.121-.597-.752-.896-2.09-.896-4.013 0-1.886.328-3.244.984-4.074.543-.684 1.299-1.025 2.27-1.025zm0 1.593a.95.95 0 00-.622.225c-.182.146-.324.41-.424.793-.132.497-.198 1.333-.198 2.509s.059 1.985.178 2.427c.118.437.266.729.444.875.182.145.39.218.622.218.232 0 .44-.073.622-.218.182-.15.324-.417.424-.8.132-.492.198-1.326.198-2.502 0-1.176-.059-1.983-.178-2.42-.118-.442-.268-.736-.451-.882a.925.925 0 00-.615-.225zm6.193 3.062c-.496-.21-.859-.497-1.087-.861a2.297 2.297 0 01-.335-1.21c0-.748.26-1.365.78-1.853.524-.487 1.267-.731 2.228-.731.953 0 1.691.244 2.215.731.529.488.793 1.105.793 1.853 0 .465-.121.88-.362 1.244a2.3 2.3 0 01-1.019.827c.556.223.978.55 1.265.978.292.428.437.922.437 1.483 0 .925-.296 1.677-.888 2.256-.588.579-1.372.868-2.352.868-.911 0-1.67-.24-2.276-.718-.716-.565-1.073-1.34-1.073-2.324 0-.542.134-1.04.403-1.49.269-.456.693-.807 1.271-1.053zm.397-1.935c0 .383.107.682.321.896.219.214.508.321.868.321.365 0 .657-.107.875-.321.219-.219.328-.52.328-.902 0-.36-.109-.648-.328-.862-.214-.218-.499-.328-.854-.328-.369 0-.663.11-.882.328-.219.219-.328.508-.328.868zm-.178 4.293c0 .53.135.941.403 1.238.274.296.613.444 1.019.444.396 0 .725-.141.984-.424.26-.287.39-.7.39-1.237 0-.47-.132-.846-.396-1.128-.265-.287-.6-.43-1.005-.43-.47 0-.821.161-1.053.485a1.79 1.79 0 00-.342 1.052z" fill="#fff"/><path d="M48.234 43.903V49H28.996c.208-1.927.833-3.75 1.875-5.468 1.042-1.732 3.1-4.024 6.172-6.875 2.474-2.305 3.99-3.868 4.55-4.688.756-1.133 1.134-2.253 1.134-3.36 0-1.223-.332-2.16-.996-2.812-.652-.664-1.556-.996-2.715-.996-1.146 0-2.058.345-2.735 1.035s-1.067 1.836-1.172 3.438l-5.468-.547c.325-3.021 1.347-5.189 3.066-6.504 1.719-1.315 3.867-1.973 6.445-1.973 2.826 0 5.046.762 6.66 2.285 1.615 1.524 2.422 3.418 2.422 5.684 0 1.29-.234 2.52-.703 3.691-.456 1.16-1.185 2.377-2.187 3.653-.664.846-1.862 2.063-3.594 3.652-1.732 1.589-2.832 2.643-3.3 3.164a9.786 9.786 0 00-1.114 1.524h10.898z" fill="#6C725F"/></svg>