<svg width="415" height="92" fill="none" xmlns="http://www.w3.org/2000/svg"><path d="M2 20c0-9.941 8.059-18 18-18h302.806c2.926 0 5.807.713 8.395 2.078l49.312 26c12.807 6.752 12.807 25.092 0 31.844l-49.312 26A17.997 17.997 0 01322.806 90H20c-9.941 0-18-8.06-18-18V20z" fill="#fff" stroke="#646C59" stroke-width="4" stroke-linejoin="round"/><path d="M91.612 39V27.547h2.313V39h-2.313zm12.055 0h-2.195v-4.234c0-.896-.047-1.474-.141-1.735a1.21 1.21 0 00-.461-.617 1.288 1.288 0 00-.758-.219c-.38 0-.721.104-1.023.313-.302.208-.51.484-.625.828-.11.344-.164.979-.164 1.906V39h-2.195v-8.297h2.039v1.219c.724-.938 1.635-1.407 2.734-1.407.484 0 .927.089 1.328.266.401.172.703.393.906.664.209.271.352.578.43.922.083.344.125.836.125 1.477V39zm9.469-5.844l-2.164.39c-.073-.431-.24-.757-.5-.976-.256-.219-.589-.328-1-.328-.547 0-.985.19-1.313.57-.323.375-.484 1.006-.484 1.891 0 .984.164 1.68.492 2.086.333.406.779.61 1.336.61.417 0 .758-.118 1.023-.352.266-.24.453-.649.563-1.227l2.156.367c-.224.99-.654 1.737-1.289 2.243-.635.505-1.487.757-2.555.757-1.213 0-2.182-.382-2.906-1.148-.719-.766-1.078-1.826-1.078-3.18 0-1.37.362-2.435 1.086-3.195.724-.766 1.703-1.149 2.937-1.149 1.011 0 1.813.22 2.407.657.599.432 1.028 1.094 1.289 1.984zM116.909 39h-2.195v-8.297h2.039v1.18c.349-.558.661-.925.937-1.102.282-.177.599-.265.954-.265.5 0 .981.138 1.445.414l-.68 1.914c-.37-.24-.713-.36-1.031-.36-.307 0-.568.086-.781.258-.214.167-.383.471-.508.914-.12.443-.18 1.37-.18 2.781V39zm8.938-2.64l2.187.366c-.281.803-.726 1.415-1.336 1.836-.604.417-1.362.625-2.273.625-1.443 0-2.511-.471-3.203-1.414-.547-.755-.821-1.708-.821-2.86 0-1.374.36-2.45 1.078-3.226.719-.78 1.628-1.172 2.727-1.172 1.234 0 2.208.41 2.922 1.227.713.813 1.055 2.06 1.023 3.742h-5.5c.016.651.193 1.16.532 1.524.338.36.76.539 1.265.539.344 0 .633-.094.867-.281.235-.188.412-.49.532-.907zm.125-2.22c-.016-.635-.18-1.117-.493-1.445a1.503 1.503 0 00-1.14-.5c-.479 0-.875.175-1.188.524-.312.349-.466.822-.461 1.422h3.282zm5.617-.906l-1.992-.36c.224-.801.609-1.395 1.156-1.78.547-.386 1.359-.579 2.437-.579.98 0 1.709.118 2.188.352.479.23.815.523 1.008.883.198.354.297 1.008.297 1.96l-.024 2.563c0 .73.034 1.268.102 1.617.073.344.205.714.398 1.11h-2.172a8.487 8.487 0 01-.211-.649 3.493 3.493 0 00-.078-.257 3.958 3.958 0 01-1.203.82 3.446 3.446 0 01-1.367.273c-.854 0-1.529-.231-2.024-.695-.489-.463-.734-1.05-.734-1.758 0-.468.112-.885.336-1.25.224-.37.537-.65.938-.843.406-.198.989-.37 1.75-.516 1.026-.193 1.737-.373 2.132-.54v-.218c0-.422-.104-.721-.312-.898-.208-.183-.602-.274-1.18-.274-.39 0-.695.078-.914.235-.219.15-.396.419-.531.804zm2.937 1.782c-.281.093-.726.205-1.336.335-.609.13-1.007.258-1.195.383-.286.203-.43.461-.43.774 0 .307.115.573.344.797.229.224.521.336.875.336.396 0 .774-.13 1.133-.391.266-.198.44-.44.523-.727.058-.187.086-.544.086-1.07v-.438zm3.555 1.617l2.203-.336c.094.427.284.752.57.976.287.22.688.328 1.204.328.567 0 .994-.104 1.281-.312a.697.697 0 00.289-.586.577.577 0 00-.156-.414c-.11-.104-.354-.2-.735-.29-1.771-.39-2.893-.747-3.367-1.07-.656-.447-.984-1.07-.984-1.867 0-.718.284-1.322.851-1.812.568-.49 1.448-.735 2.641-.735 1.135 0 1.979.185 2.531.555.552.37.932.917 1.141 1.64l-2.071.384a1.27 1.27 0 00-.507-.743c-.245-.171-.597-.257-1.055-.257-.578 0-.992.08-1.242.242a.52.52 0 00-.25.445c0 .156.073.29.219.399.197.145.88.351 2.046.617 1.172.265 1.99.59 2.454.976.458.39.687.935.687 1.633 0 .76-.318 1.414-.953 1.961-.635.547-1.576.82-2.82.82-1.131 0-2.026-.229-2.688-.687a3.174 3.174 0 01-1.289-1.867zm14.484-.274l2.188.367c-.281.803-.727 1.415-1.336 1.836-.604.417-1.362.625-2.273.625-1.443 0-2.511-.471-3.204-1.414-.546-.755-.82-1.708-.82-2.86 0-1.374.359-2.45 1.078-3.226.719-.78 1.628-1.172 2.727-1.172 1.234 0 2.208.41 2.922 1.227.713.813 1.054 2.06 1.023 3.742h-5.5c.016.651.193 1.16.531 1.524.339.36.761.539 1.266.539.344 0 .633-.094.867-.281.235-.188.412-.49.531-.907zm.125-2.218c-.015-.636-.179-1.118-.492-1.446a1.503 1.503 0 00-1.14-.5c-.48 0-.875.175-1.188.524-.312.349-.466.822-.461 1.422h3.281zm3.204 2.492l2.203-.336c.093.427.284.752.57.976.286.22.687.328 1.203.328.568 0 .995-.104 1.281-.312a.697.697 0 00.289-.586.577.577 0 00-.156-.414c-.109-.104-.354-.2-.734-.29-1.771-.39-2.893-.747-3.367-1.07-.657-.447-.985-1.07-.985-1.867 0-.718.284-1.322.852-1.812.568-.49 1.448-.735 2.64-.735 1.136 0 1.98.185 2.532.555.552.37.932.917 1.14 1.64l-2.07.384a1.276 1.276 0 00-.508-.743c-.245-.171-.596-.257-1.055-.257-.578 0-.992.08-1.242.242a.522.522 0 00-.25.445c0 .156.073.29.219.399.198.145.88.351 2.047.617 1.172.265 1.99.59 2.453.976.458.39.688.935.688 1.633 0 .76-.318 1.414-.954 1.961-.635.547-1.575.82-2.82.82-1.13 0-2.026-.229-2.687-.687a3.17 3.17 0 01-1.289-1.867zm13.359 0l2.203-.336c.094.427.284.752.57.976.287.22.688.328 1.203.328.568 0 .995-.104 1.282-.312a.7.7 0 00.289-.586.577.577 0 00-.156-.414c-.11-.104-.355-.2-.735-.29-1.771-.39-2.893-.747-3.367-1.07-.656-.447-.984-1.07-.984-1.867 0-.718.283-1.322.851-1.812.568-.49 1.448-.735 2.641-.735 1.135 0 1.979.185 2.531.555.552.37.932.917 1.141 1.64l-2.071.384a1.27 1.27 0 00-.507-.743c-.245-.171-.597-.257-1.055-.257-.578 0-.992.08-1.242.242a.52.52 0 00-.25.445c0 .156.073.29.218.399.198.145.881.351 2.047.617 1.172.265 1.99.59 2.453.976.459.39.688.935.688 1.633 0 .76-.318 1.414-.953 1.961-.636.547-1.576.82-2.821.82-1.13 0-2.026-.229-2.687-.687a3.174 3.174 0 01-1.289-1.867zM184.394 39v-1.242a3.198 3.198 0 01-1.196 1.047 3.315 3.315 0 01-1.554.382 3.043 3.043 0 01-1.5-.367 2.167 2.167 0 01-.961-1.031c-.198-.443-.297-1.055-.297-1.836v-5.25h2.195v3.813c0 1.166.039 1.882.117 2.148.084.26.232.469.446.625.213.151.484.227.812.227.375 0 .711-.102 1.008-.305.297-.209.5-.464.609-.766.11-.307.164-1.054.164-2.242v-3.5h2.196V39h-2.039zm6.421 0h-2.195v-8.297h2.039v1.18c.349-.558.662-.925.938-1.102a1.75 1.75 0 01.953-.265c.5 0 .982.138 1.445.414l-.68 1.914c-.369-.24-.713-.36-1.031-.36-.307 0-.568.086-.781.258-.214.167-.383.471-.508.914-.12.443-.18 1.37-.18 2.781V39zm6.414 0l-3.343-8.297h2.304l1.563 4.234.453 1.414c.12-.359.195-.596.227-.71.073-.235.151-.47.234-.704l1.578-4.234h2.258L199.206 39h-1.977zm6.625-9.422v-2.031h2.196v2.031h-2.196zm0 9.422v-8.297h2.196V39h-2.196zm6.735 0l-3.344-8.297h2.305l1.562 4.234.453 1.414c.12-.359.196-.596.227-.71.073-.235.151-.47.234-.704l1.578-4.234h2.258L212.565 39h-1.976zm8.265-5.766l-1.992-.36c.224-.801.61-1.395 1.157-1.78.546-.386 1.359-.579 2.437-.579.979 0 1.708.118 2.188.352.479.23.815.523 1.007.883.198.354.297 1.008.297 1.96l-.023 2.563c0 .73.034 1.268.101 1.617.073.344.206.714.399 1.11h-2.172a8.059 8.059 0 01-.211-.649 4.095 4.095 0 00-.078-.257 3.958 3.958 0 01-1.203.82 3.446 3.446 0 01-1.367.273c-.855 0-1.529-.231-2.024-.695-.489-.463-.734-1.05-.734-1.758 0-.468.112-.885.336-1.25.224-.37.536-.65.937-.843.406-.198.99-.37 1.75-.516 1.026-.193 1.737-.373 2.133-.54v-.218c0-.422-.104-.721-.313-.898-.208-.183-.601-.274-1.179-.274-.391 0-.696.078-.914.235-.219.15-.396.419-.532.804zm2.938 1.782a13.72 13.72 0 01-1.336.335c-.609.13-1.008.258-1.195.383-.287.203-.43.461-.43.774 0 .307.115.573.344.797.229.224.521.336.875.336.396 0 .773-.13 1.133-.391.265-.198.44-.44.523-.727.057-.187.086-.544.086-1.07v-.438zM226.12 39V27.547h2.195V39h-2.195zm11.008 0h-2.195v-8.297h2.039v1.18c.349-.558.661-.925.937-1.102a1.75 1.75 0 01.953-.265c.5 0 .982.138 1.446.414l-.68 1.914c-.37-.24-.714-.36-1.031-.36-.308 0-.568.086-.782.258-.213.167-.382.471-.507.914-.12.443-.18 1.37-.18 2.781V39zm5.773-5.766l-1.992-.36c.224-.801.61-1.395 1.156-1.78.547-.386 1.36-.579 2.438-.579.979 0 1.708.118 2.187.352.48.23.816.523 1.008.883.198.354.297 1.008.297 1.96l-.023 2.563c0 .73.034 1.268.101 1.617.073.344.206.714.399 1.11H246.3a8.059 8.059 0 01-.211-.649 4.95 4.95 0 00-.078-.257 3.958 3.958 0 01-1.203.82 3.447 3.447 0 01-1.368.273c-.854 0-1.528-.231-2.023-.695-.49-.463-.734-1.05-.734-1.758 0-.468.112-.885.336-1.25.224-.37.536-.65.937-.843.406-.198.99-.37 1.75-.516 1.026-.193 1.737-.373 2.133-.54v-.218c0-.422-.104-.721-.313-.898-.208-.183-.601-.274-1.179-.274-.391 0-.696.078-.914.235-.219.15-.396.419-.532.804zm2.938 1.782a13.72 13.72 0 01-1.336.335c-.609.13-1.008.258-1.195.383-.287.203-.43.461-.43.774 0 .307.115.573.344.797.229.224.521.336.875.336.396 0 .773-.13 1.132-.391.266-.198.441-.44.524-.727.057-.187.086-.544.086-1.07v-.438zm8.133-4.313v1.75h-1.5v3.344c0 .677.013 1.073.039 1.187.031.11.096.2.195.274.104.073.229.11.375.11.203 0 .497-.071.883-.212l.187 1.703c-.51.219-1.088.328-1.734.328-.396 0-.753-.065-1.07-.195-.318-.135-.552-.307-.703-.516-.146-.213-.248-.5-.305-.859-.047-.255-.07-.77-.07-1.547v-3.617h-1.008v-1.75h1.008v-1.648l2.203-1.282v2.93h1.5zm6.328 5.656l2.187.367c-.281.803-.726 1.415-1.336 1.836-.604.417-1.362.625-2.273.625-1.443 0-2.51-.471-3.203-1.414-.547-.755-.821-1.708-.821-2.86 0-1.374.36-2.45 1.079-3.226.718-.78 1.627-1.172 2.726-1.172 1.235 0 2.209.41 2.922 1.227.714.813 1.055 2.06 1.023 3.742h-5.5c.016.651.193 1.16.532 1.524.338.36.76.539 1.265.539.344 0 .633-.094.868-.281.234-.188.411-.49.531-.907zm.125-2.218c-.016-.636-.18-1.118-.492-1.446a1.506 1.506 0 00-1.141-.5c-.479 0-.875.175-1.188.524-.312.349-.466.822-.46 1.422h3.281zm7.922.593c0-.729.179-1.435.539-2.117a3.704 3.704 0 011.523-1.562c.662-.36 1.399-.54 2.211-.54 1.255 0 2.284.41 3.086 1.227.802.813 1.203 1.841 1.203 3.086 0 1.255-.406 2.297-1.219 3.125-.807.823-1.825 1.234-3.054 1.234a4.843 4.843 0 01-2.18-.515 3.547 3.547 0 01-1.57-1.508c-.36-.667-.539-1.477-.539-2.43zm2.25.117c0 .823.195 1.454.586 1.891.39.438.872.656 1.445.656.573 0 1.052-.218 1.437-.656.391-.437.586-1.073.586-1.906 0-.813-.195-1.438-.586-1.875a1.837 1.837 0 00-1.437-.656 1.86 1.86 0 00-1.445.656c-.391.437-.586 1.068-.586 1.89zm7.078-4.148h1.219v-.625c0-.698.072-1.219.218-1.563.151-.343.425-.622.821-.835.401-.22.906-.329 1.515-.329.625 0 1.237.094 1.836.282l-.297 1.53a4.34 4.34 0 00-1.008-.124c-.317 0-.546.075-.687.226-.135.146-.203.43-.203.852v.586h1.64v1.727h-1.64V39h-2.195v-6.57h-1.219v-1.727zM93.214 65l-2.625-8.297h2.133l1.554 5.438 1.43-5.438h2.117l1.383 5.438 1.586-5.438h2.164L100.292 65h-2.11l-1.43-5.336L95.348 65h-2.133zm10.398-4.266c0-.729.18-1.435.539-2.117a3.712 3.712 0 011.524-1.562c.661-.36 1.398-.54 2.211-.54 1.255 0 2.284.41 3.086 1.227.802.813 1.203 1.841 1.203 3.086 0 1.255-.406 2.297-1.219 3.125-.807.823-1.825 1.234-3.055 1.234-.76 0-1.487-.171-2.179-.515a3.55 3.55 0 01-1.571-1.508c-.359-.667-.539-1.477-.539-2.43zm2.25.117c0 .823.196 1.454.586 1.891.391.438.873.656 1.446.656.572 0 1.052-.218 1.437-.656.391-.437.586-1.073.586-1.906 0-.813-.195-1.438-.586-1.875a1.838 1.838 0 00-1.437-.656c-.573 0-1.055.218-1.446.656-.39.437-.586 1.068-.586 1.89zm13.5 4.149v-1.242a3.2 3.2 0 01-1.195 1.047 3.319 3.319 0 01-1.555.382 3.049 3.049 0 01-1.5-.367 2.172 2.172 0 01-.961-1.031c-.198-.443-.297-1.055-.297-1.836v-5.25h2.196v3.813c0 1.166.039 1.882.117 2.148.083.26.232.469.445.625.214.151.485.227.813.227.375 0 .711-.102 1.008-.305a1.6 1.6 0 00.609-.766c.109-.307.164-1.054.164-2.242v-3.5h2.195V65h-2.039zm11.867 0h-2.195v-4.234c0-.896-.047-1.474-.14-1.735a1.215 1.215 0 00-.461-.617 1.29 1.29 0 00-.758-.219c-.38 0-.722.104-1.024.313-.302.208-.51.484-.625.828-.109.344-.164.979-.164 1.906V65h-2.195v-8.297h2.039v1.219c.724-.938 1.635-1.406 2.734-1.406.485 0 .928.088 1.329.265.401.172.703.393.906.664.208.271.351.578.429.922.084.344.125.836.125 1.477V65zm9.844 0h-2.039v-1.22a3.31 3.31 0 01-1.203 1.063 3.08 3.08 0 01-1.391.343c-.953 0-1.77-.382-2.453-1.148-.677-.77-1.015-1.844-1.015-3.219 0-1.406.33-2.474.992-3.203.661-.734 1.497-1.101 2.508-1.101.927 0 1.729.385 2.406 1.156v-4.125h2.195V65zm-5.859-4.328c0 .885.122 1.526.367 1.922.354.572.849.859 1.484.859.506 0 .935-.214 1.289-.64.355-.433.532-1.076.532-1.93 0-.953-.172-1.638-.516-2.055a1.628 1.628 0 00-1.32-.633c-.521 0-.959.209-1.313.625-.349.412-.523 1.029-.523 1.852zm12.836 1.687l2.187.367c-.281.803-.726 1.415-1.336 1.836-.604.417-1.362.625-2.273.625-1.443 0-2.51-.471-3.203-1.414-.547-.755-.821-1.708-.821-2.86 0-1.374.36-2.45 1.079-3.226.718-.78 1.627-1.171 2.726-1.171 1.235 0 2.209.408 2.922 1.226.714.813 1.055 2.06 1.023 3.742h-5.5c.016.651.193 1.16.532 1.524.338.36.76.539 1.265.539.344 0 .633-.094.868-.281.234-.188.411-.49.531-.907zm.125-2.218c-.016-.636-.18-1.118-.492-1.446a1.506 1.506 0 00-1.141-.5c-.479 0-.875.175-1.188.524-.312.349-.466.822-.46 1.422h3.281zM159.761 65h-2.039v-1.22c-.339.474-.74.828-1.203 1.063a3.085 3.085 0 01-1.391.343c-.953 0-1.771-.382-2.453-1.148-.677-.77-1.016-1.844-1.016-3.219 0-1.406.331-2.474.992-3.203.662-.734 1.498-1.101 2.508-1.101.927 0 1.729.385 2.406 1.156v-4.125h2.196V65zm-5.86-4.328c0 .885.123 1.526.368 1.922.354.572.849.859 1.484.859.505 0 .935-.214 1.289-.64.354-.433.531-1.076.531-1.93 0-.953-.172-1.638-.515-2.055a1.629 1.629 0 00-1.321-.633c-.521 0-.958.209-1.312.625-.349.412-.524 1.029-.524 1.852zm11.711 1.96l2.203-.335c.094.427.284.752.571.976.286.22.687.328 1.203.328.568 0 .995-.104 1.281-.312a.697.697 0 00.289-.586.577.577 0 00-.156-.414c-.109-.104-.354-.2-.734-.29-1.771-.39-2.894-.747-3.368-1.07-.656-.447-.984-1.07-.984-1.867 0-.718.284-1.322.852-1.812.567-.49 1.447-.734 2.64-.734 1.136 0 1.979.184 2.531.554.553.37.933.917 1.141 1.64l-2.07.384a1.276 1.276 0 00-.508-.743c-.245-.171-.596-.257-1.055-.257-.578 0-.992.08-1.242.242a.52.52 0 00-.25.445c0 .156.073.29.219.399.198.145.88.351 2.047.617 1.172.265 1.989.59 2.453.976.458.39.687.935.687 1.633 0 .76-.317 1.414-.953 1.961-.635.547-1.575.82-2.82.82-1.13 0-2.026-.229-2.688-.687a3.174 3.174 0 01-1.289-1.867zm9.172-1.898c0-.729.18-1.435.539-2.117a3.706 3.706 0 011.524-1.562c.661-.36 1.398-.54 2.211-.54 1.255 0 2.283.41 3.086 1.227.802.813 1.203 1.841 1.203 3.086 0 1.255-.407 2.297-1.219 3.125-.807.823-1.826 1.234-3.055 1.234-.76 0-1.487-.171-2.179-.515a3.55 3.55 0 01-1.571-1.508c-.359-.667-.539-1.477-.539-2.43zm2.25.117c0 .823.195 1.454.586 1.891.391.438.873.656 1.445.656.573 0 1.053-.218 1.438-.656.391-.437.586-1.073.586-1.906 0-.813-.195-1.438-.586-1.875a1.839 1.839 0 00-1.438-.656c-.572 0-1.054.218-1.445.656-.391.437-.586 1.068-.586 1.89zM185.073 65V53.547h2.196V65h-2.196zm12.063 0h-2.039v-1.22c-.339.474-.74.828-1.203 1.063a3.085 3.085 0 01-1.391.343c-.953 0-1.771-.382-2.453-1.148-.677-.77-1.016-1.844-1.016-3.219 0-1.406.331-2.474.992-3.203.662-.734 1.498-1.101 2.508-1.101.927 0 1.729.385 2.406 1.156v-4.125h2.196V65zm-5.86-4.328c0 .885.123 1.526.368 1.922.354.572.849.859 1.484.859.505 0 .935-.214 1.289-.64.354-.433.531-1.076.531-1.93 0-.953-.172-1.638-.515-2.055a1.629 1.629 0 00-1.321-.633c-.521 0-.958.209-1.312.625-.349.412-.524 1.029-.524 1.852zm8.032-5.094v-2.031h2.195v2.031h-2.195zm0 9.422v-8.297h2.195V65h-2.195zm9.257-2.64l2.188.366c-.281.803-.727 1.415-1.336 1.836-.604.417-1.362.625-2.273.625-1.443 0-2.511-.471-3.204-1.414-.546-.755-.82-1.708-.82-2.86 0-1.374.359-2.45 1.078-3.226.719-.78 1.628-1.171 2.727-1.171 1.234 0 2.208.408 2.922 1.226.713.813 1.054 2.06 1.023 3.742h-5.5c.016.651.193 1.16.531 1.524.339.36.761.539 1.266.539.344 0 .633-.094.867-.281.235-.188.412-.49.531-.907zm.125-2.22c-.015-.635-.179-1.117-.492-1.445a1.503 1.503 0 00-1.14-.5c-.48 0-.875.175-1.188.524-.312.349-.466.822-.461 1.422h3.281zm6.079 4.86h-2.196v-8.297h2.039v1.18c.349-.558.662-.925.938-1.102a1.75 1.75 0 01.953-.265c.5 0 .982.138 1.445.414l-.679 1.914c-.37-.24-.714-.36-1.032-.36-.307 0-.567.086-.781.258-.213.167-.383.471-.508.914-.12.443-.179 1.37-.179 2.781V65zm3.359-2.367l2.203-.336c.094.427.284.752.57.976.287.22.688.328 1.203.328.568 0 .995-.104 1.282-.312a.7.7 0 00.289-.586.577.577 0 00-.156-.414c-.11-.104-.355-.2-.735-.29-1.771-.39-2.893-.747-3.367-1.07-.656-.447-.984-1.07-.984-1.867 0-.718.283-1.322.851-1.812.568-.49 1.448-.734 2.641-.734 1.135 0 1.979.184 2.531.554.552.37.932.917 1.141 1.64l-2.071.384a1.27 1.27 0 00-.507-.743c-.245-.171-.597-.257-1.055-.257-.578 0-.992.08-1.242.242a.52.52 0 00-.25.445c0 .156.073.29.218.399.198.145.881.351 2.047.617 1.172.265 1.99.59 2.453.976.459.39.688.935.688 1.633 0 .76-.318 1.414-.953 1.961-.636.547-1.576.82-2.821.82-1.13 0-2.026-.229-2.687-.687a3.174 3.174 0 01-1.289-1.867zM232.167 65V53.547h2.195v4.125c.677-.771 1.479-1.156 2.407-1.156 1.01 0 1.846.367 2.507 1.101.662.73.993 1.779.993 3.149 0 1.416-.339 2.507-1.016 3.273-.672.766-1.49 1.148-2.453 1.148-.474 0-.943-.117-1.406-.351a3.394 3.394 0 01-1.188-1.055V65h-2.039zm2.18-4.328c0 .86.135 1.495.406 1.906.38.583.885.875 1.516.875.484 0 .895-.206 1.234-.617.344-.417.516-1.07.516-1.961 0-.948-.172-1.63-.516-2.047a1.628 1.628 0 00-1.32-.633c-.526 0-.964.206-1.313.617-.349.407-.523 1.026-.523 1.86zm6.656-3.969h2.336l1.984 5.89 1.938-5.89h2.273l-2.93 7.984-.523 1.446c-.193.484-.378.854-.555 1.11-.172.254-.372.46-.601.616a2.533 2.533 0 01-.836.375 4.3 4.3 0 01-1.117.133 5.83 5.83 0 01-1.243-.133l-.195-1.718c.344.067.654.101.93.101.51 0 .888-.151 1.133-.453.244-.297.432-.677.562-1.14l-3.156-8.321zm13.961 5.352l2.187-.227c.063.495.248.888.555 1.18.307.286.662.43 1.063.43.458 0 .846-.186 1.164-.555.317-.375.476-.938.476-1.688 0-.703-.159-1.229-.476-1.578-.313-.354-.722-.531-1.227-.531-.63 0-1.195.279-1.695.836l-1.782-.258 1.125-5.961h5.805v2.055h-4.14l-.344 1.945a3.316 3.316 0 011.5-.367c.974 0 1.799.354 2.476 1.062.677.709 1.016 1.628 1.016 2.758 0 .943-.273 1.784-.82 2.524-.745 1.01-1.779 1.515-3.102 1.515-1.057 0-1.919-.284-2.586-.851-.666-.568-1.065-1.331-1.195-2.29zm17.601-5.352v1.75h-1.5v3.344c0 .677.013 1.073.039 1.187.032.11.097.2.196.274.104.073.229.11.375.11.203 0 .497-.071.883-.212l.187 1.703c-.51.219-1.088.328-1.734.328-.396 0-.753-.065-1.071-.195-.317-.135-.552-.307-.703-.516-.146-.213-.247-.5-.304-.859-.047-.255-.071-.77-.071-1.547v-3.617h-1.008v-1.75h1.008v-1.648l2.203-1.282v2.93h1.5zm1.524-1.125v-2.031h2.195v2.031h-2.195zm0 9.422v-8.297h2.195V65h-2.195zm4.289-8.297h2.023v1.133c.724-.88 1.586-1.32 2.586-1.32.532 0 .992.109 1.383.328.391.218.711.55.961.992.365-.443.758-.774 1.18-.992a2.893 2.893 0 011.351-.328c.61 0 1.125.125 1.547.375.422.244.737.606.945 1.085.152.355.227.928.227 1.72V65h-2.195v-4.742c0-.823-.076-1.355-.227-1.594-.203-.313-.515-.469-.937-.469a1.5 1.5 0 00-.868.281c-.27.188-.466.464-.585.829-.12.359-.18.93-.18 1.71V65h-2.195v-4.547c0-.807-.04-1.328-.118-1.563a.985.985 0 00-.367-.523c-.161-.114-.383-.172-.664-.172-.338 0-.643.091-.914.274a1.52 1.52 0 00-.586.789c-.114.343-.172.914-.172 1.71V65h-2.195v-8.297zm19.203 5.656l2.188.367c-.282.803-.727 1.415-1.336 1.836-.605.417-1.362.625-2.274.625-1.443 0-2.51-.471-3.203-1.414-.547-.755-.82-1.708-.82-2.86 0-1.374.359-2.45 1.078-3.226.719-.78 1.627-1.171 2.726-1.171 1.235 0 2.209.408 2.922 1.226.714.813 1.055 2.06 1.024 3.742h-5.5c.015.651.192 1.16.531 1.524.339.36.76.539 1.266.539.343 0 .632-.094.867-.281.234-.188.411-.49.531-.907zm.125-2.218c-.016-.636-.18-1.118-.492-1.446a1.506 1.506 0 00-1.141-.5c-.479 0-.875.175-1.187.524-.313.349-.466.822-.461 1.422h3.281zm3.203 2.492l2.203-.336c.094.427.284.752.571.976.286.22.687.328 1.203.328.567 0 .995-.104 1.281-.312a.697.697 0 00.289-.586.577.577 0 00-.156-.414c-.11-.104-.354-.2-.735-.29-1.77-.39-2.893-.747-3.367-1.07-.656-.447-.984-1.07-.984-1.867 0-.718.284-1.322.851-1.812.568-.49 1.448-.734 2.641-.734 1.135 0 1.979.184 2.531.554.552.37.933.917 1.141 1.64l-2.07.384a1.276 1.276 0 00-.508-.743c-.245-.171-.597-.257-1.055-.257-.578 0-.992.08-1.242.242a.52.52 0 00-.25.445c0 .156.073.29.219.399.198.145.88.351 2.047.617 1.171.265 1.989.59 2.453.976.458.39.687.935.687 1.633 0 .76-.318 1.414-.953 1.961-.635.547-1.575.82-2.82.82-1.13 0-2.026-.229-2.688-.687a3.174 3.174 0 01-1.289-1.867z" fill="#000"/><path d="M59.465 64H52.33V37.11c-2.607 2.438-5.679 4.24-9.217 5.408v-6.474c1.862-.61 3.885-1.76 6.069-3.453 2.183-1.71 3.681-3.699 4.494-5.967h5.789V64z" fill="#6C725F"/></svg>