<svg width="304" height="70" viewBox="0 0 304 70" fill="none" xmlns="http://www.w3.org/2000/svg">
<path d="M303 20.0002C303 9.50683 294.493 1.00024 284 1.00024H63.3972C60.2685 1.00024 57.1883 1.77284 54.43 3.24942L26.4097 18.2494C13.0326 25.4105 13.0326 44.5899 26.4097 51.7511L54.43 66.7511C57.1883 68.2277 60.2685 69.0002 63.3972 69.0002H284C294.493 69.0002 303 60.4937 303 50.0002V20.0002Z" fill="white" stroke="#646C59" stroke-width="2" stroke-linejoin="round"/>
<path d="M88.4307 36.3157L90.3926 36.9377C90.0918 38.0315 89.5905 38.845 88.8887 39.3782C88.1914 39.9068 87.305 40.1711 86.2295 40.1711C84.8988 40.1711 83.805 39.7177 82.9482 38.8108C82.0915 37.8993 81.6631 36.6552 81.6631 35.0784C81.6631 33.4104 82.0938 32.1161 82.9551 31.1956C83.8164 30.2704 84.9489 29.8079 86.3525 29.8079C87.5785 29.8079 88.5742 30.1702 89.3398 30.8948C89.7956 31.3232 90.1374 31.9384 90.3652 32.7405L88.3623 33.219C88.2438 32.6995 87.9954 32.2893 87.6172 31.9885C87.2435 31.6877 86.7878 31.5374 86.25 31.5374C85.5072 31.5374 84.9033 31.804 84.4385 32.3372C83.9782 32.8704 83.748 33.734 83.748 34.928C83.748 36.1949 83.9759 37.0972 84.4316 37.635C84.8874 38.1728 85.4798 38.4417 86.209 38.4417C86.7467 38.4417 87.2093 38.2708 87.5967 37.929C87.984 37.5872 88.262 37.0494 88.4307 36.3157ZM91.6777 36.2678C91.6777 35.6298 91.835 35.0123 92.1494 34.4153C92.4639 33.8183 92.9082 33.3625 93.4824 33.0481C94.0612 32.7336 94.7061 32.5764 95.417 32.5764C96.5153 32.5764 97.4154 32.9342 98.1172 33.6497C98.819 34.3606 99.1699 35.2607 99.1699 36.3499C99.1699 37.4482 98.8145 38.3596 98.1035 39.0842C97.3971 39.8043 96.5062 40.1643 95.4307 40.1643C94.7653 40.1643 94.1296 40.0139 93.5234 39.7131C92.9219 39.4124 92.4639 38.9726 92.1494 38.3938C91.835 37.8105 91.6777 37.1018 91.6777 36.2678ZM93.6465 36.3704C93.6465 37.0904 93.8174 37.6418 94.1592 38.0247C94.501 38.4075 94.9225 38.5989 95.4238 38.5989C95.9251 38.5989 96.3444 38.4075 96.6816 38.0247C97.0234 37.6418 97.1943 37.0859 97.1943 36.3567C97.1943 35.6458 97.0234 35.0989 96.6816 34.7161C96.3444 34.3333 95.9251 34.1418 95.4238 34.1418C94.9225 34.1418 94.501 34.3333 94.1592 34.7161C93.8174 35.0989 93.6465 35.6503 93.6465 36.3704ZM100.537 32.7405H102.308V33.7317C102.941 32.9615 103.695 32.5764 104.57 32.5764C105.035 32.5764 105.438 32.6721 105.78 32.8635C106.122 33.0549 106.402 33.3443 106.621 33.7317C106.94 33.3443 107.284 33.0549 107.653 32.8635C108.022 32.6721 108.417 32.5764 108.836 32.5764C109.369 32.5764 109.82 32.6858 110.189 32.9045C110.559 33.1187 110.834 33.4355 111.017 33.8547C111.149 34.1646 111.215 34.6659 111.215 35.3586V40.0002H109.294V35.8508C109.294 35.1308 109.228 34.6659 109.096 34.4563C108.918 34.1829 108.645 34.0461 108.275 34.0461C108.007 34.0461 107.754 34.1282 107.517 34.2922C107.28 34.4563 107.109 34.6978 107.004 35.0168C106.899 35.3313 106.847 35.8303 106.847 36.5139V40.0002H104.926V36.0217C104.926 35.3153 104.892 34.8596 104.823 34.6545C104.755 34.4495 104.648 34.2968 104.502 34.1965C104.361 34.0963 104.167 34.0461 103.921 34.0461C103.625 34.0461 103.358 34.1259 103.121 34.2854C102.884 34.4449 102.713 34.675 102.608 34.9758C102.508 35.2766 102.458 35.7756 102.458 36.4729V40.0002H100.537V32.7405ZM113.081 32.7405H114.872V33.8069C115.104 33.4423 115.419 33.1461 115.815 32.9182C116.212 32.6903 116.652 32.5764 117.135 32.5764C117.978 32.5764 118.693 32.9068 119.281 33.5676C119.869 34.2284 120.163 35.149 120.163 36.3293C120.163 37.5416 119.867 38.4849 119.274 39.1594C118.682 39.8293 117.964 40.1643 117.121 40.1643C116.72 40.1643 116.355 40.0846 116.027 39.925C115.704 39.7655 115.362 39.4921 115.002 39.1047V42.762H113.081V32.7405ZM114.981 36.2473C114.981 37.0631 115.143 37.6669 115.467 38.0588C115.79 38.4462 116.185 38.6399 116.649 38.6399C117.096 38.6399 117.467 38.4622 117.764 38.1067C118.06 37.7467 118.208 37.1588 118.208 36.343C118.208 35.5819 118.055 35.0168 117.75 34.6477C117.445 34.2786 117.066 34.094 116.615 34.094C116.146 34.094 115.756 34.2763 115.446 34.6409C115.136 35.0009 114.981 35.5364 114.981 36.2473ZM123.13 34.9553L121.387 34.6409C121.583 33.939 121.92 33.4195 122.398 33.0823C122.877 32.745 123.588 32.5764 124.531 32.5764C125.388 32.5764 126.026 32.679 126.445 32.884C126.865 33.0846 127.159 33.342 127.327 33.6565C127.5 33.9664 127.587 34.5383 127.587 35.3723L127.566 37.6145C127.566 38.2525 127.596 38.7242 127.655 39.0295C127.719 39.3303 127.835 39.6539 128.004 40.0002H126.104C126.053 39.8726 125.992 39.6835 125.919 39.4329C125.887 39.3189 125.864 39.2437 125.851 39.2073C125.522 39.5263 125.172 39.7655 124.798 39.925C124.424 40.0846 124.025 40.1643 123.602 40.1643C122.854 40.1643 122.264 39.9615 121.831 39.5559C121.403 39.1503 121.188 38.6376 121.188 38.0178C121.188 37.6077 121.286 37.2431 121.482 36.9241C121.678 36.6005 121.952 36.3544 122.303 36.1858C122.658 36.0126 123.169 35.8622 123.834 35.7346C124.732 35.566 125.354 35.4088 125.7 35.2629V35.0715C125.7 34.7024 125.609 34.4403 125.427 34.2854C125.244 34.1259 124.9 34.0461 124.395 34.0461C124.053 34.0461 123.786 34.1145 123.595 34.2512C123.403 34.3834 123.248 34.6181 123.13 34.9553ZM125.7 36.5139C125.454 36.5959 125.064 36.6939 124.531 36.8079C123.998 36.9218 123.649 37.0334 123.485 37.1428C123.235 37.3206 123.109 37.5461 123.109 37.8196C123.109 38.0885 123.21 38.3209 123.41 38.5168C123.611 38.7128 123.866 38.8108 124.176 38.8108C124.522 38.8108 124.853 38.6969 125.167 38.469C125.399 38.2958 125.552 38.0839 125.625 37.8333C125.675 37.6692 125.7 37.357 125.7 36.8967V36.5139ZM135.817 34.887L133.924 35.2288C133.86 34.8505 133.714 34.5657 133.486 34.3743C133.263 34.1829 132.971 34.0872 132.611 34.0872C132.133 34.0872 131.75 34.2535 131.463 34.5862C131.18 34.9143 131.039 35.4657 131.039 36.2405C131.039 37.1018 131.183 37.7102 131.47 38.0657C131.761 38.4211 132.151 38.5989 132.639 38.5989C133.003 38.5989 133.302 38.4963 133.534 38.2913C133.767 38.0816 133.931 37.7239 134.026 37.218L135.913 37.5393C135.717 38.4052 135.341 39.0592 134.785 39.5012C134.229 39.9433 133.484 40.1643 132.55 40.1643C131.488 40.1643 130.64 39.8293 130.007 39.1594C129.378 38.4895 129.063 37.5621 129.063 36.3772C129.063 35.1786 129.38 34.2467 130.014 33.5813C130.647 32.9114 131.504 32.5764 132.584 32.5764C133.468 32.5764 134.17 32.7678 134.689 33.1506C135.214 33.5289 135.59 34.1077 135.817 34.887ZM140.609 32.7405V34.2717H139.297V37.1975C139.297 37.79 139.308 38.1363 139.331 38.2366C139.358 38.3323 139.415 38.412 139.502 38.4758C139.593 38.5396 139.702 38.5715 139.83 38.5715C140.008 38.5715 140.265 38.51 140.603 38.387L140.767 39.8772C140.32 40.0686 139.814 40.1643 139.249 40.1643C138.903 40.1643 138.59 40.1073 138.312 39.9934C138.035 39.8749 137.829 39.7245 137.697 39.5422C137.57 39.3554 137.481 39.1047 137.431 38.7903C137.39 38.567 137.369 38.1158 137.369 37.4368V34.2717H136.487V32.7405H137.369V31.2981L139.297 30.177V32.7405H140.609ZM145.162 37.929L147.09 37.635C147.172 38.0087 147.338 38.2935 147.589 38.4895C147.84 38.6809 148.19 38.7766 148.642 38.7766C149.138 38.7766 149.512 38.6855 149.763 38.5032C149.931 38.3756 150.016 38.2047 150.016 37.9905C150.016 37.8446 149.97 37.7239 149.879 37.6282C149.783 37.537 149.569 37.4527 149.236 37.3752C147.687 37.0334 146.705 36.7213 146.29 36.4387C145.716 36.0468 145.429 35.5022 145.429 34.8049C145.429 34.176 145.677 33.6474 146.174 33.219C146.671 32.7906 147.441 32.5764 148.484 32.5764C149.478 32.5764 150.216 32.7382 150.699 33.0618C151.182 33.3853 151.515 33.8639 151.697 34.4973L149.886 34.8323C149.808 34.5497 149.66 34.3333 149.441 34.1829C149.227 34.0325 148.92 33.9573 148.519 33.9573C148.013 33.9573 147.65 34.0279 147.432 34.1692C147.286 34.2694 147.213 34.3993 147.213 34.5588C147.213 34.6956 147.277 34.8118 147.404 34.9075C147.577 35.0351 148.174 35.2151 149.195 35.4475C150.221 35.6799 150.936 35.9648 151.342 36.302C151.743 36.6438 151.943 37.12 151.943 37.7307C151.943 38.3961 151.665 38.968 151.109 39.4465C150.553 39.925 149.731 40.1643 148.642 40.1643C147.653 40.1643 146.869 39.9638 146.29 39.5627C145.716 39.1617 145.34 38.6171 145.162 37.929ZM153.632 31.7561V29.9788H155.553V31.7561H153.632ZM153.632 40.0002V32.7405H155.553V40.0002H153.632ZM156.756 40.0002V38.5032L159.477 35.3792C159.923 34.8687 160.254 34.5064 160.468 34.2922C160.244 34.3059 159.951 34.315 159.586 34.3196L157.022 34.3333V32.7405H163.024V34.1008L160.249 37.3L159.271 38.3596C159.805 38.3277 160.135 38.3118 160.263 38.3118H163.236V40.0002H156.756ZM168.732 37.6897L170.646 38.011C170.4 38.7128 170.011 39.2483 169.478 39.6174C168.949 39.982 168.286 40.1643 167.488 40.1643C166.226 40.1643 165.292 39.7519 164.686 38.927C164.207 38.2662 163.968 37.4322 163.968 36.425C163.968 35.2219 164.282 34.2808 164.911 33.6018C165.54 32.9182 166.335 32.5764 167.297 32.5764C168.377 32.5764 169.229 32.9342 169.854 33.6497C170.478 34.3606 170.776 35.4521 170.749 36.9241H165.937C165.95 37.4937 166.105 37.9381 166.401 38.2571C166.698 38.5715 167.067 38.7288 167.509 38.7288C167.81 38.7288 168.062 38.6467 168.268 38.4827C168.473 38.3186 168.628 38.0543 168.732 37.6897ZM168.842 35.7483C168.828 35.1923 168.685 34.7708 168.411 34.4836C168.138 34.192 167.805 34.0461 167.413 34.0461C166.994 34.0461 166.647 34.1988 166.374 34.5042C166.101 34.8095 165.966 35.2242 165.971 35.7483H168.842ZM177.653 34.9553L175.91 34.6409C176.106 33.939 176.443 33.4195 176.922 33.0823C177.4 32.745 178.111 32.5764 179.055 32.5764C179.911 32.5764 180.549 32.679 180.969 32.884C181.388 33.0846 181.682 33.342 181.851 33.6565C182.024 33.9664 182.11 34.5383 182.11 35.3723L182.09 37.6145C182.09 38.2525 182.119 38.7242 182.179 39.0295C182.243 39.3303 182.359 39.6539 182.527 40.0002H180.627C180.577 39.8726 180.515 39.6835 180.442 39.4329C180.41 39.3189 180.388 39.2437 180.374 39.2073C180.046 39.5263 179.695 39.7655 179.321 39.925C178.948 40.0846 178.549 40.1643 178.125 40.1643C177.378 40.1643 176.787 39.9615 176.354 39.5559C175.926 39.1503 175.712 38.6376 175.712 38.0178C175.712 37.6077 175.81 37.2431 176.006 36.9241C176.202 36.6005 176.475 36.3544 176.826 36.1858C177.182 36.0126 177.692 35.8622 178.357 35.7346C179.255 35.566 179.877 35.4088 180.224 35.2629V35.0715C180.224 34.7024 180.132 34.4403 179.95 34.2854C179.768 34.1259 179.424 34.0461 178.918 34.0461C178.576 34.0461 178.31 34.1145 178.118 34.2512C177.927 34.3834 177.772 34.6181 177.653 34.9553ZM180.224 36.5139C179.978 36.5959 179.588 36.6939 179.055 36.8079C178.521 36.9218 178.173 37.0334 178.009 37.1428C177.758 37.3206 177.633 37.5461 177.633 37.8196C177.633 38.0885 177.733 38.3209 177.934 38.5168C178.134 38.7128 178.389 38.8108 178.699 38.8108C179.046 38.8108 179.376 38.6969 179.69 38.469C179.923 38.2958 180.076 38.0839 180.148 37.8333C180.199 37.6692 180.224 37.357 180.224 36.8967V36.5139ZM190.614 40.0002H188.693V36.2952C188.693 35.5113 188.652 35.0055 188.57 34.7776C188.488 34.5452 188.354 34.3652 188.167 34.2375C187.985 34.1099 187.764 34.0461 187.504 34.0461C187.171 34.0461 186.873 34.1373 186.608 34.3196C186.344 34.5019 186.162 34.7434 186.062 35.0442C185.966 35.345 185.918 35.901 185.918 36.7122V40.0002H183.997V32.7405H185.781V33.8069C186.415 32.9866 187.212 32.5764 188.174 32.5764C188.598 32.5764 188.985 32.6539 189.336 32.8088C189.687 32.9592 189.951 33.1529 190.129 33.3899C190.311 33.6269 190.437 33.8958 190.505 34.1965C190.578 34.4973 190.614 34.928 190.614 35.4885V40.0002ZM199.228 40.0002H197.443V38.9338C197.147 39.3486 196.796 39.6584 196.391 39.8635C195.99 40.064 195.584 40.1643 195.174 40.1643C194.34 40.1643 193.624 39.8293 193.027 39.1594C192.435 38.4849 192.139 37.5461 192.139 36.343C192.139 35.1125 192.428 34.1783 193.007 33.5403C193.586 32.8977 194.317 32.5764 195.201 32.5764C196.012 32.5764 196.714 32.9137 197.307 33.5881V29.9788H199.228V40.0002ZM194.101 36.2131C194.101 36.9879 194.208 37.5484 194.422 37.8948C194.732 38.3961 195.165 38.6467 195.721 38.6467C196.163 38.6467 196.539 38.4599 196.849 38.0862C197.159 37.7079 197.313 37.1451 197.313 36.3977C197.313 35.5637 197.163 34.9644 196.862 34.5999C196.562 34.2307 196.176 34.0461 195.707 34.0461C195.251 34.0461 194.868 34.2284 194.559 34.593C194.253 34.953 194.101 35.4931 194.101 36.2131ZM205.024 40.0002V29.9788H206.945V40.0002H205.024ZM208.477 36.2678C208.477 35.6298 208.634 35.0123 208.948 34.4153C209.263 33.8183 209.707 33.3625 210.281 33.0481C210.86 32.7336 211.505 32.5764 212.216 32.5764C213.314 32.5764 214.214 32.9342 214.916 33.6497C215.618 34.3606 215.969 35.2607 215.969 36.3499C215.969 37.4482 215.613 38.3596 214.902 39.0842C214.196 39.8043 213.305 40.1643 212.229 40.1643C211.564 40.1643 210.928 40.0139 210.322 39.7131C209.721 39.4124 209.263 38.9726 208.948 38.3938C208.634 37.8105 208.477 37.1018 208.477 36.2678ZM210.445 36.3704C210.445 37.0904 210.616 37.6418 210.958 38.0247C211.3 38.4075 211.721 38.5989 212.223 38.5989C212.724 38.5989 213.143 38.4075 213.48 38.0247C213.822 37.6418 213.993 37.0859 213.993 36.3567C213.993 35.6458 213.822 35.0989 213.48 34.7161C213.143 34.3333 212.724 34.1418 212.223 34.1418C211.721 34.1418 211.3 34.3333 210.958 34.7161C210.616 35.0989 210.445 35.6503 210.445 36.3704ZM218.833 40.0002L216.536 32.7405H218.402L219.763 37.4983L221.014 32.7405H222.866L224.076 37.4983L225.464 32.7405H227.357L225.026 40.0002H223.181L221.93 35.3313L220.699 40.0002H218.833ZM233.626 40.0002L231.329 32.7405H233.195L234.556 37.4983L235.807 32.7405H237.659L238.869 37.4983L240.257 32.7405H242.15L239.819 40.0002H237.974L236.723 35.3313L235.492 40.0002H233.626ZM247.373 37.6897L249.287 38.011C249.041 38.7128 248.651 39.2483 248.118 39.6174C247.59 39.982 246.926 40.1643 246.129 40.1643C244.867 40.1643 243.932 39.7519 243.326 38.927C242.848 38.2662 242.608 37.4322 242.608 36.425C242.608 35.2219 242.923 34.2808 243.552 33.6018C244.181 32.9182 244.976 32.5764 245.938 32.5764C247.018 32.5764 247.87 32.9342 248.494 33.6497C249.118 34.3606 249.417 35.4521 249.39 36.9241H244.577C244.591 37.4937 244.746 37.9381 245.042 38.2571C245.338 38.5715 245.707 38.7288 246.149 38.7288C246.45 38.7288 246.703 38.6467 246.908 38.4827C247.113 38.3186 247.268 38.0543 247.373 37.6897ZM247.482 35.7483C247.469 35.1923 247.325 34.7708 247.052 34.4836C246.778 34.192 246.446 34.0461 246.054 34.0461C245.634 34.0461 245.288 34.1988 245.015 34.5042C244.741 34.8095 244.607 35.2242 244.611 35.7483H247.482ZM250.962 31.7561V29.9788H252.883V31.7561H250.962ZM250.962 40.0002V32.7405H252.883V40.0002H250.962ZM254.681 40.4788L256.875 40.7454C256.911 41.0006 256.996 41.176 257.128 41.2717C257.31 41.4084 257.597 41.4768 257.989 41.4768C258.491 41.4768 258.867 41.4016 259.117 41.2512C259.286 41.151 259.413 40.9892 259.5 40.7659C259.559 40.6064 259.589 40.3124 259.589 39.884V38.8245C259.015 39.6083 258.29 40.0002 257.415 40.0002C256.44 40.0002 255.667 39.5878 255.098 38.7629C254.651 38.1112 254.428 37.3 254.428 36.3293C254.428 35.1125 254.719 34.1829 255.303 33.5403C255.891 32.8977 256.62 32.5764 257.49 32.5764C258.388 32.5764 259.129 32.9706 259.712 33.759V32.7405H261.51V39.2551C261.51 40.1119 261.439 40.7522 261.298 41.176C261.157 41.5999 260.958 41.9325 260.703 42.1741C260.448 42.4156 260.106 42.6047 259.678 42.7415C259.254 42.8782 258.716 42.9465 258.064 42.9465C256.834 42.9465 255.961 42.7346 255.446 42.3108C254.931 41.8915 254.674 41.3583 254.674 40.7112C254.674 40.6474 254.676 40.5699 254.681 40.4788ZM256.396 36.22C256.396 36.9902 256.545 37.5553 256.841 37.9153C257.142 38.2708 257.511 38.4485 257.948 38.4485C258.418 38.4485 258.814 38.2662 259.138 37.9016C259.461 37.5325 259.623 36.9879 259.623 36.2678C259.623 35.5159 259.468 34.9576 259.158 34.593C258.848 34.2284 258.456 34.0461 257.982 34.0461C257.522 34.0461 257.142 34.2262 256.841 34.5862C256.545 34.9417 256.396 35.4862 256.396 36.22ZM265.331 29.9788V33.6633C265.951 32.9387 266.691 32.5764 267.553 32.5764C267.995 32.5764 268.394 32.6584 268.749 32.8225C269.104 32.9866 269.371 33.1962 269.549 33.4514C269.731 33.7066 269.854 33.9892 269.918 34.2991C269.986 34.609 270.021 35.0898 270.021 35.7415V40.0002H268.1V36.1653C268.1 35.4042 268.063 34.9211 267.99 34.7161C267.917 34.511 267.787 34.3492 267.601 34.2307C267.418 34.1077 267.188 34.0461 266.91 34.0461C266.591 34.0461 266.306 34.1236 266.056 34.2786C265.805 34.4335 265.62 34.6682 265.502 34.9827C265.388 35.2926 265.331 35.7528 265.331 36.3635V40.0002H263.41V29.9788H265.331ZM275.305 32.7405V34.2717H273.992V37.1975C273.992 37.79 274.004 38.1363 274.026 38.2366C274.054 38.3323 274.111 38.412 274.197 38.4758C274.288 38.5396 274.398 38.5715 274.525 38.5715C274.703 38.5715 274.961 38.51 275.298 38.387L275.462 39.8772C275.015 40.0686 274.509 40.1643 273.944 40.1643C273.598 40.1643 273.286 40.1073 273.008 39.9934C272.73 39.8749 272.525 39.7245 272.393 39.5422C272.265 39.3554 272.176 39.1047 272.126 38.7903C272.085 38.567 272.064 38.1158 272.064 37.4368V34.2717H271.183V32.7405H272.064V31.2981L273.992 30.177V32.7405H275.305Z" fill="black"/>
<path d="M45.5039 41.4026L50.8164 40.7581C50.9857 42.1122 51.4414 43.1474 52.1836 43.8635C52.9258 44.5797 53.8242 44.9377 54.8789 44.9377C56.0117 44.9377 56.9622 44.5081 57.7305 43.6487C58.5117 42.7893 58.9023 41.6305 58.9023 40.1721C58.9023 38.7919 58.5312 37.6982 57.7891 36.8909C57.0469 36.0836 56.1419 35.6799 55.0742 35.6799C54.3711 35.6799 53.5312 35.8167 52.5547 36.0901L53.1602 31.6174C54.6445 31.6565 55.7773 31.3375 56.5586 30.6604C57.3398 29.9703 57.7305 29.0588 57.7305 27.926C57.7305 26.9625 57.444 26.1943 56.8711 25.6213C56.2982 25.0484 55.5365 24.762 54.5859 24.762C53.6484 24.762 52.8477 25.0875 52.1836 25.7385C51.5195 26.3896 51.1159 27.3401 50.9727 28.5901L45.9141 27.7307C46.2656 25.9989 46.793 24.6187 47.4961 23.5901C48.2122 22.5484 49.2018 21.7346 50.4648 21.1487C51.7409 20.5497 53.1667 20.2502 54.7422 20.2502C57.4375 20.2502 59.599 21.1096 61.2266 22.8284C62.5677 24.2346 63.2383 25.8232 63.2383 27.594C63.2383 30.107 61.8646 32.1122 59.1172 33.6096C60.7578 33.9612 62.0664 34.7489 63.043 35.9729C64.0326 37.1969 64.5273 38.6747 64.5273 40.4065C64.5273 42.9195 63.6094 45.0614 61.7734 46.8323C59.9375 48.6031 57.6523 49.4885 54.918 49.4885C52.3268 49.4885 50.1784 48.7463 48.4727 47.262C46.7669 45.7646 45.7773 43.8114 45.5039 41.4026Z" fill="#6C725F"/>
</svg>
