<svg width="415" height="92" viewBox="0 0 415 92" fill="none" xmlns="http://www.w3.org/2000/svg">
<path d="M0 19.9999C0 8.95418 8.95431 -0.00012207 20 -0.00012207H322.806C326.057 -0.00012207 329.258 0.792243 332.134 2.30837L381.446 28.3084C395.675 35.8109 395.675 56.1889 381.446 63.6914L332.134 89.6914C329.258 91.2075 326.057 91.9999 322.806 91.9999H20C8.95429 91.9999 0 83.0456 0 71.9999V19.9999Z" fill="#333333"/>
<path d="M70.667 40.5468H72.9795V46.7499C72.9795 47.7343 73.0081 48.3723 73.0654 48.6639C73.1644 49.1327 73.3988 49.5103 73.7686 49.7968C74.1436 50.078 74.654 50.2186 75.2998 50.2186C75.9561 50.2186 76.4508 50.0858 76.7842 49.8202C77.1175 49.5494 77.318 49.2186 77.3857 48.828C77.4535 48.4374 77.4873 47.7889 77.4873 46.8827V40.5468H79.7998V46.5624C79.7998 47.9374 79.7373 48.9087 79.6123 49.4764C79.4873 50.0441 79.2555 50.5233 78.917 50.9139C78.5837 51.3046 78.1357 51.6171 77.5732 51.8514C77.0107 52.0806 76.2764 52.1952 75.3701 52.1952C74.2764 52.1952 73.4456 52.0702 72.8779 51.8202C72.3154 51.565 71.8701 51.2369 71.542 50.8358C71.2139 50.4296 70.9977 50.0051 70.8936 49.5624C70.7425 48.9061 70.667 47.9374 70.667 46.6561V40.5468ZM81.4561 49.6327L83.6592 49.2968C83.7529 49.7238 83.943 50.0494 84.2295 50.2733C84.516 50.4921 84.917 50.6014 85.4326 50.6014C86.0003 50.6014 86.4274 50.4973 86.7139 50.2889C86.9066 50.1431 87.0029 49.9478 87.0029 49.703C87.0029 49.5363 86.9508 49.3983 86.8467 49.2889C86.7373 49.1848 86.4925 49.0884 86.1123 48.9999C84.3415 48.6093 83.2191 48.2525 82.7451 47.9296C82.0889 47.4816 81.7607 46.8593 81.7607 46.0624C81.7607 45.3436 82.0446 44.7395 82.6123 44.2499C83.18 43.7603 84.0602 43.5155 85.2529 43.5155C86.3883 43.5155 87.2321 43.7004 87.7842 44.0702C88.3363 44.44 88.7165 44.9869 88.9248 45.7108L86.8545 46.0936C86.766 45.7707 86.5967 45.5233 86.3467 45.3514C86.1019 45.1796 85.7503 45.0936 85.292 45.0936C84.7139 45.0936 84.2998 45.1744 84.0498 45.3358C83.8831 45.4504 83.7998 45.5988 83.7998 45.7811C83.7998 45.9374 83.8727 46.0702 84.0186 46.1796C84.2165 46.3254 84.8988 46.5311 86.0654 46.7968C87.2373 47.0624 88.055 47.3879 88.5186 47.7733C88.9769 48.1639 89.2061 48.7082 89.2061 49.4061C89.2061 50.1665 88.8883 50.8202 88.2529 51.3671C87.6175 51.9139 86.6774 52.1874 85.4326 52.1874C84.3024 52.1874 83.4066 51.9582 82.7451 51.4999C82.0889 51.0415 81.6592 50.4191 81.4561 49.6327ZM95.9404 49.3593L98.1279 49.7264C97.8467 50.5285 97.4014 51.1405 96.792 51.5624C96.1878 51.979 95.43 52.1874 94.5186 52.1874C93.0758 52.1874 92.0081 51.716 91.3154 50.7733C90.7686 50.0181 90.4951 49.065 90.4951 47.9139C90.4951 46.5389 90.8545 45.4634 91.5732 44.6874C92.292 43.9061 93.2008 43.5155 94.2998 43.5155C95.5342 43.5155 96.5081 43.9244 97.2217 44.7421C97.9352 45.5546 98.2764 46.802 98.2451 48.4843H92.7451C92.7607 49.1353 92.9378 49.6431 93.2764 50.0077C93.6149 50.3671 94.0368 50.5468 94.542 50.5468C94.8857 50.5468 95.1748 50.453 95.4092 50.2655C95.6436 50.078 95.8206 49.7759 95.9404 49.3593ZM96.0654 47.1405C96.0498 46.5051 95.8857 46.0233 95.5732 45.6952C95.2607 45.3619 94.8805 45.1952 94.4326 45.1952C93.9535 45.1952 93.5576 45.3697 93.2451 45.7186C92.9326 46.0676 92.779 46.5415 92.7842 47.1405H96.0654ZM107.651 51.9999H105.612V50.7811C105.274 51.2551 104.873 51.6093 104.409 51.8436C103.951 52.0728 103.487 52.1874 103.019 52.1874C102.065 52.1874 101.248 51.8046 100.565 51.0389C99.8883 50.2681 99.5498 49.1952 99.5498 47.8202C99.5498 46.4139 99.8805 45.3462 100.542 44.6171C101.203 43.8827 102.039 43.5155 103.05 43.5155C103.977 43.5155 104.779 43.9009 105.456 44.6718V40.5468H107.651V51.9999ZM101.792 47.6718C101.792 48.5572 101.914 49.1978 102.159 49.5936C102.513 50.1665 103.008 50.453 103.644 50.453C104.149 50.453 104.578 50.2395 104.933 49.8124C105.287 49.3801 105.464 48.7369 105.464 47.8827C105.464 46.9296 105.292 46.2447 104.948 45.828C104.604 45.4061 104.164 45.1952 103.628 45.1952C103.107 45.1952 102.67 45.4035 102.315 45.8202C101.966 46.2316 101.792 46.8488 101.792 47.6718ZM114.183 51.9999V40.5468H116.378V44.6718C117.055 43.9009 117.857 43.5155 118.784 43.5155C119.795 43.5155 120.631 43.8827 121.292 44.6171C121.953 45.3462 122.284 46.3957 122.284 47.7655C122.284 49.1822 121.946 50.2733 121.269 51.0389C120.597 51.8046 119.779 52.1874 118.815 52.1874C118.341 52.1874 117.873 52.0702 117.409 51.8358C116.951 51.5962 116.555 51.2447 116.222 50.7811V51.9999H114.183ZM116.362 47.6718C116.362 48.5311 116.498 49.1665 116.769 49.578C117.149 50.1613 117.654 50.453 118.284 50.453C118.769 50.453 119.18 50.2473 119.519 49.8358C119.862 49.4191 120.034 48.7655 120.034 47.8749C120.034 46.927 119.862 46.2447 119.519 45.828C119.175 45.4061 118.735 45.1952 118.198 45.1952C117.672 45.1952 117.235 45.4009 116.886 45.8124C116.537 46.2186 116.362 46.8384 116.362 47.6718ZM123.019 43.703H125.354L127.339 49.5936L129.276 43.703H131.55L128.62 51.6874L128.097 53.1327C127.904 53.6171 127.719 53.9869 127.542 54.2421C127.37 54.4973 127.17 54.703 126.94 54.8593C126.716 55.0207 126.438 55.1457 126.104 55.2343C125.776 55.3228 125.404 55.3671 124.987 55.3671C124.565 55.3671 124.151 55.3228 123.745 55.2343L123.55 53.5155C123.894 53.5832 124.203 53.6171 124.479 53.6171C124.99 53.6171 125.368 53.466 125.612 53.1639C125.857 52.8671 126.045 52.4869 126.175 52.0233L123.019 43.703ZM141.222 43.703V45.453H139.722V48.7968C139.722 49.4738 139.735 49.8697 139.761 49.9843C139.792 50.0936 139.857 50.1848 139.956 50.2577C140.06 50.3306 140.185 50.3671 140.331 50.3671C140.534 50.3671 140.828 50.2968 141.214 50.1561L141.401 51.8593C140.891 52.078 140.313 52.1874 139.667 52.1874C139.271 52.1874 138.914 52.1223 138.597 51.9921C138.279 51.8566 138.045 51.6848 137.894 51.4764C137.748 51.2629 137.646 50.9764 137.589 50.6171C137.542 50.3619 137.519 49.8462 137.519 49.0702V45.453H136.511V43.703H137.519V42.0546L139.722 40.7733V43.703H141.222ZM144.933 40.5468V44.7577C145.641 43.9296 146.487 43.5155 147.472 43.5155C147.977 43.5155 148.433 43.6093 148.839 43.7968C149.245 43.9843 149.55 44.2238 149.753 44.5155C149.961 44.8072 150.102 45.1301 150.175 45.4843C150.253 45.8384 150.292 46.3879 150.292 47.1327V51.9999H148.097V47.6171C148.097 46.7473 148.055 46.1952 147.972 45.9608C147.888 45.7264 147.74 45.5415 147.526 45.4061C147.318 45.2655 147.055 45.1952 146.737 45.1952C146.373 45.1952 146.047 45.2837 145.761 45.4608C145.474 45.6379 145.263 45.9061 145.128 46.2655C144.998 46.6197 144.933 47.1457 144.933 47.8436V51.9999H142.737V40.5468H144.933ZM157.331 49.3593L159.519 49.7264C159.237 50.5285 158.792 51.1405 158.183 51.5624C157.578 51.979 156.821 52.1874 155.909 52.1874C154.466 52.1874 153.399 51.716 152.706 50.7733C152.159 50.0181 151.886 49.065 151.886 47.9139C151.886 46.5389 152.245 45.4634 152.964 44.6874C153.683 43.9061 154.591 43.5155 155.69 43.5155C156.925 43.5155 157.899 43.9244 158.612 44.7421C159.326 45.5546 159.667 46.802 159.636 48.4843H154.136C154.151 49.1353 154.328 49.6431 154.667 50.0077C155.006 50.3671 155.427 50.5468 155.933 50.5468C156.276 50.5468 156.565 50.453 156.8 50.2655C157.034 50.078 157.211 49.7759 157.331 49.3593ZM157.456 47.1405C157.44 46.5051 157.276 46.0233 156.964 45.6952C156.651 45.3619 156.271 45.1952 155.823 45.1952C155.344 45.1952 154.948 45.3697 154.636 45.7186C154.323 46.0676 154.17 46.5415 154.175 47.1405H157.456ZM165.886 40.5468H168.198V46.7499C168.198 47.7343 168.227 48.3723 168.284 48.6639C168.383 49.1327 168.618 49.5103 168.987 49.7968C169.362 50.078 169.873 50.2186 170.519 50.2186C171.175 50.2186 171.67 50.0858 172.003 49.8202C172.336 49.5494 172.537 49.2186 172.604 48.828C172.672 48.4374 172.706 47.7889 172.706 46.8827V40.5468H175.019V46.5624C175.019 47.9374 174.956 48.9087 174.831 49.4764C174.706 50.0441 174.474 50.5233 174.136 50.9139C173.802 51.3046 173.354 51.6171 172.792 51.8514C172.229 52.0806 171.495 52.1952 170.589 52.1952C169.495 52.1952 168.664 52.0702 168.097 51.8202C167.534 51.565 167.089 51.2369 166.761 50.8358C166.433 50.4296 166.216 50.0051 166.112 49.5624C165.961 48.9061 165.886 47.9374 165.886 46.6561V40.5468ZM177.448 51.9999V49.8046H179.644V51.9999H177.448ZM181.331 48.2733L183.581 48.0546C183.716 48.8098 183.99 49.3645 184.401 49.7186C184.818 50.0728 185.378 50.2499 186.081 50.2499C186.826 50.2499 187.386 50.0936 187.761 49.7811C188.141 49.4634 188.331 49.0936 188.331 48.6718C188.331 48.4009 188.25 48.1718 188.089 47.9843C187.933 47.7915 187.657 47.6249 187.261 47.4843C186.99 47.3905 186.373 47.2238 185.409 46.9843C184.17 46.677 183.3 46.2994 182.8 45.8514C182.097 45.2212 181.745 44.453 181.745 43.5468C181.745 42.9634 181.909 42.4191 182.237 41.9139C182.571 41.4035 183.047 41.0155 183.667 40.7499C184.292 40.4843 185.045 40.3514 185.925 40.3514C187.362 40.3514 188.443 40.6665 189.167 41.2968C189.896 41.927 190.279 42.7681 190.315 43.8202L188.003 43.9218C187.904 43.3332 187.69 42.9113 187.362 42.6561C187.039 42.3957 186.552 42.2655 185.901 42.2655C185.229 42.2655 184.703 42.4035 184.323 42.6796C184.078 42.8566 183.956 43.0936 183.956 43.3905C183.956 43.6613 184.071 43.8931 184.3 44.0858C184.591 44.3306 185.3 44.5858 186.425 44.8514C187.55 45.1171 188.381 45.3931 188.917 45.6796C189.459 45.9608 189.881 46.3488 190.183 46.8436C190.49 47.3332 190.644 47.94 190.644 48.6639C190.644 49.3202 190.461 49.9348 190.097 50.5077C189.732 51.0806 189.216 51.5077 188.55 51.7889C187.883 52.065 187.052 52.203 186.058 52.203C184.61 52.203 183.498 51.8697 182.722 51.203C181.946 50.5311 181.482 49.5546 181.331 48.2733ZM192.573 51.9999V49.8046H194.769V51.9999H192.573ZM211.229 51.9999H208.714L207.714 49.3983H203.136L202.19 51.9999H199.737L204.198 40.5468H206.644L211.229 51.9999ZM206.972 47.4686L205.394 43.2186L203.847 47.4686H206.972ZM214.55 51.9999H212.354V43.703H214.394V44.8827C214.743 44.3254 215.055 43.9582 215.331 43.7811C215.612 43.604 215.93 43.5155 216.284 43.5155C216.784 43.5155 217.266 43.6535 217.729 43.9296L217.05 45.8436C216.68 45.604 216.336 45.4843 216.019 45.4843C215.711 45.4843 215.451 45.5702 215.237 45.7421C215.024 45.9087 214.854 46.2134 214.729 46.6561C214.61 47.0988 214.55 48.0259 214.55 49.4374V51.9999ZM218.519 43.703H220.542V44.8358C221.266 43.9556 222.128 43.5155 223.128 43.5155C223.659 43.5155 224.12 43.6249 224.511 43.8436C224.901 44.0624 225.222 44.3931 225.472 44.8358C225.836 44.3931 226.229 44.0624 226.651 43.8436C227.073 43.6249 227.524 43.5155 228.003 43.5155C228.612 43.5155 229.128 43.6405 229.55 43.8905C229.972 44.1353 230.287 44.4973 230.495 44.9764C230.646 45.3306 230.722 45.9035 230.722 46.6952V51.9999H228.526V47.2577C228.526 46.4348 228.451 45.9035 228.3 45.6639C228.097 45.3514 227.784 45.1952 227.362 45.1952C227.055 45.1952 226.766 45.2889 226.495 45.4764C226.224 45.6639 226.029 45.94 225.909 46.3046C225.789 46.6639 225.729 47.2343 225.729 48.0155V51.9999H223.534V47.453C223.534 46.6457 223.495 46.1249 223.417 45.8905C223.339 45.6561 223.216 45.4816 223.05 45.3671C222.888 45.2525 222.667 45.1952 222.386 45.1952C222.047 45.1952 221.743 45.2863 221.472 45.4686C221.201 45.6509 221.006 45.9139 220.886 46.2577C220.771 46.6014 220.714 47.1718 220.714 47.9686V51.9999H218.519V43.703ZM231.878 43.703H234.214L236.198 49.5936L238.136 43.703H240.409L237.479 51.6874L236.956 53.1327C236.763 53.6171 236.578 53.9869 236.401 54.2421C236.229 54.4973 236.029 54.703 235.8 54.8593C235.576 55.0207 235.297 55.1457 234.964 55.2343C234.636 55.3228 234.263 55.3671 233.847 55.3671C233.425 55.3671 233.011 55.3228 232.604 55.2343L232.409 53.5155C232.753 53.5832 233.063 53.6171 233.339 53.6171C233.849 53.6171 234.227 53.466 234.472 53.1639C234.716 52.8671 234.904 52.4869 235.034 52.0233L231.878 43.703ZM245.503 49.6327L247.706 49.2968C247.8 49.7238 247.99 50.0494 248.276 50.2733C248.563 50.4921 248.964 50.6014 249.479 50.6014C250.047 50.6014 250.474 50.4973 250.761 50.2889C250.953 50.1431 251.05 49.9478 251.05 49.703C251.05 49.5363 250.998 49.3983 250.894 49.2889C250.784 49.1848 250.539 49.0884 250.159 48.9999C248.388 48.6093 247.266 48.2525 246.792 47.9296C246.136 47.4816 245.808 46.8593 245.808 46.0624C245.808 45.3436 246.091 44.7395 246.659 44.2499C247.227 43.7603 248.107 43.5155 249.3 43.5155C250.435 43.5155 251.279 43.7004 251.831 44.0702C252.383 44.44 252.763 44.9869 252.972 45.7108L250.901 46.0936C250.813 45.7707 250.644 45.5233 250.394 45.3514C250.149 45.1796 249.797 45.0936 249.339 45.0936C248.761 45.0936 248.347 45.1744 248.097 45.3358C247.93 45.4504 247.847 45.5988 247.847 45.7811C247.847 45.9374 247.92 46.0702 248.065 46.1796C248.263 46.3254 248.946 46.5311 250.112 46.7968C251.284 47.0624 252.102 47.3879 252.565 47.7733C253.024 48.1639 253.253 48.7082 253.253 49.4061C253.253 50.1665 252.935 50.8202 252.3 51.3671C251.664 51.9139 250.724 52.1874 249.479 52.1874C248.349 52.1874 247.453 51.9582 246.792 51.4999C246.136 51.0415 245.706 50.4191 245.503 49.6327ZM255.183 42.578V40.5468H257.378V42.578H255.183ZM255.183 51.9999V43.703H257.378V51.9999H255.183ZM267.183 51.9999H264.987V47.7655C264.987 46.8697 264.94 46.2915 264.847 46.0311C264.753 45.7655 264.599 45.5598 264.386 45.4139C264.177 45.2681 263.925 45.1952 263.628 45.1952C263.248 45.1952 262.907 45.2994 262.604 45.5077C262.302 45.716 262.094 45.9921 261.979 46.3358C261.87 46.6796 261.815 47.315 261.815 48.2421V51.9999H259.62V43.703H261.659V44.9218C262.383 43.9843 263.295 43.5155 264.394 43.5155C264.878 43.5155 265.321 43.604 265.722 43.7811C266.123 43.953 266.425 44.1744 266.628 44.4452C266.836 44.716 266.979 45.0233 267.058 45.3671C267.141 45.7108 267.183 46.203 267.183 46.8436V51.9999ZM276.651 46.1561L274.487 46.5468C274.414 46.1145 274.248 45.7889 273.987 45.5702C273.732 45.3514 273.399 45.2421 272.987 45.2421C272.44 45.2421 272.003 45.4322 271.675 45.8124C271.352 46.1874 271.19 46.8176 271.19 47.703C271.19 48.6874 271.354 49.3827 271.683 49.7889C272.016 50.1952 272.461 50.3983 273.019 50.3983C273.435 50.3983 273.776 50.2811 274.042 50.0468C274.308 49.8072 274.495 49.3983 274.604 48.8202L276.761 49.1874C276.537 50.177 276.107 50.9244 275.472 51.4296C274.836 51.9348 273.985 52.1874 272.917 52.1874C271.703 52.1874 270.735 51.8046 270.011 51.0389C269.292 50.2733 268.933 49.2134 268.933 47.8593C268.933 46.4895 269.295 45.4244 270.019 44.6639C270.743 43.8983 271.722 43.5155 272.956 43.5155C273.966 43.5155 274.769 43.7343 275.362 44.1718C275.961 44.604 276.391 45.2655 276.651 46.1561ZM283.128 49.3593L285.315 49.7264C285.034 50.5285 284.589 51.1405 283.979 51.5624C283.375 51.979 282.618 52.1874 281.706 52.1874C280.263 52.1874 279.196 51.716 278.503 50.7733C277.956 50.0181 277.683 49.065 277.683 47.9139C277.683 46.5389 278.042 45.4634 278.761 44.6874C279.479 43.9061 280.388 43.5155 281.487 43.5155C282.722 43.5155 283.696 43.9244 284.409 44.7421C285.123 45.5546 285.464 46.802 285.433 48.4843H279.933C279.948 49.1353 280.125 49.6431 280.464 50.0077C280.802 50.3671 281.224 50.5468 281.729 50.5468C282.073 50.5468 282.362 50.453 282.597 50.2655C282.831 50.078 283.008 49.7759 283.128 49.3593ZM283.253 47.1405C283.237 46.5051 283.073 46.0233 282.761 45.6952C282.448 45.3619 282.068 45.1952 281.62 45.1952C281.141 45.1952 280.745 45.3697 280.433 45.7186C280.12 46.0676 279.966 46.5415 279.972 47.1405H283.253ZM298.628 49.9608V51.9999H290.933C291.016 51.229 291.266 50.4999 291.683 49.8124C292.099 49.1197 292.922 48.203 294.151 47.0624C295.141 46.1405 295.748 45.5155 295.972 45.1874C296.274 44.7343 296.425 44.2863 296.425 43.8436C296.425 43.354 296.292 42.979 296.026 42.7186C295.766 42.453 295.404 42.3202 294.94 42.3202C294.482 42.3202 294.118 42.4582 293.847 42.7343C293.576 43.0103 293.42 43.4686 293.378 44.1093L291.19 43.8905C291.321 42.6822 291.729 41.815 292.417 41.2889C293.104 40.7629 293.964 40.4999 294.995 40.4999C296.125 40.4999 297.013 40.8046 297.659 41.4139C298.305 42.0233 298.628 42.7811 298.628 43.6874C298.628 44.203 298.534 44.6952 298.347 45.1639C298.164 45.6275 297.873 46.1145 297.472 46.6249C297.206 46.9634 296.727 47.4504 296.034 48.0858C295.341 48.7212 294.901 49.1431 294.714 49.3514C294.532 49.5598 294.383 49.7629 294.269 49.9608H298.628ZM303.831 40.4999C304.94 40.4999 305.808 40.8957 306.433 41.6874C307.177 42.6249 307.55 44.1796 307.55 46.3514C307.55 48.5181 307.175 50.0754 306.425 51.0233C305.805 51.8046 304.94 52.1952 303.831 52.1952C302.716 52.1952 301.818 51.7681 301.136 50.9139C300.453 50.0546 300.112 48.5259 300.112 46.328C300.112 44.1718 300.487 42.6197 301.237 41.6718C301.857 40.8905 302.722 40.4999 303.831 40.4999ZM303.831 42.3202C303.565 42.3202 303.328 42.4061 303.12 42.578C302.912 42.7447 302.75 43.0468 302.636 43.4843C302.485 44.052 302.409 45.0077 302.409 46.3514C302.409 47.6952 302.477 48.6197 302.612 49.1249C302.748 49.6249 302.917 49.9582 303.12 50.1249C303.328 50.2915 303.565 50.3749 303.831 50.3749C304.097 50.3749 304.334 50.2915 304.542 50.1249C304.75 49.953 304.912 49.6483 305.026 49.2108C305.177 48.6483 305.253 47.6952 305.253 46.3514C305.253 45.0077 305.185 44.0858 305.05 43.5858C304.914 43.0806 304.743 42.7447 304.534 42.578C304.331 42.4061 304.097 42.3202 303.831 42.3202ZM312.737 40.4999C313.847 40.4999 314.714 40.8957 315.339 41.6874C316.084 42.6249 316.456 44.1796 316.456 46.3514C316.456 48.5181 316.081 50.0754 315.331 51.0233C314.711 51.8046 313.847 52.1952 312.737 52.1952C311.623 52.1952 310.724 51.7681 310.042 50.9139C309.36 50.0546 309.019 48.5259 309.019 46.328C309.019 44.1718 309.394 42.6197 310.144 41.6718C310.763 40.8905 311.628 40.4999 312.737 40.4999ZM312.737 42.3202C312.472 42.3202 312.235 42.4061 312.026 42.578C311.818 42.7447 311.657 43.0468 311.542 43.4843C311.391 44.052 311.315 45.0077 311.315 46.3514C311.315 47.6952 311.383 48.6197 311.519 49.1249C311.654 49.6249 311.823 49.9582 312.026 50.1249C312.235 50.2915 312.472 50.3749 312.737 50.3749C313.003 50.3749 313.24 50.2915 313.448 50.1249C313.657 49.953 313.818 49.6483 313.933 49.2108C314.084 48.6483 314.159 47.6952 314.159 46.3514C314.159 45.0077 314.091 44.0858 313.956 43.5858C313.821 43.0806 313.649 42.7447 313.44 42.578C313.237 42.4061 313.003 42.3202 312.737 42.3202ZM319.815 45.8202C319.248 45.5806 318.834 45.2525 318.573 44.8358C318.318 44.4139 318.19 43.953 318.19 43.453C318.19 42.5988 318.487 41.8931 319.081 41.3358C319.68 40.7785 320.529 40.4999 321.628 40.4999C322.716 40.4999 323.56 40.7785 324.159 41.3358C324.763 41.8931 325.065 42.5988 325.065 43.453C325.065 43.9843 324.927 44.4582 324.651 44.8749C324.375 45.2863 323.987 45.6014 323.487 45.8202C324.123 46.0754 324.604 46.4478 324.933 46.9374C325.266 47.427 325.433 47.9921 325.433 48.6327C325.433 49.69 325.094 50.5494 324.417 51.2108C323.745 51.8723 322.849 52.203 321.729 52.203C320.688 52.203 319.821 51.9296 319.128 51.3827C318.31 50.7369 317.901 49.8514 317.901 48.7264C317.901 48.1066 318.055 47.5389 318.362 47.0233C318.67 46.5025 319.154 46.1014 319.815 45.8202ZM320.269 43.6093C320.269 44.0468 320.391 44.3879 320.636 44.6327C320.886 44.8775 321.216 44.9999 321.628 44.9999C322.045 44.9999 322.378 44.8775 322.628 44.6327C322.878 44.3827 323.003 44.0389 323.003 43.6014C323.003 43.19 322.878 42.8619 322.628 42.6171C322.383 42.3671 322.058 42.2421 321.651 42.2421C321.229 42.2421 320.894 42.3671 320.644 42.6171C320.394 42.8671 320.269 43.1978 320.269 43.6093ZM320.065 48.5155C320.065 49.1197 320.219 49.591 320.526 49.9296C320.839 50.2681 321.227 50.4374 321.69 50.4374C322.144 50.4374 322.519 50.2759 322.815 49.953C323.112 49.6249 323.261 49.1535 323.261 48.5389C323.261 48.0025 323.11 47.5728 322.808 47.2499C322.506 46.9218 322.123 46.7577 321.659 46.7577C321.123 46.7577 320.722 46.9426 320.456 47.3124C320.196 47.6822 320.065 48.0832 320.065 48.5155Z" fill="white"/>
<path d="M44.3047 57.3729V63.9999H19.2949C19.5658 61.4947 20.3783 59.1249 21.7324 56.8905C23.0866 54.6392 25.7611 51.66 29.7559 47.953C32.972 44.9569 34.944 42.9257 35.6719 41.8593C36.6536 40.3866 37.1445 38.9309 37.1445 37.4921C37.1445 35.9009 36.7129 34.6822 35.8496 33.8358C35.0033 32.9725 33.8268 32.5409 32.3203 32.5409C30.8307 32.5409 29.6458 32.9895 28.7656 33.8866C27.8854 34.7837 27.3776 36.2733 27.2422 38.3553L20.1328 37.6444C20.556 33.7173 21.8848 30.899 24.1191 29.1893C26.3535 27.4797 29.1465 26.6249 32.498 26.6249C36.1712 26.6249 39.0573 27.6151 41.1562 29.5956C43.2552 31.576 44.3047 34.0389 44.3047 36.9843C44.3047 38.66 44 40.2596 43.3906 41.7831C42.7982 43.2896 41.8503 44.8723 40.5469 46.5311C39.6836 47.6314 38.1263 49.2141 35.875 51.2792C33.6237 53.3443 32.1934 54.7154 31.584 55.3925C30.9915 56.0695 30.5091 56.7297 30.1367 57.3729H44.3047Z" fill="#6C725F"/>
</svg>
