<svg width="304" height="70" viewBox="0 0 304 70" fill="none" xmlns="http://www.w3.org/2000/svg">
<path d="M0 20.0002C0 8.95455 8.9543 0.000244141 20 0.000244141H239.799C243.101 0.000244141 246.352 0.81799 249.262 2.38047L277.192 17.3805C291.241 24.9259 291.241 45.0746 277.192 52.62L249.262 67.62C246.352 69.1825 243.101 70.0002 239.799 70.0002H20C8.9543 70.0002 0 61.0459 0 50.0002V20.0002Z" fill="#333333"/>
<path d="M65.6084 23.051C65.6084 22.0302 65.7611 21.1734 66.0664 20.4807C66.2943 19.9703 66.6042 19.5123 66.9961 19.1067C67.3926 18.7011 67.8255 18.4003 68.2949 18.2043C68.9193 17.94 69.6393 17.8079 70.4551 17.8079C71.9316 17.8079 73.112 18.2659 73.9961 19.1819C74.8848 20.0979 75.3291 21.3717 75.3291 23.0032C75.3291 24.621 74.8893 25.8879 74.0098 26.804C73.1302 27.7154 71.9544 28.1711 70.4824 28.1711C68.9922 28.1711 67.8073 27.7177 66.9277 26.8108C66.0482 25.8993 65.6084 24.6461 65.6084 23.051ZM67.6934 22.9827C67.6934 24.1174 67.9554 24.9788 68.4795 25.5667C69.0036 26.15 69.6689 26.4417 70.4756 26.4417C71.2822 26.4417 71.943 26.1523 72.458 25.5735C72.9775 24.9902 73.2373 24.1174 73.2373 22.9553C73.2373 21.8069 72.9844 20.9501 72.4785 20.385C71.9772 19.8199 71.3096 19.5374 70.4756 19.5374C69.6416 19.5374 68.9694 19.8245 68.459 20.3987C67.9486 20.9683 67.6934 21.8297 67.6934 22.9827ZM83.5049 28.0002H81.584V24.2952C81.584 23.5113 81.543 23.0055 81.4609 22.7776C81.3789 22.5452 81.2445 22.3652 81.0576 22.2375C80.8753 22.1099 80.6543 22.0461 80.3945 22.0461C80.0618 22.0461 79.7633 22.1373 79.499 22.3196C79.2347 22.5019 79.0524 22.7434 78.9521 23.0442C78.8564 23.345 78.8086 23.901 78.8086 24.7122V28.0002H76.8877V20.7405H78.6719V21.8069C79.3053 20.9866 80.1029 20.5764 81.0645 20.5764C81.4883 20.5764 81.8757 20.6539 82.2266 20.8088C82.5775 20.9592 82.8418 21.1529 83.0195 21.3899C83.2018 21.6269 83.3271 21.8958 83.3955 22.1965C83.4684 22.4973 83.5049 22.928 83.5049 23.4885V28.0002ZM89.6641 25.6897L91.5781 26.011C91.332 26.7128 90.9424 27.2483 90.4092 27.6174C89.8805 27.982 89.2174 28.1643 88.4199 28.1643C87.1576 28.1643 86.2233 27.7519 85.6172 26.927C85.1387 26.2662 84.8994 25.4322 84.8994 24.425C84.8994 23.2219 85.2139 22.2808 85.8428 21.6018C86.4717 20.9182 87.2669 20.5764 88.2285 20.5764C89.3086 20.5764 90.1608 20.9342 90.7852 21.6497C91.4095 22.3606 91.708 23.4521 91.6807 24.9241H86.8682C86.8818 25.4937 87.0368 25.9381 87.333 26.2571C87.6292 26.5715 87.9984 26.7288 88.4404 26.7288C88.7412 26.7288 88.9941 26.6467 89.1992 26.4827C89.4043 26.3186 89.5592 26.0543 89.6641 25.6897ZM89.7734 23.7483C89.7598 23.1923 89.6162 22.7708 89.3428 22.4836C89.0693 22.192 88.7367 22.0461 88.3447 22.0461C87.9255 22.0461 87.5791 22.1988 87.3057 22.5042C87.0322 22.8095 86.8978 23.2242 86.9023 23.7483H89.7734ZM96.7051 24.2678C96.7051 23.6298 96.8623 23.0123 97.1768 22.4153C97.4912 21.8183 97.9355 21.3625 98.5098 21.0481C99.0885 20.7336 99.7334 20.5764 100.444 20.5764C101.543 20.5764 102.443 20.9342 103.145 21.6497C103.846 22.3606 104.197 23.2607 104.197 24.3499C104.197 25.4482 103.842 26.3596 103.131 27.0842C102.424 27.8043 101.534 28.1643 100.458 28.1643C99.7926 28.1643 99.1569 28.0139 98.5508 27.7131C97.9492 27.4124 97.4912 26.9726 97.1768 26.3938C96.8623 25.8105 96.7051 25.1018 96.7051 24.2678ZM98.6738 24.3704C98.6738 25.0904 98.8447 25.6418 99.1865 26.0247C99.5283 26.4075 99.9499 26.5989 100.451 26.5989C100.952 26.5989 101.372 26.4075 101.709 26.0247C102.051 25.6418 102.222 25.0859 102.222 24.3567C102.222 23.6458 102.051 23.0989 101.709 22.7161C101.372 22.3333 100.952 22.1418 100.451 22.1418C99.9499 22.1418 99.5283 22.3333 99.1865 22.7161C98.8447 23.0989 98.6738 23.6503 98.6738 24.3704ZM104.867 20.7405H105.934V20.1936C105.934 19.5829 105.997 19.1272 106.125 18.8264C106.257 18.5256 106.496 18.2818 106.843 18.095C107.194 17.9036 107.636 17.8079 108.169 17.8079C108.716 17.8079 109.251 17.8899 109.775 18.054L109.516 19.3938C109.21 19.3209 108.916 19.2844 108.634 19.2844C108.356 19.2844 108.155 19.3505 108.032 19.4827C107.914 19.6103 107.854 19.8586 107.854 20.2278V20.7405H109.29V22.2512H107.854V28.0002H105.934V22.2512H104.867V20.7405ZM117.596 20.7405V22.2717H116.283V25.1975C116.283 25.79 116.295 26.1363 116.317 26.2366C116.345 26.3323 116.402 26.412 116.488 26.4758C116.579 26.5396 116.689 26.5715 116.816 26.5715C116.994 26.5715 117.252 26.51 117.589 26.387L117.753 27.8772C117.306 28.0686 116.8 28.1643 116.235 28.1643C115.889 28.1643 115.577 28.1073 115.299 27.9934C115.021 27.8749 114.816 27.7245 114.684 27.5422C114.556 27.3554 114.467 27.1047 114.417 26.7903C114.376 26.567 114.355 26.1158 114.355 25.4368V22.2717H113.474V20.7405H114.355V19.2981L116.283 18.177V20.7405H117.596ZM120.843 17.9788V21.6633C121.463 20.9387 122.203 20.5764 123.064 20.5764C123.507 20.5764 123.905 20.6584 124.261 20.8225C124.616 20.9866 124.883 21.1962 125.061 21.4514C125.243 21.7066 125.366 21.9892 125.43 22.2991C125.498 22.609 125.532 23.0898 125.532 23.7415V28.0002H123.611V24.1653C123.611 23.4042 123.575 22.9211 123.502 22.7161C123.429 22.511 123.299 22.3492 123.112 22.2307C122.93 22.1077 122.7 22.0461 122.422 22.0461C122.103 22.0461 121.818 22.1236 121.567 22.2786C121.317 22.4335 121.132 22.6682 121.014 22.9827C120.9 23.2926 120.843 23.7528 120.843 24.3635V28.0002H118.922V17.9788H120.843ZM131.691 25.6897L133.605 26.011C133.359 26.7128 132.97 27.2483 132.437 27.6174C131.908 27.982 131.245 28.1643 130.447 28.1643C129.185 28.1643 128.251 27.7519 127.645 26.927C127.166 26.2662 126.927 25.4322 126.927 24.425C126.927 23.2219 127.241 22.2808 127.87 21.6018C128.499 20.9182 129.294 20.5764 130.256 20.5764C131.336 20.5764 132.188 20.9342 132.812 21.6497C133.437 22.3606 133.735 23.4521 133.708 24.9241H128.896C128.909 25.4937 129.064 25.9381 129.36 26.2571C129.657 26.5715 130.026 26.7288 130.468 26.7288C130.769 26.7288 131.021 26.6467 131.227 26.4827C131.432 26.3186 131.587 26.0543 131.691 25.6897ZM131.801 23.7483C131.787 23.1923 131.644 22.7708 131.37 22.4836C131.097 22.192 130.764 22.0461 130.372 22.0461C129.953 22.0461 129.606 22.1988 129.333 22.5042C129.06 22.8095 128.925 23.2242 128.93 23.7483H131.801ZM139.033 20.7405H140.804V21.7317C141.437 20.9615 142.191 20.5764 143.066 20.5764C143.531 20.5764 143.935 20.6721 144.276 20.8635C144.618 21.0549 144.898 21.3443 145.117 21.7317C145.436 21.3443 145.78 21.0549 146.149 20.8635C146.519 20.6721 146.913 20.5764 147.332 20.5764C147.865 20.5764 148.316 20.6858 148.686 20.9045C149.055 21.1187 149.33 21.4355 149.513 21.8547C149.645 22.1646 149.711 22.6659 149.711 23.3586V28.0002H147.79V23.8508C147.79 23.1308 147.724 22.6659 147.592 22.4563C147.414 22.1829 147.141 22.0461 146.771 22.0461C146.503 22.0461 146.25 22.1282 146.013 22.2922C145.776 22.4563 145.605 22.6978 145.5 23.0168C145.395 23.3313 145.343 23.8303 145.343 24.5139V28.0002H143.422V24.0217C143.422 23.3153 143.388 22.8596 143.319 22.6545C143.251 22.4495 143.144 22.2968 142.998 22.1965C142.857 22.0963 142.663 22.0461 142.417 22.0461C142.121 22.0461 141.854 22.1259 141.617 22.2854C141.38 22.4449 141.209 22.675 141.104 22.9758C141.004 23.2766 140.954 23.7756 140.954 24.4729V28.0002H139.033V20.7405ZM151.188 24.2678C151.188 23.6298 151.345 23.0123 151.659 22.4153C151.974 21.8183 152.418 21.3625 152.992 21.0481C153.571 20.7336 154.216 20.5764 154.927 20.5764C156.025 20.5764 156.925 20.9342 157.627 21.6497C158.329 22.3606 158.68 23.2607 158.68 24.3499C158.68 25.4482 158.324 26.3596 157.613 27.0842C156.907 27.8043 156.016 28.1643 154.94 28.1643C154.275 28.1643 153.639 28.0139 153.033 27.7131C152.432 27.4124 151.974 26.9726 151.659 26.3938C151.345 25.8105 151.188 25.1018 151.188 24.2678ZM153.156 24.3704C153.156 25.0904 153.327 25.6418 153.669 26.0247C154.011 26.4075 154.432 26.5989 154.934 26.5989C155.435 26.5989 155.854 26.4075 156.191 26.0247C156.533 25.6418 156.704 25.0859 156.704 24.3567C156.704 23.6458 156.533 23.0989 156.191 22.7161C155.854 22.3333 155.435 22.1418 154.934 22.1418C154.432 22.1418 154.011 22.3333 153.669 22.7161C153.327 23.0989 153.156 23.6503 153.156 24.3704ZM159.514 25.929L161.441 25.635C161.523 26.0087 161.69 26.2935 161.94 26.4895C162.191 26.6809 162.542 26.7766 162.993 26.7766C163.49 26.7766 163.864 26.6855 164.114 26.5032C164.283 26.3756 164.367 26.2047 164.367 25.9905C164.367 25.8446 164.322 25.7239 164.23 25.6282C164.135 25.537 163.921 25.4527 163.588 25.3752C162.038 25.0334 161.056 24.7213 160.642 24.4387C160.067 24.0468 159.78 23.5022 159.78 22.8049C159.78 22.176 160.029 21.6474 160.525 21.219C161.022 20.7906 161.792 20.5764 162.836 20.5764C163.829 20.5764 164.568 20.7382 165.051 21.0618C165.534 21.3853 165.867 21.8639 166.049 22.4973L164.237 22.8323C164.16 22.5497 164.012 22.3333 163.793 22.1829C163.579 22.0325 163.271 21.9573 162.87 21.9573C162.364 21.9573 162.002 22.0279 161.783 22.1692C161.637 22.2694 161.564 22.3993 161.564 22.5588C161.564 22.6956 161.628 22.8118 161.756 22.9075C161.929 23.0351 162.526 23.2151 163.547 23.4475C164.572 23.6799 165.288 23.9648 165.693 24.302C166.094 24.6438 166.295 25.12 166.295 25.7307C166.295 26.3961 166.017 26.968 165.461 27.4465C164.905 27.925 164.082 28.1643 162.993 28.1643C162.004 28.1643 161.22 27.9638 160.642 27.5627C160.067 27.1617 159.691 26.6171 159.514 25.929ZM171.312 20.7405V22.2717H170V25.1975C170 25.79 170.011 26.1363 170.034 26.2366C170.062 26.3323 170.118 26.412 170.205 26.4758C170.296 26.5396 170.406 26.5715 170.533 26.5715C170.711 26.5715 170.968 26.51 171.306 26.387L171.47 27.8772C171.023 28.0686 170.517 28.1643 169.952 28.1643C169.606 28.1643 169.294 28.1073 169.016 27.9934C168.738 27.8749 168.533 27.7245 168.4 27.5422C168.273 27.3554 168.184 27.1047 168.134 26.7903C168.093 26.567 168.072 26.1158 168.072 25.4368V22.2717H167.19V20.7405H168.072V19.2981L170 18.177V20.7405H171.312ZM180.746 25.6897L182.66 26.011C182.414 26.7128 182.024 27.2483 181.491 27.6174C180.963 27.982 180.299 28.1643 179.502 28.1643C178.24 28.1643 177.305 27.7519 176.699 26.927C176.221 26.2662 175.981 25.4322 175.981 24.425C175.981 23.2219 176.296 22.2808 176.925 21.6018C177.554 20.9182 178.349 20.5764 179.311 20.5764C180.391 20.5764 181.243 20.9342 181.867 21.6497C182.492 22.3606 182.79 23.4521 182.763 24.9241H177.95C177.964 25.4937 178.119 25.9381 178.415 26.2571C178.711 26.5715 179.08 26.7288 179.522 26.7288C179.823 26.7288 180.076 26.6467 180.281 26.4827C180.486 26.3186 180.641 26.0543 180.746 25.6897ZM180.855 23.7483C180.842 23.1923 180.698 22.7708 180.425 22.4836C180.151 22.192 179.819 22.0461 179.427 22.0461C179.007 22.0461 178.661 22.1988 178.388 22.5042C178.114 22.8095 177.98 23.2242 177.984 23.7483H180.855ZM183.658 25.929L185.586 25.635C185.668 26.0087 185.834 26.2935 186.085 26.4895C186.336 26.6809 186.687 26.7766 187.138 26.7766C187.634 26.7766 188.008 26.6855 188.259 26.5032C188.427 26.3756 188.512 26.2047 188.512 25.9905C188.512 25.8446 188.466 25.7239 188.375 25.6282C188.279 25.537 188.065 25.4527 187.732 25.3752C186.183 25.0334 185.201 24.7213 184.786 24.4387C184.212 24.0468 183.925 23.5022 183.925 22.8049C183.925 22.176 184.173 21.6474 184.67 21.219C185.167 20.7906 185.937 20.5764 186.98 20.5764C187.974 20.5764 188.712 20.7382 189.195 21.0618C189.678 21.3853 190.011 21.8639 190.193 22.4973L188.382 22.8323C188.304 22.5497 188.156 22.3333 187.938 22.1829C187.723 22.0325 187.416 21.9573 187.015 21.9573C186.509 21.9573 186.146 22.0279 185.928 22.1692C185.782 22.2694 185.709 22.3993 185.709 22.5588C185.709 22.6956 185.773 22.8118 185.9 22.9075C186.074 23.0351 186.671 23.2151 187.691 23.4475C188.717 23.6799 189.432 23.9648 189.838 24.302C190.239 24.6438 190.439 25.12 190.439 25.7307C190.439 26.3961 190.161 26.968 189.605 27.4465C189.049 27.925 188.227 28.1643 187.138 28.1643C186.149 28.1643 185.365 27.9638 184.786 27.5627C184.212 27.1617 183.836 26.6171 183.658 25.929ZM191.451 25.929L193.379 25.635C193.461 26.0087 193.627 26.2935 193.878 26.4895C194.129 26.6809 194.479 26.7766 194.931 26.7766C195.427 26.7766 195.801 26.6855 196.052 26.5032C196.22 26.3756 196.305 26.2047 196.305 25.9905C196.305 25.8446 196.259 25.7239 196.168 25.6282C196.072 25.537 195.858 25.4527 195.525 25.3752C193.976 25.0334 192.994 24.7213 192.579 24.4387C192.005 24.0468 191.718 23.5022 191.718 22.8049C191.718 22.176 191.966 21.6474 192.463 21.219C192.96 20.7906 193.73 20.5764 194.773 20.5764C195.767 20.5764 196.505 20.7382 196.988 21.0618C197.471 21.3853 197.804 21.8639 197.986 22.4973L196.175 22.8323C196.097 22.5497 195.949 22.3333 195.73 22.1829C195.516 22.0325 195.209 21.9573 194.808 21.9573C194.302 21.9573 193.939 22.0279 193.721 22.1692C193.575 22.2694 193.502 22.3993 193.502 22.5588C193.502 22.6956 193.566 22.8118 193.693 22.9075C193.867 23.0351 194.464 23.2151 195.484 23.4475C196.51 23.6799 197.225 23.9648 197.631 24.302C198.032 24.6438 198.232 25.12 198.232 25.7307C198.232 26.3961 197.954 26.968 197.398 27.4465C196.842 27.925 196.02 28.1643 194.931 28.1643C193.942 28.1643 193.158 27.9638 192.579 27.5627C192.005 27.1617 191.629 26.6171 191.451 25.929ZM204.125 25.6897L206.039 26.011C205.793 26.7128 205.403 27.2483 204.87 27.6174C204.341 27.982 203.678 28.1643 202.881 28.1643C201.618 28.1643 200.684 27.7519 200.078 26.927C199.6 26.2662 199.36 25.4322 199.36 24.425C199.36 23.2219 199.675 22.2808 200.304 21.6018C200.933 20.9182 201.728 20.5764 202.689 20.5764C203.77 20.5764 204.622 20.9342 205.246 21.6497C205.87 22.3606 206.169 23.4521 206.142 24.9241H201.329C201.343 25.4937 201.498 25.9381 201.794 26.2571C202.09 26.5715 202.459 26.7288 202.901 26.7288C203.202 26.7288 203.455 26.6467 203.66 26.4827C203.865 26.3186 204.02 26.0543 204.125 25.6897ZM204.234 23.7483C204.221 23.1923 204.077 22.7708 203.804 22.4836C203.53 22.192 203.198 22.0461 202.806 22.0461C202.386 22.0461 202.04 22.1988 201.767 22.5042C201.493 22.8095 201.359 23.2242 201.363 23.7483H204.234ZM214.317 28.0002H212.396V24.2952C212.396 23.5113 212.355 23.0055 212.273 22.7776C212.191 22.5452 212.057 22.3652 211.87 22.2375C211.688 22.1099 211.467 22.0461 211.207 22.0461C210.874 22.0461 210.576 22.1373 210.312 22.3196C210.047 22.5019 209.865 22.7434 209.765 23.0442C209.669 23.345 209.621 23.901 209.621 24.7122V28.0002H207.7V20.7405H209.484V21.8069C210.118 20.9866 210.915 20.5764 211.877 20.5764C212.301 20.5764 212.688 20.6539 213.039 20.8088C213.39 20.9592 213.654 21.1529 213.832 21.3899C214.014 21.6269 214.14 21.8958 214.208 22.1965C214.281 22.4973 214.317 22.928 214.317 23.4885V28.0002ZM219.602 20.7405V22.2717H218.289V25.1975C218.289 25.79 218.3 26.1363 218.323 26.2366C218.351 26.3323 218.408 26.412 218.494 26.4758C218.585 26.5396 218.695 26.5715 218.822 26.5715C219 26.5715 219.257 26.51 219.595 26.387L219.759 27.8772C219.312 28.0686 218.806 28.1643 218.241 28.1643C217.895 28.1643 217.583 28.1073 217.305 27.9934C217.027 27.8749 216.822 27.7245 216.689 27.5422C216.562 27.3554 216.473 27.1047 216.423 26.7903C216.382 26.567 216.361 26.1158 216.361 25.4368V22.2717H215.479V20.7405H216.361V19.2981L218.289 18.177V20.7405H219.602ZM220.935 19.7561V17.9788H222.855V19.7561H220.935ZM220.935 28.0002V20.7405H222.855V28.0002H220.935ZM226.267 22.9553L224.523 22.6409C224.719 21.939 225.057 21.4195 225.535 21.0823C226.014 20.745 226.725 20.5764 227.668 20.5764C228.525 20.5764 229.163 20.679 229.582 20.884C230.001 21.0846 230.295 21.342 230.464 21.6565C230.637 21.9664 230.724 22.5383 230.724 23.3723L230.703 25.6145C230.703 26.2525 230.733 26.7242 230.792 27.0295C230.856 27.3303 230.972 27.6539 231.141 28.0002H229.24C229.19 27.8726 229.129 27.6835 229.056 27.4329C229.024 27.3189 229.001 27.2437 228.987 27.2073C228.659 27.5263 228.308 27.7655 227.935 27.925C227.561 28.0846 227.162 28.1643 226.738 28.1643C225.991 28.1643 225.401 27.9615 224.968 27.5559C224.539 27.1503 224.325 26.6376 224.325 26.0178C224.325 25.6077 224.423 25.2431 224.619 24.9241C224.815 24.6005 225.089 24.3544 225.439 24.1858C225.795 24.0126 226.305 23.8622 226.971 23.7346C227.868 23.566 228.491 23.4088 228.837 23.2629V23.0715C228.837 22.7024 228.746 22.4403 228.563 22.2854C228.381 22.1259 228.037 22.0461 227.531 22.0461C227.189 22.0461 226.923 22.1145 226.731 22.2512C226.54 22.3834 226.385 22.6181 226.267 22.9553ZM228.837 24.5139C228.591 24.5959 228.201 24.6939 227.668 24.8079C227.135 24.9218 226.786 25.0334 226.622 25.1428C226.371 25.3206 226.246 25.5461 226.246 25.8196C226.246 26.0885 226.346 26.3209 226.547 26.5168C226.747 26.7128 227.003 26.8108 227.312 26.8108C227.659 26.8108 227.989 26.6969 228.304 26.469C228.536 26.2958 228.689 26.0839 228.762 25.8333C228.812 25.6692 228.837 25.357 228.837 24.8967V24.5139ZM232.624 28.0002V17.9788H234.545V28.0002H232.624ZM72.6631 50.0002H70.8789V48.9338C70.5827 49.3486 70.2318 49.6584 69.8262 49.8635C69.4251 50.064 69.0195 50.1643 68.6094 50.1643C67.7754 50.1643 67.0599 49.8293 66.4629 49.1594C65.8704 48.4849 65.5742 47.5461 65.5742 46.343C65.5742 45.1125 65.8636 44.1783 66.4424 43.5403C67.0212 42.8977 67.7526 42.5764 68.6367 42.5764C69.4479 42.5764 70.1497 42.9137 70.7422 43.5881V39.9788H72.6631V50.0002ZM67.5361 46.2131C67.5361 46.9879 67.6432 47.5484 67.8574 47.8948C68.1673 48.3961 68.6003 48.6467 69.1562 48.6467C69.5983 48.6467 69.9743 48.4599 70.2842 48.0862C70.5941 47.7079 70.749 47.1451 70.749 46.3977C70.749 45.5637 70.5986 44.9644 70.2979 44.5999C69.9971 44.2307 69.612 44.0461 69.1426 44.0461C68.6868 44.0461 68.304 44.2284 67.9941 44.593C67.6888 44.953 67.5361 45.4931 67.5361 46.2131ZM78.7676 47.6897L80.6816 48.011C80.4355 48.7128 80.0459 49.2483 79.5127 49.6174C78.984 49.982 78.321 50.1643 77.5234 50.1643C76.2611 50.1643 75.3268 49.7519 74.7207 48.927C74.2422 48.2662 74.0029 47.4322 74.0029 46.425C74.0029 45.2219 74.3174 44.2808 74.9463 43.6018C75.5752 42.9182 76.3704 42.5764 77.332 42.5764C78.4121 42.5764 79.2643 42.9342 79.8887 43.6497C80.513 44.3606 80.8115 45.4521 80.7842 46.9241H75.9717C75.9854 47.4937 76.1403 47.9381 76.4365 48.2571C76.7327 48.5715 77.1019 48.7288 77.5439 48.7288C77.8447 48.7288 78.0977 48.6467 78.3027 48.4827C78.5078 48.3186 78.6628 48.0543 78.7676 47.6897ZM78.877 45.7483C78.8633 45.1923 78.7197 44.7708 78.4463 44.4836C78.1729 44.192 77.8402 44.0461 77.4482 44.0461C77.029 44.0461 76.6826 44.1988 76.4092 44.5042C76.1357 44.8095 76.0013 45.2242 76.0059 45.7483H78.877ZM84.3525 50.0002L81.4268 42.7405H83.4434L84.8105 46.4456L85.207 47.6829C85.3118 47.3684 85.3779 47.1611 85.4053 47.0608C85.4691 46.8557 85.5374 46.6506 85.6104 46.4456L86.9912 42.7405H88.9668L86.082 50.0002H84.3525ZM90.1494 41.7561V39.9788H92.0703V41.7561H90.1494ZM90.1494 50.0002V42.7405H92.0703V50.0002H90.1494ZM100.376 44.887L98.4824 45.2288C98.4186 44.8505 98.2728 44.5657 98.0449 44.3743C97.8216 44.1829 97.5299 44.0872 97.1699 44.0872C96.6914 44.0872 96.3086 44.2535 96.0215 44.5862C95.7389 44.9143 95.5977 45.4657 95.5977 46.2405C95.5977 47.1018 95.7412 47.7102 96.0283 48.0657C96.32 48.4211 96.7096 48.5989 97.1973 48.5989C97.5618 48.5989 97.8604 48.4963 98.0928 48.2913C98.3252 48.0816 98.4893 47.7239 98.585 47.218L100.472 47.5393C100.276 48.4052 99.8997 49.0592 99.3438 49.5012C98.7878 49.9433 98.0426 50.1643 97.1084 50.1643C96.0465 50.1643 95.1989 49.8293 94.5654 49.1594C93.9365 48.4895 93.6221 47.5621 93.6221 46.3772C93.6221 45.1786 93.9388 44.2467 94.5723 43.5813C95.2057 42.9114 96.0625 42.5764 97.1426 42.5764C98.0267 42.5764 98.7285 42.7678 99.248 43.1506C99.7721 43.5289 100.148 44.1077 100.376 44.887ZM106.043 47.6897L107.957 48.011C107.711 48.7128 107.321 49.2483 106.788 49.6174C106.259 49.982 105.596 50.1643 104.799 50.1643C103.536 50.1643 102.602 49.7519 101.996 48.927C101.518 48.2662 101.278 47.4322 101.278 46.425C101.278 45.2219 101.593 44.2808 102.222 43.6018C102.851 42.9182 103.646 42.5764 104.607 42.5764C105.688 42.5764 106.54 42.9342 107.164 43.6497C107.788 44.3606 108.087 45.4521 108.06 46.9241H103.247C103.261 47.4937 103.416 47.9381 103.712 48.2571C104.008 48.5715 104.377 48.7288 104.819 48.7288C105.12 48.7288 105.373 48.6467 105.578 48.4827C105.783 48.3186 105.938 48.0543 106.043 47.6897ZM106.152 45.7483C106.139 45.1923 105.995 44.7708 105.722 44.4836C105.448 44.192 105.116 44.0461 104.724 44.0461C104.304 44.0461 103.958 44.1988 103.685 44.5042C103.411 44.8095 103.277 45.2242 103.281 45.7483H106.152ZM108.955 47.929L110.883 47.635C110.965 48.0087 111.131 48.2935 111.382 48.4895C111.632 48.6809 111.983 48.7766 112.435 48.7766C112.931 48.7766 113.305 48.6855 113.556 48.5032C113.724 48.3756 113.809 48.2047 113.809 47.9905C113.809 47.8446 113.763 47.7239 113.672 47.6282C113.576 47.537 113.362 47.4527 113.029 47.3752C111.48 47.0334 110.498 46.7213 110.083 46.4387C109.509 46.0468 109.222 45.5022 109.222 44.8049C109.222 44.176 109.47 43.6474 109.967 43.219C110.464 42.7906 111.234 42.5764 112.277 42.5764C113.271 42.5764 114.009 42.7382 114.492 43.0618C114.975 43.3853 115.308 43.8639 115.49 44.4973L113.679 44.8323C113.601 44.5497 113.453 44.3333 113.234 44.1829C113.02 44.0325 112.713 43.9573 112.312 43.9573C111.806 43.9573 111.443 44.0279 111.225 44.1692C111.079 44.2694 111.006 44.3993 111.006 44.5588C111.006 44.6956 111.07 44.8118 111.197 44.9075C111.37 45.0351 111.967 45.2151 112.988 45.4475C114.014 45.6799 114.729 45.9648 115.135 46.302C115.536 46.6438 115.736 47.12 115.736 47.7307C115.736 48.3961 115.458 48.968 114.902 49.4465C114.346 49.925 113.524 50.1643 112.435 50.1643C111.446 50.1643 110.662 49.9638 110.083 49.5627C109.509 49.1617 109.133 48.6171 108.955 47.929ZM120.877 46.2678C120.877 45.6298 121.034 45.0123 121.349 44.4153C121.663 43.8183 122.107 43.3625 122.682 43.0481C123.26 42.7336 123.905 42.5764 124.616 42.5764C125.715 42.5764 126.615 42.9342 127.316 43.6497C128.018 44.3606 128.369 45.2607 128.369 46.3499C128.369 47.4482 128.014 48.3596 127.303 49.0842C126.596 49.8043 125.705 50.1643 124.63 50.1643C123.965 50.1643 123.329 50.0139 122.723 49.7131C122.121 49.4124 121.663 48.9726 121.349 48.3938C121.034 47.8105 120.877 47.1018 120.877 46.2678ZM122.846 46.3704C122.846 47.0904 123.017 47.6418 123.358 48.0247C123.7 48.4075 124.122 48.5989 124.623 48.5989C125.124 48.5989 125.544 48.4075 125.881 48.0247C126.223 47.6418 126.394 47.0859 126.394 46.3567C126.394 45.6458 126.223 45.0989 125.881 44.7161C125.544 44.3333 125.124 44.1418 124.623 44.1418C124.122 44.1418 123.7 44.3333 123.358 44.7161C123.017 45.0989 122.846 45.6503 122.846 46.3704ZM136.483 50.0002H134.562V46.2952C134.562 45.5113 134.521 45.0055 134.439 44.7776C134.357 44.5452 134.223 44.3652 134.036 44.2375C133.854 44.1099 133.633 44.0461 133.373 44.0461C133.04 44.0461 132.742 44.1373 132.478 44.3196C132.213 44.5019 132.031 44.7434 131.931 45.0442C131.835 45.345 131.787 45.901 131.787 46.7122V50.0002H129.866V42.7405H131.65V43.8069C132.284 42.9866 133.081 42.5764 134.043 42.5764C134.467 42.5764 134.854 42.6539 135.205 42.8088C135.556 42.9592 135.82 43.1529 135.998 43.3899C136.18 43.6269 136.306 43.8958 136.374 44.1965C136.447 44.4973 136.483 44.928 136.483 45.4885V50.0002ZM145.664 42.7405V44.2717H144.352V47.1975C144.352 47.79 144.363 48.1363 144.386 48.2366C144.413 48.3323 144.47 48.412 144.557 48.4758C144.648 48.5396 144.757 48.5715 144.885 48.5715C145.062 48.5715 145.32 48.51 145.657 48.387L145.821 49.8772C145.375 50.0686 144.869 50.1643 144.304 50.1643C143.957 50.1643 143.645 50.1073 143.367 49.9934C143.089 49.8749 142.884 49.7245 142.752 49.5422C142.624 49.3554 142.535 49.1047 142.485 48.7903C142.444 48.567 142.424 48.1158 142.424 47.4368V44.2717H141.542V42.7405H142.424V41.2981L144.352 40.177V42.7405H145.664ZM148.911 39.9788V43.6633C149.531 42.9387 150.271 42.5764 151.133 42.5764C151.575 42.5764 151.974 42.6584 152.329 42.8225C152.685 42.9866 152.951 43.1962 153.129 43.4514C153.311 43.7066 153.434 43.9892 153.498 44.2991C153.566 44.609 153.601 45.0898 153.601 45.7415V50.0002H151.68V46.1653C151.68 45.4042 151.643 44.9211 151.57 44.7161C151.497 44.511 151.368 44.3492 151.181 44.2307C150.998 44.1077 150.768 44.0461 150.49 44.0461C150.171 44.0461 149.886 44.1236 149.636 44.2786C149.385 44.4335 149.201 44.6682 149.082 44.9827C148.968 45.2926 148.911 45.7528 148.911 46.3635V50.0002H146.99V39.9788H148.911ZM159.76 47.6897L161.674 48.011C161.428 48.7128 161.038 49.2483 160.505 49.6174C159.976 49.982 159.313 50.1643 158.516 50.1643C157.253 50.1643 156.319 49.7519 155.713 48.927C155.234 48.2662 154.995 47.4322 154.995 46.425C154.995 45.2219 155.31 44.2808 155.938 43.6018C156.567 42.9182 157.363 42.5764 158.324 42.5764C159.404 42.5764 160.257 42.9342 160.881 43.6497C161.505 44.3606 161.804 45.4521 161.776 46.9241H156.964C156.978 47.4937 157.132 47.9381 157.429 48.2571C157.725 48.5715 158.094 48.7288 158.536 48.7288C158.837 48.7288 159.09 48.6467 159.295 48.4827C159.5 48.3186 159.655 48.0543 159.76 47.6897ZM159.869 45.7483C159.855 45.1923 159.712 44.7708 159.438 44.4836C159.165 44.192 158.832 44.0461 158.44 44.0461C158.021 44.0461 157.675 44.1988 157.401 44.5042C157.128 44.8095 156.993 45.2242 156.998 45.7483H159.869ZM167.163 50.0002V39.9788H169.084V43.5881C169.676 42.9137 170.378 42.5764 171.189 42.5764C172.074 42.5764 172.805 42.8977 173.384 43.5403C173.963 44.1783 174.252 45.0966 174.252 46.2952C174.252 47.5347 173.956 48.4895 173.363 49.1594C172.775 49.8293 172.06 50.1643 171.217 50.1643C170.802 50.1643 170.392 50.0618 169.986 49.8567C169.585 49.6471 169.239 49.3394 168.947 48.9338V50.0002H167.163ZM169.07 46.2131C169.07 46.9651 169.189 47.5211 169.426 47.8811C169.758 48.3915 170.201 48.6467 170.752 48.6467C171.176 48.6467 171.536 48.4667 171.832 48.1067C172.133 47.7421 172.283 47.1702 172.283 46.3909C172.283 45.5614 172.133 44.9644 171.832 44.5999C171.531 44.2307 171.146 44.0461 170.677 44.0461C170.216 44.0461 169.834 44.2262 169.528 44.5862C169.223 44.9417 169.07 45.484 169.07 46.2131ZM177.239 44.9553L175.496 44.6409C175.692 43.939 176.029 43.4195 176.508 43.0823C176.986 42.745 177.697 42.5764 178.641 42.5764C179.497 42.5764 180.135 42.679 180.555 42.884C180.974 43.0846 181.268 43.342 181.437 43.6565C181.61 43.9664 181.696 44.5383 181.696 45.3723L181.676 47.6145C181.676 48.2525 181.705 48.7242 181.765 49.0295C181.828 49.3303 181.945 49.6539 182.113 50.0002H180.213C180.163 49.8726 180.101 49.6835 180.028 49.4329C179.996 49.3189 179.974 49.2437 179.96 49.2073C179.632 49.5263 179.281 49.7655 178.907 49.925C178.534 50.0846 178.135 50.1643 177.711 50.1643C176.964 50.1643 176.373 49.9615 175.94 49.5559C175.512 49.1503 175.298 48.6376 175.298 48.0178C175.298 47.6077 175.396 47.2431 175.592 46.9241C175.788 46.6005 176.061 46.3544 176.412 46.1858C176.768 46.0126 177.278 45.8622 177.943 45.7346C178.841 45.566 179.463 45.4088 179.81 45.2629V45.0715C179.81 44.7024 179.718 44.4403 179.536 44.2854C179.354 44.1259 179.01 44.0461 178.504 44.0461C178.162 44.0461 177.896 44.1145 177.704 44.2512C177.513 44.3834 177.358 44.6181 177.239 44.9553ZM179.81 46.5139C179.563 46.5959 179.174 46.6939 178.641 46.8079C178.107 46.9218 177.759 47.0334 177.595 47.1428C177.344 47.3206 177.219 47.5461 177.219 47.8196C177.219 48.0885 177.319 48.3209 177.52 48.5168C177.72 48.7128 177.975 48.8108 178.285 48.8108C178.632 48.8108 178.962 48.6969 179.276 48.469C179.509 48.2958 179.661 48.0839 179.734 47.8333C179.785 47.6692 179.81 47.357 179.81 46.8967V46.5139ZM186.926 42.7405V44.2717H185.613V47.1975C185.613 47.79 185.625 48.1363 185.647 48.2366C185.675 48.3323 185.732 48.412 185.818 48.4758C185.91 48.5396 186.019 48.5715 186.146 48.5715C186.324 48.5715 186.582 48.51 186.919 48.387L187.083 49.8772C186.636 50.0686 186.131 50.1643 185.565 50.1643C185.219 50.1643 184.907 50.1073 184.629 49.9934C184.351 49.8749 184.146 49.7245 184.014 49.5422C183.886 49.3554 183.797 49.1047 183.747 48.7903C183.706 48.567 183.686 48.1158 183.686 47.4368V44.2717H182.804V42.7405H183.686V41.2981L185.613 40.177V42.7405H186.926ZM191.588 42.7405V44.2717H190.275V47.1975C190.275 47.79 190.287 48.1363 190.31 48.2366C190.337 48.3323 190.394 48.412 190.48 48.4758C190.572 48.5396 190.681 48.5715 190.809 48.5715C190.986 48.5715 191.244 48.51 191.581 48.387L191.745 49.8772C191.299 50.0686 190.793 50.1643 190.228 50.1643C189.881 50.1643 189.569 50.1073 189.291 49.9934C189.013 49.8749 188.808 49.7245 188.676 49.5422C188.548 49.3554 188.459 49.1047 188.409 48.7903C188.368 48.567 188.348 48.1158 188.348 47.4368V44.2717H187.466V42.7405H188.348V41.2981L190.275 40.177V42.7405H191.588ZM192.921 50.0002V39.9788H194.842V50.0002H192.921ZM201.021 47.6897L202.936 48.011C202.689 48.7128 202.3 49.2483 201.767 49.6174C201.238 49.982 200.575 50.1643 199.777 50.1643C198.515 50.1643 197.581 49.7519 196.975 48.927C196.496 48.2662 196.257 47.4322 196.257 46.425C196.257 45.2219 196.571 44.2808 197.2 43.6018C197.829 42.9182 198.624 42.5764 199.586 42.5764C200.666 42.5764 201.518 42.9342 202.143 43.6497C202.767 44.3606 203.065 45.4521 203.038 46.9241H198.226C198.239 47.4937 198.394 47.9381 198.69 48.2571C198.987 48.5715 199.356 48.7288 199.798 48.7288C200.099 48.7288 200.352 48.6467 200.557 48.4827C200.762 48.3186 200.917 48.0543 201.021 47.6897ZM201.131 45.7483C201.117 45.1923 200.974 44.7708 200.7 44.4836C200.427 44.192 200.094 44.0461 199.702 44.0461C199.283 44.0461 198.937 44.1988 198.663 44.5042C198.39 44.8095 198.255 45.2242 198.26 45.7483H201.131ZM203.77 42.7405H204.836V42.1936C204.836 41.5829 204.9 41.1272 205.027 40.8264C205.16 40.5256 205.399 40.2818 205.745 40.095C206.096 39.9036 206.538 39.8079 207.071 39.8079C207.618 39.8079 208.154 39.8899 208.678 40.054L208.418 41.3938C208.113 41.3209 207.819 41.2844 207.536 41.2844C207.258 41.2844 207.058 41.3505 206.935 41.4827C206.816 41.6103 206.757 41.8586 206.757 42.2278V42.7405H208.192V44.2512H206.757V50.0002H204.836V44.2512H203.77V42.7405ZM209.272 41.7561V39.9788H211.193V41.7561H209.272ZM209.272 50.0002V42.7405H211.193V50.0002H209.272ZM217.373 47.6897L219.287 48.011C219.041 48.7128 218.651 49.2483 218.118 49.6174C217.59 49.982 216.926 50.1643 216.129 50.1643C214.867 50.1643 213.932 49.7519 213.326 48.927C212.848 48.2662 212.608 47.4322 212.608 46.425C212.608 45.2219 212.923 44.2808 213.552 43.6018C214.181 42.9182 214.976 42.5764 215.938 42.5764C217.018 42.5764 217.87 42.9342 218.494 43.6497C219.118 44.3606 219.417 45.4521 219.39 46.9241H214.577C214.591 47.4937 214.746 47.9381 215.042 48.2571C215.338 48.5715 215.707 48.7288 216.149 48.7288C216.45 48.7288 216.703 48.6467 216.908 48.4827C217.113 48.3186 217.268 48.0543 217.373 47.6897ZM217.482 45.7483C217.469 45.1923 217.325 44.7708 217.052 44.4836C216.778 44.192 216.446 44.0461 216.054 44.0461C215.634 44.0461 215.288 44.1988 215.015 44.5042C214.741 44.8095 214.607 45.2242 214.611 45.7483H217.482ZM220.962 50.0002V39.9788H222.883V50.0002H220.962ZM231.517 50.0002H229.732V48.9338C229.436 49.3486 229.085 49.6584 228.68 49.8635C228.279 50.064 227.873 50.1643 227.463 50.1643C226.629 50.1643 225.913 49.8293 225.316 49.1594C224.724 48.4849 224.428 47.5461 224.428 46.343C224.428 45.1125 224.717 44.1783 225.296 43.5403C225.875 42.8977 226.606 42.5764 227.49 42.5764C228.301 42.5764 229.003 42.9137 229.596 43.5881V39.9788H231.517V50.0002ZM226.39 46.2131C226.39 46.9879 226.497 47.5484 226.711 47.8948C227.021 48.3961 227.454 48.6467 228.01 48.6467C228.452 48.6467 228.828 48.4599 229.138 48.0862C229.448 47.7079 229.603 47.1451 229.603 46.3977C229.603 45.5637 229.452 44.9644 229.151 44.5999C228.851 44.2307 228.465 44.0461 227.996 44.0461C227.54 44.0461 227.158 44.2284 226.848 44.593C226.542 44.953 226.39 45.4931 226.39 46.2131Z" fill="white"/>
<path d="M40.4609 49.0002V43.2385H28.7422V38.4338L41.1641 20.2502H45.7734V38.4143H49.3281V43.2385H45.7734V49.0002H40.4609ZM40.4609 38.4143V28.6292L33.8789 38.4143H40.4609Z" fill="#6C725F"/>
</svg>
