<svg width="415" height="92" viewBox="0 0 415 92" fill="none" xmlns="http://www.w3.org/2000/svg">
<path d="M2 20C2 10.0589 10.0589 2 20 2H322.806C325.732 2 328.613 2.71313 331.201 4.07764L380.513 30.0776C393.32 36.8299 393.32 55.1701 380.513 61.9224L331.201 87.9224C328.613 89.2869 325.732 90 322.806 90H20C10.0589 90 2 81.9411 2 72V20Z" fill="white" stroke="#646C59" stroke-width="4" stroke-linejoin="round"/>
<path d="M99.0107 47.7891L101.253 48.5C100.909 49.75 100.336 50.6797 99.5342 51.2891C98.7373 51.8932 97.7243 52.1953 96.4951 52.1953C94.9743 52.1953 93.7243 51.6771 92.7451 50.6406C91.766 49.599 91.2764 48.1771 91.2764 46.375C91.2764 44.4688 91.7686 42.9896 92.7529 41.9375C93.7373 40.8802 95.0316 40.3516 96.6357 40.3516C98.0368 40.3516 99.1748 40.7656 100.05 41.5938C100.571 42.0833 100.961 42.7865 101.222 43.7031L98.9326 44.25C98.7972 43.6562 98.5133 43.1875 98.0811 42.8438C97.654 42.5 97.1331 42.3281 96.5186 42.3281C95.6696 42.3281 94.9795 42.6328 94.4482 43.2422C93.9222 43.8516 93.6592 44.8385 93.6592 46.2031C93.6592 47.651 93.9196 48.6823 94.4404 49.2969C94.9613 49.9115 95.6383 50.2188 96.4717 50.2188C97.0863 50.2188 97.6149 50.0234 98.0576 49.6328C98.5003 49.2422 98.818 48.6276 99.0107 47.7891ZM102.722 47.7344C102.722 47.0052 102.901 46.2995 103.261 45.6172C103.62 44.9349 104.128 44.4141 104.784 44.0547C105.446 43.6953 106.183 43.5156 106.995 43.5156C108.25 43.5156 109.279 43.9245 110.081 44.7422C110.883 45.5547 111.284 46.5833 111.284 47.8281C111.284 49.0833 110.878 50.125 110.065 50.9531C109.258 51.776 108.24 52.1875 107.011 52.1875C106.25 52.1875 105.524 52.0156 104.831 51.6719C104.144 51.3281 103.62 50.8255 103.261 50.1641C102.901 49.4974 102.722 48.6875 102.722 47.7344ZM104.972 47.8516C104.972 48.6745 105.167 49.3047 105.558 49.7422C105.948 50.1797 106.43 50.3984 107.003 50.3984C107.576 50.3984 108.055 50.1797 108.44 49.7422C108.831 49.3047 109.026 48.6693 109.026 47.8359C109.026 47.0234 108.831 46.3984 108.44 45.9609C108.055 45.5234 107.576 45.3047 107.003 45.3047C106.43 45.3047 105.948 45.5234 105.558 45.9609C105.167 46.3984 104.972 47.0286 104.972 47.8516ZM112.847 43.7031H114.87V44.8359C115.594 43.9557 116.456 43.5156 117.456 43.5156C117.987 43.5156 118.448 43.625 118.839 43.8438C119.229 44.0625 119.55 44.3932 119.8 44.8359C120.164 44.3932 120.558 44.0625 120.979 43.8438C121.401 43.625 121.852 43.5156 122.331 43.5156C122.94 43.5156 123.456 43.6406 123.878 43.8906C124.3 44.1354 124.615 44.4974 124.823 44.9766C124.974 45.3307 125.05 45.9036 125.05 46.6953V52H122.854V47.2578C122.854 46.4349 122.779 45.9036 122.628 45.6641C122.425 45.3516 122.112 45.1953 121.69 45.1953C121.383 45.1953 121.094 45.2891 120.823 45.4766C120.552 45.6641 120.357 45.9401 120.237 46.3047C120.118 46.6641 120.058 47.2344 120.058 48.0156V52H117.862V47.4531C117.862 46.6458 117.823 46.125 117.745 45.8906C117.667 45.6562 117.545 45.4818 117.378 45.3672C117.216 45.2526 116.995 45.1953 116.714 45.1953C116.375 45.1953 116.071 45.2865 115.8 45.4688C115.529 45.651 115.334 45.9141 115.214 46.2578C115.099 46.6016 115.042 47.1719 115.042 47.9688V52H112.847V43.7031ZM127.183 43.7031H129.229V44.9219C129.495 44.5052 129.854 44.1667 130.308 43.9062C130.761 43.6458 131.263 43.5156 131.815 43.5156C132.779 43.5156 133.597 43.8932 134.269 44.6484C134.94 45.4036 135.276 46.4557 135.276 47.8047C135.276 49.1901 134.938 50.2682 134.261 51.0391C133.584 51.8047 132.763 52.1875 131.8 52.1875C131.341 52.1875 130.925 52.0964 130.55 51.9141C130.18 51.7318 129.789 51.4193 129.378 50.9766V55.1562H127.183V43.7031ZM129.354 47.7109C129.354 48.6432 129.539 49.3333 129.909 49.7812C130.279 50.224 130.729 50.4453 131.261 50.4453C131.771 50.4453 132.196 50.2422 132.534 49.8359C132.873 49.4245 133.042 48.7526 133.042 47.8203C133.042 46.9505 132.868 46.3047 132.519 45.8828C132.17 45.4609 131.737 45.25 131.222 45.25C130.685 45.25 130.24 45.4583 129.886 45.875C129.532 46.2865 129.354 46.8984 129.354 47.7109ZM138.667 46.2344L136.675 45.875C136.899 45.0729 137.284 44.4792 137.831 44.0938C138.378 43.7083 139.19 43.5156 140.269 43.5156C141.248 43.5156 141.977 43.6328 142.456 43.8672C142.935 44.0964 143.271 44.3906 143.464 44.75C143.662 45.1042 143.761 45.7578 143.761 46.7109L143.737 49.2734C143.737 50.0026 143.771 50.5417 143.839 50.8906C143.912 51.2344 144.045 51.6042 144.237 52H142.065C142.008 51.8542 141.938 51.638 141.854 51.3516C141.818 51.2214 141.792 51.1354 141.776 51.0938C141.401 51.4583 141 51.7318 140.573 51.9141C140.146 52.0964 139.69 52.1875 139.206 52.1875C138.352 52.1875 137.677 51.9557 137.183 51.4922C136.693 51.0286 136.448 50.4427 136.448 49.7344C136.448 49.2656 136.56 48.849 136.784 48.4844C137.008 48.1146 137.321 47.8333 137.722 47.6406C138.128 47.4427 138.711 47.2708 139.472 47.125C140.498 46.9323 141.209 46.7526 141.604 46.5859V46.3672C141.604 45.9453 141.5 45.6458 141.292 45.4688C141.084 45.2865 140.69 45.1953 140.112 45.1953C139.722 45.1953 139.417 45.2734 139.198 45.4297C138.979 45.5807 138.802 45.849 138.667 46.2344ZM141.604 48.0156C141.323 48.1094 140.878 48.2214 140.269 48.3516C139.659 48.4818 139.261 48.6094 139.073 48.7344C138.787 48.9375 138.644 49.1953 138.644 49.5078C138.644 49.8151 138.758 50.0807 138.987 50.3047C139.216 50.5286 139.508 50.6406 139.862 50.6406C140.258 50.6406 140.636 50.5104 140.995 50.25C141.261 50.0521 141.435 49.8099 141.519 49.5234C141.576 49.3359 141.604 48.9792 141.604 48.4531V48.0156ZM153.167 46.1562L151.003 46.5469C150.93 46.1146 150.763 45.7891 150.503 45.5703C150.248 45.3516 149.914 45.2422 149.503 45.2422C148.956 45.2422 148.519 45.4323 148.19 45.8125C147.868 46.1875 147.706 46.8177 147.706 47.7031C147.706 48.6875 147.87 49.3828 148.198 49.7891C148.532 50.1953 148.977 50.3984 149.534 50.3984C149.951 50.3984 150.292 50.2812 150.558 50.0469C150.823 49.8073 151.011 49.3984 151.12 48.8203L153.276 49.1875C153.052 50.1771 152.623 50.9245 151.987 51.4297C151.352 51.9349 150.5 52.1875 149.433 52.1875C148.219 52.1875 147.25 51.8047 146.526 51.0391C145.808 50.2734 145.448 49.2135 145.448 47.8594C145.448 46.4896 145.81 45.4245 146.534 44.6641C147.258 43.8984 148.237 43.5156 149.472 43.5156C150.482 43.5156 151.284 43.7344 151.878 44.1719C152.477 44.6042 152.907 45.2656 153.167 46.1562ZM158.644 43.7031V45.4531H157.144V48.7969C157.144 49.474 157.157 49.8698 157.183 49.9844C157.214 50.0938 157.279 50.1849 157.378 50.2578C157.482 50.3307 157.607 50.3672 157.753 50.3672C157.956 50.3672 158.25 50.2969 158.636 50.1562L158.823 51.8594C158.313 52.0781 157.735 52.1875 157.089 52.1875C156.693 52.1875 156.336 52.1224 156.019 51.9922C155.701 51.8568 155.466 51.6849 155.315 51.4766C155.17 51.263 155.068 50.9766 155.011 50.6172C154.964 50.362 154.94 49.8464 154.94 49.0703V45.4531H153.933V43.7031H154.94V42.0547L157.144 40.7734V43.7031H158.644ZM163.847 49.6328L166.05 49.2969C166.144 49.724 166.334 50.0495 166.62 50.2734C166.907 50.4922 167.308 50.6016 167.823 50.6016C168.391 50.6016 168.818 50.4974 169.104 50.2891C169.297 50.1432 169.394 49.9479 169.394 49.7031C169.394 49.5365 169.341 49.3984 169.237 49.2891C169.128 49.1849 168.883 49.0885 168.503 49C166.732 48.6094 165.61 48.2526 165.136 47.9297C164.479 47.4818 164.151 46.8594 164.151 46.0625C164.151 45.3438 164.435 44.7396 165.003 44.25C165.571 43.7604 166.451 43.5156 167.644 43.5156C168.779 43.5156 169.623 43.7005 170.175 44.0703C170.727 44.4401 171.107 44.987 171.315 45.7109L169.245 46.0938C169.157 45.7708 168.987 45.5234 168.737 45.3516C168.493 45.1797 168.141 45.0938 167.683 45.0938C167.104 45.0938 166.69 45.1745 166.44 45.3359C166.274 45.4505 166.19 45.599 166.19 45.7812C166.19 45.9375 166.263 46.0703 166.409 46.1797C166.607 46.3255 167.289 46.5312 168.456 46.7969C169.628 47.0625 170.446 47.388 170.909 47.7734C171.368 48.1641 171.597 48.7083 171.597 49.4062C171.597 50.1667 171.279 50.8203 170.644 51.3672C170.008 51.9141 169.068 52.1875 167.823 52.1875C166.693 52.1875 165.797 51.9583 165.136 51.5C164.479 51.0417 164.05 50.4193 163.847 49.6328ZM173.526 42.5781V40.5469H175.722V42.5781H173.526ZM173.526 52V43.7031H175.722V52H173.526ZM177.097 52V50.2891L180.206 46.7188C180.716 46.1354 181.094 45.7214 181.339 45.4766C181.084 45.4922 180.748 45.5026 180.331 45.5078L177.401 45.5234V43.7031H184.261V45.2578L181.089 48.9141L179.972 50.125C180.581 50.0885 180.959 50.0703 181.104 50.0703H184.503V52H177.097ZM190.784 49.3594L192.972 49.7266C192.69 50.5286 192.245 51.1406 191.636 51.5625C191.032 51.9792 190.274 52.1875 189.362 52.1875C187.92 52.1875 186.852 51.7161 186.159 50.7734C185.612 50.0182 185.339 49.0651 185.339 47.9141C185.339 46.5391 185.698 45.4635 186.417 44.6875C187.136 43.9062 188.045 43.5156 189.144 43.5156C190.378 43.5156 191.352 43.9245 192.065 44.7422C192.779 45.5547 193.12 46.8021 193.089 48.4844H187.589C187.604 49.1354 187.782 49.6432 188.12 50.0078C188.459 50.3672 188.881 50.5469 189.386 50.5469C189.729 50.5469 190.019 50.4531 190.253 50.2656C190.487 50.0781 190.664 49.776 190.784 49.3594ZM190.909 47.1406C190.894 46.5052 190.729 46.0234 190.417 45.6953C190.104 45.362 189.724 45.1953 189.276 45.1953C188.797 45.1953 188.401 45.3698 188.089 45.7188C187.776 46.0677 187.623 46.5417 187.628 47.1406H190.909ZM200.979 46.2344L198.987 45.875C199.211 45.0729 199.597 44.4792 200.144 44.0938C200.69 43.7083 201.503 43.5156 202.581 43.5156C203.56 43.5156 204.289 43.6328 204.769 43.8672C205.248 44.0964 205.584 44.3906 205.776 44.75C205.974 45.1042 206.073 45.7578 206.073 46.7109L206.05 49.2734C206.05 50.0026 206.084 50.5417 206.151 50.8906C206.224 51.2344 206.357 51.6042 206.55 52H204.378C204.321 51.8542 204.25 51.638 204.167 51.3516C204.131 51.2214 204.104 51.1354 204.089 51.0938C203.714 51.4583 203.313 51.7318 202.886 51.9141C202.459 52.0964 202.003 52.1875 201.519 52.1875C200.664 52.1875 199.99 51.9557 199.495 51.4922C199.006 51.0286 198.761 50.4427 198.761 49.7344C198.761 49.2656 198.873 48.849 199.097 48.4844C199.321 48.1146 199.633 47.8333 200.034 47.6406C200.44 47.4427 201.024 47.2708 201.784 47.125C202.81 46.9323 203.521 46.7526 203.917 46.5859V46.3672C203.917 45.9453 203.813 45.6458 203.604 45.4688C203.396 45.2865 203.003 45.1953 202.425 45.1953C202.034 45.1953 201.729 45.2734 201.511 45.4297C201.292 45.5807 201.115 45.849 200.979 46.2344ZM203.917 48.0156C203.636 48.1094 203.19 48.2214 202.581 48.3516C201.972 48.4818 201.573 48.6094 201.386 48.7344C201.099 48.9375 200.956 49.1953 200.956 49.5078C200.956 49.8151 201.071 50.0807 201.3 50.3047C201.529 50.5286 201.821 50.6406 202.175 50.6406C202.571 50.6406 202.948 50.5104 203.308 50.25C203.573 50.0521 203.748 49.8099 203.831 49.5234C203.888 49.3359 203.917 48.9792 203.917 48.4531V48.0156ZM215.792 52H213.597V47.7656C213.597 46.8698 213.55 46.2917 213.456 46.0312C213.362 45.7656 213.209 45.5599 212.995 45.4141C212.787 45.2682 212.534 45.1953 212.237 45.1953C211.857 45.1953 211.516 45.2995 211.214 45.5078C210.912 45.7161 210.703 45.9922 210.589 46.3359C210.479 46.6797 210.425 47.3151 210.425 48.2422V52H208.229V43.7031H210.269V44.9219C210.993 43.9844 211.904 43.5156 213.003 43.5156C213.487 43.5156 213.93 43.6042 214.331 43.7812C214.732 43.9531 215.034 44.1745 215.237 44.4453C215.446 44.7161 215.589 45.0234 215.667 45.3672C215.75 45.7109 215.792 46.2031 215.792 46.8438V52ZM225.636 52H223.597V50.7812C223.258 51.2552 222.857 51.6094 222.394 51.8438C221.935 52.0729 221.472 52.1875 221.003 52.1875C220.05 52.1875 219.232 51.8047 218.55 51.0391C217.873 50.2682 217.534 49.1953 217.534 47.8203C217.534 46.4141 217.865 45.3464 218.526 44.6172C219.188 43.8828 220.024 43.5156 221.034 43.5156C221.961 43.5156 222.763 43.901 223.44 44.6719V40.5469H225.636V52ZM219.776 47.6719C219.776 48.5573 219.899 49.1979 220.144 49.5938C220.498 50.1667 220.993 50.4531 221.628 50.4531C222.133 50.4531 222.563 50.2396 222.917 49.8125C223.271 49.3802 223.448 48.737 223.448 47.8828C223.448 46.9297 223.276 46.2448 222.933 45.8281C222.589 45.4062 222.149 45.1953 221.612 45.1953C221.091 45.1953 220.654 45.4036 220.3 45.8203C219.951 46.2318 219.776 46.849 219.776 47.6719ZM232.261 52V40.5469H234.456V52H232.261ZM236.206 47.7344C236.206 47.0052 236.386 46.2995 236.745 45.6172C237.104 44.9349 237.612 44.4141 238.269 44.0547C238.93 43.6953 239.667 43.5156 240.479 43.5156C241.735 43.5156 242.763 43.9245 243.565 44.7422C244.368 45.5547 244.769 46.5833 244.769 47.8281C244.769 49.0833 244.362 50.125 243.55 50.9531C242.743 51.776 241.724 52.1875 240.495 52.1875C239.735 52.1875 239.008 52.0156 238.315 51.6719C237.628 51.3281 237.104 50.8255 236.745 50.1641C236.386 49.4974 236.206 48.6875 236.206 47.7344ZM238.456 47.8516C238.456 48.6745 238.651 49.3047 239.042 49.7422C239.433 50.1797 239.914 50.3984 240.487 50.3984C241.06 50.3984 241.539 50.1797 241.925 49.7422C242.315 49.3047 242.511 48.6693 242.511 47.8359C242.511 47.0234 242.315 46.3984 241.925 45.9609C241.539 45.5234 241.06 45.3047 240.487 45.3047C239.914 45.3047 239.433 45.5234 239.042 45.9609C238.651 46.3984 238.456 47.0286 238.456 47.8516ZM248.042 52L245.417 43.7031H247.55L249.104 49.1406L250.534 43.7031H252.651L254.034 49.1406L255.62 43.7031H257.784L255.12 52H253.011L251.581 46.6641L250.175 52H248.042ZM264.948 52L262.323 43.7031H264.456L266.011 49.1406L267.44 43.7031H269.558L270.94 49.1406L272.526 43.7031H274.69L272.026 52H269.917L268.487 46.6641L267.081 52H264.948ZM280.659 49.3594L282.847 49.7266C282.565 50.5286 282.12 51.1406 281.511 51.5625C280.907 51.9792 280.149 52.1875 279.237 52.1875C277.795 52.1875 276.727 51.7161 276.034 50.7734C275.487 50.0182 275.214 49.0651 275.214 47.9141C275.214 46.5391 275.573 45.4635 276.292 44.6875C277.011 43.9062 277.92 43.5156 279.019 43.5156C280.253 43.5156 281.227 43.9245 281.94 44.7422C282.654 45.5547 282.995 46.8021 282.964 48.4844H277.464C277.479 49.1354 277.657 49.6432 277.995 50.0078C278.334 50.3672 278.756 50.5469 279.261 50.5469C279.604 50.5469 279.894 50.4531 280.128 50.2656C280.362 50.0781 280.539 49.776 280.659 49.3594ZM280.784 47.1406C280.769 46.5052 280.604 46.0234 280.292 45.6953C279.979 45.362 279.599 45.1953 279.151 45.1953C278.672 45.1953 278.276 45.3698 277.964 45.7188C277.651 46.0677 277.498 46.5417 277.503 47.1406H280.784ZM284.761 42.5781V40.5469H286.956V42.5781H284.761ZM284.761 52V43.7031H286.956V52H284.761ZM289.011 52.5469L291.519 52.8516C291.56 53.1432 291.657 53.3438 291.808 53.4531C292.016 53.6094 292.344 53.6875 292.792 53.6875C293.365 53.6875 293.795 53.6016 294.081 53.4297C294.274 53.3151 294.42 53.1302 294.519 52.875C294.586 52.6927 294.62 52.3568 294.62 51.8672V50.6562C293.964 51.5521 293.136 52 292.136 52C291.021 52 290.138 51.5286 289.487 50.5859C288.977 49.8411 288.722 48.9141 288.722 47.8047C288.722 46.4141 289.055 45.3516 289.722 44.6172C290.394 43.8828 291.227 43.5156 292.222 43.5156C293.248 43.5156 294.094 43.9661 294.761 44.8672V43.7031H296.815V51.1484C296.815 52.1276 296.735 52.8594 296.573 53.3438C296.412 53.8281 296.185 54.2083 295.894 54.4844C295.602 54.7604 295.211 54.9766 294.722 55.1328C294.237 55.2891 293.623 55.3672 292.878 55.3672C291.472 55.3672 290.474 55.125 289.886 54.6406C289.297 54.1615 289.003 53.5521 289.003 52.8125C289.003 52.7396 289.006 52.651 289.011 52.5469ZM290.972 47.6797C290.972 48.5599 291.141 49.2057 291.479 49.6172C291.823 50.0234 292.245 50.2266 292.745 50.2266C293.282 50.2266 293.735 50.0182 294.104 49.6016C294.474 49.1797 294.659 48.5573 294.659 47.7344C294.659 46.875 294.482 46.237 294.128 45.8203C293.774 45.4036 293.326 45.1953 292.784 45.1953C292.258 45.1953 291.823 45.401 291.479 45.8125C291.141 46.2188 290.972 46.8411 290.972 47.6797ZM301.183 40.5469V44.7578C301.891 43.9297 302.737 43.5156 303.722 43.5156C304.227 43.5156 304.683 43.6094 305.089 43.7969C305.495 43.9844 305.8 44.224 306.003 44.5156C306.211 44.8073 306.352 45.1302 306.425 45.4844C306.503 45.8385 306.542 46.388 306.542 47.1328V52H304.347V47.6172C304.347 46.7474 304.305 46.1953 304.222 45.9609C304.138 45.7266 303.99 45.5417 303.776 45.4062C303.568 45.2656 303.305 45.1953 302.987 45.1953C302.623 45.1953 302.297 45.2839 302.011 45.4609C301.724 45.638 301.513 45.9062 301.378 46.2656C301.248 46.6198 301.183 47.1458 301.183 47.8438V52H298.987V40.5469H301.183ZM312.581 43.7031V45.4531H311.081V48.7969C311.081 49.474 311.094 49.8698 311.12 49.9844C311.151 50.0938 311.216 50.1849 311.315 50.2578C311.42 50.3307 311.545 50.3672 311.69 50.3672C311.894 50.3672 312.188 50.2969 312.573 50.1562L312.761 51.8594C312.25 52.0781 311.672 52.1875 311.026 52.1875C310.631 52.1875 310.274 52.1224 309.956 51.9922C309.638 51.8568 309.404 51.6849 309.253 51.4766C309.107 51.263 309.006 50.9766 308.948 50.6172C308.901 50.362 308.878 49.8464 308.878 49.0703V45.4531H307.87V43.7031H308.878V42.0547L311.081 40.7734V43.7031H312.581Z" fill="black"/>
<path d="M40.9551 54.123L47.8613 53.2852C48.0814 55.0456 48.6738 56.3913 49.6387 57.3223C50.6035 58.2533 51.7715 58.7188 53.1426 58.7188C54.6152 58.7188 55.8509 58.1602 56.8496 57.043C57.8652 55.9258 58.373 54.4193 58.373 52.5234C58.373 50.7292 57.8906 49.3073 56.9258 48.2578C55.9609 47.2083 54.7845 46.6836 53.3965 46.6836C52.4824 46.6836 51.3906 46.8613 50.1211 47.2168L50.9082 41.4023C52.8379 41.4531 54.3105 41.0384 55.3262 40.1582C56.3418 39.2611 56.8496 38.0762 56.8496 36.6035C56.8496 35.3509 56.4772 34.3522 55.7324 33.6074C54.9876 32.8626 53.9974 32.4902 52.7617 32.4902C51.543 32.4902 50.502 32.9134 49.6387 33.7598C48.7754 34.6061 48.2507 35.8418 48.0645 37.4668L41.4883 36.3496C41.9453 34.0983 42.6309 32.304 43.5449 30.9668C44.4759 29.6126 45.7624 28.5547 47.4043 27.793C49.0632 27.0143 50.9167 26.625 52.9648 26.625C56.4688 26.625 59.2786 27.7422 61.3945 29.9766C63.138 31.8047 64.0098 33.8698 64.0098 36.1719C64.0098 39.4388 62.224 42.0456 58.6523 43.9922C60.7852 44.4492 62.4863 45.4733 63.7559 47.0645C65.0423 48.6556 65.6855 50.5768 65.6855 52.8281C65.6855 56.0951 64.4922 58.8796 62.1055 61.1816C59.7188 63.4837 56.748 64.6348 53.1934 64.6348C49.8249 64.6348 47.0319 63.6699 44.8145 61.7402C42.597 59.7936 41.3105 57.2546 40.9551 54.123Z" fill="#6C725F"/>
</svg>
