<svg width="415" height="92" viewBox="0 0 415 92" fill="none" xmlns="http://www.w3.org/2000/svg">
<path d="M2 19.9999C2 10.0588 10.0589 1.99988 20 1.99988H322.806C325.732 1.99988 328.613 2.71301 331.201 4.07752L380.513 30.0775C393.32 36.8298 393.32 55.17 380.513 61.9222L331.201 87.9222C328.613 89.2868 325.732 89.9999 322.806 89.9999H20C10.0589 89.9999 2 81.941 2 71.9999V19.9999Z" fill="white" stroke="#646C59" stroke-width="4" stroke-linejoin="round"/>
<path d="M91.6123 38.9999V27.5468H93.9248V38.9999H91.6123ZM103.667 38.9999H101.472V34.7655C101.472 33.8697 101.425 33.2915 101.331 33.0311C101.237 32.7655 101.084 32.5598 100.87 32.4139C100.662 32.2681 100.409 32.1952 100.112 32.1952C99.7321 32.1952 99.391 32.2994 99.0889 32.5077C98.7868 32.716 98.5785 32.9921 98.4639 33.3358C98.3545 33.6796 98.2998 34.315 98.2998 35.2421V38.9999H96.1045V30.703H98.1436V31.9218C98.8675 30.9843 99.779 30.5155 100.878 30.5155C101.362 30.5155 101.805 30.604 102.206 30.7811C102.607 30.953 102.909 31.1744 103.112 31.4452C103.321 31.716 103.464 32.0233 103.542 32.3671C103.625 32.7108 103.667 33.203 103.667 33.8436V38.9999ZM113.136 33.1561L110.972 33.5468C110.899 33.1145 110.732 32.7889 110.472 32.5702C110.216 32.3514 109.883 32.2421 109.472 32.2421C108.925 32.2421 108.487 32.4322 108.159 32.8124C107.836 33.1874 107.675 33.8176 107.675 34.703C107.675 35.6874 107.839 36.3827 108.167 36.7889C108.5 37.1952 108.946 37.3983 109.503 37.3983C109.92 37.3983 110.261 37.2811 110.526 37.0468C110.792 36.8072 110.979 36.3983 111.089 35.8202L113.245 36.1874C113.021 37.177 112.591 37.9244 111.956 38.4296C111.321 38.9348 110.469 39.1874 109.401 39.1874C108.188 39.1874 107.219 38.8046 106.495 38.0389C105.776 37.2733 105.417 36.2134 105.417 34.8593C105.417 33.4895 105.779 32.4244 106.503 31.6639C107.227 30.8983 108.206 30.5155 109.44 30.5155C110.451 30.5155 111.253 30.7343 111.847 31.1718C112.446 31.604 112.875 32.2655 113.136 33.1561ZM116.909 38.9999H114.714V30.703H116.753V31.8827C117.102 31.3254 117.414 30.9582 117.69 30.7811C117.972 30.604 118.289 30.5155 118.644 30.5155C119.144 30.5155 119.625 30.6535 120.089 30.9296L119.409 32.8436C119.039 32.604 118.696 32.4843 118.378 32.4843C118.071 32.4843 117.81 32.5702 117.597 32.7421C117.383 32.9087 117.214 33.2134 117.089 33.6561C116.969 34.0988 116.909 35.0259 116.909 36.4374V38.9999ZM125.847 36.3593L128.034 36.7264C127.753 37.5285 127.308 38.1405 126.698 38.5624C126.094 38.979 125.336 39.1874 124.425 39.1874C122.982 39.1874 121.914 38.716 121.222 37.7733C120.675 37.0181 120.401 36.065 120.401 34.9139C120.401 33.5389 120.761 32.4634 121.479 31.6874C122.198 30.9061 123.107 30.5155 124.206 30.5155C125.44 30.5155 126.414 30.9244 127.128 31.7421C127.841 32.5546 128.183 33.802 128.151 35.4843H122.651C122.667 36.1353 122.844 36.6431 123.183 37.0077C123.521 37.3671 123.943 37.5468 124.448 37.5468C124.792 37.5468 125.081 37.453 125.315 37.2655C125.55 37.078 125.727 36.7759 125.847 36.3593ZM125.972 34.1405C125.956 33.5051 125.792 33.0233 125.479 32.6952C125.167 32.3619 124.787 32.1952 124.339 32.1952C123.86 32.1952 123.464 32.3697 123.151 32.7186C122.839 33.0676 122.685 33.5415 122.69 34.1405H125.972ZM131.589 33.2343L129.597 32.8749C129.821 32.0728 130.206 31.479 130.753 31.0936C131.3 30.7082 132.112 30.5155 133.19 30.5155C134.17 30.5155 134.899 30.6327 135.378 30.8671C135.857 31.0962 136.193 31.3905 136.386 31.7499C136.584 32.104 136.683 32.7577 136.683 33.7108L136.659 36.2733C136.659 37.0025 136.693 37.5415 136.761 37.8905C136.834 38.2343 136.966 38.604 137.159 38.9999H134.987C134.93 38.854 134.86 38.6379 134.776 38.3514C134.74 38.2212 134.714 38.1353 134.698 38.0936C134.323 38.4582 133.922 38.7316 133.495 38.9139C133.068 39.0962 132.612 39.1874 132.128 39.1874C131.274 39.1874 130.599 38.9556 130.104 38.4921C129.615 38.0285 129.37 37.4426 129.37 36.7343C129.37 36.2655 129.482 35.8488 129.706 35.4843C129.93 35.1145 130.243 34.8332 130.644 34.6405C131.05 34.4426 131.633 34.2707 132.394 34.1249C133.42 33.9322 134.131 33.7525 134.526 33.5858V33.3671C134.526 32.9452 134.422 32.6457 134.214 32.4686C134.006 32.2863 133.612 32.1952 133.034 32.1952C132.644 32.1952 132.339 32.2733 132.12 32.4296C131.901 32.5806 131.724 32.8488 131.589 33.2343ZM134.526 35.0155C134.245 35.1093 133.8 35.2212 133.19 35.3514C132.581 35.4816 132.183 35.6093 131.995 35.7343C131.709 35.9374 131.565 36.1952 131.565 36.5077C131.565 36.815 131.68 37.0806 131.909 37.3046C132.138 37.5285 132.43 37.6405 132.784 37.6405C133.18 37.6405 133.558 37.5103 133.917 37.2499C134.183 37.052 134.357 36.8098 134.44 36.5233C134.498 36.3358 134.526 35.979 134.526 35.453V35.0155ZM138.081 36.6327L140.284 36.2968C140.378 36.7238 140.568 37.0494 140.854 37.2733C141.141 37.4921 141.542 37.6014 142.058 37.6014C142.625 37.6014 143.052 37.4973 143.339 37.2889C143.532 37.1431 143.628 36.9478 143.628 36.703C143.628 36.5363 143.576 36.3983 143.472 36.2889C143.362 36.1848 143.118 36.0884 142.737 35.9999C140.966 35.6093 139.844 35.2525 139.37 34.9296C138.714 34.4816 138.386 33.8593 138.386 33.0624C138.386 32.3436 138.67 31.7395 139.237 31.2499C139.805 30.7603 140.685 30.5155 141.878 30.5155C143.013 30.5155 143.857 30.7004 144.409 31.0702C144.961 31.44 145.341 31.9869 145.55 32.7108L143.479 33.0936C143.391 32.7707 143.222 32.5233 142.972 32.3514C142.727 32.1796 142.375 32.0936 141.917 32.0936C141.339 32.0936 140.925 32.1744 140.675 32.3358C140.508 32.4504 140.425 32.5988 140.425 32.7811C140.425 32.9374 140.498 33.0702 140.644 33.1796C140.841 33.3254 141.524 33.5311 142.69 33.7968C143.862 34.0624 144.68 34.3879 145.144 34.7733C145.602 35.1639 145.831 35.7082 145.831 36.4061C145.831 37.1665 145.513 37.8202 144.878 38.3671C144.243 38.9139 143.302 39.1874 142.058 39.1874C140.927 39.1874 140.032 38.9582 139.37 38.4999C138.714 38.0415 138.284 37.4191 138.081 36.6327ZM152.565 36.3593L154.753 36.7264C154.472 37.5285 154.026 38.1405 153.417 38.5624C152.813 38.979 152.055 39.1874 151.144 39.1874C149.701 39.1874 148.633 38.716 147.94 37.7733C147.394 37.0181 147.12 36.065 147.12 34.9139C147.12 33.5389 147.479 32.4634 148.198 31.6874C148.917 30.9061 149.826 30.5155 150.925 30.5155C152.159 30.5155 153.133 30.9244 153.847 31.7421C154.56 32.5546 154.901 33.802 154.87 35.4843H149.37C149.386 36.1353 149.563 36.6431 149.901 37.0077C150.24 37.3671 150.662 37.5468 151.167 37.5468C151.511 37.5468 151.8 37.453 152.034 37.2655C152.269 37.078 152.446 36.7759 152.565 36.3593ZM152.69 34.1405C152.675 33.5051 152.511 33.0233 152.198 32.6952C151.886 32.3619 151.506 32.1952 151.058 32.1952C150.578 32.1952 150.183 32.3697 149.87 32.7186C149.558 33.0676 149.404 33.5415 149.409 34.1405H152.69ZM155.894 36.6327L158.097 36.2968C158.19 36.7238 158.381 37.0494 158.667 37.2733C158.953 37.4921 159.354 37.6014 159.87 37.6014C160.438 37.6014 160.865 37.4973 161.151 37.2889C161.344 37.1431 161.44 36.9478 161.44 36.703C161.44 36.5363 161.388 36.3983 161.284 36.2889C161.175 36.1848 160.93 36.0884 160.55 35.9999C158.779 35.6093 157.657 35.2525 157.183 34.9296C156.526 34.4816 156.198 33.8593 156.198 33.0624C156.198 32.3436 156.482 31.7395 157.05 31.2499C157.618 30.7603 158.498 30.5155 159.69 30.5155C160.826 30.5155 161.67 30.7004 162.222 31.0702C162.774 31.44 163.154 31.9869 163.362 32.7108L161.292 33.0936C161.203 32.7707 161.034 32.5233 160.784 32.3514C160.539 32.1796 160.188 32.0936 159.729 32.0936C159.151 32.0936 158.737 32.1744 158.487 32.3358C158.321 32.4504 158.237 32.5988 158.237 32.7811C158.237 32.9374 158.31 33.0702 158.456 33.1796C158.654 33.3254 159.336 33.5311 160.503 33.7968C161.675 34.0624 162.493 34.3879 162.956 34.7733C163.414 35.1639 163.644 35.7082 163.644 36.4061C163.644 37.1665 163.326 37.8202 162.69 38.3671C162.055 38.9139 161.115 39.1874 159.87 39.1874C158.74 39.1874 157.844 38.9582 157.183 38.4999C156.526 38.0415 156.097 37.4191 155.894 36.6327ZM169.253 36.6327L171.456 36.2968C171.55 36.7238 171.74 37.0494 172.026 37.2733C172.313 37.4921 172.714 37.6014 173.229 37.6014C173.797 37.6014 174.224 37.4973 174.511 37.2889C174.703 37.1431 174.8 36.9478 174.8 36.703C174.8 36.5363 174.748 36.3983 174.644 36.2889C174.534 36.1848 174.289 36.0884 173.909 35.9999C172.138 35.6093 171.016 35.2525 170.542 34.9296C169.886 34.4816 169.558 33.8593 169.558 33.0624C169.558 32.3436 169.841 31.7395 170.409 31.2499C170.977 30.7603 171.857 30.5155 173.05 30.5155C174.185 30.5155 175.029 30.7004 175.581 31.0702C176.133 31.44 176.513 31.9869 176.722 32.7108L174.651 33.0936C174.563 32.7707 174.394 32.5233 174.144 32.3514C173.899 32.1796 173.547 32.0936 173.089 32.0936C172.511 32.0936 172.097 32.1744 171.847 32.3358C171.68 32.4504 171.597 32.5988 171.597 32.7811C171.597 32.9374 171.67 33.0702 171.815 33.1796C172.013 33.3254 172.696 33.5311 173.862 33.7968C175.034 34.0624 175.852 34.3879 176.315 34.7733C176.774 35.1639 177.003 35.7082 177.003 36.4061C177.003 37.1665 176.685 37.8202 176.05 38.3671C175.414 38.9139 174.474 39.1874 173.229 39.1874C172.099 39.1874 171.203 38.9582 170.542 38.4999C169.886 38.0415 169.456 37.4191 169.253 36.6327ZM184.394 38.9999V37.7577C184.091 38.2004 183.693 38.5494 183.198 38.8046C182.709 39.0598 182.19 39.1874 181.644 39.1874C181.086 39.1874 180.586 39.065 180.144 38.8202C179.701 38.5754 179.381 38.2316 179.183 37.7889C178.985 37.3462 178.886 36.7343 178.886 35.953V30.703H181.081V34.5155C181.081 35.6822 181.12 36.3983 181.198 36.6639C181.282 36.9244 181.43 37.1327 181.644 37.2889C181.857 37.44 182.128 37.5155 182.456 37.5155C182.831 37.5155 183.167 37.4139 183.464 37.2108C183.761 37.0025 183.964 36.7473 184.073 36.4452C184.183 36.1379 184.237 35.3905 184.237 34.203V30.703H186.433V38.9999H184.394ZM190.815 38.9999H188.62V30.703H190.659V31.8827C191.008 31.3254 191.321 30.9582 191.597 30.7811C191.878 30.604 192.196 30.5155 192.55 30.5155C193.05 30.5155 193.532 30.6535 193.995 30.9296L193.315 32.8436C192.946 32.604 192.602 32.4843 192.284 32.4843C191.977 32.4843 191.716 32.5702 191.503 32.7421C191.289 32.9087 191.12 33.2134 190.995 33.6561C190.875 34.0988 190.815 35.0259 190.815 36.4374V38.9999ZM197.229 38.9999L193.886 30.703H196.19L197.753 34.9374L198.206 36.3514C198.326 35.9921 198.401 35.7551 198.433 35.6405C198.506 35.4061 198.584 35.1718 198.667 34.9374L200.245 30.703H202.503L199.206 38.9999H197.229ZM203.854 29.578V27.5468H206.05V29.578H203.854ZM203.854 38.9999V30.703H206.05V38.9999H203.854ZM210.589 38.9999L207.245 30.703H209.55L211.112 34.9374L211.565 36.3514C211.685 35.9921 211.761 35.7551 211.792 35.6405C211.865 35.4061 211.943 35.1718 212.026 34.9374L213.604 30.703H215.862L212.565 38.9999H210.589ZM218.854 33.2343L216.862 32.8749C217.086 32.0728 217.472 31.479 218.019 31.0936C218.565 30.7082 219.378 30.5155 220.456 30.5155C221.435 30.5155 222.164 30.6327 222.644 30.8671C223.123 31.0962 223.459 31.3905 223.651 31.7499C223.849 32.104 223.948 32.7577 223.948 33.7108L223.925 36.2733C223.925 37.0025 223.959 37.5415 224.026 37.8905C224.099 38.2343 224.232 38.604 224.425 38.9999H222.253C222.196 38.854 222.125 38.6379 222.042 38.3514C222.006 38.2212 221.979 38.1353 221.964 38.0936C221.589 38.4582 221.188 38.7316 220.761 38.9139C220.334 39.0962 219.878 39.1874 219.394 39.1874C218.539 39.1874 217.865 38.9556 217.37 38.4921C216.881 38.0285 216.636 37.4426 216.636 36.7343C216.636 36.2655 216.748 35.8488 216.972 35.4843C217.196 35.1145 217.508 34.8332 217.909 34.6405C218.315 34.4426 218.899 34.2707 219.659 34.1249C220.685 33.9322 221.396 33.7525 221.792 33.5858V33.3671C221.792 32.9452 221.688 32.6457 221.479 32.4686C221.271 32.2863 220.878 32.1952 220.3 32.1952C219.909 32.1952 219.604 32.2733 219.386 32.4296C219.167 32.5806 218.99 32.8488 218.854 33.2343ZM221.792 35.0155C221.511 35.1093 221.065 35.2212 220.456 35.3514C219.847 35.4816 219.448 35.6093 219.261 35.7343C218.974 35.9374 218.831 36.1952 218.831 36.5077C218.831 36.815 218.946 37.0806 219.175 37.3046C219.404 37.5285 219.696 37.6405 220.05 37.6405C220.446 37.6405 220.823 37.5103 221.183 37.2499C221.448 37.052 221.623 36.8098 221.706 36.5233C221.763 36.3358 221.792 35.979 221.792 35.453V35.0155ZM226.12 38.9999V27.5468H228.315V38.9999H226.12ZM237.128 38.9999H234.933V30.703H236.972V31.8827C237.321 31.3254 237.633 30.9582 237.909 30.7811C238.19 30.604 238.508 30.5155 238.862 30.5155C239.362 30.5155 239.844 30.6535 240.308 30.9296L239.628 32.8436C239.258 32.604 238.914 32.4843 238.597 32.4843C238.289 32.4843 238.029 32.5702 237.815 32.7421C237.602 32.9087 237.433 33.2134 237.308 33.6561C237.188 34.0988 237.128 35.0259 237.128 36.4374V38.9999ZM242.901 33.2343L240.909 32.8749C241.133 32.0728 241.519 31.479 242.065 31.0936C242.612 30.7082 243.425 30.5155 244.503 30.5155C245.482 30.5155 246.211 30.6327 246.69 30.8671C247.17 31.0962 247.506 31.3905 247.698 31.7499C247.896 32.104 247.995 32.7577 247.995 33.7108L247.972 36.2733C247.972 37.0025 248.006 37.5415 248.073 37.8905C248.146 38.2343 248.279 38.604 248.472 38.9999H246.3C246.243 38.854 246.172 38.6379 246.089 38.3514C246.052 38.2212 246.026 38.1353 246.011 38.0936C245.636 38.4582 245.235 38.7316 244.808 38.9139C244.381 39.0962 243.925 39.1874 243.44 39.1874C242.586 39.1874 241.912 38.9556 241.417 38.4921C240.927 38.0285 240.683 37.4426 240.683 36.7343C240.683 36.2655 240.795 35.8488 241.019 35.4843C241.243 35.1145 241.555 34.8332 241.956 34.6405C242.362 34.4426 242.946 34.2707 243.706 34.1249C244.732 33.9322 245.443 33.7525 245.839 33.5858V33.3671C245.839 32.9452 245.735 32.6457 245.526 32.4686C245.318 32.2863 244.925 32.1952 244.347 32.1952C243.956 32.1952 243.651 32.2733 243.433 32.4296C243.214 32.5806 243.037 32.8488 242.901 33.2343ZM245.839 35.0155C245.558 35.1093 245.112 35.2212 244.503 35.3514C243.894 35.4816 243.495 35.6093 243.308 35.7343C243.021 35.9374 242.878 36.1952 242.878 36.5077C242.878 36.815 242.993 37.0806 243.222 37.3046C243.451 37.5285 243.743 37.6405 244.097 37.6405C244.493 37.6405 244.87 37.5103 245.229 37.2499C245.495 37.052 245.67 36.8098 245.753 36.5233C245.81 36.3358 245.839 35.979 245.839 35.453V35.0155ZM253.972 30.703V32.453H252.472V35.7968C252.472 36.4738 252.485 36.8697 252.511 36.9843C252.542 37.0936 252.607 37.1848 252.706 37.2577C252.81 37.3306 252.935 37.3671 253.081 37.3671C253.284 37.3671 253.578 37.2968 253.964 37.1561L254.151 38.8593C253.641 39.078 253.063 39.1874 252.417 39.1874C252.021 39.1874 251.664 39.1223 251.347 38.9921C251.029 38.8566 250.795 38.6848 250.644 38.4764C250.498 38.2629 250.396 37.9764 250.339 37.6171C250.292 37.3619 250.269 36.8462 250.269 36.0702V32.453H249.261V30.703H250.269V29.0546L252.472 27.7733V30.703H253.972ZM260.3 36.3593L262.487 36.7264C262.206 37.5285 261.761 38.1405 261.151 38.5624C260.547 38.979 259.789 39.1874 258.878 39.1874C257.435 39.1874 256.368 38.716 255.675 37.7733C255.128 37.0181 254.854 36.065 254.854 34.9139C254.854 33.5389 255.214 32.4634 255.933 31.6874C256.651 30.9061 257.56 30.5155 258.659 30.5155C259.894 30.5155 260.868 30.9244 261.581 31.7421C262.295 32.5546 262.636 33.802 262.604 35.4843H257.104C257.12 36.1353 257.297 36.6431 257.636 37.0077C257.974 37.3671 258.396 37.5468 258.901 37.5468C259.245 37.5468 259.534 37.453 259.769 37.2655C260.003 37.078 260.18 36.7759 260.3 36.3593ZM260.425 34.1405C260.409 33.5051 260.245 33.0233 259.933 32.6952C259.62 32.3619 259.24 32.1952 258.792 32.1952C258.313 32.1952 257.917 32.3697 257.604 32.7186C257.292 33.0676 257.138 33.5415 257.144 34.1405H260.425ZM268.347 34.7343C268.347 34.0051 268.526 33.2994 268.886 32.6171C269.245 31.9348 269.753 31.4139 270.409 31.0546C271.071 30.6952 271.808 30.5155 272.62 30.5155C273.875 30.5155 274.904 30.9244 275.706 31.7421C276.508 32.5546 276.909 33.5832 276.909 34.828C276.909 36.0832 276.503 37.1249 275.69 37.953C274.883 38.7759 273.865 39.1874 272.636 39.1874C271.875 39.1874 271.149 39.0155 270.456 38.6718C269.769 38.328 269.245 37.8254 268.886 37.1639C268.526 36.4973 268.347 35.6874 268.347 34.7343ZM270.597 34.8514C270.597 35.6744 270.792 36.3046 271.183 36.7421C271.573 37.1796 272.055 37.3983 272.628 37.3983C273.201 37.3983 273.68 37.1796 274.065 36.7421C274.456 36.3046 274.651 35.6691 274.651 34.8358C274.651 34.0233 274.456 33.3983 274.065 32.9608C273.68 32.5233 273.201 32.3046 272.628 32.3046C272.055 32.3046 271.573 32.5233 271.183 32.9608C270.792 33.3983 270.597 34.0285 270.597 34.8514ZM277.675 30.703H278.894V30.078C278.894 29.3801 278.966 28.8593 279.112 28.5155C279.263 28.1718 279.537 27.8931 279.933 27.6796C280.334 27.4608 280.839 27.3514 281.448 27.3514C282.073 27.3514 282.685 27.4452 283.284 27.6327L282.987 29.1639C282.638 29.0806 282.302 29.0389 281.979 29.0389C281.662 29.0389 281.433 29.1145 281.292 29.2655C281.157 29.4113 281.089 29.6952 281.089 30.1171V30.703H282.729V32.4296H281.089V38.9999H278.894V32.4296H277.675V30.703ZM93.2139 64.9999L90.5889 56.703H92.7217L94.2764 62.1405L95.7061 56.703H97.8232L99.2061 62.1405L100.792 56.703H102.956L100.292 64.9999H98.1826L96.7529 59.6639L95.3467 64.9999H93.2139ZM103.612 60.7343C103.612 60.0051 103.792 59.2994 104.151 58.6171C104.511 57.9348 105.019 57.4139 105.675 57.0546C106.336 56.6952 107.073 56.5155 107.886 56.5155C109.141 56.5155 110.17 56.9244 110.972 57.7421C111.774 58.5546 112.175 59.5832 112.175 60.828C112.175 62.0832 111.769 63.1249 110.956 63.953C110.149 64.7759 109.131 65.1874 107.901 65.1874C107.141 65.1874 106.414 65.0155 105.722 64.6718C105.034 64.328 104.511 63.8254 104.151 63.1639C103.792 62.4973 103.612 61.6874 103.612 60.7343ZM105.862 60.8514C105.862 61.6744 106.058 62.3046 106.448 62.7421C106.839 63.1796 107.321 63.3983 107.894 63.3983C108.466 63.3983 108.946 63.1796 109.331 62.7421C109.722 62.3046 109.917 61.6691 109.917 60.8358C109.917 60.0233 109.722 59.3983 109.331 58.9608C108.946 58.5233 108.466 58.3046 107.894 58.3046C107.321 58.3046 106.839 58.5233 106.448 58.9608C106.058 59.3983 105.862 60.0285 105.862 60.8514ZM119.362 64.9999V63.7577C119.06 64.2004 118.662 64.5494 118.167 64.8046C117.677 65.0598 117.159 65.1874 116.612 65.1874C116.055 65.1874 115.555 65.065 115.112 64.8202C114.67 64.5754 114.349 64.2316 114.151 63.7889C113.953 63.3462 113.854 62.7343 113.854 61.953V56.703H116.05V60.5155C116.05 61.6822 116.089 62.3983 116.167 62.6639C116.25 62.9244 116.399 63.1327 116.612 63.2889C116.826 63.44 117.097 63.5155 117.425 63.5155C117.8 63.5155 118.136 63.4139 118.433 63.2108C118.729 63.0025 118.933 62.7473 119.042 62.4452C119.151 62.1379 119.206 61.3905 119.206 60.203V56.703H121.401V64.9999H119.362ZM131.229 64.9999H129.034V60.7655C129.034 59.8697 128.987 59.2915 128.894 59.0311C128.8 58.7655 128.646 58.5598 128.433 58.4139C128.224 58.2681 127.972 58.1952 127.675 58.1952C127.295 58.1952 126.953 58.2994 126.651 58.5077C126.349 58.716 126.141 58.9921 126.026 59.3358C125.917 59.6796 125.862 60.315 125.862 61.2421V64.9999H123.667V56.703H125.706V57.9218C126.43 56.9843 127.341 56.5155 128.44 56.5155C128.925 56.5155 129.368 56.604 129.769 56.7811C130.17 56.953 130.472 57.1744 130.675 57.4452C130.883 57.716 131.026 58.0233 131.104 58.3671C131.188 58.7108 131.229 59.203 131.229 59.8436V64.9999ZM141.073 64.9999H139.034V63.7811C138.696 64.2551 138.295 64.6093 137.831 64.8436C137.373 65.0728 136.909 65.1874 136.44 65.1874C135.487 65.1874 134.67 64.8046 133.987 64.0389C133.31 63.2681 132.972 62.1952 132.972 60.8202C132.972 59.4139 133.302 58.3462 133.964 57.6171C134.625 56.8827 135.461 56.5155 136.472 56.5155C137.399 56.5155 138.201 56.9009 138.878 57.6718V53.5468H141.073V64.9999ZM135.214 60.6718C135.214 61.5572 135.336 62.1978 135.581 62.5936C135.935 63.1665 136.43 63.453 137.065 63.453C137.571 63.453 138 63.2395 138.354 62.8124C138.709 62.3801 138.886 61.7369 138.886 60.8827C138.886 59.9296 138.714 59.2447 138.37 58.828C138.026 58.4061 137.586 58.1952 137.05 58.1952C136.529 58.1952 136.091 58.4035 135.737 58.8202C135.388 59.2316 135.214 59.8488 135.214 60.6718ZM148.05 62.3593L150.237 62.7264C149.956 63.5285 149.511 64.1405 148.901 64.5624C148.297 64.979 147.539 65.1874 146.628 65.1874C145.185 65.1874 144.118 64.716 143.425 63.7733C142.878 63.0181 142.604 62.065 142.604 60.9139C142.604 59.5389 142.964 58.4634 143.683 57.6874C144.401 56.9061 145.31 56.5155 146.409 56.5155C147.644 56.5155 148.618 56.9244 149.331 57.7421C150.045 58.5546 150.386 59.802 150.354 61.4843H144.854C144.87 62.1353 145.047 62.6431 145.386 63.0077C145.724 63.3671 146.146 63.5468 146.651 63.5468C146.995 63.5468 147.284 63.453 147.519 63.2655C147.753 63.078 147.93 62.7759 148.05 62.3593ZM148.175 60.1405C148.159 59.5051 147.995 59.0233 147.683 58.6952C147.37 58.3619 146.99 58.1952 146.542 58.1952C146.063 58.1952 145.667 58.3697 145.354 58.7186C145.042 59.0676 144.888 59.5415 144.894 60.1405H148.175ZM159.761 64.9999H157.722V63.7811C157.383 64.2551 156.982 64.6093 156.519 64.8436C156.06 65.0728 155.597 65.1874 155.128 65.1874C154.175 65.1874 153.357 64.8046 152.675 64.0389C151.998 63.2681 151.659 62.1952 151.659 60.8202C151.659 59.4139 151.99 58.3462 152.651 57.6171C153.313 56.8827 154.149 56.5155 155.159 56.5155C156.086 56.5155 156.888 56.9009 157.565 57.6718V53.5468H159.761V64.9999ZM153.901 60.6718C153.901 61.5572 154.024 62.1978 154.269 62.5936C154.623 63.1665 155.118 63.453 155.753 63.453C156.258 63.453 156.688 63.2395 157.042 62.8124C157.396 62.3801 157.573 61.7369 157.573 60.8827C157.573 59.9296 157.401 59.2447 157.058 58.828C156.714 58.4061 156.274 58.1952 155.737 58.1952C155.216 58.1952 154.779 58.4035 154.425 58.8202C154.076 59.2316 153.901 59.8488 153.901 60.6718ZM165.612 62.6327L167.815 62.2968C167.909 62.7238 168.099 63.0494 168.386 63.2733C168.672 63.4921 169.073 63.6014 169.589 63.6014C170.157 63.6014 170.584 63.4973 170.87 63.2889C171.063 63.1431 171.159 62.9478 171.159 62.703C171.159 62.5363 171.107 62.3983 171.003 62.2889C170.894 62.1848 170.649 62.0884 170.269 61.9999C168.498 61.6093 167.375 61.2525 166.901 60.9296C166.245 60.4816 165.917 59.8593 165.917 59.0624C165.917 58.3436 166.201 57.7395 166.769 57.2499C167.336 56.7603 168.216 56.5155 169.409 56.5155C170.545 56.5155 171.388 56.7004 171.94 57.0702C172.493 57.44 172.873 57.9869 173.081 58.7108L171.011 59.0936C170.922 58.7707 170.753 58.5233 170.503 58.3514C170.258 58.1796 169.907 58.0936 169.448 58.0936C168.87 58.0936 168.456 58.1744 168.206 58.3358C168.039 58.4504 167.956 58.5988 167.956 58.7811C167.956 58.9374 168.029 59.0702 168.175 59.1796C168.373 59.3254 169.055 59.5311 170.222 59.7968C171.394 60.0624 172.211 60.3879 172.675 60.7733C173.133 61.1639 173.362 61.7082 173.362 62.4061C173.362 63.1665 173.045 63.8202 172.409 64.3671C171.774 64.9139 170.834 65.1874 169.589 65.1874C168.459 65.1874 167.563 64.9582 166.901 64.4999C166.245 64.0415 165.815 63.4191 165.612 62.6327ZM174.784 60.7343C174.784 60.0051 174.964 59.2994 175.323 58.6171C175.683 57.9348 176.19 57.4139 176.847 57.0546C177.508 56.6952 178.245 56.5155 179.058 56.5155C180.313 56.5155 181.341 56.9244 182.144 57.7421C182.946 58.5546 183.347 59.5832 183.347 60.828C183.347 62.0832 182.94 63.1249 182.128 63.953C181.321 64.7759 180.302 65.1874 179.073 65.1874C178.313 65.1874 177.586 65.0155 176.894 64.6718C176.206 64.328 175.683 63.8254 175.323 63.1639C174.964 62.4973 174.784 61.6874 174.784 60.7343ZM177.034 60.8514C177.034 61.6744 177.229 62.3046 177.62 62.7421C178.011 63.1796 178.493 63.3983 179.065 63.3983C179.638 63.3983 180.118 63.1796 180.503 62.7421C180.894 62.3046 181.089 61.6691 181.089 60.8358C181.089 60.0233 180.894 59.3983 180.503 58.9608C180.118 58.5233 179.638 58.3046 179.065 58.3046C178.493 58.3046 178.011 58.5233 177.62 58.9608C177.229 59.3983 177.034 60.0285 177.034 60.8514ZM185.073 64.9999V53.5468H187.269V64.9999H185.073ZM197.136 64.9999H195.097V63.7811C194.758 64.2551 194.357 64.6093 193.894 64.8436C193.435 65.0728 192.972 65.1874 192.503 65.1874C191.55 65.1874 190.732 64.8046 190.05 64.0389C189.373 63.2681 189.034 62.1952 189.034 60.8202C189.034 59.4139 189.365 58.3462 190.026 57.6171C190.688 56.8827 191.524 56.5155 192.534 56.5155C193.461 56.5155 194.263 56.9009 194.94 57.6718V53.5468H197.136V64.9999ZM191.276 60.6718C191.276 61.5572 191.399 62.1978 191.644 62.5936C191.998 63.1665 192.493 63.453 193.128 63.453C193.633 63.453 194.063 63.2395 194.417 62.8124C194.771 62.3801 194.948 61.7369 194.948 60.8827C194.948 59.9296 194.776 59.2447 194.433 58.828C194.089 58.4061 193.649 58.1952 193.112 58.1952C192.591 58.1952 192.154 58.4035 191.8 58.8202C191.451 59.2316 191.276 59.8488 191.276 60.6718ZM199.308 55.578V53.5468H201.503V55.578H199.308ZM199.308 64.9999V56.703H201.503V64.9999H199.308ZM208.565 62.3593L210.753 62.7264C210.472 63.5285 210.026 64.1405 209.417 64.5624C208.813 64.979 208.055 65.1874 207.144 65.1874C205.701 65.1874 204.633 64.716 203.94 63.7733C203.394 63.0181 203.12 62.065 203.12 60.9139C203.12 59.5389 203.479 58.4634 204.198 57.6874C204.917 56.9061 205.826 56.5155 206.925 56.5155C208.159 56.5155 209.133 56.9244 209.847 57.7421C210.56 58.5546 210.901 59.802 210.87 61.4843H205.37C205.386 62.1353 205.563 62.6431 205.901 63.0077C206.24 63.3671 206.662 63.5468 207.167 63.5468C207.511 63.5468 207.8 63.453 208.034 63.2655C208.269 63.078 208.446 62.7759 208.565 62.3593ZM208.69 60.1405C208.675 59.5051 208.511 59.0233 208.198 58.6952C207.886 58.3619 207.506 58.1952 207.058 58.1952C206.578 58.1952 206.183 58.3697 205.87 58.7186C205.558 59.0676 205.404 59.5415 205.409 60.1405H208.69ZM214.769 64.9999H212.573V56.703H214.612V57.8827C214.961 57.3254 215.274 56.9582 215.55 56.7811C215.831 56.604 216.149 56.5155 216.503 56.5155C217.003 56.5155 217.485 56.6535 217.948 56.9296L217.269 58.8436C216.899 58.604 216.555 58.4843 216.237 58.4843C215.93 58.4843 215.67 58.5702 215.456 58.7421C215.243 58.9087 215.073 59.2134 214.948 59.6561C214.828 60.0988 214.769 61.0259 214.769 62.4374V64.9999ZM218.128 62.6327L220.331 62.2968C220.425 62.7238 220.615 63.0494 220.901 63.2733C221.188 63.4921 221.589 63.6014 222.104 63.6014C222.672 63.6014 223.099 63.4973 223.386 63.2889C223.578 63.1431 223.675 62.9478 223.675 62.703C223.675 62.5363 223.623 62.3983 223.519 62.2889C223.409 62.1848 223.164 62.0884 222.784 61.9999C221.013 61.6093 219.891 61.2525 219.417 60.9296C218.761 60.4816 218.433 59.8593 218.433 59.0624C218.433 58.3436 218.716 57.7395 219.284 57.2499C219.852 56.7603 220.732 56.5155 221.925 56.5155C223.06 56.5155 223.904 56.7004 224.456 57.0702C225.008 57.44 225.388 57.9869 225.597 58.7108L223.526 59.0936C223.438 58.7707 223.269 58.5233 223.019 58.3514C222.774 58.1796 222.422 58.0936 221.964 58.0936C221.386 58.0936 220.972 58.1744 220.722 58.3358C220.555 58.4504 220.472 58.5988 220.472 58.7811C220.472 58.9374 220.545 59.0702 220.69 59.1796C220.888 59.3254 221.571 59.5311 222.737 59.7968C223.909 60.0624 224.727 60.3879 225.19 60.7733C225.649 61.1639 225.878 61.7082 225.878 62.4061C225.878 63.1665 225.56 63.8202 224.925 64.3671C224.289 64.9139 223.349 65.1874 222.104 65.1874C220.974 65.1874 220.078 64.9582 219.417 64.4999C218.761 64.0415 218.331 63.4191 218.128 62.6327ZM232.167 64.9999V53.5468H234.362V57.6718C235.039 56.9009 235.841 56.5155 236.769 56.5155C237.779 56.5155 238.615 56.8827 239.276 57.6171C239.938 58.3462 240.269 59.3957 240.269 60.7655C240.269 62.1822 239.93 63.2733 239.253 64.0389C238.581 64.8046 237.763 65.1874 236.8 65.1874C236.326 65.1874 235.857 65.0702 235.394 64.8358C234.935 64.5962 234.539 64.2447 234.206 63.7811V64.9999H232.167ZM234.347 60.6718C234.347 61.5311 234.482 62.1665 234.753 62.578C235.133 63.1613 235.638 63.453 236.269 63.453C236.753 63.453 237.164 63.2473 237.503 62.8358C237.847 62.4191 238.019 61.7655 238.019 60.8749C238.019 59.927 237.847 59.2447 237.503 58.828C237.159 58.4061 236.719 58.1952 236.183 58.1952C235.657 58.1952 235.219 58.4009 234.87 58.8124C234.521 59.2186 234.347 59.8384 234.347 60.6718ZM241.003 56.703H243.339L245.323 62.5936L247.261 56.703H249.534L246.604 64.6874L246.081 66.1327C245.888 66.6171 245.703 66.9869 245.526 67.2421C245.354 67.4973 245.154 67.703 244.925 67.8593C244.701 68.0207 244.422 68.1457 244.089 68.2343C243.761 68.3228 243.388 68.3671 242.972 68.3671C242.55 68.3671 242.136 68.3228 241.729 68.2343L241.534 66.5155C241.878 66.5832 242.188 66.6171 242.464 66.6171C242.974 66.6171 243.352 66.466 243.597 66.1639C243.841 65.8671 244.029 65.4869 244.159 65.0233L241.003 56.703ZM254.964 62.0546L257.151 61.828C257.214 62.3228 257.399 62.716 257.706 63.0077C258.013 63.2941 258.368 63.4374 258.769 63.4374C259.227 63.4374 259.615 63.2525 259.933 62.8827C260.25 62.5077 260.409 61.9452 260.409 61.1952C260.409 60.4921 260.25 59.966 259.933 59.6171C259.62 59.2629 259.211 59.0858 258.706 59.0858C258.076 59.0858 257.511 59.3645 257.011 59.9218L255.229 59.6639L256.354 53.703H262.159V55.7577H258.019L257.675 57.703C258.164 57.4582 258.664 57.3358 259.175 57.3358C260.149 57.3358 260.974 57.69 261.651 58.3983C262.328 59.1066 262.667 60.0259 262.667 61.1561C262.667 62.0988 262.394 62.94 261.847 63.6796C261.102 64.69 260.068 65.1952 258.745 65.1952C257.688 65.1952 256.826 64.9113 256.159 64.3436C255.493 63.7759 255.094 63.0129 254.964 62.0546ZM272.565 56.703V58.453H271.065V61.7968C271.065 62.4738 271.078 62.8697 271.104 62.9843C271.136 63.0936 271.201 63.1848 271.3 63.2577C271.404 63.3306 271.529 63.3671 271.675 63.3671C271.878 63.3671 272.172 63.2968 272.558 63.1561L272.745 64.8593C272.235 65.078 271.657 65.1874 271.011 65.1874C270.615 65.1874 270.258 65.1223 269.94 64.9921C269.623 64.8566 269.388 64.6848 269.237 64.4764C269.091 64.2629 268.99 63.9764 268.933 63.6171C268.886 63.3619 268.862 62.8462 268.862 62.0702V58.453H267.854V56.703H268.862V55.0546L271.065 53.7733V56.703H272.565ZM274.089 55.578V53.5468H276.284V55.578H274.089ZM274.089 64.9999V56.703H276.284V64.9999H274.089ZM278.378 56.703H280.401V57.8358C281.125 56.9556 281.987 56.5155 282.987 56.5155C283.519 56.5155 283.979 56.6249 284.37 56.8436C284.761 57.0624 285.081 57.3931 285.331 57.8358C285.696 57.3931 286.089 57.0624 286.511 56.8436C286.933 56.6249 287.383 56.5155 287.862 56.5155C288.472 56.5155 288.987 56.6405 289.409 56.8905C289.831 57.1353 290.146 57.4973 290.354 57.9764C290.506 58.3306 290.581 58.9035 290.581 59.6952V64.9999H288.386V60.2577C288.386 59.4348 288.31 58.9035 288.159 58.6639C287.956 58.3514 287.644 58.1952 287.222 58.1952C286.914 58.1952 286.625 58.2889 286.354 58.4764C286.084 58.6639 285.888 58.94 285.769 59.3046C285.649 59.6639 285.589 60.2343 285.589 61.0155V64.9999H283.394V60.453C283.394 59.6457 283.354 59.1249 283.276 58.8905C283.198 58.6561 283.076 58.4816 282.909 58.3671C282.748 58.2525 282.526 58.1952 282.245 58.1952C281.907 58.1952 281.602 58.2863 281.331 58.4686C281.06 58.6509 280.865 58.9139 280.745 59.2577C280.631 59.6014 280.573 60.1718 280.573 60.9686V64.9999H278.378V56.703ZM297.581 62.3593L299.769 62.7264C299.487 63.5285 299.042 64.1405 298.433 64.5624C297.828 64.979 297.071 65.1874 296.159 65.1874C294.716 65.1874 293.649 64.716 292.956 63.7733C292.409 63.0181 292.136 62.065 292.136 60.9139C292.136 59.5389 292.495 58.4634 293.214 57.6874C293.933 56.9061 294.841 56.5155 295.94 56.5155C297.175 56.5155 298.149 56.9244 298.862 57.7421C299.576 58.5546 299.917 59.802 299.886 61.4843H294.386C294.401 62.1353 294.578 62.6431 294.917 63.0077C295.256 63.3671 295.677 63.5468 296.183 63.5468C296.526 63.5468 296.815 63.453 297.05 63.2655C297.284 63.078 297.461 62.7759 297.581 62.3593ZM297.706 60.1405C297.69 59.5051 297.526 59.0233 297.214 58.6952C296.901 58.3619 296.521 58.1952 296.073 58.1952C295.594 58.1952 295.198 58.3697 294.886 58.7186C294.573 59.0676 294.42 59.5415 294.425 60.1405H297.706ZM300.909 62.6327L303.112 62.2968C303.206 62.7238 303.396 63.0494 303.683 63.2733C303.969 63.4921 304.37 63.6014 304.886 63.6014C305.453 63.6014 305.881 63.4973 306.167 63.2889C306.36 63.1431 306.456 62.9478 306.456 62.703C306.456 62.5363 306.404 62.3983 306.3 62.2889C306.19 62.1848 305.946 62.0884 305.565 61.9999C303.795 61.6093 302.672 61.2525 302.198 60.9296C301.542 60.4816 301.214 59.8593 301.214 59.0624C301.214 58.3436 301.498 57.7395 302.065 57.2499C302.633 56.7603 303.513 56.5155 304.706 56.5155C305.841 56.5155 306.685 56.7004 307.237 57.0702C307.789 57.44 308.17 57.9869 308.378 58.7108L306.308 59.0936C306.219 58.7707 306.05 58.5233 305.8 58.3514C305.555 58.1796 305.203 58.0936 304.745 58.0936C304.167 58.0936 303.753 58.1744 303.503 58.3358C303.336 58.4504 303.253 58.5988 303.253 58.7811C303.253 58.9374 303.326 59.0702 303.472 59.1796C303.67 59.3254 304.352 59.5311 305.519 59.7968C306.69 60.0624 307.508 60.3879 307.972 60.7733C308.43 61.1639 308.659 61.7082 308.659 62.4061C308.659 63.1665 308.341 63.8202 307.706 64.3671C307.071 64.9139 306.131 65.1874 304.886 65.1874C303.756 65.1874 302.86 64.9582 302.198 64.4999C301.542 64.0415 301.112 63.4191 300.909 62.6327Z" fill="black"/>
<path d="M59.4648 63.9999H52.3301V37.1112C49.7233 39.5487 46.651 41.3514 43.1133 42.5194V36.0448C44.9753 35.4354 46.998 34.2844 49.1816 32.5917C51.3652 30.882 52.8633 28.8931 53.6758 26.6249H59.4648V63.9999Z" fill="#6C725F"/>
</svg>
