<svg width="304" height="70" viewBox="0 0 304 70" fill="none" xmlns="http://www.w3.org/2000/svg">
<path d="M284 1.00024H63.3972C60.2685 1.00024 57.1883 1.77284 54.43 3.24942L26.4097 18.2494C13.0326 25.4105 13.0326 44.5899 26.4097 51.7511L54.43 66.7511C57.1883 68.2276 60.2685 69.0002 63.3972 69.0002H284C294.493 69.0002 303 60.4937 303 50.0002V20.0002C303 9.50683 294.493 1.00024 284 1.00024Z" fill="white" stroke="#646C59" stroke-width="2" stroke-linejoin="round"/>
<path d="M81.957 29.0002V18.9788H83.9805V29.0002H81.957ZM92.5049 29.0002H90.584V25.2952C90.584 24.5113 90.543 24.0055 90.4609 23.7776C90.3789 23.5452 90.2445 23.3652 90.0576 23.2375C89.8753 23.1099 89.6543 23.0461 89.3945 23.0461C89.0618 23.0461 88.7633 23.1373 88.499 23.3196C88.2347 23.5019 88.0524 23.7434 87.9521 24.0442C87.8564 24.345 87.8086 24.901 87.8086 25.7122V29.0002H85.8877V21.7405H87.6719V22.8069C88.3053 21.9866 89.1029 21.5764 90.0645 21.5764C90.4883 21.5764 90.8757 21.6539 91.2266 21.8088C91.5775 21.9592 91.8418 22.1529 92.0195 22.3899C92.2018 22.6269 92.3271 22.8958 92.3955 23.1965C92.4684 23.4973 92.5049 23.928 92.5049 24.4885V29.0002ZM100.79 23.887L98.8965 24.2288C98.8327 23.8505 98.6868 23.5657 98.459 23.3743C98.2357 23.1829 97.944 23.0872 97.584 23.0872C97.1055 23.0872 96.7227 23.2535 96.4355 23.5862C96.153 23.9143 96.0117 24.4657 96.0117 25.2405C96.0117 26.1018 96.1553 26.7102 96.4424 27.0657C96.734 27.4211 97.1237 27.5989 97.6113 27.5989C97.9759 27.5989 98.2744 27.4963 98.5068 27.2913C98.7393 27.0816 98.9033 26.7239 98.999 26.218L100.886 26.5393C100.69 27.4052 100.314 28.0592 99.7578 28.5012C99.2018 28.9433 98.4567 29.1643 97.5225 29.1643C96.4606 29.1643 95.613 28.8293 94.9795 28.1594C94.3506 27.4895 94.0361 26.5621 94.0361 25.3772C94.0361 24.1786 94.3529 23.2467 94.9863 22.5813C95.6198 21.9114 96.4766 21.5764 97.5566 21.5764C98.4408 21.5764 99.1426 21.7678 99.6621 22.1506C100.186 22.5289 100.562 23.1077 100.79 23.887ZM104.092 29.0002H102.171V21.7405H103.955V22.7727C104.26 22.2851 104.534 21.9638 104.775 21.8088C105.021 21.6539 105.299 21.5764 105.609 21.5764C106.047 21.5764 106.468 21.6972 106.874 21.9387L106.279 23.6135C105.956 23.4039 105.655 23.2991 105.377 23.2991C105.108 23.2991 104.88 23.3743 104.693 23.5247C104.507 23.6705 104.358 23.9371 104.249 24.3245C104.144 24.7118 104.092 25.523 104.092 26.7581V29.0002ZM111.912 26.6897L113.826 27.011C113.58 27.7128 113.19 28.2483 112.657 28.6174C112.129 28.982 111.465 29.1643 110.668 29.1643C109.406 29.1643 108.471 28.7519 107.865 27.927C107.387 27.2662 107.147 26.4322 107.147 25.425C107.147 24.2219 107.462 23.2808 108.091 22.6018C108.72 21.9182 109.515 21.5764 110.477 21.5764C111.557 21.5764 112.409 21.9342 113.033 22.6497C113.658 23.3606 113.956 24.4521 113.929 25.9241H109.116C109.13 26.4937 109.285 26.9381 109.581 27.2571C109.877 27.5715 110.246 27.7288 110.688 27.7288C110.989 27.7288 111.242 27.6467 111.447 27.4827C111.652 27.3186 111.807 27.0543 111.912 26.6897ZM112.021 24.7483C112.008 24.1923 111.864 23.7708 111.591 23.4836C111.317 23.192 110.985 23.0461 110.593 23.0461C110.174 23.0461 109.827 23.1988 109.554 23.5042C109.28 23.8095 109.146 24.2242 109.15 24.7483H112.021ZM116.937 23.9553L115.193 23.6409C115.389 22.939 115.727 22.4195 116.205 22.0823C116.684 21.745 117.395 21.5764 118.338 21.5764C119.195 21.5764 119.833 21.679 120.252 21.884C120.671 22.0846 120.965 22.342 121.134 22.6565C121.307 22.9664 121.394 23.5383 121.394 24.3723L121.373 26.6145C121.373 27.2525 121.403 27.7242 121.462 28.0295C121.526 28.3303 121.642 28.6539 121.811 29.0002H119.91C119.86 28.8726 119.799 28.6835 119.726 28.4329C119.694 28.3189 119.671 28.2437 119.657 28.2073C119.329 28.5263 118.978 28.7655 118.604 28.925C118.231 29.0846 117.832 29.1643 117.408 29.1643C116.661 29.1643 116.071 28.9615 115.638 28.5559C115.209 28.1503 114.995 27.6376 114.995 27.0178C114.995 26.6077 115.093 26.2431 115.289 25.9241C115.485 25.6005 115.758 25.3544 116.109 25.1858C116.465 25.0126 116.975 24.8622 117.641 24.7346C118.538 24.566 119.16 24.4088 119.507 24.2629V24.0715C119.507 23.7024 119.416 23.4403 119.233 23.2854C119.051 23.1259 118.707 23.0461 118.201 23.0461C117.859 23.0461 117.593 23.1145 117.401 23.2512C117.21 23.3834 117.055 23.6181 116.937 23.9553ZM119.507 25.5139C119.261 25.5959 118.871 25.6939 118.338 25.8079C117.805 25.9218 117.456 26.0334 117.292 26.1428C117.041 26.3206 116.916 26.5461 116.916 26.8196C116.916 27.0885 117.016 27.3209 117.217 27.5168C117.417 27.7128 117.673 27.8108 117.982 27.8108C118.329 27.8108 118.659 27.6969 118.974 27.469C119.206 27.2958 119.359 27.0839 119.432 26.8333C119.482 26.6692 119.507 26.357 119.507 25.8967V25.5139ZM122.617 26.929L124.545 26.635C124.627 27.0087 124.793 27.2935 125.044 27.4895C125.295 27.6809 125.646 27.7766 126.097 27.7766C126.593 27.7766 126.967 27.6855 127.218 27.5032C127.386 27.3756 127.471 27.2047 127.471 26.9905C127.471 26.8446 127.425 26.7239 127.334 26.6282C127.238 26.537 127.024 26.4527 126.691 26.3752C125.142 26.0334 124.16 25.7213 123.745 25.4387C123.171 25.0468 122.884 24.5022 122.884 23.8049C122.884 23.176 123.132 22.6474 123.629 22.219C124.126 21.7906 124.896 21.5764 125.939 21.5764C126.933 21.5764 127.671 21.7382 128.154 22.0618C128.637 22.3853 128.97 22.8639 129.152 23.4973L127.341 23.8323C127.263 23.5497 127.115 23.3333 126.896 23.1829C126.682 23.0325 126.375 22.9573 125.974 22.9573C125.468 22.9573 125.105 23.0279 124.887 23.1692C124.741 23.2694 124.668 23.3993 124.668 23.5588C124.668 23.6956 124.732 23.8118 124.859 23.9075C125.033 24.0351 125.63 24.2151 126.65 24.4475C127.676 24.6799 128.391 24.9648 128.797 25.302C129.198 25.6438 129.398 26.12 129.398 26.7307C129.398 27.3961 129.12 27.968 128.564 28.4465C128.008 28.925 127.186 29.1643 126.097 29.1643C125.108 29.1643 124.324 28.9638 123.745 28.5627C123.171 28.1617 122.795 27.6171 122.617 26.929ZM135.291 26.6897L137.205 27.011C136.959 27.7128 136.569 28.2483 136.036 28.6174C135.507 28.982 134.844 29.1643 134.047 29.1643C132.785 29.1643 131.85 28.7519 131.244 27.927C130.766 27.2662 130.526 26.4322 130.526 25.425C130.526 24.2219 130.841 23.2808 131.47 22.6018C132.099 21.9182 132.894 21.5764 133.855 21.5764C134.936 21.5764 135.788 21.9342 136.412 22.6497C137.036 23.3606 137.335 24.4521 137.308 25.9241H132.495C132.509 26.4937 132.664 26.9381 132.96 27.2571C133.256 27.5715 133.625 27.7288 134.067 27.7288C134.368 27.7288 134.621 27.6467 134.826 27.4827C135.031 27.3186 135.186 27.0543 135.291 26.6897ZM135.4 24.7483C135.387 24.1923 135.243 23.7708 134.97 23.4836C134.696 23.192 134.364 23.0461 133.972 23.0461C133.552 23.0461 133.206 23.1988 132.933 23.5042C132.659 23.8095 132.525 24.2242 132.529 24.7483H135.4ZM138.203 26.929L140.131 26.635C140.213 27.0087 140.379 27.2935 140.63 27.4895C140.881 27.6809 141.231 27.7766 141.683 27.7766C142.179 27.7766 142.553 27.6855 142.804 27.5032C142.972 27.3756 143.057 27.2047 143.057 26.9905C143.057 26.8446 143.011 26.7239 142.92 26.6282C142.824 26.537 142.61 26.4527 142.277 26.3752C140.728 26.0334 139.746 25.7213 139.331 25.4387C138.757 25.0468 138.47 24.5022 138.47 23.8049C138.47 23.176 138.718 22.6474 139.215 22.219C139.712 21.7906 140.482 21.5764 141.525 21.5764C142.519 21.5764 143.257 21.7382 143.74 22.0618C144.223 22.3853 144.556 22.8639 144.738 23.4973L142.927 23.8323C142.849 23.5497 142.701 23.3333 142.482 23.1829C142.268 23.0325 141.961 22.9573 141.56 22.9573C141.054 22.9573 140.691 23.0279 140.473 23.1692C140.327 23.2694 140.254 23.3993 140.254 23.5588C140.254 23.6956 140.318 23.8118 140.445 23.9075C140.618 24.0351 141.215 24.2151 142.236 24.4475C143.262 24.6799 143.977 24.9648 144.383 25.302C144.784 25.6438 144.984 26.12 144.984 26.7307C144.984 27.3961 144.706 27.968 144.15 28.4465C143.594 28.925 142.772 29.1643 141.683 29.1643C140.694 29.1643 139.91 28.9638 139.331 28.5627C138.757 28.1617 138.381 27.6171 138.203 26.929ZM149.893 26.929L151.82 26.635C151.902 27.0087 152.069 27.2935 152.319 27.4895C152.57 27.6809 152.921 27.7766 153.372 27.7766C153.869 27.7766 154.243 27.6855 154.493 27.5032C154.662 27.3756 154.746 27.2047 154.746 26.9905C154.746 26.8446 154.701 26.7239 154.609 26.6282C154.514 26.537 154.299 26.4527 153.967 26.3752C152.417 26.0334 151.435 25.7213 151.021 25.4387C150.446 25.0468 150.159 24.5022 150.159 23.8049C150.159 23.176 150.408 22.6474 150.904 22.219C151.401 21.7906 152.171 21.5764 153.215 21.5764C154.208 21.5764 154.947 21.7382 155.43 22.0618C155.913 22.3853 156.245 22.8639 156.428 23.4973L154.616 23.8323C154.539 23.5497 154.391 23.3333 154.172 23.1829C153.958 23.0325 153.65 22.9573 153.249 22.9573C152.743 22.9573 152.381 23.0279 152.162 23.1692C152.016 23.2694 151.943 23.3993 151.943 23.5588C151.943 23.6956 152.007 23.8118 152.135 23.9075C152.308 24.0351 152.905 24.2151 153.926 24.4475C154.951 24.6799 155.667 24.9648 156.072 25.302C156.473 25.6438 156.674 26.12 156.674 26.7307C156.674 27.3961 156.396 27.968 155.84 28.4465C155.284 28.925 154.461 29.1643 153.372 29.1643C152.383 29.1643 151.599 28.9638 151.021 28.5627C150.446 28.1617 150.07 27.6171 149.893 26.929ZM163.141 29.0002V27.9133C162.876 28.3007 162.528 28.606 162.095 28.8293C161.666 29.0527 161.213 29.1643 160.734 29.1643C160.247 29.1643 159.809 29.0572 159.422 28.843C159.035 28.6288 158.754 28.328 158.581 27.9407C158.408 27.5533 158.321 27.0178 158.321 26.3342V21.7405H160.242V25.0764C160.242 26.0972 160.276 26.7239 160.345 26.9563C160.418 27.1842 160.548 27.3665 160.734 27.5032C160.921 27.6353 161.158 27.7014 161.445 27.7014C161.773 27.7014 162.067 27.6125 162.327 27.4348C162.587 27.2525 162.765 27.0292 162.86 26.7649C162.956 26.496 163.004 25.842 163.004 24.803V21.7405H164.925V29.0002H163.141ZM168.76 29.0002H166.839V21.7405H168.623V22.7727C168.928 22.2851 169.202 21.9638 169.443 21.8088C169.689 21.6539 169.967 21.5764 170.277 21.5764C170.715 21.5764 171.136 21.6972 171.542 21.9387L170.947 23.6135C170.624 23.4039 170.323 23.2991 170.045 23.2991C169.776 23.2991 169.548 23.3743 169.361 23.5247C169.174 23.6705 169.026 23.9371 168.917 24.3245C168.812 24.7118 168.76 25.523 168.76 26.7581V29.0002ZM174.372 29.0002L171.446 21.7405H173.463L174.83 25.4456L175.227 26.6829C175.331 26.3684 175.397 26.1611 175.425 26.0608C175.489 25.8557 175.557 25.6506 175.63 25.4456L177.011 21.7405H178.986L176.102 29.0002H174.372ZM180.169 20.7561V18.9788H182.09V20.7561H180.169ZM180.169 29.0002V21.7405H182.09V29.0002H180.169ZM186.062 29.0002L183.136 21.7405H185.152L186.52 25.4456L186.916 26.6829C187.021 26.3684 187.087 26.1611 187.114 26.0608C187.178 25.8557 187.246 25.6506 187.319 25.4456L188.7 21.7405H190.676L187.791 29.0002H186.062ZM193.294 23.9553L191.551 23.6409C191.747 22.939 192.084 22.4195 192.562 22.0823C193.041 21.745 193.752 21.5764 194.695 21.5764C195.552 21.5764 196.19 21.679 196.609 21.884C197.029 22.0846 197.323 22.342 197.491 22.6565C197.664 22.9664 197.751 23.5383 197.751 24.3723L197.73 26.6145C197.73 27.2525 197.76 27.7242 197.819 28.0295C197.883 28.3303 197.999 28.6539 198.168 29.0002H196.268C196.217 28.8726 196.156 28.6835 196.083 28.4329C196.051 28.3189 196.028 28.2437 196.015 28.2073C195.687 28.5263 195.336 28.7655 194.962 28.925C194.588 29.0846 194.189 29.1643 193.766 29.1643C193.018 29.1643 192.428 28.9615 191.995 28.5559C191.567 28.1503 191.353 27.6376 191.353 27.0178C191.353 26.6077 191.451 26.2431 191.646 25.9241C191.842 25.6005 192.116 25.3544 192.467 25.1858C192.822 25.0126 193.333 24.8622 193.998 24.7346C194.896 24.566 195.518 24.4088 195.864 24.2629V24.0715C195.864 23.7024 195.773 23.4403 195.591 23.2854C195.409 23.1259 195.064 23.0461 194.559 23.0461C194.217 23.0461 193.95 23.1145 193.759 23.2512C193.567 23.3834 193.412 23.6181 193.294 23.9553ZM195.864 25.5139C195.618 25.5959 195.229 25.6939 194.695 25.8079C194.162 25.9218 193.813 26.0334 193.649 26.1428C193.399 26.3206 193.273 26.5461 193.273 26.8196C193.273 27.0885 193.374 27.3209 193.574 27.5168C193.775 27.7128 194.03 27.8108 194.34 27.8108C194.686 27.8108 195.017 27.6969 195.331 27.469C195.563 27.2958 195.716 27.0839 195.789 26.8333C195.839 26.6692 195.864 26.357 195.864 25.8967V25.5139ZM199.651 29.0002V18.9788H201.572V29.0002H199.651ZM209.283 29.0002H207.362V21.7405H209.146V22.7727C209.452 22.2851 209.725 21.9638 209.967 21.8088C210.213 21.6539 210.491 21.5764 210.801 21.5764C211.238 21.5764 211.66 21.6972 212.065 21.9387L211.471 23.6135C211.147 23.4039 210.846 23.2991 210.568 23.2991C210.299 23.2991 210.072 23.3743 209.885 23.5247C209.698 23.6705 209.55 23.9371 209.44 24.3245C209.336 24.7118 209.283 25.523 209.283 26.7581V29.0002ZM214.335 23.9553L212.592 23.6409C212.788 22.939 213.125 22.4195 213.604 22.0823C214.082 21.745 214.793 21.5764 215.736 21.5764C216.593 21.5764 217.231 21.679 217.65 21.884C218.07 22.0846 218.364 22.342 218.532 22.6565C218.705 22.9664 218.792 23.5383 218.792 24.3723L218.771 26.6145C218.771 27.2525 218.801 27.7242 218.86 28.0295C218.924 28.3303 219.04 28.6539 219.209 29.0002H217.309C217.258 28.8726 217.197 28.6835 217.124 28.4329C217.092 28.3189 217.069 28.2437 217.056 28.2073C216.728 28.5263 216.377 28.7655 216.003 28.925C215.629 29.0846 215.23 29.1643 214.807 29.1643C214.059 29.1643 213.469 28.9615 213.036 28.5559C212.608 28.1503 212.394 27.6376 212.394 27.0178C212.394 26.6077 212.492 26.2431 212.688 25.9241C212.883 25.6005 213.157 25.3544 213.508 25.1858C213.863 25.0126 214.374 24.8622 215.039 24.7346C215.937 24.566 216.559 24.4088 216.905 24.2629V24.0715C216.905 23.7024 216.814 23.4403 216.632 23.2854C216.45 23.1259 216.105 23.0461 215.6 23.0461C215.258 23.0461 214.991 23.1145 214.8 23.2512C214.608 23.3834 214.453 23.6181 214.335 23.9553ZM216.905 25.5139C216.659 25.5959 216.27 25.6939 215.736 25.8079C215.203 25.9218 214.854 26.0334 214.69 26.1428C214.44 26.3206 214.314 26.5461 214.314 26.8196C214.314 27.0885 214.415 27.3209 214.615 27.5168C214.816 27.7128 215.071 27.8108 215.381 27.8108C215.727 27.8108 216.058 27.6969 216.372 27.469C216.604 27.2958 216.757 27.0839 216.83 26.8333C216.88 26.6692 216.905 26.357 216.905 25.8967V25.5139ZM224.021 21.7405V23.2717H222.709V26.1975C222.709 26.79 222.72 27.1363 222.743 27.2366C222.771 27.3323 222.827 27.412 222.914 27.4758C223.005 27.5396 223.115 27.5715 223.242 27.5715C223.42 27.5715 223.677 27.51 224.015 27.387L224.179 28.8772C223.732 29.0686 223.226 29.1643 222.661 29.1643C222.315 29.1643 222.003 29.1073 221.725 28.9934C221.447 28.8749 221.242 28.7245 221.109 28.5422C220.982 28.3554 220.893 28.1047 220.843 27.7903C220.802 27.567 220.781 27.1158 220.781 26.4368V23.2717H219.899V21.7405H220.781V20.2981L222.709 19.177V21.7405H224.021ZM229.559 26.6897L231.473 27.011C231.227 27.7128 230.837 28.2483 230.304 28.6174C229.775 28.982 229.112 29.1643 228.314 29.1643C227.052 29.1643 226.118 28.7519 225.512 27.927C225.033 27.2662 224.794 26.4322 224.794 25.425C224.794 24.2219 225.108 23.2808 225.737 22.6018C226.366 21.9182 227.161 21.5764 228.123 21.5764C229.203 21.5764 230.055 21.9342 230.68 22.6497C231.304 23.3606 231.603 24.4521 231.575 25.9241H226.763C226.776 26.4937 226.931 26.9381 227.228 27.2571C227.524 27.5715 227.893 27.7288 228.335 27.7288C228.636 27.7288 228.889 27.6467 229.094 27.4827C229.299 27.3186 229.454 27.0543 229.559 26.6897ZM229.668 24.7483C229.654 24.1923 229.511 23.7708 229.237 23.4836C228.964 23.192 228.631 23.0461 228.239 23.0461C227.82 23.0461 227.474 23.1988 227.2 23.5042C226.927 23.8095 226.792 24.2242 226.797 24.7483H229.668ZM236.6 25.2678C236.6 24.6298 236.757 24.0123 237.071 23.4153C237.386 22.8183 237.83 22.3625 238.404 22.0481C238.983 21.7336 239.628 21.5764 240.339 21.5764C241.437 21.5764 242.337 21.9342 243.039 22.6497C243.741 23.3606 244.092 24.2607 244.092 25.3499C244.092 26.4482 243.736 27.3596 243.025 28.0842C242.319 28.8043 241.428 29.1643 240.353 29.1643C239.687 29.1643 239.051 29.0139 238.445 28.7131C237.844 28.4124 237.386 27.9726 237.071 27.3938C236.757 26.8105 236.6 26.1018 236.6 25.2678ZM238.568 25.3704C238.568 26.0904 238.739 26.6418 239.081 27.0247C239.423 27.4075 239.844 27.5989 240.346 27.5989C240.847 27.5989 241.266 27.4075 241.604 27.0247C241.945 26.6418 242.116 26.0859 242.116 25.3567C242.116 24.6458 241.945 24.0989 241.604 23.7161C241.266 23.3333 240.847 23.1418 240.346 23.1418C239.844 23.1418 239.423 23.3333 239.081 23.7161C238.739 24.0989 238.568 24.6503 238.568 25.3704ZM244.762 21.7405H245.828V21.1936C245.828 20.5829 245.892 20.1272 246.02 19.8264C246.152 19.5256 246.391 19.2818 246.737 19.095C247.088 18.9036 247.53 18.8079 248.063 18.8079C248.61 18.8079 249.146 18.8899 249.67 19.054L249.41 20.3938C249.105 20.3209 248.811 20.2844 248.528 20.2844C248.25 20.2844 248.05 20.3505 247.927 20.4827C247.808 20.6103 247.749 20.8586 247.749 21.2278V21.7405H249.185V23.2512H247.749V29.0002H245.828V23.2512H244.762V21.7405ZM83.3584 51.0002L81.0615 43.7405H82.9277L84.2881 48.4983L85.5391 43.7405H87.3916L88.6016 48.4983L89.9893 43.7405H91.8828L89.5518 51.0002H87.7061L86.4551 46.3313L85.2246 51.0002H83.3584ZM92.457 47.2678C92.457 46.6298 92.6143 46.0123 92.9287 45.4153C93.2432 44.8183 93.6875 44.3625 94.2617 44.0481C94.8405 43.7336 95.4854 43.5764 96.1963 43.5764C97.2946 43.5764 98.1947 43.9342 98.8965 44.6497C99.5983 45.3606 99.9492 46.2607 99.9492 47.3499C99.9492 48.4482 99.5938 49.3596 98.8828 50.0842C98.1764 50.8043 97.2855 51.1643 96.21 51.1643C95.5446 51.1643 94.9089 51.0139 94.3027 50.7131C93.7012 50.4124 93.2432 49.9726 92.9287 49.3938C92.6143 48.8105 92.457 48.1018 92.457 47.2678ZM94.4258 47.3704C94.4258 48.0904 94.5967 48.6418 94.9385 49.0247C95.2803 49.4075 95.7018 49.5989 96.2031 49.5989C96.7044 49.5989 97.1237 49.4075 97.4609 49.0247C97.8027 48.6418 97.9736 48.0859 97.9736 47.3567C97.9736 46.6458 97.8027 46.0989 97.4609 45.7161C97.1237 45.3333 96.7044 45.1418 96.2031 45.1418C95.7018 45.1418 95.2803 45.3333 94.9385 45.7161C94.5967 46.0989 94.4258 46.6503 94.4258 47.3704ZM106.238 51.0002V49.9133C105.974 50.3007 105.625 50.606 105.192 50.8293C104.764 51.0527 104.311 51.1643 103.832 51.1643C103.344 51.1643 102.907 51.0572 102.52 50.843C102.132 50.6288 101.852 50.328 101.679 49.9407C101.506 49.5533 101.419 49.0178 101.419 48.3342V43.7405H103.34V47.0764C103.34 48.0972 103.374 48.7239 103.442 48.9563C103.515 49.1842 103.645 49.3665 103.832 49.5032C104.019 49.6353 104.256 49.7014 104.543 49.7014C104.871 49.7014 105.165 49.6125 105.425 49.4348C105.685 49.2525 105.862 49.0292 105.958 48.7649C106.054 48.496 106.102 47.842 106.102 46.803V43.7405H108.022V51.0002H106.238ZM116.622 51.0002H114.701V47.2952C114.701 46.5113 114.66 46.0055 114.578 45.7776C114.496 45.5452 114.362 45.3652 114.175 45.2375C113.993 45.1099 113.771 45.0461 113.512 45.0461C113.179 45.0461 112.881 45.1373 112.616 45.3196C112.352 45.5019 112.17 45.7434 112.069 46.0442C111.974 46.345 111.926 46.901 111.926 47.7122V51.0002H110.005V43.7405H111.789V44.8069C112.423 43.9866 113.22 43.5764 114.182 43.5764C114.605 43.5764 114.993 43.6539 115.344 43.8088C115.695 43.9592 115.959 44.1529 116.137 44.3899C116.319 44.6269 116.444 44.8958 116.513 45.1965C116.586 45.4973 116.622 45.928 116.622 46.4885V51.0002ZM125.235 51.0002H123.451V49.9338C123.155 50.3486 122.804 50.6584 122.398 50.8635C121.997 51.064 121.592 51.1643 121.182 51.1643C120.348 51.1643 119.632 50.8293 119.035 50.1594C118.443 49.4849 118.146 48.5461 118.146 47.343C118.146 46.1125 118.436 45.1783 119.015 44.5403C119.593 43.8977 120.325 43.5764 121.209 43.5764C122.02 43.5764 122.722 43.9137 123.314 44.5881V40.9788H125.235V51.0002ZM120.108 47.2131C120.108 47.9879 120.215 48.5484 120.43 48.8948C120.74 49.3961 121.173 49.6467 121.729 49.6467C122.171 49.6467 122.547 49.4599 122.856 49.0862C123.166 48.7079 123.321 48.1451 123.321 47.3977C123.321 46.5637 123.171 45.9644 122.87 45.5999C122.569 45.2307 122.184 45.0461 121.715 45.0461C121.259 45.0461 120.876 45.2284 120.566 45.593C120.261 45.953 120.108 46.4931 120.108 47.2131ZM131.34 48.6897L133.254 49.011C133.008 49.7128 132.618 50.2483 132.085 50.6174C131.556 50.982 130.893 51.1643 130.096 51.1643C128.833 51.1643 127.899 50.7519 127.293 49.927C126.814 49.2662 126.575 48.4322 126.575 47.425C126.575 46.2219 126.89 45.2808 127.519 44.6018C128.147 43.9182 128.943 43.5764 129.904 43.5764C130.984 43.5764 131.837 43.9342 132.461 44.6497C133.085 45.3606 133.384 46.4521 133.356 47.9241H128.544C128.558 48.4937 128.713 48.9381 129.009 49.2571C129.305 49.5715 129.674 49.7288 130.116 49.7288C130.417 49.7288 130.67 49.6467 130.875 49.4827C131.08 49.3186 131.235 49.0543 131.34 48.6897ZM131.449 46.7483C131.436 46.1923 131.292 45.7708 131.019 45.4836C130.745 45.192 130.412 45.0461 130.021 45.0461C129.601 45.0461 129.255 45.1988 128.981 45.5042C128.708 45.8095 128.574 46.2242 128.578 46.7483H131.449ZM141.587 51.0002H139.803V49.9338C139.507 50.3486 139.156 50.6584 138.75 50.8635C138.349 51.064 137.943 51.1643 137.533 51.1643C136.699 51.1643 135.984 50.8293 135.387 50.1594C134.794 49.4849 134.498 48.5461 134.498 47.343C134.498 46.1125 134.787 45.1783 135.366 44.5403C135.945 43.8977 136.676 43.5764 137.561 43.5764C138.372 43.5764 139.074 43.9137 139.666 44.5881V40.9788H141.587V51.0002ZM136.46 47.2131C136.46 47.9879 136.567 48.5484 136.781 48.8948C137.091 49.3961 137.524 49.6467 138.08 49.6467C138.522 49.6467 138.898 49.4599 139.208 49.0862C139.518 48.7079 139.673 48.1451 139.673 47.3977C139.673 46.5637 139.522 45.9644 139.222 45.5999C138.921 45.2307 138.536 45.0461 138.066 45.0461C137.611 45.0461 137.228 45.2284 136.918 45.593C136.613 45.953 136.46 46.4931 136.46 47.2131ZM146.707 48.929L148.635 48.635C148.717 49.0087 148.883 49.2935 149.134 49.4895C149.384 49.6809 149.735 49.7766 150.187 49.7766C150.683 49.7766 151.057 49.6855 151.308 49.5032C151.476 49.3756 151.561 49.2047 151.561 48.9905C151.561 48.8446 151.515 48.7239 151.424 48.6282C151.328 48.537 151.114 48.4527 150.781 48.3752C149.232 48.0334 148.25 47.7213 147.835 47.4387C147.261 47.0468 146.974 46.5022 146.974 45.8049C146.974 45.176 147.222 44.6474 147.719 44.219C148.215 43.7906 148.986 43.5764 150.029 43.5764C151.023 43.5764 151.761 43.7382 152.244 44.0618C152.727 44.3853 153.06 44.8639 153.242 45.4973L151.431 45.8323C151.353 45.5497 151.205 45.3333 150.986 45.1829C150.772 45.0325 150.465 44.9573 150.063 44.9573C149.558 44.9573 149.195 45.0279 148.977 45.1692C148.831 45.2694 148.758 45.3993 148.758 45.5588C148.758 45.6956 148.822 45.8118 148.949 45.9075C149.122 46.0351 149.719 46.2151 150.74 46.4475C151.766 46.6799 152.481 46.9648 152.887 47.302C153.288 47.6438 153.488 48.12 153.488 48.7307C153.488 49.3961 153.21 49.968 152.654 50.4465C152.098 50.925 151.276 51.1643 150.187 51.1643C149.198 51.1643 148.414 50.9638 147.835 50.5627C147.261 50.1617 146.885 49.6171 146.707 48.929ZM154.732 47.2678C154.732 46.6298 154.89 46.0123 155.204 45.4153C155.519 44.8183 155.963 44.3625 156.537 44.0481C157.116 43.7336 157.761 43.5764 158.472 43.5764C159.57 43.5764 160.47 43.9342 161.172 44.6497C161.874 45.3606 162.225 46.2607 162.225 47.3499C162.225 48.4482 161.869 49.3596 161.158 50.0842C160.452 50.8043 159.561 51.1643 158.485 51.1643C157.82 51.1643 157.184 51.0139 156.578 50.7131C155.977 50.4124 155.519 49.9726 155.204 49.3938C154.89 48.8105 154.732 48.1018 154.732 47.2678ZM156.701 47.3704C156.701 48.0904 156.872 48.6418 157.214 49.0247C157.556 49.4075 157.977 49.5989 158.479 49.5989C158.98 49.5989 159.399 49.4075 159.736 49.0247C160.078 48.6418 160.249 48.0859 160.249 47.3567C160.249 46.6458 160.078 46.0989 159.736 45.7161C159.399 45.3333 158.98 45.1418 158.479 45.1418C157.977 45.1418 157.556 45.3333 157.214 45.7161C156.872 46.0989 156.701 46.6503 156.701 47.3704ZM163.735 51.0002V40.9788H165.656V51.0002H163.735ZM174.29 51.0002H172.506V49.9338C172.21 50.3486 171.859 50.6584 171.453 50.8635C171.052 51.064 170.646 51.1643 170.236 51.1643C169.402 51.1643 168.687 50.8293 168.09 50.1594C167.497 49.4849 167.201 48.5461 167.201 47.343C167.201 46.1125 167.491 45.1783 168.069 44.5403C168.648 43.8977 169.38 43.5764 170.264 43.5764C171.075 43.5764 171.777 43.9137 172.369 44.5881V40.9788H174.29V51.0002ZM169.163 47.2131C169.163 47.9879 169.27 48.5484 169.484 48.8948C169.794 49.3961 170.227 49.6467 170.783 49.6467C171.225 49.6467 171.601 49.4599 171.911 49.0862C172.221 48.7079 172.376 48.1451 172.376 47.3977C172.376 46.5637 172.226 45.9644 171.925 45.5999C171.624 45.2307 171.239 45.0461 170.77 45.0461C170.314 45.0461 169.931 45.2284 169.621 45.593C169.316 45.953 169.163 46.4931 169.163 47.2131ZM176.19 42.7561V40.9788H178.111V42.7561H176.19ZM176.19 51.0002V43.7405H178.111V51.0002H176.19ZM184.291 48.6897L186.205 49.011C185.959 49.7128 185.569 50.2483 185.036 50.6174C184.507 50.982 183.844 51.1643 183.047 51.1643C181.785 51.1643 180.85 50.7519 180.244 49.927C179.766 49.2662 179.526 48.4322 179.526 47.425C179.526 46.2219 179.841 45.2808 180.47 44.6018C181.099 43.9182 181.894 43.5764 182.855 43.5764C183.936 43.5764 184.788 43.9342 185.412 44.6497C186.036 45.3606 186.335 46.4521 186.308 47.9241H181.495C181.509 48.4937 181.664 48.9381 181.96 49.2571C182.256 49.5715 182.625 49.7288 183.067 49.7288C183.368 49.7288 183.621 49.6467 183.826 49.4827C184.031 49.3186 184.186 49.0543 184.291 48.6897ZM184.4 46.7483C184.387 46.1923 184.243 45.7708 183.97 45.4836C183.696 45.192 183.364 45.0461 182.972 45.0461C182.552 45.0461 182.206 45.1988 181.933 45.5042C181.659 45.8095 181.525 46.2242 181.529 46.7483H184.4ZM189.719 51.0002H187.798V43.7405H189.582V44.7727C189.887 44.2851 190.161 43.9638 190.402 43.8088C190.648 43.6539 190.926 43.5764 191.236 43.5764C191.674 43.5764 192.095 43.6972 192.501 43.9387L191.906 45.6135C191.583 45.4039 191.282 45.2991 191.004 45.2991C190.735 45.2991 190.507 45.3743 190.32 45.5247C190.133 45.6705 189.985 45.9371 189.876 46.3245C189.771 46.7118 189.719 47.523 189.719 48.7581V51.0002ZM192.658 48.929L194.586 48.635C194.668 49.0087 194.834 49.2935 195.085 49.4895C195.336 49.6809 195.687 49.7766 196.138 49.7766C196.634 49.7766 197.008 49.6855 197.259 49.5032C197.427 49.3756 197.512 49.2047 197.512 48.9905C197.512 48.8446 197.466 48.7239 197.375 48.6282C197.279 48.537 197.065 48.4527 196.732 48.3752C195.183 48.0334 194.201 47.7213 193.786 47.4387C193.212 47.0468 192.925 46.5022 192.925 45.8049C192.925 45.176 193.173 44.6474 193.67 44.219C194.167 43.7906 194.937 43.5764 195.98 43.5764C196.974 43.5764 197.712 43.7382 198.195 44.0618C198.678 44.3853 199.011 44.8639 199.193 45.4973L197.382 45.8323C197.304 45.5497 197.156 45.3333 196.938 45.1829C196.723 45.0325 196.416 44.9573 196.015 44.9573C195.509 44.9573 195.146 45.0279 194.928 45.1692C194.782 45.2694 194.709 45.3993 194.709 45.5588C194.709 45.6956 194.773 45.8118 194.9 45.9075C195.074 46.0351 195.671 46.2151 196.691 46.4475C197.717 46.6799 198.432 46.9648 198.838 47.302C199.239 47.6438 199.439 48.12 199.439 48.7307C199.439 49.3961 199.161 49.968 198.605 50.4465C198.049 50.925 197.227 51.1643 196.138 51.1643C195.149 51.1643 194.365 50.9638 193.786 50.5627C193.212 50.1617 192.836 49.6171 192.658 48.929ZM204.942 51.0002V40.9788H206.863V44.5881C207.456 43.9137 208.158 43.5764 208.969 43.5764C209.853 43.5764 210.584 43.8977 211.163 44.5403C211.742 45.1783 212.031 46.0966 212.031 47.2952C212.031 48.5347 211.735 49.4895 211.143 50.1594C210.555 50.8293 209.839 51.1643 208.996 51.1643C208.581 51.1643 208.171 51.0618 207.766 50.8567C207.365 50.6471 207.018 50.3394 206.727 49.9338V51.0002H204.942ZM206.85 47.2131C206.85 47.9651 206.968 48.5211 207.205 48.8811C207.538 49.3915 207.98 49.6467 208.531 49.6467C208.955 49.6467 209.315 49.4667 209.611 49.1067C209.912 48.7421 210.062 48.1702 210.062 47.3909C210.062 46.5614 209.912 45.9644 209.611 45.5999C209.311 45.2307 208.925 45.0461 208.456 45.0461C207.996 45.0461 207.613 45.2262 207.308 45.5862C207.002 45.9417 206.85 46.484 206.85 47.2131ZM212.674 43.7405H214.718L216.454 48.8948L218.149 43.7405H220.139L217.575 50.7268L217.117 51.9915C216.949 52.4153 216.787 52.7389 216.632 52.9622C216.481 53.1855 216.306 53.3655 216.105 53.5022C215.91 53.6435 215.666 53.7528 215.374 53.8303C215.087 53.9078 214.761 53.9465 214.396 53.9465C214.027 53.9465 213.665 53.9078 213.31 53.8303L213.139 52.3264C213.439 52.3857 213.711 52.4153 213.952 52.4153C214.399 52.4153 214.729 52.2831 214.943 52.0188C215.158 51.759 215.322 51.4264 215.436 51.0208L212.674 43.7405ZM224.89 48.4231L226.804 48.2249C226.858 48.6578 227.02 49.0019 227.289 49.2571C227.558 49.5077 227.868 49.6331 228.219 49.6331C228.62 49.6331 228.959 49.4713 229.237 49.1477C229.515 48.8196 229.654 48.3274 229.654 47.6711C229.654 47.0559 229.515 46.5956 229.237 46.2903C228.964 45.9804 228.606 45.8254 228.164 45.8254C227.613 45.8254 227.118 46.0693 226.681 46.5569L225.122 46.3313L226.106 41.1155H231.186V42.9133H227.562L227.262 44.6155C227.69 44.4013 228.128 44.2942 228.574 44.2942C229.426 44.2942 230.149 44.6041 230.741 45.2239C231.334 45.8437 231.63 46.648 231.63 47.637C231.63 48.4618 231.391 49.1978 230.912 49.845C230.26 50.7291 229.356 51.1711 228.198 51.1711C227.273 51.1711 226.519 50.9228 225.936 50.426C225.352 49.9293 225.004 49.2616 224.89 48.4231ZM240.291 43.7405V45.2717H238.979V48.1975C238.979 48.79 238.99 49.1363 239.013 49.2366C239.04 49.3323 239.097 49.412 239.184 49.4758C239.275 49.5396 239.384 49.5715 239.512 49.5715C239.689 49.5715 239.947 49.51 240.284 49.387L240.448 50.8772C240.002 51.0686 239.496 51.1643 238.931 51.1643C238.584 51.1643 238.272 51.1073 237.994 50.9934C237.716 50.8749 237.511 50.7245 237.379 50.5422C237.251 50.3554 237.162 50.1047 237.112 49.7903C237.071 49.567 237.051 49.1158 237.051 48.4368V45.2717H236.169V43.7405H237.051V42.2981L238.979 41.177V43.7405H240.291ZM241.624 42.7561V40.9788H243.545V42.7561H241.624ZM241.624 51.0002V43.7405H243.545V51.0002H241.624ZM245.377 43.7405H247.147V44.7317C247.781 43.9615 248.535 43.5764 249.41 43.5764C249.875 43.5764 250.278 43.6721 250.62 43.8635C250.962 44.0549 251.242 44.3443 251.461 44.7317C251.78 44.3443 252.124 44.0549 252.493 43.8635C252.862 43.6721 253.257 43.5764 253.676 43.5764C254.209 43.5764 254.66 43.6858 255.029 43.9045C255.398 44.1187 255.674 44.4355 255.856 44.8547C255.989 45.1646 256.055 45.6659 256.055 46.3586V51.0002H254.134V46.8508C254.134 46.1308 254.068 45.6659 253.936 45.4563C253.758 45.1829 253.484 45.0461 253.115 45.0461C252.846 45.0461 252.593 45.1282 252.356 45.2922C252.119 45.4563 251.949 45.6978 251.844 46.0168C251.739 46.3313 251.687 46.8303 251.687 47.5139V51.0002H249.766V47.0217C249.766 46.3153 249.731 45.8596 249.663 45.6545C249.595 45.4495 249.488 45.2968 249.342 45.1965C249.201 45.0963 249.007 45.0461 248.761 45.0461C248.465 45.0461 248.198 45.1259 247.961 45.2854C247.724 45.4449 247.553 45.675 247.448 45.9758C247.348 46.2766 247.298 46.7756 247.298 47.4729V51.0002H245.377V43.7405ZM262.18 48.6897L264.094 49.011C263.848 49.7128 263.458 50.2483 262.925 50.6174C262.396 50.982 261.733 51.1643 260.936 51.1643C259.673 51.1643 258.739 50.7519 258.133 49.927C257.654 49.2662 257.415 48.4322 257.415 47.425C257.415 46.2219 257.729 45.2808 258.358 44.6018C258.987 43.9182 259.783 43.5764 260.744 43.5764C261.824 43.5764 262.676 43.9342 263.301 44.6497C263.925 45.3606 264.224 46.4521 264.196 47.9241H259.384C259.397 48.4937 259.552 48.9381 259.849 49.2571C260.145 49.5715 260.514 49.7288 260.956 49.7288C261.257 49.7288 261.51 49.6467 261.715 49.4827C261.92 49.3186 262.075 49.0543 262.18 48.6897ZM262.289 46.7483C262.275 46.1923 262.132 45.7708 261.858 45.4836C261.585 45.192 261.252 45.0461 260.86 45.0461C260.441 45.0461 260.095 45.1988 259.821 45.5042C259.548 45.8095 259.413 46.2242 259.418 46.7483H262.289ZM265.092 48.929L267.02 48.635C267.102 49.0087 267.268 49.2935 267.519 49.4895C267.769 49.6809 268.12 49.7766 268.571 49.7766C269.068 49.7766 269.442 49.6855 269.692 49.5032C269.861 49.3756 269.945 49.2047 269.945 48.9905C269.945 48.8446 269.9 48.7239 269.809 48.6282C269.713 48.537 269.499 48.4527 269.166 48.3752C267.617 48.0334 266.634 47.7213 266.22 47.4387C265.646 47.0468 265.358 46.5022 265.358 45.8049C265.358 45.176 265.607 44.6474 266.104 44.219C266.6 43.7906 267.37 43.5764 268.414 43.5764C269.408 43.5764 270.146 43.7382 270.629 44.0618C271.112 44.3853 271.445 44.8639 271.627 45.4973L269.815 45.8323C269.738 45.5497 269.59 45.3333 269.371 45.1829C269.157 45.0325 268.849 44.9573 268.448 44.9573C267.942 44.9573 267.58 45.0279 267.361 45.1692C267.215 45.2694 267.143 45.3993 267.143 45.5588C267.143 45.6956 267.206 45.8118 267.334 45.9075C267.507 46.0351 268.104 46.2151 269.125 46.4475C270.15 46.6799 270.866 46.9648 271.271 47.302C271.673 47.6438 271.873 48.12 271.873 48.7307C271.873 49.3961 271.595 49.968 271.039 50.4465C270.483 50.925 269.66 51.1643 268.571 51.1643C267.582 51.1643 266.799 50.9638 266.22 50.5627C265.646 50.1617 265.27 49.6171 265.092 48.929Z" fill="black"/>
<path d="M59.7422 49.0002H54.2539V28.3167C52.2487 30.1917 49.8854 31.5784 47.1641 32.4768V27.4963C48.5964 27.0276 50.1523 26.1422 51.832 24.8401C53.5117 23.525 54.6641 21.995 55.2891 20.2502H59.7422V49.0002Z" fill="#6C725F"/>
</svg>
