<svg width="304" height="70" viewBox="0 0 304 70" fill="none" xmlns="http://www.w3.org/2000/svg">
<path d="M0 20.0002C0 8.95455 8.9543 0.000244141 20 0.000244141H239.799C243.101 0.000244141 246.352 0.81799 249.262 2.38047L277.192 17.3805C291.241 24.9259 291.241 45.0746 277.192 52.62L249.262 67.62C246.352 69.1825 243.101 70.0002 239.799 70.0002H20C8.9543 70.0002 0 61.0459 0 50.0002V20.0002Z" fill="#333333"/>
<path d="M66.0049 17.9788H68.0283V23.4065C68.0283 24.2678 68.0534 24.8261 68.1035 25.0813C68.1901 25.4915 68.3952 25.8219 68.7188 26.0725C69.0469 26.3186 69.4935 26.4417 70.0586 26.4417C70.6328 26.4417 71.0658 26.3254 71.3574 26.093C71.6491 25.856 71.8245 25.5667 71.8838 25.2249C71.943 24.8831 71.9727 24.3157 71.9727 23.5227V17.9788H73.9961V23.2424C73.9961 24.4456 73.9414 25.2955 73.832 25.7922C73.7227 26.289 73.5199 26.7083 73.2236 27.05C72.932 27.3918 72.54 27.6653 72.0479 27.8704C71.5557 28.0709 70.9131 28.1711 70.1201 28.1711C69.1631 28.1711 68.4362 28.0618 67.9395 27.843C67.4473 27.6197 67.0576 27.3326 66.7705 26.9817C66.4834 26.6262 66.2943 26.2548 66.2031 25.8674C66.071 25.2932 66.0049 24.4456 66.0049 23.3245V17.9788ZM75.4453 25.929L77.373 25.635C77.4551 26.0087 77.6214 26.2935 77.8721 26.4895C78.1227 26.6809 78.4736 26.7766 78.9248 26.7766C79.4215 26.7766 79.7952 26.6855 80.0459 26.5032C80.2145 26.3756 80.2988 26.2047 80.2988 25.9905C80.2988 25.8446 80.2533 25.7239 80.1621 25.6282C80.0664 25.537 79.8522 25.4527 79.5195 25.3752C77.9701 25.0334 76.988 24.7213 76.5732 24.4387C75.999 24.0468 75.7119 23.5022 75.7119 22.8049C75.7119 22.176 75.9603 21.6474 76.457 21.219C76.9538 20.7906 77.724 20.5764 78.7676 20.5764C79.7611 20.5764 80.4993 20.7382 80.9824 21.0618C81.4655 21.3853 81.7982 21.8639 81.9805 22.4973L80.1689 22.8323C80.0915 22.5497 79.9434 22.3333 79.7246 22.1829C79.5104 22.0325 79.2028 21.9573 78.8018 21.9573C78.2959 21.9573 77.9336 22.0279 77.7148 22.1692C77.569 22.2694 77.4961 22.3993 77.4961 22.5588C77.4961 22.6956 77.5599 22.8118 77.6875 22.9075C77.8607 23.0351 78.4577 23.2151 79.4785 23.4475C80.5039 23.6799 81.2194 23.9648 81.625 24.302C82.026 24.6438 82.2266 25.12 82.2266 25.7307C82.2266 26.3961 81.9486 26.968 81.3926 27.4465C80.8366 27.925 80.014 28.1643 78.9248 28.1643C77.9359 28.1643 77.152 27.9638 76.5732 27.5627C75.999 27.1617 75.623 26.6171 75.4453 25.929ZM88.1191 25.6897L90.0332 26.011C89.7871 26.7128 89.3975 27.2483 88.8643 27.6174C88.3356 27.982 87.6725 28.1643 86.875 28.1643C85.6126 28.1643 84.6784 27.7519 84.0723 26.927C83.5938 26.2662 83.3545 25.4322 83.3545 24.425C83.3545 23.2219 83.6689 22.2808 84.2979 21.6018C84.9268 20.9182 85.722 20.5764 86.6836 20.5764C87.7637 20.5764 88.6159 20.9342 89.2402 21.6497C89.8646 22.3606 90.1631 23.4521 90.1357 24.9241H85.3232C85.3369 25.4937 85.4919 25.9381 85.7881 26.2571C86.0843 26.5715 86.4535 26.7288 86.8955 26.7288C87.1963 26.7288 87.4492 26.6467 87.6543 26.4827C87.8594 26.3186 88.0143 26.0543 88.1191 25.6897ZM88.2285 23.7483C88.2148 23.1923 88.0713 22.7708 87.7979 22.4836C87.5244 22.192 87.1917 22.0461 86.7998 22.0461C86.3805 22.0461 86.0342 22.1988 85.7607 22.5042C85.4873 22.8095 85.3529 23.2242 85.3574 23.7483H88.2285ZM98.3662 28.0002H96.582V26.9338C96.2858 27.3486 95.9349 27.6584 95.5293 27.8635C95.1283 28.064 94.7227 28.1643 94.3125 28.1643C93.4785 28.1643 92.763 27.8293 92.166 27.1594C91.5736 26.4849 91.2773 25.5461 91.2773 24.343C91.2773 23.1125 91.5667 22.1783 92.1455 21.5403C92.7243 20.8977 93.4557 20.5764 94.3398 20.5764C95.151 20.5764 95.8529 20.9137 96.4453 21.5881V17.9788H98.3662V28.0002ZM93.2393 24.2131C93.2393 24.9879 93.3464 25.5484 93.5605 25.8948C93.8704 26.3961 94.3034 26.6467 94.8594 26.6467C95.3014 26.6467 95.6774 26.4599 95.9873 26.0862C96.2972 25.7079 96.4521 25.1451 96.4521 24.3977C96.4521 23.5637 96.3018 22.9644 96.001 22.5999C95.7002 22.2307 95.3151 22.0461 94.8457 22.0461C94.39 22.0461 94.0072 22.2284 93.6973 22.593C93.3919 22.953 93.2393 23.4931 93.2393 24.2131ZM104.081 28.0002V17.9788H106.002V21.5881C106.594 20.9137 107.296 20.5764 108.107 20.5764C108.992 20.5764 109.723 20.8977 110.302 21.5403C110.881 22.1783 111.17 23.0966 111.17 24.2952C111.17 25.5347 110.874 26.4895 110.281 27.1594C109.693 27.8293 108.978 28.1643 108.135 28.1643C107.72 28.1643 107.31 28.0618 106.904 27.8567C106.503 27.6471 106.157 27.3394 105.865 26.9338V28.0002H104.081ZM105.988 24.2131C105.988 24.9651 106.107 25.5211 106.344 25.8811C106.676 26.3915 107.118 26.6467 107.67 26.6467C108.094 26.6467 108.454 26.4667 108.75 26.1067C109.051 25.7421 109.201 25.1702 109.201 24.3909C109.201 23.5614 109.051 22.9644 108.75 22.5999C108.449 22.2307 108.064 22.0461 107.595 22.0461C107.134 22.0461 106.752 22.2262 106.446 22.5862C106.141 22.9417 105.988 23.484 105.988 24.2131ZM111.812 20.7405H113.856L115.593 25.8948L117.288 20.7405H119.277L116.714 27.7268L116.256 28.9915C116.087 29.4153 115.925 29.7389 115.771 29.9622C115.62 30.1855 115.445 30.3655 115.244 30.5022C115.048 30.6435 114.804 30.7528 114.513 30.8303C114.226 30.9078 113.9 30.9465 113.535 30.9465C113.166 30.9465 112.804 30.9078 112.448 30.8303L112.277 29.3264C112.578 29.3857 112.849 29.4153 113.091 29.4153C113.537 29.4153 113.868 29.2831 114.082 29.0188C114.296 28.759 114.46 28.4264 114.574 28.0208L111.812 20.7405ZM127.74 20.7405V22.2717H126.428V25.1975C126.428 25.79 126.439 26.1363 126.462 26.2366C126.489 26.3323 126.546 26.412 126.633 26.4758C126.724 26.5396 126.833 26.5715 126.961 26.5715C127.139 26.5715 127.396 26.51 127.733 26.387L127.897 27.8772C127.451 28.0686 126.945 28.1643 126.38 28.1643C126.034 28.1643 125.721 28.1073 125.443 27.9934C125.165 27.8749 124.96 27.7245 124.828 27.5422C124.701 27.3554 124.612 27.1047 124.562 26.7903C124.521 26.567 124.5 26.1158 124.5 25.4368V22.2717H123.618V20.7405H124.5V19.2981L126.428 18.177V20.7405H127.74ZM130.987 17.9788V21.6633C131.607 20.9387 132.348 20.5764 133.209 20.5764C133.651 20.5764 134.05 20.6584 134.405 20.8225C134.761 20.9866 135.027 21.1962 135.205 21.4514C135.387 21.7066 135.51 21.9892 135.574 22.2991C135.643 22.609 135.677 23.0898 135.677 23.7415V28.0002H133.756V24.1653C133.756 23.4042 133.719 22.9211 133.646 22.7161C133.574 22.511 133.444 22.3492 133.257 22.2307C133.075 22.1077 132.844 22.0461 132.566 22.0461C132.247 22.0461 131.963 22.1236 131.712 22.2786C131.461 22.4335 131.277 22.6682 131.158 22.9827C131.044 23.2926 130.987 23.7528 130.987 24.3635V28.0002H129.066V17.9788H130.987ZM141.836 25.6897L143.75 26.011C143.504 26.7128 143.114 27.2483 142.581 27.6174C142.052 27.982 141.389 28.1643 140.592 28.1643C139.329 28.1643 138.395 27.7519 137.789 26.927C137.311 26.2662 137.071 25.4322 137.071 24.425C137.071 23.2219 137.386 22.2808 138.015 21.6018C138.644 20.9182 139.439 20.5764 140.4 20.5764C141.48 20.5764 142.333 20.9342 142.957 21.6497C143.581 22.3606 143.88 23.4521 143.853 24.9241H139.04C139.054 25.4937 139.209 25.9381 139.505 26.2571C139.801 26.5715 140.17 26.7288 140.612 26.7288C140.913 26.7288 141.166 26.6467 141.371 26.4827C141.576 26.3186 141.731 26.0543 141.836 25.6897ZM141.945 23.7483C141.932 23.1923 141.788 22.7708 141.515 22.4836C141.241 22.192 140.909 22.0461 140.517 22.0461C140.097 22.0461 139.751 22.1988 139.478 22.5042C139.204 22.8095 139.07 23.2242 139.074 23.7483H141.945ZM149.321 17.9788H151.345V23.4065C151.345 24.2678 151.37 24.8261 151.42 25.0813C151.507 25.4915 151.712 25.8219 152.035 26.0725C152.363 26.3186 152.81 26.4417 153.375 26.4417C153.949 26.4417 154.382 26.3254 154.674 26.093C154.965 25.856 155.141 25.5667 155.2 25.2249C155.259 24.8831 155.289 24.3157 155.289 23.5227V17.9788H157.312V23.2424C157.312 24.4456 157.258 25.2955 157.148 25.7922C157.039 26.289 156.836 26.7083 156.54 27.05C156.248 27.3918 155.856 27.6653 155.364 27.8704C154.872 28.0709 154.229 28.1711 153.437 28.1711C152.479 28.1711 151.753 28.0618 151.256 27.843C150.764 27.6197 150.374 27.3326 150.087 26.9817C149.8 26.6262 149.611 26.2548 149.52 25.8674C149.387 25.2932 149.321 24.4456 149.321 23.3245V17.9788ZM159.438 28.0002V26.0793H161.359V28.0002H159.438ZM162.836 24.7395L164.805 24.5481C164.923 25.2089 165.162 25.6943 165.522 26.0042C165.887 26.314 166.377 26.469 166.992 26.469C167.644 26.469 168.134 26.3323 168.462 26.0588C168.795 25.7808 168.961 25.4573 168.961 25.0881C168.961 24.8512 168.89 24.6506 168.749 24.4866C168.612 24.318 168.371 24.1721 168.024 24.0491C167.787 23.967 167.247 23.8212 166.404 23.6116C165.32 23.3427 164.559 23.0123 164.121 22.6204C163.506 22.0689 163.198 21.3967 163.198 20.6038C163.198 20.0933 163.342 19.6171 163.629 19.175C163.921 18.7284 164.338 18.3889 164.88 18.1565C165.427 17.9241 166.085 17.8079 166.855 17.8079C168.113 17.8079 169.059 18.0836 169.692 18.635C170.33 19.1864 170.665 19.9224 170.697 20.843L168.674 20.9319C168.587 20.4169 168.4 20.0478 168.113 19.8245C167.831 19.5966 167.405 19.4827 166.835 19.4827C166.247 19.4827 165.787 19.6034 165.454 19.845C165.24 19.9999 165.133 20.2073 165.133 20.467C165.133 20.704 165.233 20.9068 165.434 21.0754C165.689 21.2896 166.309 21.5129 167.293 21.7454C168.277 21.9778 169.004 22.2193 169.474 22.47C169.948 22.7161 170.317 23.0556 170.581 23.4885C170.85 23.9169 170.984 24.4478 170.984 25.0813C170.984 25.6555 170.825 26.1933 170.506 26.6946C170.187 27.1959 169.736 27.5696 169.152 27.8157C168.569 28.0572 167.842 28.178 166.972 28.178C165.705 28.178 164.732 27.8863 164.053 27.303C163.374 26.7151 162.968 25.8606 162.836 24.7395ZM172.673 28.0002V26.0793H174.594V28.0002H172.673ZM75.0557 50.0002H72.8545L71.9795 47.7239H67.9736L67.1465 50.0002H65L68.9033 39.9788H71.043L75.0557 50.0002ZM71.3301 46.0354L69.9492 42.3167L68.5957 46.0354H71.3301ZM77.9609 50.0002H76.04V42.7405H77.8242V43.7727C78.1296 43.2851 78.403 42.9638 78.6445 42.8088C78.8906 42.6539 79.1686 42.5764 79.4785 42.5764C79.916 42.5764 80.3376 42.6972 80.7432 42.9387L80.1484 44.6135C79.8249 44.4039 79.5241 44.2991 79.2461 44.2991C78.9772 44.2991 78.7493 44.3743 78.5625 44.5247C78.3757 44.6705 78.2275 44.9371 78.1182 45.3245C78.0133 45.7118 77.9609 46.523 77.9609 47.7581V50.0002ZM81.4336 42.7405H83.2041V43.7317C83.8376 42.9615 84.5918 42.5764 85.4668 42.5764C85.9316 42.5764 86.335 42.6721 86.6768 42.8635C87.0186 43.0549 87.2988 43.3443 87.5176 43.7317C87.8366 43.3443 88.1807 43.0549 88.5498 42.8635C88.9189 42.6721 89.3132 42.5764 89.7324 42.5764C90.2656 42.5764 90.7168 42.6858 91.0859 42.9045C91.4551 43.1187 91.7308 43.4355 91.9131 43.8547C92.0452 44.1646 92.1113 44.6659 92.1113 45.3586V50.0002H90.1904V45.8508C90.1904 45.1308 90.1243 44.6659 89.9922 44.4563C89.8145 44.1829 89.541 44.0461 89.1719 44.0461C88.903 44.0461 88.6501 44.1282 88.4131 44.2922C88.1761 44.4563 88.0052 44.6978 87.9004 45.0168C87.7956 45.3313 87.7432 45.8303 87.7432 46.5139V50.0002H85.8223V46.0217C85.8223 45.3153 85.7881 44.8596 85.7197 44.6545C85.6514 44.4495 85.5443 44.2968 85.3984 44.1965C85.2572 44.0963 85.0635 44.0461 84.8174 44.0461C84.5212 44.0461 84.2546 44.1259 84.0176 44.2854C83.7806 44.4449 83.6097 44.675 83.5049 44.9758C83.4046 45.2766 83.3545 45.7756 83.3545 46.4729V50.0002H81.4336V42.7405ZM93.123 42.7405H95.167L96.9033 47.8948L98.5986 42.7405H100.588L98.0244 49.7268L97.5664 50.9915C97.3978 51.4153 97.236 51.7389 97.0811 51.9622C96.9307 52.1855 96.7552 52.3655 96.5547 52.5022C96.3587 52.6435 96.1149 52.7528 95.8232 52.8303C95.5361 52.9078 95.2103 52.9465 94.8457 52.9465C94.4766 52.9465 94.1143 52.9078 93.7588 52.8303L93.5879 51.3264C93.8887 51.3857 94.1598 51.4153 94.4014 51.4153C94.848 51.4153 95.1784 51.2831 95.3926 51.0188C95.6068 50.759 95.7708 50.4264 95.8848 50.0208L93.123 42.7405ZM105.045 47.929L106.973 47.635C107.055 48.0087 107.221 48.2935 107.472 48.4895C107.722 48.6809 108.073 48.7766 108.524 48.7766C109.021 48.7766 109.395 48.6855 109.646 48.5032C109.814 48.3756 109.898 48.2047 109.898 47.9905C109.898 47.8446 109.853 47.7239 109.762 47.6282C109.666 47.537 109.452 47.4527 109.119 47.3752C107.57 47.0334 106.588 46.7213 106.173 46.4387C105.599 46.0468 105.312 45.5022 105.312 44.8049C105.312 44.176 105.56 43.6474 106.057 43.219C106.553 42.7906 107.324 42.5764 108.367 42.5764C109.361 42.5764 110.099 42.7382 110.582 43.0618C111.065 43.3853 111.398 43.8639 111.58 44.4973L109.769 44.8323C109.691 44.5497 109.543 44.3333 109.324 44.1829C109.11 44.0325 108.802 43.9573 108.401 43.9573C107.896 43.9573 107.533 44.0279 107.314 44.1692C107.169 44.2694 107.096 44.3993 107.096 44.5588C107.096 44.6956 107.16 44.8118 107.287 44.9075C107.46 45.0351 108.057 45.2151 109.078 45.4475C110.104 45.6799 110.819 45.9648 111.225 46.302C111.626 46.6438 111.826 47.12 111.826 47.7307C111.826 48.3961 111.548 48.968 110.992 49.4465C110.436 49.925 109.614 50.1643 108.524 50.1643C107.535 50.1643 106.752 49.9638 106.173 49.5627C105.599 49.1617 105.223 48.6171 105.045 47.929ZM113.515 41.7561V39.9788H115.436V41.7561H113.515ZM113.515 50.0002V42.7405H115.436V50.0002H113.515ZM124.015 50.0002H122.094V46.2952C122.094 45.5113 122.053 45.0055 121.971 44.7776C121.889 44.5452 121.754 44.3652 121.567 44.2375C121.385 44.1099 121.164 44.0461 120.904 44.0461C120.572 44.0461 120.273 44.1373 120.009 44.3196C119.744 44.5019 119.562 44.7434 119.462 45.0442C119.366 45.345 119.318 45.901 119.318 46.7122V50.0002H117.397V42.7405H119.182V43.8069C119.815 42.9866 120.613 42.5764 121.574 42.5764C121.998 42.5764 122.385 42.6539 122.736 42.8088C123.087 42.9592 123.352 43.1529 123.529 43.3899C123.712 43.6269 123.837 43.8958 123.905 44.1965C123.978 44.4973 124.015 44.928 124.015 45.4885V50.0002ZM132.3 44.887L130.406 45.2288C130.342 44.8505 130.197 44.5657 129.969 44.3743C129.745 44.1829 129.454 44.0872 129.094 44.0872C128.615 44.0872 128.232 44.2535 127.945 44.5862C127.663 44.9143 127.521 45.4657 127.521 46.2405C127.521 47.1018 127.665 47.7102 127.952 48.0657C128.244 48.4211 128.633 48.5989 129.121 48.5989C129.486 48.5989 129.784 48.4963 130.017 48.2913C130.249 48.0816 130.413 47.7239 130.509 47.218L132.396 47.5393C132.2 48.4052 131.824 49.0592 131.268 49.5012C130.712 49.9433 129.966 50.1643 129.032 50.1643C127.97 50.1643 127.123 49.8293 126.489 49.1594C125.86 48.4895 125.546 47.5621 125.546 46.3772C125.546 45.1786 125.863 44.2467 126.496 43.5813C127.13 42.9114 127.986 42.5764 129.066 42.5764C129.951 42.5764 130.652 42.7678 131.172 43.1506C131.696 43.5289 132.072 44.1077 132.3 44.887ZM137.967 47.6897L139.881 48.011C139.635 48.7128 139.245 49.2483 138.712 49.6174C138.183 49.982 137.52 50.1643 136.723 50.1643C135.46 50.1643 134.526 49.7519 133.92 48.927C133.441 48.2662 133.202 47.4322 133.202 46.425C133.202 45.2219 133.517 44.2808 134.146 43.6018C134.774 42.9182 135.57 42.5764 136.531 42.5764C137.611 42.5764 138.464 42.9342 139.088 43.6497C139.712 44.3606 140.011 45.4521 139.983 46.9241H135.171C135.185 47.4937 135.34 47.9381 135.636 48.2571C135.932 48.5715 136.301 48.7288 136.743 48.7288C137.044 48.7288 137.297 48.6467 137.502 48.4827C137.707 48.3186 137.862 48.0543 137.967 47.6897ZM138.076 45.7483C138.062 45.1923 137.919 44.7708 137.646 44.4836C137.372 44.192 137.039 44.0461 136.647 44.0461C136.228 44.0461 135.882 44.1988 135.608 44.5042C135.335 44.8095 135.201 45.2242 135.205 45.7483H138.076ZM151.529 48.2161V50.0002H144.796C144.869 49.3258 145.088 48.6877 145.452 48.0862C145.817 47.4801 146.537 46.678 147.612 45.6799C148.478 44.8733 149.009 44.3264 149.205 44.0393C149.469 43.6428 149.602 43.2509 149.602 42.8635C149.602 42.4351 149.485 42.107 149.253 41.8792C149.025 41.6467 148.708 41.5305 148.303 41.5305C147.902 41.5305 147.583 41.6513 147.346 41.8928C147.109 42.1344 146.972 42.5354 146.936 43.0959L145.021 42.9045C145.135 41.8472 145.493 41.0885 146.095 40.6282C146.696 40.1679 147.448 39.9377 148.351 39.9377C149.34 39.9377 150.117 40.2043 150.682 40.7375C151.247 41.2708 151.529 41.9338 151.529 42.7268C151.529 43.178 151.447 43.6086 151.283 44.0188C151.124 44.4244 150.868 44.8505 150.518 45.2971C150.285 45.5933 149.866 46.0194 149.26 46.5754C148.654 47.1314 148.269 47.5006 148.104 47.6829C147.945 47.8652 147.815 48.0429 147.715 48.2161H151.529ZM156.082 39.9377C157.053 39.9377 157.812 40.2841 158.358 40.9768C159.01 41.7971 159.336 43.1575 159.336 45.0579C159.336 46.9537 159.008 48.3163 158.352 49.1458C157.809 49.8293 157.053 50.1711 156.082 50.1711C155.107 50.1711 154.321 49.7974 153.724 49.05C153.127 48.2981 152.828 46.9605 152.828 45.0374C152.828 43.1506 153.156 41.7926 153.812 40.9631C154.355 40.2795 155.111 39.9377 156.082 39.9377ZM156.082 41.5305C155.85 41.5305 155.642 41.6057 155.46 41.7561C155.278 41.9019 155.136 42.1663 155.036 42.5491C154.904 43.0458 154.838 43.8821 154.838 45.0579C154.838 46.2336 154.897 47.0426 155.016 47.4846C155.134 47.9221 155.282 48.2138 155.46 48.3596C155.642 48.5055 155.85 48.5784 156.082 48.5784C156.314 48.5784 156.522 48.5055 156.704 48.3596C156.886 48.2092 157.028 47.9426 157.128 47.5598C157.26 47.0676 157.326 46.2336 157.326 45.0579C157.326 43.8821 157.267 43.0754 157.148 42.6379C157.03 42.1959 156.88 41.9019 156.697 41.7561C156.52 41.6057 156.314 41.5305 156.082 41.5305ZM163.875 39.9377C164.846 39.9377 165.604 40.2841 166.151 40.9768C166.803 41.7971 167.129 43.1575 167.129 45.0579C167.129 46.9537 166.801 48.3163 166.145 49.1458C165.602 49.8293 164.846 50.1711 163.875 50.1711C162.9 50.1711 162.114 49.7974 161.517 49.05C160.92 48.2981 160.621 46.9605 160.621 45.0374C160.621 43.1506 160.949 41.7926 161.605 40.9631C162.148 40.2795 162.904 39.9377 163.875 39.9377ZM163.875 41.5305C163.643 41.5305 163.435 41.6057 163.253 41.7561C163.071 41.9019 162.929 42.1663 162.829 42.5491C162.697 43.0458 162.631 43.8821 162.631 45.0579C162.631 46.2336 162.69 47.0426 162.809 47.4846C162.927 47.9221 163.075 48.2138 163.253 48.3596C163.435 48.5055 163.643 48.5784 163.875 48.5784C164.107 48.5784 164.315 48.5055 164.497 48.3596C164.679 48.2092 164.821 47.9426 164.921 47.5598C165.053 47.0676 165.119 46.2336 165.119 45.0579C165.119 43.8821 165.06 43.0754 164.941 42.6379C164.823 42.1959 164.673 41.9019 164.49 41.7561C164.312 41.6057 164.107 41.5305 163.875 41.5305ZM170.068 44.593C169.572 44.3834 169.209 44.0963 168.981 43.7317C168.758 43.3625 168.646 42.9592 168.646 42.5217C168.646 41.7743 168.906 41.1568 169.426 40.6692C169.95 40.1816 170.693 39.9377 171.654 39.9377C172.607 39.9377 173.345 40.1816 173.869 40.6692C174.398 41.1568 174.662 41.7743 174.662 42.5217C174.662 42.9866 174.541 43.4013 174.3 43.7659C174.058 44.1259 173.719 44.4016 173.281 44.593C173.837 44.8163 174.259 45.1422 174.546 45.5706C174.838 45.9989 174.983 46.4934 174.983 47.054C174.983 47.9791 174.687 48.731 174.095 49.3098C173.507 49.8886 172.723 50.178 171.743 50.178C170.832 50.178 170.073 49.9387 169.467 49.4602C168.751 48.8951 168.394 48.1204 168.394 47.136C168.394 46.5937 168.528 46.0969 168.797 45.6458C169.066 45.19 169.49 44.8391 170.068 44.593ZM170.465 42.6584C170.465 43.0413 170.572 43.3398 170.786 43.554C171.005 43.7681 171.294 43.8752 171.654 43.8752C172.019 43.8752 172.311 43.7681 172.529 43.554C172.748 43.3352 172.857 43.0344 172.857 42.6516C172.857 42.2916 172.748 42.0045 172.529 41.7903C172.315 41.5715 172.03 41.4622 171.675 41.4622C171.306 41.4622 171.012 41.5715 170.793 41.7903C170.574 42.009 170.465 42.2984 170.465 42.6584ZM170.287 46.9514C170.287 47.4801 170.422 47.8925 170.69 48.1887C170.964 48.4849 171.303 48.6331 171.709 48.6331C172.105 48.6331 172.434 48.4918 172.693 48.2092C172.953 47.9221 173.083 47.5097 173.083 46.9719C173.083 46.5025 172.951 46.1265 172.687 45.844C172.422 45.5569 172.087 45.4133 171.682 45.4133C171.212 45.4133 170.861 45.5751 170.629 45.8987C170.401 46.2222 170.287 46.5732 170.287 46.9514Z" fill="white"/>
<path d="M48.2344 43.9026V49.0002H28.9961C29.2044 47.0732 29.8294 45.2502 30.8711 43.5315C31.9128 41.7997 33.9701 39.5081 37.043 36.6565C39.5169 34.3518 41.0339 32.7893 41.5938 31.969C42.349 30.8362 42.7266 29.7164 42.7266 28.6096C42.7266 27.3857 42.3945 26.4482 41.7305 25.7971C41.0794 25.1331 40.1745 24.801 39.0156 24.801C37.8698 24.801 36.9583 25.1461 36.2812 25.8362C35.6042 26.5263 35.2135 27.6721 35.1094 29.2737L29.6406 28.7268C29.9661 25.706 30.9883 23.538 32.707 22.2229C34.4258 20.9078 36.5742 20.2502 39.1523 20.2502C41.9779 20.2502 44.1979 21.012 45.8125 22.5354C47.4271 24.0588 48.2344 25.9534 48.2344 28.219C48.2344 29.5081 48 30.7385 47.5312 31.9104C47.0755 33.0693 46.3464 34.2867 45.3438 35.5627C44.6797 36.4091 43.4818 37.6265 41.75 39.2151C40.0182 40.8036 38.918 41.8583 38.4492 42.3792C37.9935 42.9 37.6224 43.4078 37.3359 43.9026H48.2344Z" fill="#6C725F"/>
</svg>
