<svg width="415" height="92" viewBox="0 0 415 92" fill="none" xmlns="http://www.w3.org/2000/svg">
<path d="M0 20C0 8.95431 8.95431 0 20 0H322.806C326.057 0 329.258 0.792365 332.134 2.30849L381.446 28.3085C395.675 35.811 395.675 56.189 381.446 63.6915L332.134 89.6915C329.258 91.2076 326.057 92 322.806 92H20C8.95429 92 0 83.0457 0 72V20Z" fill="#333333"/>
<path d="M70.6953 33.3438C70.6953 32.1771 70.8698 31.1979 71.2188 30.4062C71.4792 29.8229 71.8333 29.2995 72.2812 28.8359C72.7344 28.3724 73.2292 28.0286 73.7656 27.8047C74.4792 27.5026 75.3021 27.3516 76.2344 27.3516C77.9219 27.3516 79.2708 27.875 80.2812 28.9219C81.2969 29.9688 81.8047 31.4245 81.8047 33.2891C81.8047 35.138 81.3021 36.5859 80.2969 37.6328C79.2917 38.6745 77.9479 39.1953 76.2656 39.1953C74.5625 39.1953 73.2083 38.6771 72.2031 37.6406C71.1979 36.599 70.6953 35.1667 70.6953 33.3438ZM73.0781 33.2656C73.0781 34.5625 73.3776 35.5469 73.9766 36.2188C74.5755 36.8854 75.3359 37.2188 76.2578 37.2188C77.1797 37.2188 77.9349 36.888 78.5234 36.2266C79.1172 35.5599 79.4141 34.5625 79.4141 33.2344C79.4141 31.9219 79.125 30.9427 78.5469 30.2969C77.974 29.651 77.2109 29.3281 76.2578 29.3281C75.3047 29.3281 74.5365 29.6562 73.9531 30.3125C73.3698 30.9635 73.0781 31.9479 73.0781 33.2656ZM91.1484 39H88.9531V34.7656C88.9531 33.8698 88.9062 33.2917 88.8125 33.0312C88.7188 32.7656 88.5651 32.5599 88.3516 32.4141C88.1432 32.2682 87.8906 32.1953 87.5938 32.1953C87.2135 32.1953 86.8724 32.2995 86.5703 32.5078C86.2682 32.7161 86.0599 32.9922 85.9453 33.3359C85.8359 33.6797 85.7812 34.3151 85.7812 35.2422V39H83.5859V30.7031H85.625V31.9219C86.349 30.9844 87.2604 30.5156 88.3594 30.5156C88.8438 30.5156 89.2865 30.6042 89.6875 30.7812C90.0885 30.9531 90.3906 31.1745 90.5938 31.4453C90.8021 31.7161 90.9453 32.0234 91.0234 32.3672C91.1068 32.7109 91.1484 33.2031 91.1484 33.8438V39ZM98.1875 36.3594L100.375 36.7266C100.094 37.5286 99.6484 38.1406 99.0391 38.5625C98.4349 38.9792 97.6771 39.1875 96.7656 39.1875C95.3229 39.1875 94.2552 38.7161 93.5625 37.7734C93.0156 37.0182 92.7422 36.0651 92.7422 34.9141C92.7422 33.5391 93.1016 32.4635 93.8203 31.6875C94.5391 30.9062 95.4479 30.5156 96.5469 30.5156C97.7812 30.5156 98.7552 30.9245 99.4688 31.7422C100.182 32.5547 100.523 33.8021 100.492 35.4844H94.9922C95.0078 36.1354 95.1849 36.6432 95.5234 37.0078C95.862 37.3672 96.2839 37.5469 96.7891 37.5469C97.1328 37.5469 97.4219 37.4531 97.6562 37.2656C97.8906 37.0781 98.0677 36.776 98.1875 36.3594ZM98.3125 34.1406C98.2969 33.5052 98.1328 33.0234 97.8203 32.6953C97.5078 32.362 97.1276 32.1953 96.6797 32.1953C96.2005 32.1953 95.8047 32.3698 95.4922 32.7188C95.1797 33.0677 95.026 33.5417 95.0312 34.1406H98.3125ZM106.234 34.7344C106.234 34.0052 106.414 33.2995 106.773 32.6172C107.133 31.9349 107.641 31.4141 108.297 31.0547C108.958 30.6953 109.695 30.5156 110.508 30.5156C111.763 30.5156 112.792 30.9245 113.594 31.7422C114.396 32.5547 114.797 33.5833 114.797 34.8281C114.797 36.0833 114.391 37.125 113.578 37.9531C112.771 38.776 111.753 39.1875 110.523 39.1875C109.763 39.1875 109.036 39.0156 108.344 38.6719C107.656 38.3281 107.133 37.8255 106.773 37.1641C106.414 36.4974 106.234 35.6875 106.234 34.7344ZM108.484 34.8516C108.484 35.6745 108.68 36.3047 109.07 36.7422C109.461 37.1797 109.943 37.3984 110.516 37.3984C111.089 37.3984 111.568 37.1797 111.953 36.7422C112.344 36.3047 112.539 35.6693 112.539 34.8359C112.539 34.0234 112.344 33.3984 111.953 32.9609C111.568 32.5234 111.089 32.3047 110.516 32.3047C109.943 32.3047 109.461 32.5234 109.07 32.9609C108.68 33.3984 108.484 34.0286 108.484 34.8516ZM115.562 30.7031H116.781V30.0781C116.781 29.3802 116.854 28.8594 117 28.5156C117.151 28.1719 117.424 27.8932 117.82 27.6797C118.221 27.4609 118.727 27.3516 119.336 27.3516C119.961 27.3516 120.573 27.4453 121.172 27.6328L120.875 29.1641C120.526 29.0807 120.19 29.0391 119.867 29.0391C119.549 29.0391 119.32 29.1146 119.18 29.2656C119.044 29.4115 118.977 29.6953 118.977 30.1172V30.7031H120.617V32.4297H118.977V39H116.781V32.4297H115.562V30.7031ZM130.109 30.7031V32.4531H128.609V35.7969C128.609 36.474 128.622 36.8698 128.648 36.9844C128.68 37.0938 128.745 37.1849 128.844 37.2578C128.948 37.3307 129.073 37.3672 129.219 37.3672C129.422 37.3672 129.716 37.2969 130.102 37.1562L130.289 38.8594C129.779 39.0781 129.201 39.1875 128.555 39.1875C128.159 39.1875 127.802 39.1224 127.484 38.9922C127.167 38.8568 126.932 38.6849 126.781 38.4766C126.635 38.263 126.534 37.9766 126.477 37.6172C126.43 37.362 126.406 36.8464 126.406 36.0703V32.4531H125.398V30.7031H126.406V29.0547L128.609 27.7734V30.7031H130.109ZM133.82 27.5469V31.7578C134.529 30.9297 135.375 30.5156 136.359 30.5156C136.865 30.5156 137.32 30.6094 137.727 30.7969C138.133 30.9844 138.438 31.224 138.641 31.5156C138.849 31.8073 138.99 32.1302 139.062 32.4844C139.141 32.8385 139.18 33.388 139.18 34.1328V39H136.984V34.6172C136.984 33.7474 136.943 33.1953 136.859 32.9609C136.776 32.7266 136.628 32.5417 136.414 32.4062C136.206 32.2656 135.943 32.1953 135.625 32.1953C135.26 32.1953 134.935 32.2839 134.648 32.4609C134.362 32.638 134.151 32.9062 134.016 33.2656C133.885 33.6198 133.82 34.1458 133.82 34.8438V39H131.625V27.5469H133.82ZM146.219 36.3594L148.406 36.7266C148.125 37.5286 147.68 38.1406 147.07 38.5625C146.466 38.9792 145.708 39.1875 144.797 39.1875C143.354 39.1875 142.286 38.7161 141.594 37.7734C141.047 37.0182 140.773 36.0651 140.773 34.9141C140.773 33.5391 141.133 32.4635 141.852 31.6875C142.57 30.9062 143.479 30.5156 144.578 30.5156C145.812 30.5156 146.786 30.9245 147.5 31.7422C148.214 32.5547 148.555 33.8021 148.523 35.4844H143.023C143.039 36.1354 143.216 36.6432 143.555 37.0078C143.893 37.3672 144.315 37.5469 144.82 37.5469C145.164 37.5469 145.453 37.4531 145.688 37.2656C145.922 37.0781 146.099 36.776 146.219 36.3594ZM146.344 34.1406C146.328 33.5052 146.164 33.0234 145.852 32.6953C145.539 32.362 145.159 32.1953 144.711 32.1953C144.232 32.1953 143.836 32.3698 143.523 32.7188C143.211 33.0677 143.057 33.5417 143.062 34.1406H146.344ZM154.609 30.7031H156.633V31.8359C157.357 30.9557 158.219 30.5156 159.219 30.5156C159.75 30.5156 160.211 30.625 160.602 30.8438C160.992 31.0625 161.312 31.3932 161.562 31.8359C161.927 31.3932 162.32 31.0625 162.742 30.8438C163.164 30.625 163.615 30.5156 164.094 30.5156C164.703 30.5156 165.219 30.6406 165.641 30.8906C166.062 31.1354 166.378 31.4974 166.586 31.9766C166.737 32.3307 166.812 32.9036 166.812 33.6953V39H164.617V34.2578C164.617 33.4349 164.542 32.9036 164.391 32.6641C164.188 32.3516 163.875 32.1953 163.453 32.1953C163.146 32.1953 162.857 32.2891 162.586 32.4766C162.315 32.6641 162.12 32.9401 162 33.3047C161.88 33.6641 161.82 34.2344 161.82 35.0156V39H159.625V34.4531C159.625 33.6458 159.586 33.125 159.508 32.8906C159.43 32.6562 159.307 32.4818 159.141 32.3672C158.979 32.2526 158.758 32.1953 158.477 32.1953C158.138 32.1953 157.833 32.2865 157.562 32.4688C157.292 32.651 157.096 32.9141 156.977 33.2578C156.862 33.6016 156.805 34.1719 156.805 34.9688V39H154.609V30.7031ZM168.5 34.7344C168.5 34.0052 168.68 33.2995 169.039 32.6172C169.398 31.9349 169.906 31.4141 170.562 31.0547C171.224 30.6953 171.961 30.5156 172.773 30.5156C174.029 30.5156 175.057 30.9245 175.859 31.7422C176.661 32.5547 177.062 33.5833 177.062 34.8281C177.062 36.0833 176.656 37.125 175.844 37.9531C175.036 38.776 174.018 39.1875 172.789 39.1875C172.029 39.1875 171.302 39.0156 170.609 38.6719C169.922 38.3281 169.398 37.8255 169.039 37.1641C168.68 36.4974 168.5 35.6875 168.5 34.7344ZM170.75 34.8516C170.75 35.6745 170.945 36.3047 171.336 36.7422C171.727 37.1797 172.208 37.3984 172.781 37.3984C173.354 37.3984 173.833 37.1797 174.219 36.7422C174.609 36.3047 174.805 35.6693 174.805 34.8359C174.805 34.0234 174.609 33.3984 174.219 32.9609C173.833 32.5234 173.354 32.3047 172.781 32.3047C172.208 32.3047 171.727 32.5234 171.336 32.9609C170.945 33.3984 170.75 34.0286 170.75 34.8516ZM178.016 36.6328L180.219 36.2969C180.312 36.724 180.503 37.0495 180.789 37.2734C181.076 37.4922 181.477 37.6016 181.992 37.6016C182.56 37.6016 182.987 37.4974 183.273 37.2891C183.466 37.1432 183.562 36.9479 183.562 36.7031C183.562 36.5365 183.51 36.3984 183.406 36.2891C183.297 36.1849 183.052 36.0885 182.672 36C180.901 35.6094 179.779 35.2526 179.305 34.9297C178.648 34.4818 178.32 33.8594 178.32 33.0625C178.32 32.3438 178.604 31.7396 179.172 31.25C179.74 30.7604 180.62 30.5156 181.812 30.5156C182.948 30.5156 183.792 30.7005 184.344 31.0703C184.896 31.4401 185.276 31.987 185.484 32.7109L183.414 33.0938C183.326 32.7708 183.156 32.5234 182.906 32.3516C182.661 32.1797 182.31 32.0938 181.852 32.0938C181.273 32.0938 180.859 32.1745 180.609 32.3359C180.443 32.4505 180.359 32.599 180.359 32.7812C180.359 32.9375 180.432 33.0703 180.578 33.1797C180.776 33.3255 181.458 33.5312 182.625 33.7969C183.797 34.0625 184.615 34.388 185.078 34.7734C185.536 35.1641 185.766 35.7083 185.766 36.4062C185.766 37.1667 185.448 37.8203 184.812 38.3672C184.177 38.9141 183.237 39.1875 181.992 39.1875C180.862 39.1875 179.966 38.9583 179.305 38.5C178.648 38.0417 178.219 37.4193 178.016 36.6328ZM191.5 30.7031V32.4531H190V35.7969C190 36.474 190.013 36.8698 190.039 36.9844C190.07 37.0938 190.135 37.1849 190.234 37.2578C190.339 37.3307 190.464 37.3672 190.609 37.3672C190.812 37.3672 191.107 37.2969 191.492 37.1562L191.68 38.8594C191.169 39.0781 190.591 39.1875 189.945 39.1875C189.549 39.1875 189.193 39.1224 188.875 38.9922C188.557 38.8568 188.323 38.6849 188.172 38.4766C188.026 38.263 187.924 37.9766 187.867 37.6172C187.82 37.362 187.797 36.8464 187.797 36.0703V32.4531H186.789V30.7031H187.797V29.0547L190 27.7734V30.7031H191.5ZM202.281 36.3594L204.469 36.7266C204.188 37.5286 203.742 38.1406 203.133 38.5625C202.529 38.9792 201.771 39.1875 200.859 39.1875C199.417 39.1875 198.349 38.7161 197.656 37.7734C197.109 37.0182 196.836 36.0651 196.836 34.9141C196.836 33.5391 197.195 32.4635 197.914 31.6875C198.633 30.9062 199.542 30.5156 200.641 30.5156C201.875 30.5156 202.849 30.9245 203.562 31.7422C204.276 32.5547 204.617 33.8021 204.586 35.4844H199.086C199.102 36.1354 199.279 36.6432 199.617 37.0078C199.956 37.3672 200.378 37.5469 200.883 37.5469C201.227 37.5469 201.516 37.4531 201.75 37.2656C201.984 37.0781 202.161 36.776 202.281 36.3594ZM202.406 34.1406C202.391 33.5052 202.227 33.0234 201.914 32.6953C201.602 32.362 201.221 32.1953 200.773 32.1953C200.294 32.1953 199.898 32.3698 199.586 32.7188C199.273 33.0677 199.12 33.5417 199.125 34.1406H202.406ZM205.609 36.6328L207.812 36.2969C207.906 36.724 208.096 37.0495 208.383 37.2734C208.669 37.4922 209.07 37.6016 209.586 37.6016C210.154 37.6016 210.581 37.4974 210.867 37.2891C211.06 37.1432 211.156 36.9479 211.156 36.7031C211.156 36.5365 211.104 36.3984 211 36.2891C210.891 36.1849 210.646 36.0885 210.266 36C208.495 35.6094 207.372 35.2526 206.898 34.9297C206.242 34.4818 205.914 33.8594 205.914 33.0625C205.914 32.3438 206.198 31.7396 206.766 31.25C207.333 30.7604 208.214 30.5156 209.406 30.5156C210.542 30.5156 211.385 30.7005 211.938 31.0703C212.49 31.4401 212.87 31.987 213.078 32.7109L211.008 33.0938C210.919 32.7708 210.75 32.5234 210.5 32.3516C210.255 32.1797 209.904 32.0938 209.445 32.0938C208.867 32.0938 208.453 32.1745 208.203 32.3359C208.036 32.4505 207.953 32.599 207.953 32.7812C207.953 32.9375 208.026 33.0703 208.172 33.1797C208.37 33.3255 209.052 33.5312 210.219 33.7969C211.391 34.0625 212.208 34.388 212.672 34.7734C213.13 35.1641 213.359 35.7083 213.359 36.4062C213.359 37.1667 213.042 37.8203 212.406 38.3672C211.771 38.9141 210.831 39.1875 209.586 39.1875C208.456 39.1875 207.56 38.9583 206.898 38.5C206.242 38.0417 205.812 37.4193 205.609 36.6328ZM214.516 36.6328L216.719 36.2969C216.812 36.724 217.003 37.0495 217.289 37.2734C217.576 37.4922 217.977 37.6016 218.492 37.6016C219.06 37.6016 219.487 37.4974 219.773 37.2891C219.966 37.1432 220.062 36.9479 220.062 36.7031C220.062 36.5365 220.01 36.3984 219.906 36.2891C219.797 36.1849 219.552 36.0885 219.172 36C217.401 35.6094 216.279 35.2526 215.805 34.9297C215.148 34.4818 214.82 33.8594 214.82 33.0625C214.82 32.3438 215.104 31.7396 215.672 31.25C216.24 30.7604 217.12 30.5156 218.312 30.5156C219.448 30.5156 220.292 30.7005 220.844 31.0703C221.396 31.4401 221.776 31.987 221.984 32.7109L219.914 33.0938C219.826 32.7708 219.656 32.5234 219.406 32.3516C219.161 32.1797 218.81 32.0938 218.352 32.0938C217.773 32.0938 217.359 32.1745 217.109 32.3359C216.943 32.4505 216.859 32.599 216.859 32.7812C216.859 32.9375 216.932 33.0703 217.078 33.1797C217.276 33.3255 217.958 33.5312 219.125 33.7969C220.297 34.0625 221.115 34.388 221.578 34.7734C222.036 35.1641 222.266 35.7083 222.266 36.4062C222.266 37.1667 221.948 37.8203 221.312 38.3672C220.677 38.9141 219.737 39.1875 218.492 39.1875C217.362 39.1875 216.466 38.9583 215.805 38.5C215.148 38.0417 214.719 37.4193 214.516 36.6328ZM229 36.3594L231.188 36.7266C230.906 37.5286 230.461 38.1406 229.852 38.5625C229.247 38.9792 228.49 39.1875 227.578 39.1875C226.135 39.1875 225.068 38.7161 224.375 37.7734C223.828 37.0182 223.555 36.0651 223.555 34.9141C223.555 33.5391 223.914 32.4635 224.633 31.6875C225.352 30.9062 226.26 30.5156 227.359 30.5156C228.594 30.5156 229.568 30.9245 230.281 31.7422C230.995 32.5547 231.336 33.8021 231.305 35.4844H225.805C225.82 36.1354 225.997 36.6432 226.336 37.0078C226.674 37.3672 227.096 37.5469 227.602 37.5469C227.945 37.5469 228.234 37.4531 228.469 37.2656C228.703 37.0781 228.88 36.776 229 36.3594ZM229.125 34.1406C229.109 33.5052 228.945 33.0234 228.633 32.6953C228.32 32.362 227.94 32.1953 227.492 32.1953C227.013 32.1953 226.617 32.3698 226.305 32.7188C225.992 33.0677 225.839 33.5417 225.844 34.1406H229.125ZM240.648 39H238.453V34.7656C238.453 33.8698 238.406 33.2917 238.312 33.0312C238.219 32.7656 238.065 32.5599 237.852 32.4141C237.643 32.2682 237.391 32.1953 237.094 32.1953C236.714 32.1953 236.372 32.2995 236.07 32.5078C235.768 32.7161 235.56 32.9922 235.445 33.3359C235.336 33.6797 235.281 34.3151 235.281 35.2422V39H233.086V30.7031H235.125V31.9219C235.849 30.9844 236.76 30.5156 237.859 30.5156C238.344 30.5156 238.786 30.6042 239.188 30.7812C239.589 30.9531 239.891 31.1745 240.094 31.4453C240.302 31.7161 240.445 32.0234 240.523 32.3672C240.607 32.7109 240.648 33.2031 240.648 33.8438V39ZM246.688 30.7031V32.4531H245.188V35.7969C245.188 36.474 245.201 36.8698 245.227 36.9844C245.258 37.0938 245.323 37.1849 245.422 37.2578C245.526 37.3307 245.651 37.3672 245.797 37.3672C246 37.3672 246.294 37.2969 246.68 37.1562L246.867 38.8594C246.357 39.0781 245.779 39.1875 245.133 39.1875C244.737 39.1875 244.38 39.1224 244.062 38.9922C243.745 38.8568 243.51 38.6849 243.359 38.4766C243.214 38.263 243.112 37.9766 243.055 37.6172C243.008 37.362 242.984 36.8464 242.984 36.0703V32.4531H241.977V30.7031H242.984V29.0547L245.188 27.7734V30.7031H246.688ZM248.211 29.5781V27.5469H250.406V29.5781H248.211ZM248.211 39V30.7031H250.406V39H248.211ZM254.305 33.2344L252.312 32.875C252.536 32.0729 252.922 31.4792 253.469 31.0938C254.016 30.7083 254.828 30.5156 255.906 30.5156C256.885 30.5156 257.615 30.6328 258.094 30.8672C258.573 31.0964 258.909 31.3906 259.102 31.75C259.299 32.1042 259.398 32.7578 259.398 33.7109L259.375 36.2734C259.375 37.0026 259.409 37.5417 259.477 37.8906C259.549 38.2344 259.682 38.6042 259.875 39H257.703C257.646 38.8542 257.576 38.638 257.492 38.3516C257.456 38.2214 257.43 38.1354 257.414 38.0938C257.039 38.4583 256.638 38.7318 256.211 38.9141C255.784 39.0964 255.328 39.1875 254.844 39.1875C253.99 39.1875 253.315 38.9557 252.82 38.4922C252.331 38.0286 252.086 37.4427 252.086 36.7344C252.086 36.2656 252.198 35.849 252.422 35.4844C252.646 35.1146 252.958 34.8333 253.359 34.6406C253.766 34.4427 254.349 34.2708 255.109 34.125C256.135 33.9323 256.846 33.7526 257.242 33.5859V33.3672C257.242 32.9453 257.138 32.6458 256.93 32.4688C256.721 32.2865 256.328 32.1953 255.75 32.1953C255.359 32.1953 255.055 32.2734 254.836 32.4297C254.617 32.5807 254.44 32.849 254.305 33.2344ZM257.242 35.0156C256.961 35.1094 256.516 35.2214 255.906 35.3516C255.297 35.4818 254.898 35.6094 254.711 35.7344C254.424 35.9375 254.281 36.1953 254.281 36.5078C254.281 36.8151 254.396 37.0807 254.625 37.3047C254.854 37.5286 255.146 37.6406 255.5 37.6406C255.896 37.6406 256.273 37.5104 256.633 37.25C256.898 37.0521 257.073 36.8099 257.156 36.5234C257.214 36.3359 257.242 35.9792 257.242 35.4531V35.0156ZM261.57 39V27.5469H263.766V39H261.57ZM278.086 39H276.047V37.7812C275.708 38.2552 275.307 38.6094 274.844 38.8438C274.385 39.0729 273.922 39.1875 273.453 39.1875C272.5 39.1875 271.682 38.8047 271 38.0391C270.323 37.2682 269.984 36.1953 269.984 34.8203C269.984 33.4141 270.315 32.3464 270.977 31.6172C271.638 30.8828 272.474 30.5156 273.484 30.5156C274.411 30.5156 275.214 30.901 275.891 31.6719V27.5469H278.086V39ZM272.227 34.6719C272.227 35.5573 272.349 36.1979 272.594 36.5938C272.948 37.1667 273.443 37.4531 274.078 37.4531C274.583 37.4531 275.013 37.2396 275.367 36.8125C275.721 36.3802 275.898 35.737 275.898 34.8828C275.898 33.9297 275.727 33.2448 275.383 32.8281C275.039 32.4062 274.599 32.1953 274.062 32.1953C273.542 32.1953 273.104 32.4036 272.75 32.8203C272.401 33.2318 272.227 33.849 272.227 34.6719ZM285.062 36.3594L287.25 36.7266C286.969 37.5286 286.523 38.1406 285.914 38.5625C285.31 38.9792 284.552 39.1875 283.641 39.1875C282.198 39.1875 281.13 38.7161 280.438 37.7734C279.891 37.0182 279.617 36.0651 279.617 34.9141C279.617 33.5391 279.977 32.4635 280.695 31.6875C281.414 30.9062 282.323 30.5156 283.422 30.5156C284.656 30.5156 285.63 30.9245 286.344 31.7422C287.057 32.5547 287.398 33.8021 287.367 35.4844H281.867C281.883 36.1354 282.06 36.6432 282.398 37.0078C282.737 37.3672 283.159 37.5469 283.664 37.5469C284.008 37.5469 284.297 37.4531 284.531 37.2656C284.766 37.0781 284.943 36.776 285.062 36.3594ZM285.188 34.1406C285.172 33.5052 285.008 33.0234 284.695 32.6953C284.383 32.362 284.003 32.1953 283.555 32.1953C283.076 32.1953 282.68 32.3698 282.367 32.7188C282.055 33.0677 281.901 33.5417 281.906 34.1406H285.188ZM291.445 39L288.102 30.7031H290.406L291.969 34.9375L292.422 36.3516C292.542 35.9922 292.617 35.7552 292.648 35.6406C292.721 35.4062 292.799 35.1719 292.883 34.9375L294.461 30.7031H296.719L293.422 39H291.445ZM298.07 29.5781V27.5469H300.266V29.5781H298.07ZM298.07 39V30.7031H300.266V39H298.07ZM309.758 33.1562L307.594 33.5469C307.521 33.1146 307.354 32.7891 307.094 32.5703C306.839 32.3516 306.505 32.2422 306.094 32.2422C305.547 32.2422 305.109 32.4323 304.781 32.8125C304.458 33.1875 304.297 33.8177 304.297 34.7031C304.297 35.6875 304.461 36.3828 304.789 36.7891C305.122 37.1953 305.568 37.3984 306.125 37.3984C306.542 37.3984 306.883 37.2812 307.148 37.0469C307.414 36.8073 307.602 36.3984 307.711 35.8203L309.867 36.1875C309.643 37.1771 309.214 37.9245 308.578 38.4297C307.943 38.9349 307.091 39.1875 306.023 39.1875C304.81 39.1875 303.841 38.8047 303.117 38.0391C302.398 37.2734 302.039 36.2135 302.039 34.8594C302.039 33.4896 302.401 32.4245 303.125 31.6641C303.849 30.8984 304.828 30.5156 306.062 30.5156C307.073 30.5156 307.875 30.7344 308.469 31.1719C309.068 31.6042 309.497 32.2656 309.758 33.1562ZM316.234 36.3594L318.422 36.7266C318.141 37.5286 317.695 38.1406 317.086 38.5625C316.482 38.9792 315.724 39.1875 314.812 39.1875C313.37 39.1875 312.302 38.7161 311.609 37.7734C311.062 37.0182 310.789 36.0651 310.789 34.9141C310.789 33.5391 311.148 32.4635 311.867 31.6875C312.586 30.9062 313.495 30.5156 314.594 30.5156C315.828 30.5156 316.802 30.9245 317.516 31.7422C318.229 32.5547 318.57 33.8021 318.539 35.4844H313.039C313.055 36.1354 313.232 36.6432 313.57 37.0078C313.909 37.3672 314.331 37.5469 314.836 37.5469C315.18 37.5469 315.469 37.4531 315.703 37.2656C315.938 37.0781 316.115 36.776 316.234 36.3594ZM316.359 34.1406C316.344 33.5052 316.18 33.0234 315.867 32.6953C315.555 32.362 315.174 32.1953 314.727 32.1953C314.247 32.1953 313.852 32.3698 313.539 32.7188C313.227 33.0677 313.073 33.5417 313.078 34.1406H316.359ZM319.562 36.6328L321.766 36.2969C321.859 36.724 322.049 37.0495 322.336 37.2734C322.622 37.4922 323.023 37.6016 323.539 37.6016C324.107 37.6016 324.534 37.4974 324.82 37.2891C325.013 37.1432 325.109 36.9479 325.109 36.7031C325.109 36.5365 325.057 36.3984 324.953 36.2891C324.844 36.1849 324.599 36.0885 324.219 36C322.448 35.6094 321.326 35.2526 320.852 34.9297C320.195 34.4818 319.867 33.8594 319.867 33.0625C319.867 32.3438 320.151 31.7396 320.719 31.25C321.286 30.7604 322.167 30.5156 323.359 30.5156C324.495 30.5156 325.339 30.7005 325.891 31.0703C326.443 31.4401 326.823 31.987 327.031 32.7109L324.961 33.0938C324.872 32.7708 324.703 32.5234 324.453 32.3516C324.208 32.1797 323.857 32.0938 323.398 32.0938C322.82 32.0938 322.406 32.1745 322.156 32.3359C321.99 32.4505 321.906 32.599 321.906 32.7812C321.906 32.9375 321.979 33.0703 322.125 33.1797C322.323 33.3255 323.005 33.5312 324.172 33.7969C325.344 34.0625 326.161 34.388 326.625 34.7734C327.083 35.1641 327.312 35.7083 327.312 36.4062C327.312 37.1667 326.995 37.8203 326.359 38.3672C325.724 38.9141 324.784 39.1875 323.539 39.1875C322.409 39.1875 321.513 38.9583 320.852 38.5C320.195 38.0417 319.766 37.4193 319.562 36.6328ZM70.6406 60.7344C70.6406 60.0052 70.8203 59.2995 71.1797 58.6172C71.5391 57.9349 72.0469 57.4141 72.7031 57.0547C73.3646 56.6953 74.1016 56.5156 74.9141 56.5156C76.1693 56.5156 77.1979 56.9245 78 57.7422C78.8021 58.5547 79.2031 59.5833 79.2031 60.8281C79.2031 62.0833 78.7969 63.125 77.9844 63.9531C77.1771 64.776 76.1589 65.1875 74.9297 65.1875C74.1693 65.1875 73.4427 65.0156 72.75 64.6719C72.0625 64.3281 71.5391 63.8255 71.1797 63.1641C70.8203 62.4974 70.6406 61.6875 70.6406 60.7344ZM72.8906 60.8516C72.8906 61.6745 73.0859 62.3047 73.4766 62.7422C73.8672 63.1797 74.349 63.3984 74.9219 63.3984C75.4948 63.3984 75.974 63.1797 76.3594 62.7422C76.75 62.3047 76.9453 61.6693 76.9453 60.8359C76.9453 60.0234 76.75 59.3984 76.3594 58.9609C75.974 58.5234 75.4948 58.3047 74.9219 58.3047C74.349 58.3047 73.8672 58.5234 73.4766 58.9609C73.0859 59.3984 72.8906 60.0286 72.8906 60.8516ZM88.4766 65H86.2812V60.7656C86.2812 59.8698 86.2344 59.2917 86.1406 59.0312C86.0469 58.7656 85.8932 58.5599 85.6797 58.4141C85.4714 58.2682 85.2188 58.1953 84.9219 58.1953C84.5417 58.1953 84.2005 58.2995 83.8984 58.5078C83.5964 58.7161 83.388 58.9922 83.2734 59.3359C83.1641 59.6797 83.1094 60.3151 83.1094 61.2422V65H80.9141V56.7031H82.9531V57.9219C83.6771 56.9844 84.5885 56.5156 85.6875 56.5156C86.1719 56.5156 86.6146 56.6042 87.0156 56.7812C87.4167 56.9531 87.7188 57.1745 87.9219 57.4453C88.1302 57.7161 88.2734 58.0234 88.3516 58.3672C88.4349 58.7109 88.4766 59.2031 88.4766 59.8438V65ZM98.9688 56.7031V58.4531H97.4688V61.7969C97.4688 62.474 97.4818 62.8698 97.5078 62.9844C97.5391 63.0938 97.6042 63.1849 97.7031 63.2578C97.8073 63.3307 97.9323 63.3672 98.0781 63.3672C98.2812 63.3672 98.5755 63.2969 98.9609 63.1562L99.1484 64.8594C98.638 65.0781 98.0599 65.1875 97.4141 65.1875C97.0182 65.1875 96.6615 65.1224 96.3438 64.9922C96.026 64.8568 95.7917 64.6849 95.6406 64.4766C95.4948 64.263 95.3932 63.9766 95.3359 63.6172C95.2891 63.362 95.2656 62.8464 95.2656 62.0703V58.4531H94.2578V56.7031H95.2656V55.0547L97.4688 53.7734V56.7031H98.9688ZM102.68 53.5469V57.7578C103.388 56.9297 104.234 56.5156 105.219 56.5156C105.724 56.5156 106.18 56.6094 106.586 56.7969C106.992 56.9844 107.297 57.224 107.5 57.5156C107.708 57.8073 107.849 58.1302 107.922 58.4844C108 58.8385 108.039 59.388 108.039 60.1328V65H105.844V60.6172C105.844 59.7474 105.802 59.1953 105.719 58.9609C105.635 58.7266 105.487 58.5417 105.273 58.4062C105.065 58.2656 104.802 58.1953 104.484 58.1953C104.12 58.1953 103.794 58.2839 103.508 58.4609C103.221 58.638 103.01 58.9062 102.875 59.2656C102.745 59.6198 102.68 60.1458 102.68 60.8438V65H100.484V53.5469H102.68ZM115.078 62.3594L117.266 62.7266C116.984 63.5286 116.539 64.1406 115.93 64.5625C115.326 64.9792 114.568 65.1875 113.656 65.1875C112.214 65.1875 111.146 64.7161 110.453 63.7734C109.906 63.0182 109.633 62.0651 109.633 60.9141C109.633 59.5391 109.992 58.4635 110.711 57.6875C111.43 56.9062 112.339 56.5156 113.438 56.5156C114.672 56.5156 115.646 56.9245 116.359 57.7422C117.073 58.5547 117.414 59.8021 117.383 61.4844H111.883C111.898 62.1354 112.076 62.6432 112.414 63.0078C112.753 63.3672 113.174 63.5469 113.68 63.5469C114.023 63.5469 114.312 63.4531 114.547 63.2656C114.781 63.0781 114.958 62.776 115.078 62.3594ZM115.203 60.1406C115.188 59.5052 115.023 59.0234 114.711 58.6953C114.398 58.362 114.018 58.1953 113.57 58.1953C113.091 58.1953 112.695 58.3698 112.383 58.7188C112.07 59.0677 111.917 59.5417 111.922 60.1406H115.203ZM123.539 65V53.5469H125.734V57.6719C126.411 56.901 127.214 56.5156 128.141 56.5156C129.151 56.5156 129.987 56.8828 130.648 57.6172C131.31 58.3464 131.641 59.3958 131.641 60.7656C131.641 62.1823 131.302 63.2734 130.625 64.0391C129.953 64.8047 129.135 65.1875 128.172 65.1875C127.698 65.1875 127.229 65.0703 126.766 64.8359C126.307 64.5964 125.911 64.2448 125.578 63.7812V65H123.539ZM125.719 60.6719C125.719 61.5312 125.854 62.1667 126.125 62.5781C126.505 63.1615 127.01 63.4531 127.641 63.4531C128.125 63.4531 128.536 63.2474 128.875 62.8359C129.219 62.4193 129.391 61.7656 129.391 60.875C129.391 59.9271 129.219 59.2448 128.875 58.8281C128.531 58.4062 128.091 58.1953 127.555 58.1953C127.029 58.1953 126.591 58.401 126.242 58.8125C125.893 59.2188 125.719 59.8385 125.719 60.6719ZM135.055 59.2344L133.062 58.875C133.286 58.0729 133.672 57.4792 134.219 57.0938C134.766 56.7083 135.578 56.5156 136.656 56.5156C137.635 56.5156 138.365 56.6328 138.844 56.8672C139.323 57.0964 139.659 57.3906 139.852 57.75C140.049 58.1042 140.148 58.7578 140.148 59.7109L140.125 62.2734C140.125 63.0026 140.159 63.5417 140.227 63.8906C140.299 64.2344 140.432 64.6042 140.625 65H138.453C138.396 64.8542 138.326 64.638 138.242 64.3516C138.206 64.2214 138.18 64.1354 138.164 64.0938C137.789 64.4583 137.388 64.7318 136.961 64.9141C136.534 65.0964 136.078 65.1875 135.594 65.1875C134.74 65.1875 134.065 64.9557 133.57 64.4922C133.081 64.0286 132.836 63.4427 132.836 62.7344C132.836 62.2656 132.948 61.849 133.172 61.4844C133.396 61.1146 133.708 60.8333 134.109 60.6406C134.516 60.4427 135.099 60.2708 135.859 60.125C136.885 59.9323 137.596 59.7526 137.992 59.5859V59.3672C137.992 58.9453 137.888 58.6458 137.68 58.4688C137.471 58.2865 137.078 58.1953 136.5 58.1953C136.109 58.1953 135.805 58.2734 135.586 58.4297C135.367 58.5807 135.19 58.849 135.055 59.2344ZM137.992 61.0156C137.711 61.1094 137.266 61.2214 136.656 61.3516C136.047 61.4818 135.648 61.6094 135.461 61.7344C135.174 61.9375 135.031 62.1953 135.031 62.5078C135.031 62.8151 135.146 63.0807 135.375 63.3047C135.604 63.5286 135.896 63.6406 136.25 63.6406C136.646 63.6406 137.023 63.5104 137.383 63.25C137.648 63.0521 137.823 62.8099 137.906 62.5234C137.964 62.3359 137.992 61.9792 137.992 61.4531V61.0156ZM146.125 56.7031V58.4531H144.625V61.7969C144.625 62.474 144.638 62.8698 144.664 62.9844C144.695 63.0938 144.76 63.1849 144.859 63.2578C144.964 63.3307 145.089 63.3672 145.234 63.3672C145.438 63.3672 145.732 63.2969 146.117 63.1562L146.305 64.8594C145.794 65.0781 145.216 65.1875 144.57 65.1875C144.174 65.1875 143.818 65.1224 143.5 64.9922C143.182 64.8568 142.948 64.6849 142.797 64.4766C142.651 64.263 142.549 63.9766 142.492 63.6172C142.445 63.362 142.422 62.8464 142.422 62.0703V58.4531H141.414V56.7031H142.422V55.0547L144.625 53.7734V56.7031H146.125ZM151.453 56.7031V58.4531H149.953V61.7969C149.953 62.474 149.966 62.8698 149.992 62.9844C150.023 63.0938 150.089 63.1849 150.188 63.2578C150.292 63.3307 150.417 63.3672 150.562 63.3672C150.766 63.3672 151.06 63.2969 151.445 63.1562L151.633 64.8594C151.122 65.0781 150.544 65.1875 149.898 65.1875C149.503 65.1875 149.146 65.1224 148.828 64.9922C148.51 64.8568 148.276 64.6849 148.125 64.4766C147.979 64.263 147.878 63.9766 147.82 63.6172C147.773 63.362 147.75 62.8464 147.75 62.0703V58.4531H146.742V56.7031H147.75V55.0547L149.953 53.7734V56.7031H151.453ZM152.977 65V53.5469H155.172V65H152.977ZM162.234 62.3594L164.422 62.7266C164.141 63.5286 163.695 64.1406 163.086 64.5625C162.482 64.9792 161.724 65.1875 160.812 65.1875C159.37 65.1875 158.302 64.7161 157.609 63.7734C157.062 63.0182 156.789 62.0651 156.789 60.9141C156.789 59.5391 157.148 58.4635 157.867 57.6875C158.586 56.9062 159.495 56.5156 160.594 56.5156C161.828 56.5156 162.802 56.9245 163.516 57.7422C164.229 58.5547 164.57 59.8021 164.539 61.4844H159.039C159.055 62.1354 159.232 62.6432 159.57 63.0078C159.909 63.3672 160.331 63.5469 160.836 63.5469C161.18 63.5469 161.469 63.4531 161.703 63.2656C161.938 63.0781 162.115 62.776 162.234 62.3594ZM162.359 60.1406C162.344 59.5052 162.18 59.0234 161.867 58.6953C161.555 58.362 161.174 58.1953 160.727 58.1953C160.247 58.1953 159.852 58.3698 159.539 58.7188C159.227 59.0677 159.073 59.5417 159.078 60.1406H162.359ZM165.375 56.7031H166.594V56.0781C166.594 55.3802 166.667 54.8594 166.812 54.5156C166.964 54.1719 167.237 53.8932 167.633 53.6797C168.034 53.4609 168.539 53.3516 169.148 53.3516C169.773 53.3516 170.385 53.4453 170.984 53.6328L170.688 55.1641C170.339 55.0807 170.003 55.0391 169.68 55.0391C169.362 55.0391 169.133 55.1146 168.992 55.2656C168.857 55.4115 168.789 55.6953 168.789 56.1172V56.7031H170.43V58.4297H168.789V65H166.594V58.4297H165.375V56.7031ZM171.664 55.5781V53.5469H173.859V55.5781H171.664ZM171.664 65V56.7031H173.859V65H171.664ZM180.922 62.3594L183.109 62.7266C182.828 63.5286 182.383 64.1406 181.773 64.5625C181.169 64.9792 180.411 65.1875 179.5 65.1875C178.057 65.1875 176.99 64.7161 176.297 63.7734C175.75 63.0182 175.477 62.0651 175.477 60.9141C175.477 59.5391 175.836 58.4635 176.555 57.6875C177.273 56.9062 178.182 56.5156 179.281 56.5156C180.516 56.5156 181.49 56.9245 182.203 57.7422C182.917 58.5547 183.258 59.8021 183.227 61.4844H177.727C177.742 62.1354 177.919 62.6432 178.258 63.0078C178.596 63.3672 179.018 63.5469 179.523 63.5469C179.867 63.5469 180.156 63.4531 180.391 63.2656C180.625 63.0781 180.802 62.776 180.922 62.3594ZM181.047 60.1406C181.031 59.5052 180.867 59.0234 180.555 58.6953C180.242 58.362 179.862 58.1953 179.414 58.1953C178.935 58.1953 178.539 58.3698 178.227 58.7188C177.914 59.0677 177.76 59.5417 177.766 60.1406H181.047ZM185.023 65V53.5469H187.219V65H185.023ZM197.086 65H195.047V63.7812C194.708 64.2552 194.307 64.6094 193.844 64.8438C193.385 65.0729 192.922 65.1875 192.453 65.1875C191.5 65.1875 190.682 64.8047 190 64.0391C189.323 63.2682 188.984 62.1953 188.984 60.8203C188.984 59.4141 189.315 58.3464 189.977 57.6172C190.638 56.8828 191.474 56.5156 192.484 56.5156C193.411 56.5156 194.214 56.901 194.891 57.6719V53.5469H197.086V65ZM191.227 60.6719C191.227 61.5573 191.349 62.1979 191.594 62.5938C191.948 63.1667 192.443 63.4531 193.078 63.4531C193.583 63.4531 194.013 63.2396 194.367 62.8125C194.721 62.3802 194.898 61.737 194.898 60.8828C194.898 59.9297 194.727 59.2448 194.383 58.8281C194.039 58.4062 193.599 58.1953 193.062 58.1953C192.542 58.1953 192.104 58.4036 191.75 58.8203C191.401 59.2318 191.227 59.849 191.227 60.6719Z" fill="white"/>
<path d="M34.1992 64V56.5098H18.9648V50.2637L35.1133 26.625H41.1055V50.2383H45.7266V56.5098H41.1055V64H34.1992ZM34.1992 50.2383V37.5176L25.6426 50.2383H34.1992Z" fill="#6C725F"/>
</svg>
